<?xml version="1.0" standalone="no"?>
<!DOCTYPE svg PUBLIC "-//W3C//DTD SVG 1.1//EN" "http://www.w3.org/Graphics/SVG/1.1/DTD/svg11.dtd" >
<svg xmlns="http://www.w3.org/2000/svg" xmlns:xlink="http://www.w3.org/1999/xlink" version="1.1">
<metadata>
Created by FontForge 20190801 at Fri Sep  2 14:25:55 2011
 By Jimmy Wärting
Copyright (c) 2008 by Dino dos Santos _DSType. All rights reserved.
</metadata>
<defs>
<font id="Prelo-Light" horiz-adv-x="600" >
  <font-face 
    font-family="Prelo Light"
    font-weight="300"
    font-stretch="normal"
    units-per-em="1000"
    panose-1="2 0 5 6 4 0 0 2 0 4"
    ascent="750"
    descent="-250"
    x-height="500"
    cap-height="680"
    bbox="-88 -290 1019 950"
    underline-thickness="50"
    underline-position="-100"
    stemh="47"
    stemv="52"
    unicode-range="U+0020-FB06"
  />
<missing-glyph horiz-adv-x="590" 
d="M70 500h450v-500h-450v500zM287 249l-206 236v-469zM304 249l205 -231v465zM93 488l203 -229l202 229h-405zM296 240l-201 -228h401z" />
    <glyph glyph-name="T_h" unicode="Th" horiz-adv-x="1030" 
d="M617 391v-391h-50v632h-261v-632h-52v632h-197v48h560v-255h2c53 49 118 85 193 85c100 0 150 -55 150 -163v-347h-50v337c0 73 -27 130 -120 130c-73 0 -140 -47 -175 -76z" />
    <glyph glyph-name="T_h.caron" unicode="&#x164;h" horiz-adv-x="1030" 
d="M617 391v-391h-50v632h-261v-632h-52v632h-197v48h560v-255h2c53 49 118 85 193 85c100 0 150 -55 150 -163v-347h-50v337c0 73 -27 130 -120 130c-73 0 -140 -47 -175 -76zM198 850l82 -110l83 110h40l-104 -140h-37l-104 140h40z" />
    <glyph glyph-name="T_h.commaaccent" unicode="&#x162;h" horiz-adv-x="1030" 
d="M617 391v-391h-50v632h-261v-632h-52v632h-197v48h560v-255h2c53 49 118 85 193 85c100 0 150 -55 150 -163v-347h-50v337c0 73 -27 130 -120 130c-73 0 -140 -47 -175 -76zM277 -198h-19l12 88h-13v70h45v-70z" />
    <glyph glyph-name="ff" unicode="ff" horiz-adv-x="640" 
d="M402 500v42c0 120 42 158 133 158c21 0 48 -3 72 -6l-5 -40c-25 3 -40 5 -57 5c-75 0 -93 -43 -93 -124v-35h150v-38h-150v-462h-50v462h-245v-462h-50v462h-82v34l82 4v42c0 120 42 158 133 158c21 0 48 -3 72 -6l-5 -40c-25 3 -40 5 -57 5c-75 0 -93 -43 -93 -124v-35
h245z" />
    <glyph glyph-name="ffi" unicode="ffi" horiz-adv-x="815" 
d="M402 462h-245v-462h-50v462h-82v34l82 4v42c0 120 42 158 133 158c21 0 48 -3 72 -6l-5 -40c-25 3 -40 5 -57 5c-75 0 -93 -43 -93 -124v-35h245v35c0 120 63 165 170 165c29 0 103 -8 160 -34l-7 -37c-65 26 -118 30 -148 30c-96 0 -125 -46 -125 -124v-35h295v-500h-50
v462h-245v-462h-50v462z" />
    <glyph glyph-name="f_f_j" unicode="ffj" horiz-adv-x="815" 
d="M697 -77v539h-245v-462h-50v462h-245v-462h-50v462h-82v34l82 4v42c0 120 42 158 133 158c21 0 48 -3 72 -6l-5 -40c-25 3 -40 5 -57 5c-75 0 -93 -43 -93 -124v-35h245v35c0 120 63 165 170 165c29 0 103 -8 160 -34l-7 -37c-65 26 -118 30 -148 30
c-96 0 -125 -46 -125 -124v-35h295v-584c0 -92 -37 -126 -132 -126c-21 0 -48 2 -73 6l6 40c24 -4 40 -5 57 -5c71 0 92 24 92 92z" />
    <glyph glyph-name="ffl" unicode="ffl" horiz-adv-x="815" 
d="M402 462h-245v-462h-50v462h-82v34l82 4v42c0 120 42 158 133 158c21 0 48 -3 72 -6l-5 -40c-25 3 -40 5 -57 5c-75 0 -93 -43 -93 -124v-35h245v35c0 120 63 165 170 165c26 0 82 -5 138 -29h37v-671h-50v630c-63 27 -102 29 -120 29c-96 0 -125 -46 -125 -124v-35h150
v-38h-150v-462h-50v462z" />
    <glyph glyph-name="fi" unicode="fi" horiz-adv-x="520" 
d="M107 500v35c0 120 63 165 170 165c29 0 103 -8 160 -34l-7 -37c-65 26 -118 30 -148 30c-96 0 -125 -46 -125 -124v-35h295v-500h-50v462h-245v-462h-50v462h-82v34z" />
    <glyph glyph-name="f_j" unicode="fj" horiz-adv-x="520" 
d="M402 -77v539h-245v-462h-50v462h-82v34l82 4v35c0 120 63 165 170 165c29 0 103 -8 160 -34l-7 -37c-65 26 -118 30 -148 30c-96 0 -125 -46 -125 -124v-35h295v-584c0 -92 -37 -126 -132 -126c-21 0 -48 2 -73 6l6 40c24 -4 40 -5 57 -5c71 0 92 24 92 92z" />
    <glyph glyph-name="fl" unicode="fl" horiz-adv-x="520" 
d="M157 462v-462h-50v462h-82v34l82 4v35c0 120 63 165 170 165c26 0 82 -5 138 -29h37v-671h-50v630c-63 27 -102 29 -120 29c-96 0 -125 -46 -125 -124v-35h150v-38h-150z" />
    <glyph glyph-name=".notdef" horiz-adv-x="590" 
d="M70 500h450v-500h-450v500zM287 249l-206 236v-469zM304 249l205 -231v465zM93 488l203 -229l202 229h-405zM296 240l-201 -228h401z" />
    <glyph glyph-name="space" unicode=" " horiz-adv-x="180" 
 />
    <glyph glyph-name="exclam" unicode="!" horiz-adv-x="185" 
d="M67 115h50v-115h-50v115zM67 680h50l-2 -468h-45z" />
    <glyph glyph-name="quotedbl" unicode="&#x22;" horiz-adv-x="385" 
d="M67 680h50l-5 -118h-40zM267 680h50l-5 -118h-40z" />
    <glyph glyph-name="numbersign" unicode="#" horiz-adv-x="605" 
d="M207 500h37l-14 -128h170l14 128h38l-14 -128h100l-4 -35h-100l-18 -175h100l-4 -35h-100l-13 -127h-38l14 127h-170l-14 -127h-37l13 127h-100l4 35h100l18 175h-100l4 35h100zM227 337l-19 -175h170l19 175h-170z" />
    <glyph glyph-name="dollar" unicode="$" 
d="M314 -100h-25v90c-88 2 -160 14 -222 32l10 45c80 -21 159 -30 223 -30c132 0 177 75 177 140c0 101 -123 131 -182 145c-103 26 -218 83 -218 198c0 118 91 167 212 170v90h25v-90c84 -3 133 -12 206 -33l-12 -45c-90 24 -148 30 -208 30c-133 0 -168 -61 -168 -123
c0 -100 134 -137 195 -152c104 -23 205 -71 205 -187c0 -120 -91 -186 -218 -190v-90z" />
    <glyph glyph-name="percent" unicode="%" horiz-adv-x="760" 
d="M582 680l-370 -680h-35l370 680h35zM181 418c-83 0 -129 51 -129 132c0 82 46 132 129 132c84 0 129 -50 129 -132c0 -81 -45 -132 -129 -132zM181 446c64 0 96 38 96 104s-32 104 -96 104c-63 0 -95 -38 -95 -104s32 -104 95 -104zM578 -3c-83 0 -129 51 -129 133
c0 81 46 132 129 132c84 0 129 -51 129 -132c0 -82 -45 -133 -129 -133zM578 26c64 0 96 38 96 104s-32 103 -96 103c-63 0 -95 -37 -95 -103s32 -104 95 -104z" />
    <glyph glyph-name="ampersand" unicode="&#x26;" horiz-adv-x="705" 
d="M487 545c0 -61 -35 -121 -176 -186l215 -213c41 49 71 116 84 204h47c-10 -76 -39 -168 -99 -238l89 -92l-33 -36l-91 95c-56 -53 -133 -89 -238 -89c-149 0 -221 74 -221 179c0 77 38 137 175 198c-32 36 -92 92 -92 166c0 110 90 157 178 157c99 0 162 -52 162 -145z
M295 34c66 0 139 21 197 78l-226 228c-78 -35 -150 -76 -150 -164c0 -52 29 -142 179 -142zM196 536c0 -58 39 -100 85 -148c84 37 158 85 158 158c0 97 -85 108 -115 108c-109 0 -128 -84 -128 -118z" />
    <glyph glyph-name="quotesingle" unicode="'" horiz-adv-x="185" 
d="M67 680h50l-5 -118h-40z" />
    <glyph glyph-name="parenleft" unicode="(" horiz-adv-x="330" 
d="M79 340c0 165 64 340 168 480h35c-104 -168 -153 -319 -153 -480c0 -160 49 -310 153 -480h-35c-104 140 -168 316 -168 480z" />
    <glyph glyph-name="parenright" unicode=")" horiz-adv-x="330" 
d="M251 340c0 -164 -65 -340 -169 -480h-35c105 170 154 320 154 480c0 161 -49 312 -154 480h35c104 -140 169 -315 169 -480z" />
    <glyph glyph-name="asterisk" unicode="*" horiz-adv-x="420" 
d="M198 548l-4 132h32l-3 -132l142 35l10 -31l-146 -25l95 -119l-25 -19l-90 125l-88 -125l-25 19l94 119l-145 25l9 31z" />
    <glyph glyph-name="plus" unicode="+" horiz-adv-x="500" 
d="M271 447v-161h161v-42h-161v-162h-42v162h-162v42h162v161h42z" />
    <glyph glyph-name="comma" unicode="," horiz-adv-x="185" 
d="M90 -130h-20l15 130h-18v115h50v-115z" />
    <glyph glyph-name="hyphen" unicode="-" horiz-adv-x="500" 
d="M67 286h365v-42h-365v42z" />
    <glyph glyph-name="period" unicode="." horiz-adv-x="185" 
d="M67 115h50v-115h-50v115z" />
    <glyph glyph-name="slash" unicode="/" horiz-adv-x="540" 
d="M477 680l-370 -680h-45l370 680h45z" />
    <glyph glyph-name="zero" unicode="0" horiz-adv-x="590" 
d="M295 647c-144 0 -175 -147 -175 -302s31 -313 175 -313s175 158 175 313s-31 302 -175 302zM295 -10c-181 0 -228 164 -228 355c0 187 47 345 228 345s227 -158 227 -345c0 -191 -46 -355 -227 -355z" />
    <glyph glyph-name="one" unicode="1" horiz-adv-x="361" 
d="M238 622l-191 -110l-15 43c79 40 167 89 221 130h35v-685h-50v622z" />
    <glyph glyph-name="two" unicode="2" horiz-adv-x="550" 
d="M260 644c-54 0 -105 -9 -177 -45l-16 41c65 30 123 50 203 50c141 0 202 -94 202 -199c0 -140 -103 -282 -333 -444v-2h343v-45h-415v51c310 210 353 351 353 428c0 147 -113 165 -160 165z" />
    <glyph glyph-name="three" unicode="3" horiz-adv-x="570" 
d="M343 346v-2c97 -15 159 -80 159 -169c0 -117 -73 -185 -226 -185c-75 0 -150 13 -209 46l17 39c55 -29 119 -43 190 -43c163 0 177 99 177 145c0 79 -56 142 -191 142h-80v42h78c116 0 175 74 175 148c0 49 -22 138 -159 138c-65 0 -120 -16 -172 -43l-16 40
c58 31 129 46 195 46c130 0 201 -67 201 -177c0 -89 -65 -146 -139 -167z" />
    <glyph glyph-name="four" unicode="4" horiz-adv-x="590" 
d="M110 235h270v379h-2c-68 -137 -167 -265 -268 -379zM366 680h64v-445h102v-43h-102v-192h-50v192h-323v43c110 120 237 284 309 445z" />
    <glyph glyph-name="five" unicode="5" horiz-adv-x="570" 
d="M270 -10c-78 0 -138 18 -203 50l16 39c72 -37 126 -47 184 -47c109 0 183 66 183 180c0 79 -38 169 -160 169c-63 0 -113 -28 -153 -84l-39 4l19 379h345v-45h-301l-18 -290l2 -1c35 46 92 81 160 81c124 0 197 -79 197 -210c0 -144 -92 -225 -232 -225z" />
    <glyph glyph-name="six" unicode="6" horiz-adv-x="570" 
d="M117 350l2 -1c43 63 105 106 177 106c130 0 206 -85 206 -235c0 -144 -91 -230 -209 -230c-182 0 -226 152 -226 310c0 295 123 390 272 390c65 0 102 -11 142 -23l-7 -40c-48 14 -85 20 -131 20c-186 0 -222 -202 -226 -297zM121 305c-4 -140 23 -273 168 -273
c85 0 161 66 161 188c0 83 -30 191 -166 191c-67 0 -125 -47 -163 -106z" />
    <glyph glyph-name="seven" unicode="7" horiz-adv-x="500" 
d="M387 633v2h-330v45h385v-38c-104 -168 -231 -407 -270 -642h-55c30 199 165 475 270 633z" />
    <glyph glyph-name="eight" unicode="8" horiz-adv-x="590" 
d="M343 359v-2c99 -39 179 -87 179 -186c0 -111 -82 -181 -228 -181c-145 0 -227 68 -227 177c0 100 85 151 179 184v2c-90 32 -159 80 -159 171c0 103 85 166 209 166c122 0 206 -63 206 -164c0 -89 -64 -129 -159 -167zM119 171c0 -73 44 -142 177 -142
c132 0 175 67 175 138c0 96 -96 133 -183 165c-83 -28 -169 -71 -169 -161zM294 651c-57 0 -157 -23 -157 -127c0 -80 73 -121 163 -146c85 29 152 66 152 143c0 106 -99 130 -158 130z" />
    <glyph glyph-name="nine" unicode="9" horiz-adv-x="570" 
d="M452 329l-2 1c-42 -62 -105 -105 -176 -105c-130 0 -207 85 -207 235c0 144 92 230 210 230c182 0 225 -153 225 -310c0 -295 -123 -390 -271 -390c-65 0 -102 11 -143 23l8 39c48 -13 84 -20 131 -20c186 0 222 202 225 297zM449 375c4 140 -23 272 -168 272
c-85 0 -161 -65 -161 -187c0 -83 30 -191 166 -191c66 0 125 47 163 106z" />
    <glyph glyph-name="colon" unicode=":" horiz-adv-x="185" 
d="M67 115h50v-115h-50v115zM67 460h50v-115h-50v115z" />
    <glyph glyph-name="semicolon" unicode=";" horiz-adv-x="185" 
d="M90 -130h-20l15 130h-18v115h50v-115zM67 460h50v-115h-50v115z" />
    <glyph glyph-name="less" unicode="&#x3c;" horiz-adv-x="380" 
d="M67 266l245 164v-47l-192 -133l192 -134v-46l-245 164v32z" />
    <glyph glyph-name="equal" unicode="=" horiz-adv-x="500" 
d="M67 386h365v-42h-365v42zM67 186h365v-42h-365v42z" />
    <glyph glyph-name="greater" unicode="&#x3e;" horiz-adv-x="380" 
d="M312 234l-245 -167v47l193 136l-193 136v46l245 -166v-32z" />
    <glyph glyph-name="question" unicode="?" horiz-adv-x="480" 
d="M237 690c149 0 185 -91 185 -168c0 -183 -197 -172 -197 -282v-30h-45v30c0 135 191 124 191 278c0 116 -100 124 -146 124c-33 0 -89 -9 -153 -34l-15 44c54 21 117 38 180 38zM177 115h50v-115h-50v115z" />
    <glyph glyph-name="at" unicode="@" horiz-adv-x="830" 
d="M553 334v-236c172 0 213 142 213 227c0 181 -153 296 -332 296c-214 0 -370 -148 -370 -368c0 -201 143 -343 338 -343l-3 -30c-216 0 -369 160 -369 373c0 233 171 399 404 399c202 0 366 -132 366 -326c0 -142 -84 -260 -249 -260h-38v39h-2c-36 -31 -76 -46 -129 -46
c-77 0 -128 39 -128 109c0 80 57 118 164 118h95v46c0 61 -23 96 -100 96c-29 0 -78 -6 -127 -21l-9 29c46 15 99 25 145 25c84 0 131 -29 131 -127zM513 133v126h-94c-98 0 -124 -35 -124 -88c0 -48 33 -80 100 -80c58 0 98 25 118 42z" />
    <glyph glyph-name="A" unicode="A" horiz-adv-x="650" 
d="M544 0l-67 191h-304l-70 -191h-56l249 685h65l241 -685h-58zM328 620h-2l-141 -384h281z" />
    <glyph glyph-name="B" unicode="B" horiz-adv-x="610" 
d="M413 348v-2c92 -18 139 -83 139 -167c0 -109 -65 -179 -192 -179h-283v680h263c127 0 192 -71 192 -171c0 -81 -40 -141 -119 -161zM337 322h-207v-275h222c93 0 145 47 145 138c0 84 -52 137 -160 137zM477 501c0 80 -50 131 -142 131h-205v-262h205
c92 0 142 44 142 131z" />
    <glyph glyph-name="C" unicode="C" horiz-adv-x="620" 
d="M67 345c0 187 52 345 278 345c74 0 147 -10 225 -33l-12 -45c-101 25 -152 30 -209 30c-189 0 -227 -142 -227 -297c0 -165 38 -308 227 -308c57 0 108 5 209 30l12 -45c-78 -22 -151 -32 -225 -32c-226 0 -278 160 -278 355z" />
    <glyph glyph-name="D" unicode="D" horiz-adv-x="650" 
d="M309 0h-232v680h232c211 0 273 -148 273 -335c0 -191 -62 -345 -273 -345zM130 47h179c176 0 218 143 218 298s-42 287 -218 287h-179v-585z" />
    <glyph glyph-name="E" unicode="E" horiz-adv-x="560" 
d="M487 680v-48h-357v-255h312v-47h-312v-283h362v-47h-415v680h410z" />
    <glyph glyph-name="F" unicode="F" horiz-adv-x="535" 
d="M477 680v-48h-347v-275h302v-47h-302v-310h-53v680h400z" />
    <glyph glyph-name="G" unicode="G" horiz-adv-x="640" 
d="M345 -10c-226 0 -278 160 -278 355c0 187 52 345 278 345c74 0 140 -10 217 -33l-12 -45c-100 25 -144 30 -201 30c-189 0 -227 -142 -227 -297c0 -165 38 -308 227 -308c65 0 116 19 161 49v201h-155v48h207v-284c-52 -29 -116 -61 -217 -61z" />
    <glyph glyph-name="H" unicode="H" horiz-adv-x="640" 
d="M130 0h-53v680h53v-303h380v303h52v-680h-52v330h-380v-330z" />
    <glyph glyph-name="I" unicode="I" horiz-adv-x="207" 
d="M130 0h-53v680h53v-680z" />
    <glyph glyph-name="J" unicode="J" horiz-adv-x="317" 
d="M240 680v-520c0 -130 -50 -170 -140 -170c-26 0 -54 2 -79 6l5 45c26 -4 42 -5 61 -5c75 0 100 40 100 127v517h53z" />
    <glyph glyph-name="K" unicode="K" horiz-adv-x="619" 
d="M130 680v-396l367 396h63l-252 -278l259 -402h-66l-232 360l-139 -148v-212h-53v680h53z" />
    <glyph glyph-name="L" unicode="L" horiz-adv-x="540" 
d="M77 680h53v-633h352v-47h-405v680z" />
    <glyph glyph-name="M" unicode="M" horiz-adv-x="800" 
d="M145 680l255 -593h2l253 593h67v-680h-52v577h-2l-249 -577h-40l-248 577h-2v-577h-52v680h68z" />
    <glyph glyph-name="N" unicode="N" horiz-adv-x="650" 
d="M129 0h-52v680h53l389 -582h2v582h51v-680h-52l-389 577h-2v-577z" />
    <glyph glyph-name="O" unicode="O" horiz-adv-x="690" 
d="M345 645c-191 0 -223 -145 -223 -300s32 -310 223 -310s222 155 222 310s-31 300 -222 300zM345 -10c-226 0 -278 164 -278 355c0 187 52 345 278 345s277 -158 277 -345c0 -191 -51 -355 -277 -355z" />
    <glyph glyph-name="P" unicode="P" 
d="M347 300h-217v-300h-53v680h270c128 0 195 -83 195 -190c0 -115 -67 -190 -195 -190zM130 632v-285h212c93 0 147 49 147 143c0 86 -54 142 -147 142h-212z" />
    <glyph glyph-name="Q" unicode="Q" horiz-adv-x="690" 
d="M67 345c0 187 52 345 278 345s277 -158 277 -345c0 -185 -53 -333 -243 -339c19 -30 70 -49 126 -54c33 -3 68 -3 105 1v-48c-36 -4 -71 -5 -105 -2c-76 7 -141 35 -174 87c-213 7 -264 168 -264 355zM345 645c-191 0 -223 -145 -223 -300s32 -310 223 -310
s222 155 222 310s-31 300 -222 300z" />
    <glyph glyph-name="R" unicode="R" horiz-adv-x="615" 
d="M564 0h-62l-181 287h-191v-287h-53v680h270c128 0 195 -89 195 -196c0 -100 -59 -178 -166 -189zM130 632v-297h205c92 0 154 55 154 149c0 86 -54 148 -147 148h-212z" />
    <glyph glyph-name="S" unicode="S" 
d="M300 -10c-73 0 -155 10 -233 32l10 45c100 -25 165 -30 223 -30c130 0 177 74 177 139c0 101 -115 129 -182 146c-103 25 -218 83 -218 198c0 122 98 170 223 170c72 0 142 -10 220 -33l-12 -45c-101 25 -151 30 -208 30c-130 0 -168 -60 -168 -123
c0 -99 127 -135 195 -152c104 -23 205 -71 205 -187c0 -125 -97 -190 -232 -190z" />
    <glyph glyph-name="T" unicode="T" horiz-adv-x="560" 
d="M502 632h-196v-632h-52v632h-197v48h445v-48z" />
    <glyph glyph-name="U" unicode="U" horiz-adv-x="640" 
d="M324 35c175 0 186 127 186 205v440h52v-440c0 -173 -78 -250 -242 -250s-243 77 -243 250v440h53v-440c0 -78 7 -205 194 -205z" />
    <glyph glyph-name="V" unicode="V" horiz-adv-x="650" 
d="M330 60h1l216 620h55l-241 -685h-65l-249 685h59z" />
    <glyph glyph-name="W" unicode="W" horiz-adv-x="940" 
d="M471 596h-2l-164 -601h-69l-189 685h59l166 -614h1l167 614h63l167 -614h1l166 614h55l-188 -685h-69z" />
    <glyph glyph-name="X" unicode="X" horiz-adv-x="650" 
d="M535 0l-213 314h-2l-209 -314h-60l237 358l-213 322h62l186 -277h2l185 277h62l-214 -322l241 -358h-64z" />
    <glyph glyph-name="Y" unicode="Y" horiz-adv-x="620" 
d="M310 296h2l203 384h57l-236 -440v-240h-52v240l-237 440h61z" />
    <glyph glyph-name="Z" unicode="Z" horiz-adv-x="560" 
d="M124 49v-2h386v-47h-460v40l379 590v2h-359v48h430v-40z" />
    <glyph glyph-name="bracketleft" unicode="[" horiz-adv-x="300" 
d="M120 -108h132v-32h-185v960h185v-33h-132v-895z" />
    <glyph glyph-name="backslash" unicode="\" horiz-adv-x="540" 
d="M432 0l-370 680h45l370 -680h-45z" />
    <glyph glyph-name="bracketright" unicode="]" horiz-adv-x="300" 
d="M47 -108h133v895h-133v33h185v-960h-185v32z" />
    <glyph glyph-name="asciicircum" unicode="^" horiz-adv-x="380" 
d="M189 670l-92 -160h-30l104 190h37l104 -190h-30z" />
    <glyph glyph-name="underscore" unicode="_" horiz-adv-x="500" 
d="M67 -60h365v-33h-365v33z" />
    <glyph glyph-name="grave" unicode="`" horiz-adv-x="237" 
d="M137 560l-77 140h52l65 -140h-40z" />
    <glyph glyph-name="a" unicode="a" horiz-adv-x="505" 
d="M255 467c-37 0 -85 -2 -161 -17l-8 41c64 13 129 19 179 19c112 0 172 -38 172 -163v-347h-50v50h-2c-53 -41 -100 -60 -168 -60c-100 0 -165 52 -165 141c0 102 74 149 210 149h125v65c0 80 -34 122 -132 122zM387 84v163h-122c-126 0 -163 -44 -163 -112
c0 -61 45 -105 133 -105c74 0 126 32 152 54z" />
    <glyph glyph-name="b" unicode="b" horiz-adv-x="530" 
d="M117 700v-250h2c40 35 101 60 166 60c140 0 187 -113 187 -260c0 -148 -50 -260 -190 -260c-63 0 -125 24 -165 59h-2l-9 -50h-39v701h50zM420 250c0 115 -34 217 -153 217c-67 0 -124 -33 -150 -53v-328c26 -21 83 -54 150 -54c119 0 153 103 153 218z" />
    <glyph glyph-name="c" unicode="c" horiz-adv-x="480" 
d="M57 250c0 152 62 260 233 260c61 0 105 -6 165 -21l-10 -42c-77 20 -123 20 -155 20c-133 0 -180 -97 -180 -217s47 -218 180 -218c32 0 78 0 155 20l10 -41c-60 -15 -104 -21 -165 -21c-171 0 -233 107 -233 260z" />
    <glyph glyph-name="d" unicode="d" horiz-adv-x="530" 
d="M412 0v50h-2c-39 -35 -100 -60 -165 -60c-140 0 -188 112 -188 260c0 147 50 260 190 260c64 0 124 -24 163 -59h2v249h50v-700h-50zM110 250c0 -115 34 -218 152 -218c68 0 125 33 150 54v328c-25 20 -82 53 -150 53c-118 0 -152 -102 -152 -217z" />
    <glyph glyph-name="e" unicode="e" horiz-adv-x="530" 
d="M472 247h-361c1 -125 49 -215 193 -215c54 0 103 4 156 20l7 -41c-58 -16 -105 -21 -170 -21c-177 0 -240 107 -240 260c0 152 63 260 233 260c157 0 196 -103 191 -202c-1 -20 -5 -40 -9 -61zM287 470c-127 0 -169 -86 -176 -189h313c5 21 7 42 5 63
c-3 68 -41 126 -142 126z" />
    <glyph glyph-name="f" unicode="f" horiz-adv-x="345" 
d="M157 567v-67h135v-38h-135v-462h-50v462h-82v34l82 4v74c0 92 38 126 133 126c21 0 48 -3 72 -6l-5 -40c-25 3 -40 5 -57 5c-71 0 -93 -24 -93 -92z" />
    <glyph glyph-name="g" unicode="g" horiz-adv-x="555" 
d="M82 -73c0 -58 44 -102 167 -102c119 0 213 41 213 124c0 36 -22 68 -103 72l-195 10c-47 -29 -82 -55 -82 -104zM265 212c87 0 142 51 142 128c0 79 -55 135 -142 135c-99 0 -146 -56 -146 -135s55 -128 146 -128zM135 40v2c-29 13 -40 39 -36 67c3 31 23 65 57 89v2
c-51 25 -85 72 -85 140c0 105 71 170 194 170c29 0 47 -5 65 -10h167v-33h-113c58 -34 70 -89 70 -127c0 -108 -83 -163 -189 -163c-27 0 -62 6 -81 14c-12 -11 -21 -23 -28 -36c-19 -37 -14 -80 31 -82l189 -11c105 -6 139 -48 139 -105c0 -102 -87 -167 -280 -167
c-123 0 -195 40 -195 130c0 46 30 85 95 120z" />
    <glyph glyph-name="h" unicode="h" horiz-adv-x="530" 
d="M117 391v-391h-50v700h50v-275h2c53 49 118 85 193 85c100 0 150 -55 150 -163v-347h-50v337c0 73 -27 130 -120 130c-73 0 -140 -47 -175 -76z" />
    <glyph glyph-name="i" unicode="i" horiz-adv-x="185" 
d="M67 500h50v-500h-50v500zM67 680h50v-113h-50v113z" />
    <glyph glyph-name="j" unicode="j" horiz-adv-x="225" 
d="M157 500v-584c0 -92 -37 -126 -132 -126c-21 0 -48 2 -73 6l6 40c24 -4 40 -5 57 -5c71 0 92 24 92 92v577h50zM107 680h50v-113h-50v113z" />
    <glyph glyph-name="k" unicode="k" horiz-adv-x="530" 
d="M117 700v-434l293 234h62l-197 -165l207 -335h-59l-184 307l-122 -96v-211h-50v700h50z" />
    <glyph glyph-name="l" unicode="l" horiz-adv-x="185" 
d="M67 0v700h50v-700h-50z" />
    <glyph glyph-name="m" unicode="m" horiz-adv-x="830" 
d="M117 391v-391h-50v500h50v-75h2c42 41 96 85 171 85s122 -31 140 -92c44 45 109 92 182 92c100 0 150 -55 150 -163v-347h-50v337c0 73 -28 130 -120 130c-65 0 -120 -47 -156 -78c2 -16 4 -34 4 -54v-335h-50v339c-1 71 -29 128 -120 128c-66 0 -118 -46 -153 -76z" />
    <glyph glyph-name="n" unicode="n" horiz-adv-x="530" 
d="M117 391v-391h-50v500h50v-75h2c53 49 118 85 193 85c100 0 150 -55 150 -163v-347h-50v337c0 73 -27 130 -120 130c-73 0 -140 -47 -175 -76z" />
    <glyph glyph-name="o" unicode="o" horiz-adv-x="550" 
d="M275 467c-127 0 -165 -100 -165 -217c0 -118 38 -218 165 -218s165 100 165 218c0 117 -38 217 -165 217zM275 -10c-159 0 -218 107 -218 260c0 152 59 260 218 260s217 -108 217 -260c0 -153 -58 -260 -217 -260z" />
    <glyph glyph-name="p" unicode="p" horiz-adv-x="530" 
d="M117 500v-50h2c40 35 101 60 166 60c140 0 187 -113 187 -260c0 -148 -50 -260 -190 -260c-63 0 -123 24 -163 59h-2v-249h-50v700h50zM420 250c0 115 -34 217 -153 217c-67 0 -124 -33 -150 -53v-328c26 -21 83 -54 150 -54c119 0 153 103 153 218z" />
    <glyph glyph-name="q" unicode="q" horiz-adv-x="530" 
d="M412 -200v250h-2c-39 -35 -100 -60 -165 -60c-140 0 -188 112 -188 260c0 147 50 260 190 260c64 0 125 -24 166 -59h2l9 50h38v-701h-50zM110 250c0 -115 34 -218 152 -218c68 0 125 33 150 54v328c-25 20 -82 53 -150 53c-118 0 -152 -102 -152 -217z" />
    <glyph glyph-name="r" unicode="r" horiz-adv-x="370" 
d="M117 386v-386h-50v500h50v-80h2c50 45 123 90 203 90v-48c-82 0 -165 -46 -205 -76z" />
    <glyph glyph-name="s" unicode="s" horiz-adv-x="480" 
d="M427 134c0 -90 -58 -144 -172 -144c-74 0 -143 6 -203 21l10 41c78 -20 155 -21 188 -21c121 0 127 80 127 100c0 41 -20 77 -138 101c-99 19 -177 50 -177 148c0 82 59 130 173 130c74 0 130 -6 190 -21l-10 -42c-77 20 -145 22 -178 22c-120 0 -125 -71 -125 -88
c0 -41 18 -79 133 -102c115 -24 182 -57 182 -145z" />
    <glyph glyph-name="t" unicode="t" horiz-adv-x="375" 
d="M107 148v314h-82v34l82 4l7 140h43v-140h155v-38h-155v-307c0 -81 20 -124 98 -124c17 0 32 1 57 5l5 -40c-24 -4 -56 -6 -77 -6c-91 0 -133 38 -133 158z" />
    <glyph glyph-name="u" unicode="u" horiz-adv-x="530" 
d="M412 109v391h50v-500h-50v75h-2c-53 -49 -118 -85 -193 -85c-100 0 -150 55 -150 162v348h50v-338c0 -72 29 -130 120 -130c74 0 140 48 175 77z" />
    <glyph glyph-name="v" unicode="v" horiz-adv-x="560" 
d="M309 -5h-59l-195 505h56l169 -446h2l169 446h54z" />
    <glyph glyph-name="w" unicode="w" horiz-adv-x="790" 
d="M396 422h-2l-125 -427h-55l-159 505h55l135 -446h2l125 446h48l130 -446h2l130 446h53l-155 -505h-55z" />
    <glyph glyph-name="x" unicode="x" horiz-adv-x="545" 
d="M437 0l-168 223h-2l-164 -223h-56l194 261l-179 239h59l152 -202h2l149 202h55l-178 -238l196 -262h-60z" />
    <glyph glyph-name="y" unicode="y" horiz-adv-x="560" 
d="M259 -12l-204 512h56l176 -454h2l162 454h54l-200 -543c-42 -117 -96 -167 -180 -167c-21 0 -43 2 -60 6l5 43c17 -4 31 -5 45 -5c85 0 119 91 144 154z" />
    <glyph glyph-name="z" unicode="z" horiz-adv-x="470" 
d="M426 500v-38l-324 -420v-2h332v-40h-398v37l325 421v2h-310v40h375z" />
    <glyph glyph-name="braceleft" unicode="{" horiz-adv-x="340" 
d="M180 5c0 -120 61 -120 112 -120v-25c-101 0 -165 23 -165 146c0 61 10 130 10 189c0 64 0 117 -70 127v35c70 10 70 64 70 128c0 59 -10 128 -10 189c0 123 64 146 165 146v-25c-51 0 -112 0 -112 -120c0 -61 11 -154 11 -216c0 -79 -32 -107 -81 -118v-2
c49 -11 81 -39 81 -118c0 -62 -11 -155 -11 -216z" />
    <glyph glyph-name="bar" unicode="|" horiz-adv-x="190" 
d="M112 -100h-35v880h35v-880z" />
    <glyph glyph-name="braceright" unicode="}" horiz-adv-x="340" 
d="M160 675c0 120 -61 120 -113 120v25c102 0 165 -23 165 -146c0 -61 -10 -130 -10 -189c0 -64 0 -118 70 -128v-35c-70 -10 -70 -63 -70 -127c0 -59 10 -128 10 -189c0 -123 -63 -146 -165 -146v25c52 0 113 0 113 120c0 61 -11 154 -11 216c0 79 31 107 81 118v2
c-50 11 -81 39 -81 118c0 62 11 155 11 216z" />
    <glyph glyph-name="asciitilde" unicode="~" horiz-adv-x="456" 
d="M151 337c-19 0 -37 -2 -89 -54l-17 14c43 56 70 77 105 77c47 0 146 -62 180 -62c18 0 39 4 65 49l16 -16c-22 -43 -44 -68 -81 -68c-38 0 -141 60 -179 60z" />
    <glyph glyph-name="Euro" unicode="&#x20ac;" horiz-adv-x="700" 
d="M193 426h217l-6 -32h-218c-1 -17 -1 -33 -1 -49c0 -20 1 -40 2 -59h223l-6 -32h-209c19 -116 80 -217 220 -217c79 0 146 29 206 79l19 -41c-35 -28 -104 -85 -233 -85c-168 0 -248 115 -270 264h-77v32h72c-1 19 -2 39 -2 59c0 16 1 32 1 49h-71v32h76
c20 149 100 264 271 264c129 0 198 -57 233 -85l-19 -41c-60 50 -127 78 -206 78c-144 0 -204 -99 -222 -216z" />
    <glyph glyph-name="quotesinglbase" unicode="&#x201a;" horiz-adv-x="185" 
d="M90 -145h-20l15 130h-18v115h50v-115z" />
    <glyph glyph-name="florin" unicode="&#x192;" horiz-adv-x="345" 
d="M107 -45v507h-82v34l82 4v42c0 120 42 158 133 158c21 0 48 -3 72 -6l-5 -40c-25 3 -40 5 -57 5c-75 0 -93 -43 -93 -124v-35h150v-38h-150v-507c0 -120 -37 -165 -132 -165c-21 0 -48 2 -73 6l6 40c24 -4 40 -5 57 -5c75 0 92 43 92 124z" />
    <glyph glyph-name="quotedblbase" unicode="&#x201e;" horiz-adv-x="405" 
d="M90 -145h-20l15 130h-18v115h50v-115zM310 -145h-20l15 130h-18v115h50v-115z" />
    <glyph glyph-name="ellipsis" unicode="&#x2026;" horiz-adv-x="585" 
d="M67 115h50v-115h-50v115zM467 115h50v-115h-50v115zM267 115h50v-115h-50v115z" />
    <glyph glyph-name="dagger" unicode="&#x2020;" horiz-adv-x="580" 
d="M512 452l-198 3l2 -455h-52l2 455l-199 -3v48l199 -3l-2 203h52l-2 -203l198 3v-48z" />
    <glyph glyph-name="daggerdbl" unicode="&#x2021;" horiz-adv-x="580" 
d="M266 255v190l-199 -3v48l199 -3l-2 213h52l-2 -213l198 3v-48l-198 3v-190l198 2v-47l-198 2l2 -212h-52l2 212l-199 -2v47z" />
    <glyph glyph-name="circumflex" unicode="&#x2c6;" horiz-adv-x="375" 
d="M187 670l-82 -110h-40l104 140h37l104 -140h-40z" />
    <glyph glyph-name="perthousand" unicode="&#x2030;" horiz-adv-x="1070" 
d="M582 680l-370 -680h-35l370 680h35zM181 418c-83 0 -129 51 -129 132c0 82 46 132 129 132c84 0 129 -50 129 -132c0 -81 -45 -132 -129 -132zM181 446c64 0 96 38 96 104s-32 104 -96 104c-63 0 -95 -38 -95 -104s32 -104 95 -104zM578 -3c-83 0 -129 51 -129 133
c0 81 46 132 129 132c84 0 129 -51 129 -132c0 -82 -45 -133 -129 -133zM578 26c64 0 96 38 96 104s-32 103 -96 103c-63 0 -95 -37 -95 -103s32 -104 95 -104zM888 -3c-83 0 -129 51 -129 133c0 81 46 132 129 132c84 0 129 -51 129 -132c0 -82 -45 -133 -129 -133zM888 26
c64 0 96 38 96 104s-32 103 -96 103c-63 0 -95 -37 -95 -103s32 -104 95 -104z" />
    <glyph glyph-name="Scaron" unicode="&#x160;" 
d="M300 -10c-73 0 -155 10 -233 32l10 45c100 -25 165 -30 223 -30c130 0 177 74 177 139c0 101 -115 129 -182 146c-103 25 -218 83 -218 198c0 122 98 170 223 170c72 0 142 -10 220 -33l-12 -45c-101 25 -151 30 -208 30c-130 0 -168 -60 -168 -123
c0 -99 127 -135 195 -152c104 -23 205 -71 205 -187c0 -125 -97 -190 -232 -190zM217 850l82 -110l83 110h40l-104 -140h-37l-104 140h40z" />
    <glyph glyph-name="guilsinglleft" unicode="&#x2039;" horiz-adv-x="380" 
d="M67 266l245 166v-46l-192 -136l192 -136v-47l-245 167v32z" />
    <glyph glyph-name="OE" unicode="&#x152;" horiz-adv-x="1049" 
d="M976 680v-48h-357v-255h312v-47h-312v-283h362v-47h-414v161h-1c-34 -167 -185 -171 -221 -171c-232 0 -278 172 -278 355c0 187 52 345 278 345c137 0 196 -72 221 -166h1v156h409zM345 645c-191 0 -223 -145 -223 -300s32 -310 223 -310s222 155 222 319
c0 152 -35 291 -222 291z" />
    <glyph glyph-name="Zcaron" unicode="&#x17d;" horiz-adv-x="560" 
d="M124 49v-2h386v-47h-460v40l379 590v2h-359v48h430v-40zM197 850l82 -110l83 110h40l-104 -140h-37l-104 140h40z" />
    <glyph glyph-name="quoteleft" unicode="&#x2018;" horiz-adv-x="185" 
d="M95 680h20l-15 -130h17v-115h-50v115z" />
    <glyph glyph-name="quoteright" unicode="&#x2019;" horiz-adv-x="185" 
d="M90 435h-20l15 130h-18v115h50v-115z" />
    <glyph glyph-name="quotedblleft" unicode="&#x201c;" horiz-adv-x="405" 
d="M95 680h20l-15 -130h17v-115h-50v115zM315 680h20l-15 -130h17v-115h-50v115z" />
    <glyph glyph-name="quotedblright" unicode="&#x201d;" horiz-adv-x="405" 
d="M90 435h-20l15 130h-18v115h50v-115zM310 435h-20l15 130h-18v115h50v-115z" />
    <glyph glyph-name="bullet" unicode="&#x2022;" horiz-adv-x="225" 
d="M87 307h50v-115h-50v115z" />
    <glyph glyph-name="endash" unicode="&#x2013;" horiz-adv-x="692" 
d="M67 286h558v-42h-558v42z" />
    <glyph glyph-name="emdash" unicode="&#x2014;" horiz-adv-x="760" 
d="M67 286h625v-42h-625v42z" />
    <glyph glyph-name="tilde" unicode="&#x2dc;" horiz-adv-x="446" 
d="M171 635c-25 0 -37 -3 -89 -55l-17 20c43 56 70 74 105 74c47 0 96 -62 130 -62c18 0 39 7 65 51l16 -20c-22 -44 -47 -68 -81 -68c-38 0 -91 60 -129 60z" />
    <glyph glyph-name="trademark" unicode="&#x2122;" horiz-adv-x="785" 
d="M441 680l126 -291h2l128 291h43v-344h-33v281h-2l-126 -281h-26l-122 281h-2v-281h-31v344h43zM299 650h-111v-314h-32v314h-111v30h254v-30z" />
    <glyph glyph-name="scaron" unicode="&#x161;" horiz-adv-x="480" 
d="M427 134c0 -90 -58 -144 -172 -144c-74 0 -143 6 -203 21l10 41c78 -20 155 -21 188 -21c121 0 127 80 127 100c0 41 -20 77 -138 101c-99 19 -177 50 -177 148c0 82 59 130 173 130c74 0 130 -6 190 -21l-10 -42c-77 20 -145 22 -178 22c-120 0 -125 -71 -125 -88
c0 -41 18 -79 133 -102c115 -24 182 -57 182 -145zM166 700l82 -110l83 110h40l-104 -140h-37l-104 140h40z" />
    <glyph glyph-name="guilsinglright" unicode="&#x203a;" horiz-adv-x="380" 
d="M312 234l-245 -167v47l193 136l-193 136v46l245 -166v-32z" />
    <glyph glyph-name="oe" unicode="&#x153;" horiz-adv-x="913" 
d="M855 247h-361c1 -125 48 -215 192 -215c55 0 104 4 157 20l7 -41c-59 -16 -105 -21 -170 -21c-126 0 -190 61 -213 152c-22 -91 -80 -152 -192 -152c-159 0 -218 107 -218 260c0 152 59 260 218 260c112 0 170 -62 192 -153c23 91 85 153 206 153
c160 0 192 -105 192 -184c0 -30 -6 -61 -10 -79zM275 467c-127 0 -165 -100 -165 -217c0 -118 38 -218 165 -218c124 0 165 96 165 218c0 117 -38 217 -165 217zM670 470c-127 0 -169 -86 -176 -189h313c4 17 7 35 7 52c0 70 -37 137 -144 137z" />
    <glyph glyph-name="zcaron" unicode="&#x17e;" horiz-adv-x="470" 
d="M426 500v-38l-324 -420v-2h332v-40h-398v37l325 421v2h-310v40h375zM152 700l82 -110l83 110h40l-104 -140h-37l-104 140h40z" />
    <glyph glyph-name="Ydieresis" unicode="&#x178;" horiz-adv-x="620" 
d="M310 296h2l203 384h57l-236 -440v-240h-52v240l-237 440h61zM186 845h43v-110h-43v110zM391 845h43v-110h-43v110z" />
    <glyph glyph-name="exclamdown" unicode="&#xa1;" horiz-adv-x="185" 
d="M117 385h-50v115h50v-115zM117 -180h-50l3 467h45z" />
    <glyph glyph-name="cent" unicode="&#xa2;" horiz-adv-x="517" 
d="M309 -100h-25v90c-142 4 -224 110 -224 260c0 149 82 256 224 260v90h25v-91c60 -2 100 -15 148 -35l-6 -40c-53 19 -86 31 -142 33v-434c56 0 89 13 142 33l6 -40c-48 -21 -88 -34 -148 -35v-91zM112 250c0 -115 59 -211 172 -217v433c-113 -5 -172 -103 -172 -216z" />
    <glyph glyph-name="sterling" unicode="&#xa3;" horiz-adv-x="612" 
d="M405 325h-245v-280h365v-45h-465v45h50v280h-50v40h50v155c0 122 95 170 220 170c89 0 170 -23 222 -55l-21 -42c-70 38 -138 49 -199 49c-132 0 -172 -61 -172 -128v-149h245v-40z" />
    <glyph glyph-name="currency" unicode="&#xa4;" horiz-adv-x="513" 
d="M100 249c0 45 18 85 48 114l-78 90l8 8l79 -90c27 22 62 36 100 36c37 0 72 -14 99 -36l78 90l9 -8l-78 -89c31 -29 50 -70 50 -115s-19 -86 -49 -114l76 -86l-9 -9l-77 87c-27 -22 -62 -35 -99 -35c-38 0 -73 13 -100 35l-76 -87l-9 9l76 86c-30 29 -48 69 -48 114z
M112 249c0 -79 66 -145 145 -145s146 66 146 145s-67 146 -146 146s-145 -67 -145 -146z" />
    <glyph glyph-name="yen" unicode="&#xa5;" horiz-adv-x="645" 
d="M357 257h168v-32h-176v-225h-53v225h-176v32h167l-227 423h60l203 -384h2l202 384h58z" />
    <glyph glyph-name="brokenbar" unicode="&#xa6;" horiz-adv-x="170" 
d="M102 -100h-35v400h35v-400zM102 380h-35v400h35v-400z" />
    <glyph glyph-name="section" unicode="&#xa7;" horiz-adv-x="585" 
d="M525 326h-55c0 101 -116 129 -183 146c-103 25 -217 83 -217 198c0 122 97 170 222 170c73 0 143 -10 220 -33l-12 -45c-100 25 -150 30 -208 30c-130 0 -167 -60 -167 -123c0 -99 127 -135 195 -152c103 -23 207 -71 205 -191zM70 370h55c0 -99 127 -136 195 -153
c103 -23 205 -71 205 -187c0 -125 -98 -190 -233 -190c-72 0 -155 10 -232 32l10 45c100 -25 165 -30 222 -30c130 0 178 74 178 139c0 101 -116 129 -183 146c-103 25 -217 83 -217 198z" />
    <glyph glyph-name="dieresis" unicode="&#xa8;" horiz-adv-x="432" 
d="M92 685h43v-110h-43v110zM297 685h43v-110h-43v110z" />
    <glyph glyph-name="copyright" unicode="&#xa9;" horiz-adv-x="765" 
d="M30 340c0 195 157 350 352 350s353 -155 353 -350s-158 -350 -353 -350s-352 155 -352 350zM56 340c0 -180 146 -325 326 -325s327 145 327 325s-147 324 -327 324s-326 -144 -326 -324zM386 486c-92 0 -127 -54 -127 -142c0 -93 35 -153 127 -153c36 0 72 8 106 30
l13 -24c-23 -16 -61 -35 -121 -35c-107 0 -160 66 -160 182c0 109 53 172 160 172c60 0 98 -19 121 -35l-12 -26c-35 22 -71 31 -107 31z" />
    <glyph glyph-name="ordfeminine" unicode="&#xaa;" horiz-adv-x="297" 
d="M154 664c-18 0 -42 -2 -80 -9l-4 21c32 6 64 9 89 9c56 0 86 -19 86 -81v-174h-25v25c-28 -21 -51 -30 -85 -30c-50 0 -83 27 -83 71c0 51 38 74 105 74h63v32c0 41 -17 62 -66 62zM220 472v82h-61c-63 0 -82 -23 -82 -56c0 -31 23 -53 67 -53c37 0 63 16 76 27z" />
    <glyph glyph-name="guillemotleft" unicode="&#xab;" horiz-adv-x="632" 
d="M67 266l245 166v-46l-192 -136l192 -136v-47l-245 167v32zM320 266l245 166v-46l-193 -136l193 -136v-47l-245 167v32z" />
    <glyph glyph-name="logicalnot" unicode="&#xac;" horiz-adv-x="590" 
d="M87 286h415v-154h-42v112h-373v42z" />
    <glyph glyph-name="uni00AD" unicode="&#xad;" horiz-adv-x="500" 
d="M67 286h365v-42h-365v42z" />
    <glyph glyph-name="registered" unicode="&#xae;" horiz-adv-x="765" 
d="M527 168h-41l-103 123h-87v-123h-33v344h134c79 0 120 -44 120 -108s-36 -104 -98 -109zM296 482v-162h97c59 0 90 28 90 84c0 48 -31 78 -86 78h-101zM30 340c0 195 157 350 352 350s353 -155 353 -350s-158 -350 -353 -350s-352 155 -352 350zM56 340
c0 -180 146 -325 326 -325s327 145 327 325s-147 324 -327 324s-326 -144 -326 -324z" />
    <glyph glyph-name="macron" unicode="&#xaf;" horiz-adv-x="425" 
d="M65 642h295v-35h-295v35z" />
    <glyph glyph-name="degree" unicode="&#xb0;" horiz-adv-x="261" 
d="M45 594c0 48 38 86 86 86c47 0 85 -38 85 -86c0 -47 -38 -86 -85 -86c-48 0 -86 39 -86 86zM67 594c0 -36 27 -64 64 -64c36 0 63 28 63 64s-27 64 -63 64c-37 0 -64 -28 -64 -64z" />
    <glyph glyph-name="plusminus" unicode="&#xb1;" horiz-adv-x="500" 
d="M67 102h162v145h-162v43h162v159h42v-159h161v-43h-161v-145h161v-42h-365v42z" />
    <glyph glyph-name="twosuperior" unicode="&#xb2;" horiz-adv-x="315" 
d="M149 849c-26 0 -52 -6 -88 -24l-9 22c32 17 64 28 104 28c70 0 101 -47 101 -100c0 -70 -52 -140 -165 -219v-1h170v-25h-210v28c154 104 176 173 176 211c0 72 -56 80 -79 80z" />
    <glyph glyph-name="threesuperior" unicode="&#xb3;" horiz-adv-x="325" 
d="M193 698c48 -9 79 -41 79 -85c0 -59 -38 -93 -114 -93c-38 0 -77 8 -106 26l10 22c27 -15 58 -25 95 -25c73 0 86 42 86 65c0 42 -22 75 -93 75h-40v24h38c57 0 86 35 86 72c0 25 -12 67 -76 67c-34 0 -62 -12 -87 -24l-9 22c28 16 64 26 99 26c65 0 101 -34 101 -89
c0 -44 -32 -72 -69 -83z" />
    <glyph glyph-name="acute" unicode="&#xb4;" horiz-adv-x="237" 
d="M177 700l-77 -140h-40l65 140h52z" />
    <glyph glyph-name="mu" unicode="&#xb5;" horiz-adv-x="530" 
d="M117 500v-347c3 -68 33 -121 120 -121c74 0 140 48 175 77v391h50v-500h-50v75h-2c-49 -44 -108 -79 -175 -82c-59 -1 -99 18 -118 62v-100c0 -126 -44 -165 -135 -165c-21 0 -45 2 -70 6l6 40c24 -4 40 -5 57 -5c79 0 92 49 92 124v545h50z" />
    <glyph glyph-name="paragraph" unicode="&#xb6;" horiz-adv-x="557" 
d="M512 657h-82v-657h-25v657h-67v-362h-92c-120 0 -201 78 -201 193c0 120 81 192 201 192h266v-23z" />
    <glyph glyph-name="periodcentered" unicode="&#xb7;" horiz-adv-x="225" 
d="M87 307h50v-115h-50v115z" />
    <glyph glyph-name="cedilla" unicode="&#xb8;" horiz-adv-x="291" 
d="M120 -73v73h22v-58c41 -2 84 -19 84 -71c0 -46 -35 -76 -93 -76c-24 0 -43 4 -68 12l4 20c16 -5 32 -10 56 -10c55 0 68 37 68 57s-12 53 -73 53z" />
    <glyph glyph-name="onesuperior" unicode="&#xb9;" horiz-adv-x="305" 
d="M49 553h105v286l-93 -53l-9 23c40 19 84 43 111 64h19v-320h105v-23h-238v23z" />
    <glyph glyph-name="ordmasculine" unicode="&#xba;" horiz-adv-x="322" 
d="M162 664c-64 0 -83 -50 -83 -109s19 -109 83 -109c63 0 82 50 82 109s-19 109 -82 109zM162 425c-80 0 -110 54 -110 130s30 130 110 130c79 0 108 -54 108 -130s-29 -130 -108 -130z" />
    <glyph glyph-name="guillemotright" unicode="&#xbb;" horiz-adv-x="632" 
d="M320 432l245 -166v-32l-245 -167v47l192 136l-192 136v46zM67 432l245 -166v-32l-245 -167v47l193 136l-193 136v46z" />
    <glyph glyph-name="onequarter" unicode="&#xbc;" horiz-adv-x="800" 
d="M663 340h36v-221h51v-24h-51v-95h-28v95h-161v24c55 60 118 141 153 221zM50 353h105v286l-94 -53l-8 23c40 19 84 43 111 64h19v-320h105v-23h-238v23zM641 680l-370 -680h-20l370 680h20zM540 119h131v184c-34 -67 -82 -129 -131 -184z" />
    <glyph glyph-name="onehalf" unicode="&#xbd;" horiz-adv-x="800" 
d="M637 319c-27 0 -52 -6 -88 -24l-9 22c32 17 64 28 104 28c70 0 101 -47 101 -100c0 -70 -52 -140 -165 -219v-1h170v-25h-210v28c153 104 176 173 176 211c0 72 -56 80 -79 80zM50 353h105v286l-94 -53l-8 23c40 19 84 43 111 64h19v-320h105v-23h-238v23zM621 680
l-370 -680h-20l370 680h20z" />
    <glyph glyph-name="threequarters" unicode="&#xbe;" horiz-adv-x="800" 
d="M641 680l-370 -680h-20l370 680h20zM540 119h131v184c-34 -67 -82 -129 -131 -184zM663 340h36v-221h51v-24h-51v-95h-28v95h-161v24c55 60 118 141 153 221zM191 498c48 -9 79 -41 79 -85c0 -59 -38 -93 -115 -93c-37 0 -77 8 -105 26l9 22c27 -15 59 -25 96 -25
c73 0 85 42 85 65c0 42 -22 75 -92 75h-41v24h39c57 0 86 35 86 72c0 25 -12 67 -77 67c-34 0 -62 -12 -87 -24l-9 22c28 16 64 26 100 26c64 0 101 -34 101 -89c0 -44 -32 -72 -69 -83z" />
    <glyph glyph-name="questiondown" unicode="&#xbf;" horiz-adv-x="480" 
d="M242 -190c-148 0 -185 91 -185 167c0 184 198 172 198 283v30h45v-30c0 -136 -191 -124 -191 -278c0 -116 100 -125 146 -125c33 0 88 10 152 34l15 -43c-54 -22 -116 -38 -180 -38zM302 385h-50v115h50v-115z" />
    <glyph glyph-name="Agrave" unicode="&#xc0;" horiz-adv-x="650" 
d="M544 0l-67 191h-304l-70 -191h-56l249 685h65l241 -685h-58zM328 620h-2l-141 -384h281zM302 710l-77 140h52l65 -140h-40z" />
    <glyph glyph-name="Aacute" unicode="&#xc1;" horiz-adv-x="650" 
d="M544 0l-67 191h-304l-70 -191h-56l249 685h65l241 -685h-58zM328 620h-2l-141 -384h281zM429 850l-77 -140h-40l65 140h52z" />
    <glyph glyph-name="Acircumflex" unicode="&#xc2;" horiz-adv-x="650" 
d="M544 0l-67 191h-304l-70 -191h-56l249 685h65l241 -685h-58zM328 620h-2l-141 -384h281zM324 820l-82 -110h-40l104 140h37l104 -140h-40z" />
    <glyph glyph-name="Atilde" unicode="&#xc3;" horiz-adv-x="650" 
d="M544 0l-67 191h-304l-70 -191h-56l249 685h65l241 -685h-58zM328 620h-2l-141 -384h281zM273 795c-25 0 -37 -3 -89 -55l-17 20c43 56 70 74 105 74c47 0 96 -62 130 -62c18 0 39 7 65 51l16 -20c-22 -44 -47 -68 -81 -68c-38 0 -91 60 -129 60z" />
    <glyph glyph-name="Adieresis" unicode="&#xc4;" horiz-adv-x="650" 
d="M544 0l-67 191h-304l-70 -191h-56l249 685h65l241 -685h-58zM328 620h-2l-141 -384h281zM201 845h43v-110h-43v110zM406 845h43v-110h-43v110z" />
    <glyph glyph-name="Aring" unicode="&#xc5;" horiz-adv-x="650" 
d="M544 0l-67 191h-304l-70 -191h-56l249 685h65l241 -685h-58zM328 620h-2l-141 -384h281zM252 790c0 42 32 72 73 72c42 0 74 -30 74 -72s-32 -73 -74 -73c-41 0 -73 31 -73 73zM272 790c0 -31 23 -54 53 -54c31 0 53 23 53 54c0 30 -22 54 -53 54c-30 0 -53 -24 -53 -54z
" />
    <glyph glyph-name="AE" unicode="&#xc6;" horiz-adv-x="926" 
d="M443 296h-179l-163 -296h-54l369 680h437v-48h-357v-255h312v-47h-312v-283h362v-47h-415v296zM441 631l-158 -292h160v292h-2z" />
    <glyph glyph-name="Ccedilla" unicode="&#xc7;" horiz-adv-x="620" 
d="M67 345c0 187 52 345 278 345c74 0 147 -10 225 -33l-12 -45c-101 25 -152 30 -209 30c-189 0 -227 -142 -227 -297c0 -165 38 -308 227 -308c57 0 108 5 209 30l12 -45c-76 -22 -149 -32 -219 -32v-48c40 -2 83 -19 83 -71c0 -46 -35 -76 -92 -76c-24 0 -43 4 -69 12
l5 20c16 -5 31 -10 57 -10c55 0 66 37 66 57s-12 53 -73 53v63c-212 7 -261 164 -261 355z" />
    <glyph glyph-name="Egrave" unicode="&#xc8;" horiz-adv-x="560" 
d="M487 680v-48h-357v-255h312v-47h-312v-283h362v-47h-415v680h410zM278 710l-77 140h52l65 -140h-40z" />
    <glyph glyph-name="Eacute" unicode="&#xc9;" horiz-adv-x="560" 
d="M487 680v-48h-357v-255h312v-47h-312v-283h362v-47h-415v680h410zM367 850l-77 -140h-40l65 140h52z" />
    <glyph glyph-name="Ecircumflex" unicode="&#xca;" horiz-adv-x="560" 
d="M487 680v-48h-357v-255h312v-47h-312v-283h362v-47h-415v680h410zM291 820l-82 -110h-40l104 140h37l104 -140h-40z" />
    <glyph glyph-name="Edieresis" unicode="&#xcb;" horiz-adv-x="560" 
d="M487 680v-48h-357v-255h312v-47h-312v-283h362v-47h-415v680h410zM159 845h43v-110h-43v110zM364 845h43v-110h-43v110z" />
    <glyph glyph-name="Igrave" unicode="&#xcc;" horiz-adv-x="207" 
d="M130 0h-53v680h53v-680zM84 710l-77 140h52l65 -140h-40z" />
    <glyph glyph-name="Iacute" unicode="&#xcd;" horiz-adv-x="207" 
d="M130 0h-53v680h53v-680zM201 850l-77 -140h-40l65 140h52z" />
    <glyph glyph-name="Icircumflex" unicode="&#xce;" horiz-adv-x="207" 
d="M129 0h-53v680h53v-680zM103 820l-82 -110h-40l104 140h37l104 -140h-40z" />
    <glyph glyph-name="Idieresis" unicode="&#xcf;" horiz-adv-x="207" 
d="M131 0h-53v680h53v-680zM-21 845h43v-110h-43v110zM184 845h43v-110h-43v110z" />
    <glyph glyph-name="Eth" unicode="&#xd0;" horiz-adv-x="655" 
d="M314 0h-232v329h-55v32h55v319h232c211 0 273 -148 273 -335c0 -191 -62 -345 -273 -345zM135 47h179c176 0 218 143 218 298s-42 287 -218 287h-179v-271h130v-32h-130v-282z" />
    <glyph glyph-name="Ntilde" unicode="&#xd1;" horiz-adv-x="650" 
d="M129 0h-52v680h53l389 -582h2v582h51v-680h-52l-389 577h-2v-577zM273 795c-25 0 -37 -3 -89 -55l-17 20c43 56 70 74 105 74c47 0 96 -62 130 -62c18 0 39 7 65 51l16 -20c-22 -44 -47 -68 -81 -68c-38 0 -91 60 -129 60z" />
    <glyph glyph-name="Ograve" unicode="&#xd2;" horiz-adv-x="690" 
d="M345 645c-191 0 -223 -145 -223 -300s32 -310 223 -310s222 155 222 310s-31 300 -222 300zM345 -10c-226 0 -278 164 -278 355c0 187 52 345 278 345s277 -158 277 -345c0 -191 -51 -355 -277 -355zM334 710l-77 140h52l65 -140h-40z" />
    <glyph glyph-name="Oacute" unicode="&#xd3;" horiz-adv-x="690" 
d="M345 645c-191 0 -223 -145 -223 -300s32 -310 223 -310s222 155 222 310s-31 300 -222 300zM345 -10c-226 0 -278 164 -278 355c0 187 52 345 278 345s277 -158 277 -345c0 -191 -51 -355 -277 -355zM440 850l-77 -140h-40l65 140h52z" />
    <glyph glyph-name="Ocircumflex" unicode="&#xd4;" horiz-adv-x="690" 
d="M345 645c-191 0 -223 -145 -223 -300s32 -310 223 -310s222 155 222 310s-31 300 -222 300zM345 -10c-226 0 -278 164 -278 355c0 187 52 345 278 345s277 -158 277 -345c0 -191 -51 -355 -277 -355zM344 820l-82 -110h-40l104 140h37l104 -140h-40z" />
    <glyph glyph-name="Otilde" unicode="&#xd5;" horiz-adv-x="690" 
d="M345 645c-191 0 -223 -145 -223 -300s32 -310 223 -310s222 155 222 310s-31 300 -222 300zM345 -10c-226 0 -278 164 -278 355c0 187 52 345 278 345s277 -158 277 -345c0 -191 -51 -355 -277 -355zM293 795c-25 0 -37 -3 -89 -55l-17 20c43 56 70 74 105 74
c47 0 96 -62 130 -62c18 0 39 7 65 51l16 -20c-22 -44 -47 -68 -81 -68c-38 0 -91 60 -129 60z" />
    <glyph glyph-name="Odieresis" unicode="&#xd6;" horiz-adv-x="690" 
d="M345 645c-191 0 -223 -145 -223 -300s32 -310 223 -310s222 155 222 310s-31 300 -222 300zM345 -10c-226 0 -278 164 -278 355c0 187 52 345 278 345s277 -158 277 -345c0 -191 -51 -355 -277 -355zM221 845h43v-110h-43v110zM426 845h43v-110h-43v110z" />
    <glyph glyph-name="multiply" unicode="&#xd7;" horiz-adv-x="479" 
d="M412 407l-142 -142l142 -142l-30 -30l-142 142l-143 -142l-30 30l143 142l-143 142l30 30l143 -142l142 142z" />
    <glyph glyph-name="Oslash" unicode="&#xd8;" horiz-adv-x="690" 
d="M345 -10c-98 0 -162 30 -204 81l-77 -98l-19 16l80 100c-44 65 -58 157 -58 256c0 187 52 345 278 345c93 0 156 -29 198 -74l82 103l20 -15l-85 -106c48 -63 62 -154 62 -253c0 -191 -51 -355 -277 -355zM345 35c191 0 222 155 222 310c0 76 -8 153 -43 208l-350 -442
c33 -47 86 -76 171 -76zM345 645c-191 0 -223 -145 -223 -300c0 -75 7 -152 40 -209l350 440c-33 42 -86 69 -167 69z" />
    <glyph glyph-name="Ugrave" unicode="&#xd9;" horiz-adv-x="640" 
d="M324 35c175 0 186 127 186 205v440h52v-440c0 -173 -78 -250 -242 -250s-243 77 -243 250v440h53v-440c0 -78 7 -205 194 -205zM303 710l-77 140h52l65 -140h-40z" />
    <glyph glyph-name="Uacute" unicode="&#xda;" horiz-adv-x="640" 
d="M324 35c175 0 186 127 186 205v440h52v-440c0 -173 -78 -250 -242 -250s-243 77 -243 250v440h53v-440c0 -78 7 -205 194 -205zM416 850l-77 -140h-40l65 140h52z" />
    <glyph glyph-name="Ucircumflex" unicode="&#xdb;" horiz-adv-x="640" 
d="M324 35c175 0 186 127 186 205v440h52v-440c0 -173 -78 -250 -242 -250s-243 77 -243 250v440h53v-440c0 -78 7 -205 194 -205zM319 820l-82 -110h-40l104 140h37l104 -140h-40z" />
    <glyph glyph-name="Udieresis" unicode="&#xdc;" horiz-adv-x="640" 
d="M324 35c175 0 186 127 186 205v440h52v-440c0 -173 -78 -250 -242 -250s-243 77 -243 250v440h53v-440c0 -78 7 -205 194 -205zM196 845h43v-110h-43v110zM401 845h43v-110h-43v110z" />
    <glyph glyph-name="Yacute" unicode="&#xdd;" horiz-adv-x="620" 
d="M310 296h2l203 384h57l-236 -440v-240h-52v240l-237 440h61zM416 850l-77 -140h-40l65 140h52z" />
    <glyph glyph-name="Thorn" unicode="&#xde;" 
d="M345 155h-215v-155h-53v680h53v-145h215c127 0 197 -83 197 -190c0 -115 -70 -190 -197 -190zM130 487v-285h210c92 0 149 49 149 143c0 86 -57 142 -149 142h-210z" />
    <glyph glyph-name="germandbls" unicode="&#xdf;" horiz-adv-x="645" 
d="M320 700c124 0 192 -56 192 -150c0 -126 -131 -145 -131 -194c0 -25 29 -38 49 -45c112 -34 162 -85 162 -163c0 -117 -95 -158 -188 -158c-50 0 -91 8 -129 20l7 40c43 -14 85 -20 118 -20c133 0 140 92 140 117c0 93 -109 120 -141 134c-50 20 -67 38 -67 70
c0 64 124 79 124 191c0 99 -89 117 -140 117c-142 0 -159 -102 -159 -182v-477h-50v462h-82v34l82 4c0 158 103 200 213 200z" />
    <glyph glyph-name="agrave" unicode="&#xe0;" horiz-adv-x="505" 
d="M255 467c-37 0 -85 -2 -161 -17l-8 41c64 13 129 19 179 19c112 0 172 -38 172 -163v-347h-50v50h-2c-53 -41 -100 -60 -168 -60c-100 0 -165 52 -165 141c0 102 74 149 210 149h125v65c0 80 -34 122 -132 122zM387 84v163h-122c-126 0 -163 -44 -163 -112
c0 -61 45 -105 133 -105c74 0 126 32 152 54zM249 560l-77 140h52l65 -140h-40z" />
    <glyph glyph-name="aacute" unicode="&#xe1;" horiz-adv-x="505" 
d="M255 467c-37 0 -85 -2 -161 -17l-8 41c64 13 129 19 179 19c112 0 172 -38 172 -163v-347h-50v50h-2c-53 -41 -100 -60 -168 -60c-100 0 -165 52 -165 141c0 102 74 149 210 149h125v65c0 80 -34 122 -132 122zM387 84v163h-122c-126 0 -163 -44 -163 -112
c0 -61 45 -105 133 -105c74 0 126 32 152 54zM355 700l-77 -140h-40l65 140h52z" />
    <glyph glyph-name="acircumflex" unicode="&#xe2;" horiz-adv-x="505" 
d="M255 467c-37 0 -85 -2 -161 -17l-8 41c64 13 129 19 179 19c112 0 172 -38 172 -163v-347h-50v50h-2c-53 -41 -100 -60 -168 -60c-100 0 -165 52 -165 141c0 102 74 149 210 149h125v65c0 80 -34 122 -132 122zM387 84v163h-122c-126 0 -163 -44 -163 -112
c0 -61 45 -105 133 -105c74 0 126 32 152 54zM261 670l-82 -110h-40l104 140h37l104 -140h-40z" />
    <glyph glyph-name="atilde" unicode="&#xe3;" horiz-adv-x="505" 
d="M255 467c-37 0 -85 -2 -161 -17l-8 41c64 13 129 19 179 19c112 0 172 -38 172 -163v-347h-50v50h-2c-53 -41 -100 -60 -168 -60c-100 0 -165 52 -165 141c0 102 74 149 210 149h125v65c0 80 -34 122 -132 122zM387 84v163h-122c-126 0 -163 -44 -163 -112
c0 -61 45 -105 133 -105c74 0 126 32 152 54zM217 635c-25 0 -37 -3 -89 -55l-17 20c43 56 70 74 105 74c47 0 96 -62 130 -62c18 0 39 7 65 51l16 -20c-22 -44 -47 -68 -81 -68c-38 0 -91 60 -129 60z" />
    <glyph glyph-name="adieresis" unicode="&#xe4;" horiz-adv-x="505" 
d="M255 467c-37 0 -85 -2 -161 -17l-8 41c64 13 129 19 179 19c112 0 172 -38 172 -163v-347h-50v50h-2c-53 -41 -100 -60 -168 -60c-100 0 -165 52 -165 141c0 102 74 149 210 149h125v65c0 80 -34 122 -132 122zM387 84v163h-122c-126 0 -163 -44 -163 -112
c0 -61 45 -105 133 -105c74 0 126 32 152 54zM138 685h43v-110h-43v110zM343 685h43v-110h-43v110z" />
    <glyph glyph-name="aring" unicode="&#xe5;" horiz-adv-x="505" 
d="M255 467c-37 0 -85 -2 -161 -17l-8 41c64 13 129 19 179 19c112 0 172 -38 172 -163v-347h-50v50h-2c-53 -41 -100 -60 -168 -60c-100 0 -165 52 -165 141c0 102 74 149 210 149h125v65c0 80 -34 122 -132 122zM387 84v163h-122c-126 0 -163 -44 -163 -112
c0 -61 45 -105 133 -105c74 0 126 32 152 54zM193 620c0 42 32 72 73 72c42 0 74 -30 74 -72s-32 -73 -74 -73c-41 0 -73 31 -73 73zM213 620c0 -31 23 -54 53 -54c31 0 53 23 53 54c0 30 -22 54 -53 54c-30 0 -53 -24 -53 -54z" />
    <glyph glyph-name="ae" unicode="&#xe6;" horiz-adv-x="860" 
d="M802 247h-361c1 -128 52 -215 193 -215c54 0 103 4 156 20l7 -41c-58 -16 -105 -21 -170 -21c-102 0 -166 35 -202 94c-66 -73 -141 -94 -208 -94c-93 0 -165 46 -165 141c0 134 126 149 210 149h125v65c0 80 -34 122 -132 122c-37 0 -85 -2 -161 -17l-8 41
c60 12 130 19 179 19c97 0 145 -34 158 -131c27 79 88 131 197 131c166 0 191 -113 191 -187c0 -29 -5 -59 -9 -76zM235 30c73 0 134 32 176 75c-24 50 -23 106 -24 142h-122c-126 0 -163 -44 -163 -112c0 -61 45 -105 133 -105zM617 470c-127 0 -169 -86 -176 -189h313
c3 13 6 32 6 51c0 63 -28 138 -143 138z" />
    <glyph glyph-name="ccedilla" unicode="&#xe7;" horiz-adv-x="480" 
d="M57 250c0 152 62 260 233 260c61 0 105 -6 165 -21l-10 -42c-77 20 -123 20 -155 20c-133 0 -180 -97 -180 -217s47 -218 180 -218c32 0 78 0 155 20l10 -41c-60 -15 -103 -21 -163 -21v-48c40 -2 84 -19 84 -71c0 -46 -36 -76 -93 -76c-24 0 -43 4 -68 12l4 20
c16 -5 32 -10 57 -10c55 0 66 37 66 57s-11 53 -73 53v64c-155 7 -212 112 -212 259z" />
    <glyph glyph-name="egrave" unicode="&#xe8;" horiz-adv-x="530" 
d="M472 247h-361c1 -125 49 -215 193 -215c54 0 103 4 156 20l7 -41c-58 -16 -105 -21 -170 -21c-177 0 -240 107 -240 260c0 152 63 260 233 260c157 0 196 -103 191 -202c-1 -20 -5 -40 -9 -61zM287 470c-127 0 -169 -86 -176 -189h313c5 21 7 42 5 63
c-3 68 -41 126 -142 126zM269 560l-77 140h52l65 -140h-40z" />
    <glyph glyph-name="eacute" unicode="&#xe9;" horiz-adv-x="530" 
d="M472 247h-361c1 -125 49 -215 193 -215c54 0 103 4 156 20l7 -41c-58 -16 -105 -21 -170 -21c-177 0 -240 107 -240 260c0 152 63 260 233 260c157 0 196 -103 191 -202c-1 -20 -5 -40 -9 -61zM287 470c-127 0 -169 -86 -176 -189h313c5 21 7 42 5 63
c-3 68 -41 126 -142 126zM383 700l-77 -140h-40l65 140h52z" />
    <glyph glyph-name="ecircumflex" unicode="&#xea;" horiz-adv-x="530" 
d="M472 247h-361c1 -125 49 -215 193 -215c54 0 103 4 156 20l7 -41c-58 -16 -105 -21 -170 -21c-177 0 -240 107 -240 260c0 152 63 260 233 260c157 0 196 -103 191 -202c-1 -20 -5 -40 -9 -61zM287 470c-127 0 -169 -86 -176 -189h313c5 21 7 42 5 63
c-3 68 -41 126 -142 126zM264 670l-82 -110h-40l104 140h37l104 -140h-40z" />
    <glyph glyph-name="edieresis" unicode="&#xeb;" horiz-adv-x="530" 
d="M472 247h-361c1 -125 49 -215 193 -215c54 0 103 4 156 20l7 -41c-58 -16 -105 -21 -170 -21c-177 0 -240 107 -240 260c0 152 63 260 233 260c157 0 196 -103 191 -202c-1 -20 -5 -40 -9 -61zM287 470c-127 0 -169 -86 -176 -189h313c5 21 7 42 5 63
c-3 68 -41 126 -142 126zM141 685h43v-110h-43v110zM346 685h43v-110h-43v110z" />
    <glyph glyph-name="igrave" unicode="&#xec;" horiz-adv-x="185" 
d="M73 560l-77 140h52l65 -140h-40zM67 500h50v-500h-50v500z" />
    <glyph glyph-name="iacute" unicode="&#xed;" horiz-adv-x="185" 
d="M192 700l-77 -140h-40l65 140h52zM67 500h50v-500h-50v500z" />
    <glyph glyph-name="icircumflex" unicode="&#xee;" horiz-adv-x="185" 
d="M67 500h50v-500h-50v500zM92 670l-82 -110h-40l104 140h37l104 -140h-40z" />
    <glyph glyph-name="idieresis" unicode="&#xef;" horiz-adv-x="185" 
d="M-32 685h43v-110h-43v110zM173 685h43v-110h-43v110zM67 500h50v-500h-50v500z" />
    <glyph glyph-name="eth" unicode="&#xf0;" horiz-adv-x="550" 
d="M378 636l78 78l20 -20l-75 -76c56 -59 91 -160 91 -318s-43 -310 -225 -310c-118 0 -210 86 -210 230c0 150 77 235 207 235c71 0 134 -43 176 -106l2 1c-2 55 -12 167 -73 235l-81 -81l-20 21l76 77c-31 27 -73 45 -127 45c-47 0 -83 -6 -131 -22l-8 39
c43 15 78 26 143 26c59 0 113 -16 157 -54zM439 305c-38 59 -97 106 -163 106c-136 0 -166 -108 -166 -191c0 -122 76 -188 161 -188c145 0 172 133 168 273z" />
    <glyph glyph-name="ntilde" unicode="&#xf1;" horiz-adv-x="530" 
d="M117 391v-391h-50v500h50v-75h2c53 49 118 85 193 85c100 0 150 -55 150 -163v-347h-50v337c0 73 -27 130 -120 130c-73 0 -140 -47 -175 -76zM213 635c-25 0 -37 -3 -89 -55l-17 20c43 56 70 74 105 74c47 0 96 -62 130 -62c18 0 39 7 65 51l16 -20
c-22 -44 -47 -68 -81 -68c-38 0 -91 60 -129 60z" />
    <glyph glyph-name="ograve" unicode="&#xf2;" horiz-adv-x="550" 
d="M275 467c-127 0 -165 -100 -165 -217c0 -118 38 -218 165 -218s165 100 165 218c0 117 -38 217 -165 217zM275 -10c-159 0 -218 107 -218 260c0 152 59 260 218 260s217 -108 217 -260c0 -153 -58 -260 -217 -260zM263 560l-77 140h52l65 -140h-40z" />
    <glyph glyph-name="oacute" unicode="&#xf3;" horiz-adv-x="550" 
d="M275 467c-127 0 -165 -100 -165 -217c0 -118 38 -218 165 -218s165 100 165 218c0 117 -38 217 -165 217zM275 -10c-159 0 -218 107 -218 260c0 152 59 260 218 260s217 -108 217 -260c0 -153 -58 -260 -217 -260zM360 700l-77 -140h-40l65 140h52z" />
    <glyph glyph-name="ocircumflex" unicode="&#xf4;" horiz-adv-x="550" 
d="M275 467c-127 0 -165 -100 -165 -217c0 -118 38 -218 165 -218s165 100 165 218c0 117 -38 217 -165 217zM275 -10c-159 0 -218 107 -218 260c0 152 59 260 218 260s217 -108 217 -260c0 -153 -58 -260 -217 -260zM274 670l-82 -110h-40l104 140h37l104 -140h-40z" />
    <glyph glyph-name="otilde" unicode="&#xf5;" horiz-adv-x="550" 
d="M275 467c-127 0 -165 -100 -165 -217c0 -118 38 -218 165 -218s165 100 165 218c0 117 -38 217 -165 217zM275 -10c-159 0 -218 107 -218 260c0 152 59 260 218 260s217 -108 217 -260c0 -153 -58 -260 -217 -260zM226 635c-25 0 -37 -3 -89 -55l-17 20
c43 56 70 74 105 74c47 0 96 -62 130 -62c18 0 39 7 65 51l16 -20c-22 -44 -47 -68 -81 -68c-38 0 -91 60 -129 60z" />
    <glyph glyph-name="odieresis" unicode="&#xf6;" horiz-adv-x="550" 
d="M275 467c-127 0 -165 -100 -165 -217c0 -118 38 -218 165 -218s165 100 165 218c0 117 -38 217 -165 217zM275 -10c-159 0 -218 107 -218 260c0 152 59 260 218 260s217 -108 217 -260c0 -153 -58 -260 -217 -260zM149 685h43v-110h-43v110zM354 685h43v-110h-43v110z
" />
    <glyph glyph-name="divide" unicode="&#xf7;" horiz-adv-x="500" 
d="M227 165h45v-110h-45v110zM227 475h45v-110h-45v110zM67 286h365v-42h-365v42z" />
    <glyph glyph-name="oslash" unicode="&#xf8;" horiz-adv-x="550" 
d="M275 -10c-71 0 -121 22 -155 61l-66 -78l-19 16l67 79c-32 45 -45 108 -45 182c0 152 59 260 218 260c70 0 120 -23 154 -60l67 77l19 -15l-69 -80c32 -46 46 -109 46 -182c0 -153 -58 -260 -217 -260zM275 32c127 0 165 100 165 218c0 51 -9 101 -31 138l-257 -301
c25 -33 64 -55 123 -55zM275 467c-127 0 -165 -100 -165 -217c0 -52 8 -101 30 -138l258 301c-26 33 -66 54 -123 54z" />
    <glyph glyph-name="ugrave" unicode="&#xf9;" horiz-adv-x="530" 
d="M412 109v391h50v-500h-50v75h-2c-53 -49 -118 -85 -193 -85c-100 0 -150 55 -150 162v348h50v-338c0 -72 29 -130 120 -130c74 0 140 48 175 77zM238 560l-77 140h52l65 -140h-40z" />
    <glyph glyph-name="uacute" unicode="&#xfa;" horiz-adv-x="530" 
d="M412 109v391h50v-500h-50v75h-2c-53 -49 -118 -85 -193 -85c-100 0 -150 55 -150 162v348h50v-338c0 -72 29 -130 120 -130c74 0 140 48 175 77zM350 700l-77 -140h-40l65 140h52z" />
    <glyph glyph-name="ucircumflex" unicode="&#xfb;" horiz-adv-x="530" 
d="M412 109v391h50v-500h-50v75h-2c-53 -49 -118 -85 -193 -85c-100 0 -150 55 -150 162v348h50v-338c0 -72 29 -130 120 -130c74 0 140 48 175 77zM264 670l-82 -110h-40l104 140h37l104 -140h-40z" />
    <glyph glyph-name="udieresis" unicode="&#xfc;" horiz-adv-x="530" 
d="M412 109v391h50v-500h-50v75h-2c-53 -49 -118 -85 -193 -85c-100 0 -150 55 -150 162v348h50v-338c0 -72 29 -130 120 -130c74 0 140 48 175 77zM141 685h43v-110h-43v110zM346 685h43v-110h-43v110z" />
    <glyph glyph-name="yacute" unicode="&#xfd;" horiz-adv-x="560" 
d="M259 -12l-204 512h56l176 -454h2l162 454h54l-200 -543c-42 -117 -96 -167 -180 -167c-21 0 -43 2 -60 6l5 43c17 -4 31 -5 45 -5c85 0 119 91 144 154zM384 700l-77 -140h-40l65 140h52z" />
    <glyph glyph-name="thorn" unicode="&#xfe;" horiz-adv-x="530" 
d="M117 700v-250h2c40 35 101 60 166 60c140 0 187 -113 187 -260c0 -148 -50 -260 -190 -260c-63 0 -123 24 -163 59h-2v-249h-50v900h50zM420 250c0 115 -34 217 -153 217c-67 0 -124 -33 -150 -53v-328c26 -21 83 -54 150 -54c119 0 153 103 153 218z" />
    <glyph glyph-name="ydieresis" unicode="&#xff;" horiz-adv-x="560" 
d="M259 -12l-204 512h56l176 -454h2l162 454h54l-200 -543c-42 -117 -96 -167 -180 -167c-21 0 -43 2 -60 6l5 43c17 -4 31 -5 45 -5c85 0 119 91 144 154zM156 685h43v-110h-43v110zM361 685h43v-110h-43v110z" />
    <glyph glyph-name="breve" unicode="&#x2d8;" horiz-adv-x="394" 
d="M196 599c74 0 100 56 109 96h24c-13 -92 -69 -128 -133 -128c-62 0 -117 36 -131 128h24c9 -40 36 -96 107 -96z" />
    <glyph glyph-name="cyrbreve" horiz-adv-x="394" 
d="M196 599c74 0 100 56 109 96h24c-13 -92 -69 -128 -133 -128c-62 0 -117 36 -131 128h24c9 -40 36 -96 107 -96z" />
    <glyph glyph-name="caron" unicode="&#x2c7;" horiz-adv-x="375" 
d="M105 700l82 -110l83 110h40l-104 -140h-37l-104 140h40z" />
    <glyph glyph-name="commaaccent" unicode="&#xf6c3;" horiz-adv-x="179" 
d="M90 717h19l-12 -87h13v-70h-45v70z" />
    <glyph glyph-name="undercommaaccent" horiz-adv-x="179" 
d="M89 -198h-19l12 88h-13v70h45v-70z" />
    <glyph glyph-name="dieresisacute" horiz-adv-x="460" 
d="M65 680h42v-105h-42v105zM352 680h43v-105h-43v105zM292 700l-77 -125h-30l65 125h42z" />
    <glyph glyph-name="dieresisgrave" horiz-adv-x="460" 
d="M352 680h43v-105h-43v105zM65 680h42v-105h-42v105zM245 575l-78 125h43l65 -125h-30z" />
    <glyph glyph-name="dotaccent" unicode="&#x2d9;" horiz-adv-x="175" 
d="M65 680h45v-105h-45v105z" />
    <glyph glyph-name="hungarumlaut" unicode="&#x2dd;" horiz-adv-x="337" 
d="M165 680l-70 -120h-30l65 120h35zM272 680l-70 -120h-30l65 120h35z" />
    <glyph glyph-name="dblgrave" horiz-adv-x="337" 
d="M242 560l-70 120h35l65 -120h-30zM135 560l-70 120h35l65 -120h-30z" />
    <glyph glyph-name="cyrflex" horiz-adv-x="375" 
d="M187 670l-82 -110h-40l104 140h37l104 -140h-40z" />
    <glyph glyph-name="uni02C9" unicode="&#x2c9;" horiz-adv-x="425" 
d="M65 642h295v-35h-295v35z" />
    <glyph glyph-name="ogonek" unicode="&#x2db;" horiz-adv-x="292" 
d="M223 -153l4 -16c-23 -18 -53 -29 -85 -29c-37 0 -77 20 -77 67c0 50 38 95 85 131h29c-42 -32 -78 -82 -78 -120c0 -34 19 -55 56 -55c33 0 52 14 66 22z" />
    <glyph glyph-name="ring" unicode="&#x2da;" horiz-adv-x="277" 
d="M65 620c0 42 32 72 73 72c42 0 74 -30 74 -72s-32 -73 -74 -73c-41 0 -73 31 -73 73zM85 620c0 -31 23 -54 53 -54c31 0 53 23 53 54c0 30 -22 54 -53 54c-30 0 -53 -24 -53 -54z" />
    <glyph glyph-name="Acute" horiz-adv-x="237" 
d="M177 850l-77 -140h-40l65 140h52z" />
    <glyph glyph-name="Breve" horiz-adv-x="394" 
d="M196 769c74 0 100 56 109 96h24c-13 -92 -69 -128 -133 -128c-62 0 -117 36 -131 128h24c9 -40 36 -96 107 -96z" />
    <glyph glyph-name="cyrBreve" horiz-adv-x="394" 
d="M196 769c74 0 100 56 109 96h24c-13 -92 -69 -128 -133 -128c-62 0 -117 36 -131 128h24c9 -40 36 -96 107 -96z" />
    <glyph glyph-name="Caron" horiz-adv-x="375" 
d="M105 850l82 -110l83 110h40l-104 -140h-37l-104 140h40z" />
    <glyph glyph-name="Cedilla" horiz-adv-x="291" 
d="M120 -73v73h22v-58c41 -2 84 -19 84 -71c0 -46 -35 -76 -93 -76c-24 0 -43 4 -68 12l4 20c16 -5 32 -10 56 -10c55 0 68 37 68 57s-12 53 -73 53z" />
    <glyph glyph-name="Circumflex" horiz-adv-x="375" 
d="M187 820l-82 -110h-40l104 140h37l104 -140h-40z" />
    <glyph glyph-name="commaaccent.cap" horiz-adv-x="179" 
d="M89 -198h-19l12 88h-13v70h45v-70z" />
    <glyph glyph-name="Dieresis" horiz-adv-x="432" 
d="M92 845h43v-110h-43v110zM297 845h43v-110h-43v110z" />
    <glyph glyph-name="DieresisAcute" horiz-adv-x="460" 
d="M65 850h42v-105h-42v105zM352 850h43v-105h-43v105zM292 870l-77 -125h-30l65 125h42z" />
    <glyph glyph-name="DieresisGrave" horiz-adv-x="460" 
d="M352 850h43v-105h-43v105zM65 850h42v-105h-42v105zM245 745l-78 125h43l65 -125h-30z" />
    <glyph glyph-name="Dotaccent" horiz-adv-x="175" 
d="M65 850h45v-105h-45v105z" />
    <glyph glyph-name="Hungarumlaut" horiz-adv-x="337" 
d="M165 850l-70 -120h-30l65 120h35zM272 850l-70 -120h-30l65 120h35z" />
    <glyph glyph-name="Grave" horiz-adv-x="237" 
d="M137 710l-77 140h52l65 -140h-40z" />
    <glyph glyph-name="dblGrave" horiz-adv-x="337" 
d="M242 730l-70 120h35l65 -120h-30zM135 730l-70 120h35l65 -120h-30z" />
    <glyph glyph-name="cyrFlex" horiz-adv-x="375" 
d="M187 820l-82 -110h-40l104 140h37l104 -140h-40z" />
    <glyph glyph-name="Macron" horiz-adv-x="425" 
d="M65 812h295v-35h-295v35z" />
    <glyph glyph-name="Ogonek" horiz-adv-x="292" 
d="M223 -153l4 -16c-23 -18 -53 -29 -85 -29c-37 0 -77 20 -77 67c0 50 38 95 85 131h29c-42 -32 -78 -82 -78 -120c0 -34 19 -55 56 -55c33 0 52 14 66 22z" />
    <glyph glyph-name="Ring" horiz-adv-x="277" 
d="M65 790c0 42 32 72 73 72c42 0 74 -30 74 -72s-32 -73 -74 -73c-41 0 -73 31 -73 73zM85 790c0 -31 23 -54 53 -54c31 0 53 23 53 54c0 30 -22 54 -53 54c-30 0 -53 -24 -53 -54z" />
    <glyph glyph-name="Tilde" horiz-adv-x="446" 
d="M171 795c-25 0 -37 -3 -89 -55l-17 20c43 56 70 74 105 74c47 0 96 -62 130 -62c18 0 39 7 65 51l16 -20c-22 -44 -47 -68 -81 -68c-38 0 -91 60 -129 60z" />
    <glyph glyph-name="Acutesmall" horiz-adv-x="237" 
d="M172 750l-77 -120h-30l65 120h42z" />
    <glyph glyph-name="Brevesmall" horiz-adv-x="394" 
d="M196 669c74 0 100 56 109 96h24c-13 -92 -69 -128 -133 -128c-62 0 -117 36 -131 128h24c9 -40 36 -96 107 -96z" />
    <glyph glyph-name="Caronsmall" horiz-adv-x="375" 
d="M95 750l92 -95l93 95h30l-106 -120h-33l-106 120h30z" />
    <glyph glyph-name="Cedillasmall" horiz-adv-x="291" 
d="M120 -73v73h22v-58c41 -2 84 -19 84 -71c0 -46 -35 -76 -93 -76c-24 0 -43 4 -68 12l4 20c16 -5 32 -10 56 -10c55 0 68 37 68 57s-12 53 -73 53z" />
    <glyph glyph-name="Circumflexsmall" horiz-adv-x="375" 
d="M187 725l-92 -95h-30l106 120h33l106 -120h-30z" />
    <glyph glyph-name="commaaccent.small" horiz-adv-x="179" 
d="M89 -198h-19l12 88h-13v70h45v-70z" />
    <glyph glyph-name="Dieresissmall" horiz-adv-x="432" 
d="M65 750h42v-105h-42v105zM325 750h42v-105h-42v105z" />
    <glyph glyph-name="DieresisAcute.small" horiz-adv-x="460" 
d="M65 750h42v-105h-42v105zM352 750h43v-105h-43v105zM292 770l-77 -125h-30l65 125h42z" />
    <glyph glyph-name="DieresisGrave.small" horiz-adv-x="460" 
d="M352 750h43v-105h-43v105zM65 750h42v-105h-42v105zM245 645l-78 125h43l65 -125h-30z" />
    <glyph glyph-name="Dotaccentsmall" horiz-adv-x="175" 
d="M65 750h45v-105h-45v105z" />
    <glyph glyph-name="Hungarumlautsmall" horiz-adv-x="337" 
d="M165 750l-70 -120h-30l65 120h35zM272 750l-70 -120h-30l65 120h35z" />
    <glyph glyph-name="Gravesmall" horiz-adv-x="237" 
d="M142 630l-77 120h42l65 -120h-30z" />
    <glyph glyph-name="dblGrave.small" horiz-adv-x="337" 
d="M242 630l-70 120h35l65 -120h-30zM135 630l-70 120h35l65 -120h-30z" />
    <glyph glyph-name="Macronsmall" horiz-adv-x="425" 
d="M65 710h295v-33h-295v33z" />
    <glyph glyph-name="Ogoneksmall" horiz-adv-x="292" 
d="M223 -153l4 -16c-23 -18 -53 -29 -85 -29c-37 0 -77 20 -77 67c0 50 38 95 85 131h29c-42 -32 -78 -82 -78 -120c0 -34 19 -55 56 -55c33 0 52 14 66 22z" />
    <glyph glyph-name="Ringsmall" horiz-adv-x="277" 
d="M65 690c0 42 32 72 73 72c42 0 74 -30 74 -72s-32 -73 -74 -73c-41 0 -73 31 -73 73zM85 690c0 -31 23 -54 53 -54c31 0 53 23 53 54c0 30 -22 54 -53 54c-30 0 -53 -24 -53 -54z" />
    <glyph glyph-name="Tildesmall" horiz-adv-x="446" 
d="M171 705c-25 0 -37 -3 -89 -55l-17 15c43 56 70 74 105 74c47 0 96 -62 130 -62c18 0 39 7 65 51l16 -15c-22 -44 -47 -68 -81 -68c-38 0 -91 60 -129 60z" />
    <glyph glyph-name="middot" horiz-adv-x="220" 
d="M87 365h45v-110h-45v110z" />
    <glyph glyph-name="Abreve" unicode="&#x102;" horiz-adv-x="650" 
d="M544 0l-67 191h-304l-70 -191h-56l249 685h65l241 -685h-58zM328 620h-2l-141 -384h281zM324 769c74 0 100 56 109 96h24c-13 -92 -69 -128 -133 -128c-62 0 -117 36 -131 128h24c9 -40 36 -96 107 -96z" />
    <glyph glyph-name="Amacron" unicode="&#x100;" horiz-adv-x="650" 
d="M544 0l-67 191h-304l-70 -191h-56l249 685h65l241 -685h-58zM328 620h-2l-141 -384h281zM177 812h295v-35h-295v35z" />
    <glyph glyph-name="Aogonek" unicode="&#x104;" horiz-adv-x="650" 
d="M561 0h-17l-67 191h-304l-70 -191h-56l249 685h65l241 -685c-50 -23 -92 -79 -92 -120c0 -34 20 -55 57 -55c33 0 52 14 66 22l4 -16c-23 -18 -53 -29 -85 -29c-37 0 -77 19 -77 66c0 50 41 100 86 132zM328 620h-1l-142 -384h281z" />
    <glyph glyph-name="AEacute" unicode="&#x1fc;" horiz-adv-x="926" 
d="M443 296h-179l-163 -296h-54l369 680h437v-48h-357v-255h312v-47h-312v-283h362v-47h-415v296zM441 631l-158 -292h160v292h-2zM570 850l-77 -140h-40l65 140h52z" />
    <glyph glyph-name="Cacute" unicode="&#x106;" horiz-adv-x="620" 
d="M67 345c0 187 52 345 278 345c74 0 147 -10 225 -33l-12 -45c-101 25 -152 30 -209 30c-189 0 -227 -142 -227 -297c0 -165 38 -308 227 -308c57 0 108 5 209 30l12 -45c-78 -22 -151 -32 -225 -32c-226 0 -278 160 -278 355zM459 850l-77 -140h-40l65 140h52z" />
    <glyph glyph-name="Ccaron" unicode="&#x10c;" horiz-adv-x="620" 
d="M67 345c0 187 52 345 278 345c74 0 147 -10 225 -33l-12 -45c-101 25 -152 30 -209 30c-189 0 -227 -142 -227 -297c0 -165 38 -308 227 -308c57 0 108 5 209 30l12 -45c-78 -22 -151 -32 -225 -32c-226 0 -278 160 -278 355zM280 850l82 -110l83 110h40l-104 -140h-37
l-104 140h40z" />
    <glyph glyph-name="Ccircumflex" unicode="&#x108;" horiz-adv-x="620" 
d="M67 345c0 187 52 345 278 345c74 0 147 -10 225 -33l-12 -45c-101 25 -152 30 -209 30c-189 0 -227 -142 -227 -297c0 -165 38 -308 227 -308c57 0 108 5 209 30l12 -45c-78 -22 -151 -32 -225 -32c-226 0 -278 160 -278 355zM350 820l-82 -110h-40l104 140h37l104 -140
h-40z" />
    <glyph glyph-name="Cdotaccent" unicode="&#x10a;" horiz-adv-x="620" 
d="M67 345c0 187 52 345 278 345c74 0 147 -10 225 -33l-12 -45c-101 25 -152 30 -209 30c-189 0 -227 -142 -227 -297c0 -165 38 -308 227 -308c57 0 108 5 209 30l12 -45c-78 -22 -151 -32 -225 -32c-226 0 -278 160 -278 355zM337 850h45v-105h-45v105z" />
    <glyph glyph-name="Dcaron" unicode="&#x10e;" horiz-adv-x="650" 
d="M309 0h-232v680h232c211 0 273 -148 273 -335c0 -191 -62 -345 -273 -345zM130 47h179c176 0 218 143 218 298s-42 287 -218 287h-179v-585zM221 850l82 -110l83 110h40l-104 -140h-37l-104 140h40z" />
    <glyph glyph-name="Dcroat" unicode="&#x110;" horiz-adv-x="655" 
d="M314 0h-232v329h-55v32h55v319h232c211 0 273 -148 273 -335c0 -191 -62 -345 -273 -345zM135 47h179c176 0 218 143 218 298s-42 287 -218 287h-179v-271h130v-32h-130v-282z" />
    <glyph glyph-name="Ebreve" unicode="&#x114;" horiz-adv-x="560" 
d="M487 680v-48h-357v-255h312v-47h-312v-283h362v-47h-415v680h410zM287 769c74 0 100 56 109 96h24c-13 -92 -69 -128 -133 -128c-62 0 -117 36 -131 128h24c9 -40 36 -96 107 -96z" />
    <glyph glyph-name="Ecaron" unicode="&#x11a;" horiz-adv-x="560" 
d="M487 680v-48h-357v-255h312v-47h-312v-283h362v-47h-415v680h410zM204 850l82 -110l83 110h40l-104 -140h-37l-104 140h40z" />
    <glyph glyph-name="Edotaccent" unicode="&#x116;" horiz-adv-x="560" 
d="M487 680v-48h-357v-255h312v-47h-312v-283h362v-47h-415v680h410zM266 850h45v-105h-45v105z" />
    <glyph glyph-name="Emacron" unicode="&#x112;" horiz-adv-x="560" 
d="M487 680v-48h-357v-255h312v-47h-312v-283h362v-47h-415v680h410zM140 812h295v-35h-295v35z" />
    <glyph glyph-name="Eogonek" unicode="&#x118;" horiz-adv-x="560" 
d="M536 -153l4 -16c-23 -18 -53 -29 -85 -29c-37 0 -77 19 -77 66c0 50 38 96 85 132h-386v680h410v-48h-357v-255h312v-47h-312v-283h362v-47c-42 -32 -78 -82 -78 -120c0 -34 19 -55 56 -55c34 0 52 14 66 22z" />
    <glyph glyph-name="Gbreve" unicode="&#x11e;" horiz-adv-x="640" 
d="M345 -10c-226 0 -278 160 -278 355c0 187 52 345 278 345c74 0 140 -10 217 -33l-12 -45c-100 25 -144 30 -201 30c-189 0 -227 -142 -227 -297c0 -165 38 -308 227 -308c65 0 116 19 161 49v201h-155v48h207v-284c-52 -29 -116 -61 -217 -61zM345 769
c74 0 100 56 109 96h24c-13 -92 -69 -128 -133 -128c-62 0 -117 36 -131 128h24c9 -40 36 -96 107 -96z" />
    <glyph glyph-name="Gcircumflex" unicode="&#x11c;" horiz-adv-x="640" 
d="M345 -10c-226 0 -278 160 -278 355c0 187 52 345 278 345c74 0 140 -10 217 -33l-12 -45c-100 25 -144 30 -201 30c-189 0 -227 -142 -227 -297c0 -165 38 -308 227 -308c65 0 116 19 161 49v201h-155v48h207v-284c-52 -29 -116 -61 -217 -61zM347 820l-82 -110h-40
l104 140h37l104 -140h-40z" />
    <glyph glyph-name="Gcommaaccent" unicode="&#x122;" horiz-adv-x="640" 
d="M345 -10c-226 0 -278 160 -278 355c0 187 52 345 278 345c74 0 140 -10 217 -33l-12 -45c-100 25 -144 30 -201 30c-189 0 -227 -142 -227 -297c0 -165 38 -308 227 -308c65 0 116 19 161 49v201h-155v48h207v-284c-52 -29 -116 -61 -217 -61zM345 -198h-19l12 88h-13v70
h45v-70z" />
    <glyph glyph-name="Gdotaccent" unicode="&#x120;" horiz-adv-x="640" 
d="M345 -10c-226 0 -278 160 -278 355c0 187 52 345 278 345c74 0 140 -10 217 -33l-12 -45c-100 25 -144 30 -201 30c-189 0 -227 -142 -227 -297c0 -165 38 -308 227 -308c65 0 116 19 161 49v201h-155v48h207v-284c-52 -29 -116 -61 -217 -61zM316 850h45v-105h-45v105z
" />
    <glyph glyph-name="Hbar" unicode="&#x126;" horiz-adv-x="640" 
d="M7 566h70v114h53v-114h380v114h52v-114h70v-32h-70v-534h-52v330h-380v-330h-53v534h-70v32zM130 377h380v157h-380v-157z" />
    <glyph glyph-name="Hcircumflex" unicode="&#x124;" horiz-adv-x="640" 
d="M130 0h-53v680h53v-303h380v303h52v-680h-52v330h-380v-330zM319 820l-82 -110h-40l104 140h37l104 -140h-40z" />
    <glyph glyph-name="Ibreve" unicode="&#x12c;" horiz-adv-x="207" 
d="M132 0h-53v680h53v-680zM102 769c74 0 100 56 109 96h24c-13 -92 -69 -128 -133 -128c-62 0 -117 36 -131 128h24c9 -40 36 -96 107 -96z" />
    <glyph glyph-name="Idotaccent" unicode="&#x130;" horiz-adv-x="207" 
d="M130 0h-53v680h53v-680zM81 850h45v-105h-45v105z" />
    <glyph glyph-name="Imacron" unicode="&#x12a;" horiz-adv-x="207" 
d="M126 0h-53v680h53v-680zM-44 812h295v-35h-295v35z" />
    <glyph glyph-name="Iogonek" unicode="&#x12e;" horiz-adv-x="207" 
d="M91 0h-14v680h53v-680c-53 -29 -90 -80 -90 -120c0 -34 20 -55 57 -55c33 0 52 14 66 22l4 -16c-23 -18 -53 -29 -85 -29c-37 0 -77 19 -77 66c0 50 40 99 86 132z" />
    <glyph glyph-name="Itilde" unicode="&#x128;" horiz-adv-x="207" 
d="M129 0h-53v680h53v-680zM52 795c-25 0 -37 -3 -89 -55l-17 20c43 56 70 74 105 74c47 0 96 -62 130 -62c18 0 39 7 65 51l16 -20c-22 -44 -47 -68 -81 -68c-38 0 -91 60 -129 60z" />
    <glyph glyph-name="IJ" unicode="&#x132;" horiz-adv-x="525" 
d="M130 0h-53v680h53v-680zM447 680v-520c0 -130 -50 -170 -140 -170c-26 0 -54 2 -78 6l5 45c25 -4 42 -5 61 -5c75 0 100 40 100 127v517h52z" />
    <glyph glyph-name="Jcircumflex" unicode="&#x134;" horiz-adv-x="317" 
d="M240 680v-520c0 -130 -50 -170 -140 -170c-26 0 -54 2 -79 6l5 45c26 -4 42 -5 61 -5c75 0 100 40 100 127v517h53zM213 820l-82 -110h-40l104 140h37l104 -140h-40z" />
    <glyph glyph-name="Kcommaaccent" unicode="&#x136;" horiz-adv-x="619" 
d="M130 680v-396l367 396h63l-252 -278l259 -402h-66l-232 360l-139 -148v-212h-53v680h53zM310 -191h-19l12 88h-13v70h45v-70z" />
    <glyph glyph-name="Lacute" unicode="&#x139;" horiz-adv-x="540" 
d="M77 680h53v-633h352v-47h-405v680zM201 850l-77 -140h-40l65 140h52z" />
    <glyph glyph-name="Lcaron" unicode="&#x13d;" horiz-adv-x="540" 
d="M77 680h53v-633h352v-47h-405v680zM270 522h-19l12 88h-13v70h45v-70z" />
    <glyph glyph-name="Lcommaaccent" unicode="&#x13b;" horiz-adv-x="540" 
d="M77 680h53v-633h352v-47h-405v680zM284 -190h-19l12 88h-13v70h45v-70z" />
    <glyph glyph-name="Ldot" unicode="&#x13f;" horiz-adv-x="540" 
d="M77 680h53v-633h352v-47h-405v680zM274 435h45v-110h-45v110z" />
    <glyph glyph-name="Lslash" unicode="&#x141;" horiz-adv-x="550" 
d="M255 394l-115 -29v-318h352v-47h-405v353l-70 -17v33l70 16v295h53v-282l115 28v-32z" />
    <glyph glyph-name="Nacute" unicode="&#x143;" horiz-adv-x="650" 
d="M129 0h-52v680h53l389 -582h2v582h51v-680h-52l-389 577h-2v-577zM428 850l-77 -140h-40l65 140h52z" />
    <glyph glyph-name="Ncaron" unicode="&#x147;" horiz-adv-x="650" 
d="M129 0h-52v680h53l389 -582h2v582h51v-680h-52l-389 577h-2v-577zM242 850l82 -110l83 110h40l-104 -140h-37l-104 140h40z" />
    <glyph glyph-name="Ncommaaccent" unicode="&#x145;" horiz-adv-x="650" 
d="M129 0h-52v680h53l389 -582h2v582h51v-680h-52l-389 577h-2v-577zM324 -198h-19l12 88h-13v70h45v-70z" />
    <glyph glyph-name="Obreve" unicode="&#x14e;" horiz-adv-x="690" 
d="M345 645c-191 0 -223 -145 -223 -300s32 -310 223 -310s222 155 222 310s-31 300 -222 300zM345 -10c-226 0 -278 164 -278 355c0 187 52 345 278 345s277 -158 277 -345c0 -191 -51 -355 -277 -355zM344 769c74 0 100 56 109 96h24c-13 -92 -69 -128 -133 -128
c-62 0 -117 36 -131 128h24c9 -40 36 -96 107 -96z" />
    <glyph glyph-name="Ohungarumlaut" unicode="&#x150;" horiz-adv-x="690" 
d="M345 645c-191 0 -223 -145 -223 -300s32 -310 223 -310s222 155 222 310s-31 300 -222 300zM345 -10c-226 0 -278 164 -278 355c0 187 52 345 278 345s277 -158 277 -345c0 -191 -51 -355 -277 -355zM370 850l-70 -120h-30l65 120h35zM477 850l-70 -120h-30l65 120h35z
" />
    <glyph glyph-name="Omacron" unicode="&#x14c;" horiz-adv-x="690" 
d="M345 645c-191 0 -223 -145 -223 -300s32 -310 223 -310s222 155 222 310s-31 300 -222 300zM345 -10c-226 0 -278 164 -278 355c0 187 52 345 278 345s277 -158 277 -345c0 -191 -51 -355 -277 -355zM197 812h295v-35h-295v35z" />
    <glyph glyph-name="Oslashacute" unicode="&#x1fe;" horiz-adv-x="690" 
d="M424 850l-77 -140h-40l65 140h52zM345 -10c-98 0 -162 30 -204 81l-77 -98l-19 16l80 100c-44 65 -58 157 -58 256c0 187 52 345 278 345c93 0 156 -29 198 -74l82 103l20 -15l-85 -106c48 -63 62 -154 62 -253c0 -191 -51 -355 -277 -355zM345 35c191 0 222 155 222 310
c0 76 -8 153 -43 208l-350 -442c33 -47 86 -76 171 -76zM345 645c-191 0 -223 -145 -223 -300c0 -75 7 -152 40 -209l350 440c-33 42 -86 69 -167 69z" />
    <glyph glyph-name="Racute" unicode="&#x154;" horiz-adv-x="615" 
d="M564 0h-62l-181 287h-191v-287h-53v680h270c128 0 195 -89 195 -196c0 -100 -59 -178 -166 -189zM130 632v-297h205c92 0 154 55 154 149c0 86 -54 148 -147 148h-212zM381 850l-77 -140h-40l65 140h52z" />
    <glyph glyph-name="Rcaron" unicode="&#x158;" horiz-adv-x="615" 
d="M564 0h-62l-181 287h-191v-287h-53v680h270c128 0 195 -89 195 -196c0 -100 -59 -178 -166 -189zM130 632v-297h205c92 0 154 55 154 149c0 86 -54 148 -147 148h-212zM208 850l82 -110l83 110h40l-104 -140h-37l-104 140h40z" />
    <glyph glyph-name="Rcommaaccent" unicode="&#x156;" horiz-adv-x="615" 
d="M564 0h-62l-181 287h-191v-287h-53v680h270c128 0 195 -89 195 -196c0 -100 -59 -178 -166 -189zM130 632v-297h205c92 0 154 55 154 149c0 86 -54 148 -147 148h-212zM317 -192h-19l12 88h-13v70h45v-70z" />
    <glyph glyph-name="Sacute" unicode="&#x15a;" 
d="M300 -10c-73 0 -155 10 -233 32l10 45c100 -25 165 -30 223 -30c130 0 177 74 177 139c0 101 -115 129 -182 146c-103 25 -218 83 -218 198c0 122 98 170 223 170c72 0 142 -10 220 -33l-12 -45c-101 25 -151 30 -208 30c-130 0 -168 -60 -168 -123
c0 -99 127 -135 195 -152c104 -23 205 -71 205 -187c0 -125 -97 -190 -232 -190zM403 850l-77 -140h-40l65 140h52z" />
    <glyph glyph-name="Scedilla" unicode="&#x15e;" 
d="M532 180c0 -123 -94 -187 -225 -190v-48c41 -2 84 -19 84 -71c0 -46 -35 -76 -93 -76c-24 0 -42 4 -68 12l5 20c16 -5 31 -10 57 -10c54 0 66 37 66 57s-12 53 -73 53v63c-69 2 -146 11 -218 32l10 45c100 -25 165 -30 223 -30c130 0 177 74 177 139
c0 101 -115 129 -182 146c-103 25 -218 83 -218 198c0 122 98 170 223 170c72 0 142 -10 220 -33l-12 -45c-101 25 -151 30 -208 30c-130 0 -168 -60 -168 -123c0 -99 127 -135 195 -152c104 -23 205 -71 205 -187z" />
    <glyph glyph-name="Scircumflex" unicode="&#x15c;" 
d="M300 -10c-73 0 -155 10 -233 32l10 45c100 -25 165 -30 223 -30c130 0 177 74 177 139c0 101 -115 129 -182 146c-103 25 -218 83 -218 198c0 122 98 170 223 170c72 0 142 -10 220 -33l-12 -45c-101 25 -151 30 -208 30c-130 0 -168 -60 -168 -123
c0 -99 127 -135 195 -152c104 -23 205 -71 205 -187c0 -125 -97 -190 -232 -190zM309 820l-82 -110h-40l104 140h37l104 -140h-40z" />
    <glyph glyph-name="Scommaaccent" unicode="&#x218;" 
d="M300 -10c-73 0 -155 10 -233 32l10 45c100 -25 165 -30 223 -30c130 0 177 74 177 139c0 101 -115 129 -182 146c-103 25 -218 83 -218 198c0 122 98 170 223 170c72 0 142 -10 220 -33l-12 -45c-101 25 -151 30 -208 30c-130 0 -168 -60 -168 -123
c0 -99 127 -135 195 -152c104 -23 205 -71 205 -187c0 -125 -97 -190 -232 -190zM299 -198h-19l12 88h-13v70h45v-70z" />
    <glyph glyph-name="Tbar" unicode="&#x166;" horiz-adv-x="560" 
d="M161 286h93v346h-197v48h445v-48h-196v-346h93v-32h-93v-254h-52v254h-93v32z" />
    <glyph glyph-name="Tcaron" unicode="&#x164;" horiz-adv-x="560" 
d="M502 632h-196v-632h-52v632h-197v48h445v-48zM197 850l82 -110l83 110h40l-104 -140h-37l-104 140h40z" />
    <glyph glyph-name="Tcommaaccent" unicode="&#x162;" horiz-adv-x="560" 
d="M502 632h-196v-632h-52v632h-197v48h445v-48zM277 -198h-19l12 88h-13v70h45v-70z" />
    <glyph glyph-name="uni021A" unicode="&#x21a;" horiz-adv-x="560" 
d="M502 632h-196v-632h-52v632h-197v48h445v-48zM277 -198h-19l12 88h-13v70h45v-70z" />
    <glyph glyph-name="Ubreve" unicode="&#x16c;" horiz-adv-x="640" 
d="M324 35c175 0 186 127 186 205v440h52v-440c0 -173 -78 -250 -242 -250s-243 77 -243 250v440h53v-440c0 -78 7 -205 194 -205zM319 769c74 0 100 56 109 96h24c-13 -92 -69 -128 -133 -128c-62 0 -117 36 -131 128h24c9 -40 36 -96 107 -96z" />
    <glyph glyph-name="Uhungarumlaut" unicode="&#x170;" horiz-adv-x="640" 
d="M324 35c175 0 186 127 186 205v440h52v-440c0 -173 -78 -250 -242 -250s-243 77 -243 250v440h53v-440c0 -78 7 -205 194 -205zM334 850l-70 -120h-30l65 120h35zM441 850l-70 -120h-30l65 120h35z" />
    <glyph glyph-name="Umacron" unicode="&#x16a;" horiz-adv-x="640" 
d="M324 35c175 0 186 127 186 205v440h52v-440c0 -173 -78 -250 -242 -250s-243 77 -243 250v440h53v-440c0 -78 7 -205 194 -205zM172 812h295v-35h-295v35z" />
    <glyph glyph-name="Uogonek" unicode="&#x172;" horiz-adv-x="640" 
d="M324 35c175 0 186 127 186 205v440h52v-440c0 -169 -74 -246 -231 -250c-37 -31 -66 -75 -66 -110c0 -34 19 -55 56 -55c34 0 52 14 66 22l4 -16c-23 -18 -53 -29 -85 -29c-37 0 -77 19 -77 66c0 46 32 89 73 123c-153 5 -225 83 -225 249v440h53v-440
c0 -78 7 -205 194 -205z" />
    <glyph glyph-name="Uring" unicode="&#x16e;" horiz-adv-x="640" 
d="M324 35c175 0 186 127 186 205v440h52v-440c0 -173 -78 -250 -242 -250s-243 77 -243 250v440h53v-440c0 -78 7 -205 194 -205zM247 790c0 42 32 72 73 72c42 0 74 -30 74 -72s-32 -73 -74 -73c-41 0 -73 31 -73 73zM267 790c0 -31 23 -54 53 -54c31 0 53 23 53 54
c0 30 -22 54 -53 54c-30 0 -53 -24 -53 -54z" />
    <glyph glyph-name="Utilde" unicode="&#x168;" horiz-adv-x="640" 
d="M324 35c175 0 186 127 186 205v440h52v-440c0 -173 -78 -250 -242 -250s-243 77 -243 250v440h53v-440c0 -78 7 -205 194 -205zM268 795c-25 0 -37 -3 -89 -55l-17 20c43 56 70 74 105 74c47 0 96 -62 130 -62c18 0 39 7 65 51l16 -20c-22 -44 -47 -68 -81 -68
c-38 0 -91 60 -129 60z" />
    <glyph glyph-name="Wacute" unicode="&#x1e82;" horiz-adv-x="940" 
d="M471 596h-2l-164 -601h-69l-189 685h59l166 -614h1l167 614h63l167 -614h1l166 614h55l-188 -685h-69zM570 850l-77 -140h-40l65 140h52z" />
    <glyph glyph-name="Wcircumflex" unicode="&#x174;" horiz-adv-x="940" 
d="M471 596h-2l-164 -601h-69l-189 685h59l166 -614h1l167 614h63l167 -614h1l166 614h55l-188 -685h-69zM469 820l-82 -110h-40l104 140h37l104 -140h-40z" />
    <glyph glyph-name="Wdieresis" unicode="&#x1e84;" horiz-adv-x="940" 
d="M471 596h-2l-164 -601h-69l-189 685h59l166 -614h1l167 614h63l167 -614h1l166 614h55l-188 -685h-69zM346 845h43v-110h-43v110zM551 845h43v-110h-43v110z" />
    <glyph glyph-name="Wgrave" unicode="&#x1e80;" horiz-adv-x="940" 
d="M471 596h-2l-164 -601h-69l-189 685h59l166 -614h1l167 614h63l167 -614h1l166 614h55l-188 -685h-69zM452 710l-77 140h52l65 -140h-40z" />
    <glyph glyph-name="Ycircumflex" unicode="&#x176;" horiz-adv-x="620" 
d="M310 296h2l203 384h57l-236 -440v-240h-52v240l-237 440h61zM309 820l-82 -110h-40l104 140h37l104 -140h-40z" />
    <glyph glyph-name="Ygrave" unicode="&#x1ef2;" horiz-adv-x="620" 
d="M310 296h2l203 384h57l-236 -440v-240h-52v240l-237 440h61zM290 710l-77 140h52l65 -140h-40z" />
    <glyph glyph-name="Zacute" unicode="&#x179;" horiz-adv-x="560" 
d="M124 49v-2h386v-47h-460v40l379 590v2h-359v48h430v-40zM379 850l-77 -140h-40l65 140h52z" />
    <glyph glyph-name="Zdotaccent" unicode="&#x17b;" horiz-adv-x="560" 
d="M124 49v-2h386v-47h-460v40l379 590v2h-359v48h430v-40zM257 850h45v-105h-45v105z" />
    <glyph glyph-name="Asmall" unicode="&#xf761;" horiz-adv-x="610" 
d="M504 0l-65 167h-269l-67 -167h-56l231 585h61l223 -585h-58zM428 210l-120 311h-1l-125 -311h246z" />
    <glyph glyph-name="Aacutesmall" unicode="&#xf7e1;" horiz-adv-x="610" 
d="M504 0l-65 167h-269l-67 -167h-56l231 585h61l223 -585h-58zM428 210l-120 311h-1l-125 -311h246zM401 750l-77 -120h-30l65 120h42z" />
    <glyph glyph-name="Abreve.small" unicode="&#xf66d;" horiz-adv-x="610" 
d="M504 0l-65 167h-269l-67 -167h-56l231 585h61l223 -585h-58zM428 210l-120 311h-1l-125 -311h246zM304 669c74 0 100 56 109 96h24c-13 -92 -69 -128 -133 -128c-62 0 -117 36 -131 128h24c9 -40 36 -96 107 -96z" />
    <glyph glyph-name="Acircumflexsmall" unicode="&#xf7e2;" horiz-adv-x="610" 
d="M504 0l-65 167h-269l-67 -167h-56l231 585h61l223 -585h-58zM428 210l-120 311h-1l-125 -311h246zM304 725l-92 -95h-30l106 120h33l106 -120h-30z" />
    <glyph glyph-name="Adieresissmall" unicode="&#xf7e4;" horiz-adv-x="610" 
d="M504 0l-65 167h-269l-67 -167h-56l231 585h61l223 -585h-58zM428 210l-120 311h-1l-125 -311h246zM154 750h42v-105h-42v105zM414 750h42v-105h-42v105z" />
    <glyph glyph-name="Agravesmall" unicode="&#xf7e0;" horiz-adv-x="610" 
d="M504 0l-65 167h-269l-67 -167h-56l231 585h61l223 -585h-58zM428 210l-120 311h-1l-125 -311h246zM290 630l-77 120h42l65 -120h-30z" />
    <glyph glyph-name="Amacron.small" unicode="&#xf66e;" horiz-adv-x="610" 
d="M504 0l-65 167h-269l-67 -167h-56l231 585h61l223 -585h-58zM428 210l-120 311h-1l-125 -311h246zM157 710h295v-33h-295v33z" />
    <glyph glyph-name="Aogonek.small" horiz-adv-x="610" 
d="M522 0h-18l-65 167h-269l-67 -167h-56l231 585h61l223 -585c-51 -24 -90 -80 -90 -120c0 -34 19 -55 56 -55c34 0 52 14 66 22l4 -16c-23 -18 -53 -29 -85 -29c-37 0 -77 19 -77 66c0 50 39 98 86 132zM308 521h-1l-125 -311h246z" />
    <glyph glyph-name="Aringsmall" unicode="&#xf7e5;" horiz-adv-x="610" 
d="M504 0l-65 167h-269l-67 -167h-56l231 585h61l223 -585h-58zM428 210l-120 311h-1l-125 -311h246zM232 690c0 42 32 72 73 72c42 0 74 -30 74 -72s-32 -73 -74 -73c-41 0 -73 31 -73 73zM252 690c0 -31 23 -54 53 -54c31 0 53 23 53 54c0 30 -22 54 -53 54
c-30 0 -53 -24 -53 -54z" />
    <glyph glyph-name="Atildesmall" unicode="&#xf7e3;" horiz-adv-x="610" 
d="M504 0l-65 167h-269l-67 -167h-56l231 585h61l223 -585h-58zM428 210l-120 311h-1l-125 -311h246zM253 705c-25 0 -37 -3 -89 -55l-17 15c43 56 70 74 105 74c47 0 96 -62 130 -62c18 0 39 7 65 51l16 -15c-22 -44 -47 -68 -81 -68c-38 0 -91 60 -129 60z" />
    <glyph glyph-name="AEsmall" unicode="&#xf7e6;" horiz-adv-x="886" 
d="M101 0h-54l368 580h398v-45h-320v-218h275v-45h-275v-227h325v-45h-375v251h-180zM286 294h157v241h-2z" />
    <glyph glyph-name="AEacute.small" unicode="&#xf670;" horiz-adv-x="886" 
d="M101 0h-54l368 580h398v-45h-320v-218h275v-45h-275v-227h325v-45h-375v251h-180zM286 294h157v241h-2zM567 750l-77 -120h-30l65 120h42z" />
    <glyph glyph-name="Bsmall" unicode="&#xf762;" horiz-adv-x="570" 
d="M373 298v-2c87 -10 139 -61 139 -144c0 -102 -70 -152 -195 -152h-240v580h233c120 0 182 -54 182 -143c0 -80 -47 -125 -119 -139zM295 275h-168v-230h183c92 0 150 32 150 115c0 79 -58 115 -165 115zM440 429c0 67 -50 106 -143 106h-170v-220h163
c85 0 150 27 150 114z" />
    <glyph glyph-name="Csmall" unicode="&#xf763;" horiz-adv-x="587" 
d="M67 294c0 187 68 296 268 296c79 0 140 -13 202 -33l-12 -42c-84 24 -131 30 -189 30c-170 0 -216 -99 -216 -251c0 -160 46 -259 216 -259c58 0 105 6 189 30l12 -43c-62 -19 -123 -32 -202 -32c-200 0 -268 109 -268 304z" />
    <glyph glyph-name="Cacute.small" unicode="&#xf671;" horiz-adv-x="587" 
d="M67 294c0 187 68 296 268 296c79 0 140 -13 202 -33l-12 -42c-84 24 -131 30 -189 30c-170 0 -216 -99 -216 -251c0 -160 46 -259 216 -259c58 0 105 6 189 30l12 -43c-62 -19 -123 -32 -202 -32c-200 0 -268 109 -268 304zM423 750l-77 -120h-30l65 120h42z" />
    <glyph glyph-name="Ccaron.small" unicode="&#xf672;" horiz-adv-x="587" 
d="M67 294c0 187 68 296 268 296c79 0 140 -13 202 -33l-12 -42c-84 24 -131 30 -189 30c-170 0 -216 -99 -216 -251c0 -160 46 -259 216 -259c58 0 105 6 189 30l12 -43c-62 -19 -123 -32 -202 -32c-200 0 -268 109 -268 304zM242 750l92 -95l93 95h30l-106 -120h-33
l-106 120h30z" />
    <glyph glyph-name="Ccedillasmall" unicode="&#xf7e7;" horiz-adv-x="587" 
d="M322 -73v63c-191 5 -255 112 -255 304c0 187 68 296 268 296c79 0 140 -13 202 -33l-12 -42c-84 24 -131 30 -189 30c-170 0 -216 -99 -216 -251c0 -160 46 -259 216 -259c58 0 105 6 189 30l12 -43c-61 -19 -119 -31 -193 -32v-48c41 -2 84 -19 84 -71
c0 -46 -35 -76 -93 -76c-24 0 -43 4 -68 12l4 20c16 -5 32 -10 58 -10c54 0 66 37 66 57s-12 53 -73 53z" />
    <glyph glyph-name="Ccircumflex.small" unicode="&#xf673;" horiz-adv-x="587" 
d="M67 294c0 187 68 296 268 296c79 0 140 -13 202 -33l-12 -42c-84 24 -131 30 -189 30c-170 0 -216 -99 -216 -251c0 -160 46 -259 216 -259c58 0 105 6 189 30l12 -43c-62 -19 -123 -32 -202 -32c-200 0 -268 109 -268 304zM325 725l-92 -95h-30l106 120h33l106 -120h-30
z" />
    <glyph glyph-name="Cdotaccent.small" unicode="&#xf674;" horiz-adv-x="587" 
d="M67 294c0 187 68 296 268 296c79 0 140 -13 202 -33l-12 -42c-84 24 -131 30 -189 30c-170 0 -216 -99 -216 -251c0 -160 46 -259 216 -259c58 0 105 6 189 30l12 -43c-62 -19 -123 -32 -202 -32c-200 0 -268 109 -268 304zM312 750h45v-105h-45v105z" />
    <glyph glyph-name="Dsmall" unicode="&#xf764;" horiz-adv-x="610" 
d="M277 0h-200v580h200c190 0 265 -100 265 -285c0 -189 -75 -295 -265 -295zM127 45h148c170 0 215 100 215 250s-45 240 -215 240h-148v-490z" />
    <glyph glyph-name="Dcaron.small" unicode="&#xf675;" horiz-adv-x="610" 
d="M277 0h-200v580h200c190 0 265 -100 265 -285c0 -189 -75 -295 -265 -295zM127 45h148c170 0 215 100 215 250s-45 240 -215 240h-148v-490zM174 750l92 -95l93 95h30l-106 -120h-33l-106 120h30z" />
    <glyph glyph-name="Dcroat.small" horiz-adv-x="610" 
d="M132 45h143c170 0 215 100 215 250s-45 240 -215 240h-143v-224h145v-32h-145v-234zM277 0h-195v279h-70v32h70v269h195c190 0 265 -100 265 -285c0 -189 -75 -295 -265 -295z" />
    <glyph glyph-name="Esmall" unicode="&#xf765;" horiz-adv-x="520" 
d="M447 580v-45h-320v-218h275v-45h-275v-227h325v-45h-375v580h370z" />
    <glyph glyph-name="Eacutesmall" unicode="&#xf7e9;" horiz-adv-x="520" 
d="M447 580v-45h-320v-218h275v-45h-275v-227h325v-45h-375v580h370zM357 750l-77 -120h-30l65 120h42z" />
    <glyph glyph-name="Ebreve.small" unicode="&#xf677;" horiz-adv-x="520" 
d="M447 580v-45h-320v-218h275v-45h-275v-227h325v-45h-375v580h370zM258 669c74 0 100 56 109 96h24c-13 -92 -69 -128 -133 -128c-62 0 -117 36 -131 128h24c9 -40 36 -96 107 -96z" />
    <glyph glyph-name="Ecaron.small" unicode="&#xf678;" horiz-adv-x="520" 
d="M447 580v-45h-320v-218h275v-45h-275v-227h325v-45h-375v580h370zM163 750l92 -95l93 95h30l-106 -120h-33l-106 120h30z" />
    <glyph glyph-name="Ecircumflexsmall" unicode="&#xf7ea;" horiz-adv-x="520" 
d="M447 580v-45h-320v-218h275v-45h-275v-227h325v-45h-375v580h370zM259 725l-92 -95h-30l106 120h33l106 -120h-30z" />
    <glyph glyph-name="Edieresissmall" unicode="&#xf7eb;" horiz-adv-x="520" 
d="M447 580v-45h-320v-218h275v-45h-275v-227h325v-45h-375v580h370zM109 750h42v-105h-42v105zM369 750h42v-105h-42v105z" />
    <glyph glyph-name="Edotaccent.small" unicode="&#xf679;" horiz-adv-x="520" 
d="M447 580v-45h-320v-218h275v-45h-275v-227h325v-45h-375v580h370zM246 750h45v-105h-45v105z" />
    <glyph glyph-name="Egravesmall" unicode="&#xf7e8;" horiz-adv-x="520" 
d="M447 580v-45h-320v-218h275v-45h-275v-227h325v-45h-375v580h370zM259 630l-77 120h42l65 -120h-30z" />
    <glyph glyph-name="Emacron.small" unicode="&#xf67a;" horiz-adv-x="520" 
d="M447 580v-45h-320v-218h275v-45h-275v-227h325v-45h-375v580h370zM112 710h295v-33h-295v33z" />
    <glyph glyph-name="Eogonek.small" horiz-adv-x="520" 
d="M496 -153l4 -16c-23 -18 -53 -29 -85 -29c-37 0 -77 19 -77 66c0 50 38 96 85 132h-346v580h370v-45h-320v-218h275v-45h-275v-227h325v-45c-42 -32 -78 -82 -78 -120c0 -34 19 -55 56 -55c34 0 52 14 66 22z" />
    <glyph glyph-name="Fsmall" unicode="&#xf766;" horiz-adv-x="495" 
d="M437 580v-45h-310v-238h265v-45h-265v-252h-50v580h360z" />
    <glyph glyph-name="Gsmall" unicode="&#xf767;" horiz-adv-x="615" 
d="M336 35c47 0 79 4 144 21v199h-135v37h185v-270c-59 -19 -116 -32 -195 -32c-200 0 -268 109 -268 304c0 187 68 296 268 296c79 0 140 -13 202 -33l-12 -42c-84 24 -131 30 -189 30c-170 0 -216 -99 -216 -251c0 -160 46 -259 216 -259z" />
    <glyph glyph-name="Gbreve.small" unicode="&#xf67d;" horiz-adv-x="615" 
d="M336 35c47 0 79 4 144 21v199h-135v37h185v-270c-59 -19 -116 -32 -195 -32c-200 0 -268 109 -268 304c0 187 68 296 268 296c79 0 140 -13 202 -33l-12 -42c-84 24 -131 30 -189 30c-170 0 -216 -99 -216 -251c0 -160 46 -259 216 -259zM328 669c74 0 100 56 109 96h24
c-13 -92 -69 -128 -133 -128c-62 0 -117 36 -131 128h24c9 -40 36 -96 107 -96z" />
    <glyph glyph-name="Gcircumflex.small" unicode="&#xf67e;" horiz-adv-x="615" 
d="M336 35c47 0 79 4 144 21v199h-135v37h185v-270c-59 -19 -116 -32 -195 -32c-200 0 -268 109 -268 304c0 187 68 296 268 296c79 0 140 -13 202 -33l-12 -42c-84 24 -131 30 -189 30c-170 0 -216 -99 -216 -251c0 -160 46 -259 216 -259zM332 725l-92 -95h-30l106 120h33
l106 -120h-30z" />
    <glyph glyph-name="Gcommaaccent.small" unicode="&#xf67f;" horiz-adv-x="615" 
d="M336 35c47 0 79 4 144 21v199h-135v37h185v-270c-59 -19 -116 -32 -195 -32c-200 0 -268 109 -268 304c0 187 68 296 268 296c79 0 140 -13 202 -33l-12 -42c-84 24 -131 30 -189 30c-170 0 -216 -99 -216 -251c0 -160 46 -259 216 -259zM321 -198h-19l12 88h-13v70h45
v-70z" />
    <glyph glyph-name="Gdotaccent.small" unicode="&#xf680;" horiz-adv-x="615" 
d="M336 35c47 0 79 4 144 21v199h-135v37h185v-270c-59 -19 -116 -32 -195 -32c-200 0 -268 109 -268 304c0 187 68 296 268 296c79 0 140 -13 202 -33l-12 -42c-84 24 -131 30 -189 30c-170 0 -216 -99 -216 -251c0 -160 46 -259 216 -259zM312 750h45v-105h-45v105z" />
    <glyph glyph-name="Hsmall" unicode="&#xf768;" 
d="M127 0h-50v580h50v-263h345v263h50v-580h-50v272h-345v-272z" />
    <glyph glyph-name="Hbar.small" horiz-adv-x="620" 
d="M17 486h70v94h50v-94h345v94h50v-94h70v-32h-70v-454h-50v272h-345v-272h-50v454h-70v32zM137 317h345v137h-345v-137z" />
    <glyph glyph-name="Hcircumflex.small" unicode="&#xf682;" 
d="M127 0h-50v580h50v-263h345v263h50v-580h-50v272h-345v-272zM299 725l-92 -95h-30l106 120h33l106 -120h-30z" />
    <glyph glyph-name="Ismall" unicode="&#xf769;" horiz-adv-x="205" 
d="M127 0h-50v580h50v-580z" />
    <glyph glyph-name="Iacutesmall" unicode="&#xf7ed;" horiz-adv-x="205" 
d="M127 0h-50v580h50v-580zM196 750l-77 -120h-30l65 120h42z" />
    <glyph glyph-name="Ibreve.small" unicode="&#xf683;" horiz-adv-x="205" 
d="M127 0h-50v580h50v-580zM101 669c74 0 100 56 109 96h24c-13 -92 -69 -128 -133 -128c-62 0 -117 36 -131 128h24c9 -40 36 -96 107 -96z" />
    <glyph glyph-name="Icircumflexsmall" unicode="&#xf7ee;" horiz-adv-x="205" 
d="M127 0h-50v580h50v-580zM102 725l-92 -95h-30l106 120h33l106 -120h-30z" />
    <glyph glyph-name="Idieresissmall" unicode="&#xf7ef;" horiz-adv-x="205" 
d="M127 0h-50v580h50v-580zM-49 750h42v-105h-42v105zM211 750h42v-105h-42v105z" />
    <glyph glyph-name="Idotaccent.small" unicode="&#xf6ad;" horiz-adv-x="205" 
d="M127 0h-50v580h50v-580zM80 750h45v-105h-45v105z" />
    <glyph glyph-name="Igravesmall" unicode="&#xf7ec;" horiz-adv-x="205" 
d="M127 0h-50v580h50v-580zM86 630l-77 120h42l65 -120h-30z" />
    <glyph glyph-name="Imacron.small" unicode="&#xf685;" horiz-adv-x="205" 
d="M127 0h-50v580h50v-580zM-45 710h295v-33h-295v33z" />
    <glyph glyph-name="Iogonek.small" horiz-adv-x="205" 
d="M127 580v-580c-50 -24 -88 -81 -88 -120c0 -34 20 -55 57 -55c33 0 52 14 66 22l4 -16c-23 -18 -53 -29 -85 -29c-37 0 -77 19 -77 66c0 50 39 101 86 132c-4 36 -8 73 -13 109v471h50z" />
    <glyph glyph-name="Itilde.small" unicode="&#xf687;" horiz-adv-x="205" 
d="M127 0h-50v580h50v-580zM51 705c-25 0 -37 -3 -89 -55l-17 15c43 56 70 74 105 74c47 0 96 -62 130 -62c18 0 39 7 65 51l16 -15c-22 -44 -47 -68 -81 -68c-38 0 -91 60 -129 60z" />
    <glyph glyph-name="IJ.small" horiz-adv-x="520" 
d="M127 0h-50v580h50v-580zM445 580v-420c0 -130 -50 -170 -140 -170c-26 0 -54 2 -79 6l5 45c26 -4 42 -5 61 -5c75 0 100 40 100 127v417h53z" />
    <glyph glyph-name="Jsmall" unicode="&#xf76a;" horiz-adv-x="315" 
d="M240 580v-420c0 -130 -50 -170 -140 -170c-26 0 -54 2 -79 6l5 45c26 -4 42 -5 61 -5c75 0 100 40 100 127v417h53z" />
    <glyph glyph-name="Jcircumflex.small" unicode="&#xf688;" horiz-adv-x="315" 
d="M240 580v-420c0 -130 -50 -170 -140 -170c-26 0 -54 2 -79 6l5 45c26 -4 42 -5 61 -5c75 0 100 40 100 127v417h53zM213 725l-92 -95h-30l106 120h33l106 -120h-30z" />
    <glyph glyph-name="Ksmall" unicode="&#xf76b;" horiz-adv-x="579" 
d="M127 580v-341l330 341h63l-220 -231l227 -349h-63l-200 312l-137 -143v-169h-50v580h50z" />
    <glyph glyph-name="Kcommaaccent.small" unicode="&#xf689;" horiz-adv-x="579" 
d="M127 580v-341l330 341h63l-220 -231l227 -349h-63l-200 312l-137 -143v-169h-50v580h50zM277 -198h-19l12 88h-13v70h45v-70z" />
    <glyph glyph-name="Lsmall" unicode="&#xf76c;" horiz-adv-x="500" 
d="M77 580h50v-535h315v-45h-365v580z" />
    <glyph glyph-name="Lacute.small" unicode="&#xf68a;" horiz-adv-x="500" 
d="M77 580h50v-535h315v-45h-365v580zM196 750l-77 -120h-30l65 120h42z" />
    <glyph glyph-name="Lcaron.small" unicode="&#xf68b;" horiz-adv-x="500" 
d="M77 580h50v-535h315v-45h-365v580zM254 422h-19l12 88h-13v70h45v-70z" />
    <glyph glyph-name="Lcommaaccent.small" unicode="&#xf68c;" horiz-adv-x="500" 
d="M77 580h50v-535h315v-45h-365v580zM259 -198h-19l12 88h-13v70h45v-70z" />
    <glyph glyph-name="Ldot.small" unicode="&#xf68d;" horiz-adv-x="500" 
d="M77 580h50v-535h315v-45h-365v580zM232 370h45v-105h-45v105z" />
    <glyph glyph-name="Lslashsmall" unicode="&#xf6f9;" horiz-adv-x="500" 
d="M242 314l-115 -29v-240h315v-45h-365v273l-70 -17v33l70 16v275h50v-262l115 28v-32z" />
    <glyph glyph-name="Msmall" unicode="&#xf76d;" horiz-adv-x="760" 
d="M145 580l235 -499h2l233 499h67v-580h-50v491h-2l-231 -491h-40l-231 491h-2v-491h-49v580h68z" />
    <glyph glyph-name="Nsmall" unicode="&#xf76e;" horiz-adv-x="610" 
d="M126 0h-49v580h53l352 -496h2v496h48v-580h-52l-352 496h-2v-496z" />
    <glyph glyph-name="Nacute.small" unicode="&#xf68e;" horiz-adv-x="610" 
d="M126 0h-49v580h53l352 -496h2v496h48v-580h-52l-352 496h-2v-496zM401 750l-77 -120h-30l65 120h42z" />
    <glyph glyph-name="Ncaron.small" unicode="&#xf68f;" horiz-adv-x="610" 
d="M126 0h-49v580h53l352 -496h2v496h48v-580h-52l-352 496h-2v-496zM212 750l92 -95l93 95h30l-106 -120h-33l-106 120h30z" />
    <glyph glyph-name="Ncommaaccent.small" unicode="&#xf690;" horiz-adv-x="610" 
d="M126 0h-49v580h53l352 -496h2v496h48v-580h-52l-352 496h-2v-496zM304 -198h-19l12 88h-13v70h45v-70z" />
    <glyph glyph-name="Ntildesmall" unicode="&#xf7f1;" horiz-adv-x="610" 
d="M126 0h-49v580h53l352 -496h2v496h48v-580h-52l-352 496h-2v-496zM253 705c-25 0 -37 -3 -89 -55l-17 15c43 56 70 74 105 74c47 0 96 -62 130 -62c18 0 39 7 65 51l16 -15c-22 -44 -47 -68 -81 -68c-38 0 -91 60 -129 60z" />
    <glyph glyph-name="Osmall" unicode="&#xf76f;" horiz-adv-x="650" 
d="M325 547c-174 0 -205 -112 -205 -252s31 -263 205 -263s205 123 205 263s-31 252 -205 252zM325 -10c-194 0 -258 117 -258 305c0 184 64 295 258 295s257 -111 257 -295c0 -188 -63 -305 -257 -305z" />
    <glyph glyph-name="Oacutesmall" unicode="&#xf7f3;" horiz-adv-x="650" 
d="M325 547c-174 0 -205 -112 -205 -252s31 -263 205 -263s205 123 205 263s-31 252 -205 252zM325 -10c-194 0 -258 117 -258 305c0 184 64 295 258 295s257 -111 257 -295c0 -188 -63 -305 -257 -305zM411 750l-77 -120h-30l65 120h42z" />
    <glyph glyph-name="Obreve.small" unicode="&#xf691;" horiz-adv-x="650" 
d="M325 547c-174 0 -205 -112 -205 -252s31 -263 205 -263s205 123 205 263s-31 252 -205 252zM325 -10c-194 0 -258 117 -258 305c0 184 64 295 258 295s257 -111 257 -295c0 -188 -63 -305 -257 -305zM324 669c74 0 100 56 109 96h24c-13 -92 -69 -128 -133 -128
c-62 0 -117 36 -131 128h24c9 -40 36 -96 107 -96z" />
    <glyph glyph-name="Ocircumflexsmall" unicode="&#xf7f4;" horiz-adv-x="650" 
d="M325 547c-174 0 -205 -112 -205 -252s31 -263 205 -263s205 123 205 263s-31 252 -205 252zM325 -10c-194 0 -258 117 -258 305c0 184 64 295 258 295s257 -111 257 -295c0 -188 -63 -305 -257 -305zM324 725l-92 -95h-30l106 120h33l106 -120h-30z" />
    <glyph glyph-name="Odieresissmall" unicode="&#xf7f6;" horiz-adv-x="650" 
d="M325 547c-174 0 -205 -112 -205 -252s31 -263 205 -263s205 123 205 263s-31 252 -205 252zM325 -10c-194 0 -258 117 -258 305c0 184 64 295 258 295s257 -111 257 -295c0 -188 -63 -305 -257 -305zM174 750h42v-105h-42v105zM434 750h42v-105h-42v105z" />
    <glyph glyph-name="Ogravesmall" unicode="&#xf7f2;" horiz-adv-x="650" 
d="M325 547c-174 0 -205 -112 -205 -252s31 -263 205 -263s205 123 205 263s-31 252 -205 252zM325 -10c-194 0 -258 117 -258 305c0 184 64 295 258 295s257 -111 257 -295c0 -188 -63 -305 -257 -305zM311 630l-77 120h42l65 -120h-30z" />
    <glyph glyph-name="Ohungarumlaut.small" unicode="&#xf692;" horiz-adv-x="650" 
d="M325 547c-174 0 -205 -112 -205 -252s31 -263 205 -263s205 123 205 263s-31 252 -205 252zM325 -10c-194 0 -258 117 -258 305c0 184 64 295 258 295s257 -111 257 -295c0 -188 -63 -305 -257 -305zM335 750l-70 -120h-30l65 120h35zM442 750l-70 -120h-30l65 120h35z
" />
    <glyph glyph-name="Omacron.small" unicode="&#xf693;" horiz-adv-x="650" 
d="M325 547c-174 0 -205 -112 -205 -252s31 -263 205 -263s205 123 205 263s-31 252 -205 252zM325 -10c-194 0 -258 117 -258 305c0 184 64 295 258 295s257 -111 257 -295c0 -188 -63 -305 -257 -305zM177 710h295v-33h-295v33z" />
    <glyph glyph-name="Otildesmall" unicode="&#xf7f5;" horiz-adv-x="650" 
d="M325 547c-174 0 -205 -112 -205 -252s31 -263 205 -263s205 123 205 263s-31 252 -205 252zM325 -10c-194 0 -258 117 -258 305c0 184 64 295 258 295s257 -111 257 -295c0 -188 -63 -305 -257 -305zM273 705c-25 0 -37 -3 -89 -55l-17 15c43 56 70 74 105 74
c47 0 96 -62 130 -62c18 0 39 7 65 51l16 -15c-22 -44 -47 -68 -81 -68c-38 0 -91 60 -129 60z" />
    <glyph glyph-name="Oslashsmall" unicode="&#xf7f8;" horiz-adv-x="650" 
d="M325 -10c-81 0 -139 21 -179 59l-63 -78l-18 15l63 79c-44 53 -61 131 -61 230c0 184 64 295 258 295c82 0 140 -21 180 -59l61 75l19 -15l-62 -76c42 -51 59 -126 59 -220c0 -188 -63 -305 -257 -305zM325 547c-174 0 -205 -112 -205 -252c0 -73 9 -141 42 -188l314 387
c-32 33 -79 53 -151 53zM325 32c174 0 205 123 205 263c0 69 -9 134 -40 178l-314 -387c31 -33 78 -54 149 -54z" />
    <glyph glyph-name="Oslashacute.small" unicode="&#xf694;" horiz-adv-x="650" 
d="M409 750l-77 -120h-30l65 120h42zM325 -10c-81 0 -139 21 -179 59l-63 -78l-18 15l63 79c-44 53 -61 131 -61 230c0 184 64 295 258 295c82 0 140 -21 180 -59l61 75l19 -15l-62 -76c42 -51 59 -126 59 -220c0 -188 -63 -305 -257 -305zM325 547
c-174 0 -205 -112 -205 -252c0 -73 9 -141 42 -188l314 387c-32 33 -79 53 -151 53zM325 32c174 0 205 123 205 263c0 69 -9 134 -40 178l-314 -387c31 -33 78 -54 149 -54z" />
    <glyph glyph-name="OEsmall" unicode="&#xf6fa;" horiz-adv-x="975" 
d="M902 580v-45h-320v-218h275v-45h-275v-227h325v-45h-372v138c-27 -94 -92 -148 -210 -148c-194 0 -258 117 -258 305c0 184 64 295 258 295c118 0 182 -49 211 -143v133h366zM325 547c-174 0 -205 -112 -205 -252s31 -263 205 -263s205 123 205 263s-31 252 -205 252z
" />
    <glyph glyph-name="Psmall" unicode="&#xf770;" horiz-adv-x="560" 
d="M307 212h-180v-212h-50v580h230c128 0 195 -76 195 -184c0 -115 -67 -184 -195 -184zM127 535v-278h178c92 0 146 48 146 139c0 84 -54 139 -146 139h-178z" />
    <glyph glyph-name="Qsmall" unicode="&#xf771;" horiz-adv-x="650" 
d="M325 32c166 0 205 115 205 263c0 140 -31 252 -205 252s-205 -112 -205 -252s31 -263 205 -263zM311 -10c-185 6 -244 122 -244 305c0 184 64 295 258 295s257 -111 257 -295c0 -185 -63 -288 -228 -294c28 -45 118 -64 216 -53v-43c-117 -14 -211 9 -259 85z" />
    <glyph glyph-name="Rsmall" unicode="&#xf772;" horiz-adv-x="575" 
d="M524 0h-64l-173 212h-160v-212h-50v580h230c128 0 195 -78 195 -184c0 -99 -55 -169 -161 -176zM127 535v-278h173c100 0 151 48 151 139c0 84 -51 139 -144 139h-180z" />
    <glyph glyph-name="Racute.small" unicode="&#xf695;" horiz-adv-x="575" 
d="M524 0h-64l-173 212h-160v-212h-50v580h230c128 0 195 -78 195 -184c0 -99 -55 -169 -161 -176zM127 535v-278h173c100 0 151 48 151 139c0 84 -51 139 -144 139h-180zM355 750l-77 -120h-30l65 120h42z" />
    <glyph glyph-name="Rcaron.small" unicode="&#xf696;" horiz-adv-x="575" 
d="M524 0h-64l-173 212h-160v-212h-50v580h230c128 0 195 -78 195 -184c0 -99 -55 -169 -161 -176zM127 535v-278h173c100 0 151 48 151 139c0 84 -51 139 -144 139h-180zM174 750l92 -95l93 95h30l-106 -120h-33l-106 120h30z" />
    <glyph glyph-name="Rcommaaccent.small" unicode="&#xf697;" horiz-adv-x="575" 
d="M524 0h-64l-173 212h-160v-212h-50v580h230c128 0 195 -78 195 -184c0 -99 -55 -169 -161 -176zM127 535v-278h173c100 0 151 48 151 139c0 84 -51 139 -144 139h-180zM279 -198h-19l12 88h-13v70h45v-70z" />
    <glyph glyph-name="Ssmall" unicode="&#xf773;" horiz-adv-x="570" 
d="M280 273c-104 22 -193 47 -193 164c0 113 83 153 193 153c72 0 135 -10 212 -33l-12 -42c-96 25 -141 30 -199 30c-116 0 -141 -51 -141 -104c0 -101 100 -107 176 -124c103 -21 186 -55 186 -163c0 -116 -98 -164 -212 -164c-73 0 -145 10 -223 32l13 43
c96 -25 155 -30 211 -30c118 0 159 60 159 116c0 94 -101 107 -170 122z" />
    <glyph glyph-name="Sacute.small" unicode="&#xf698;" horiz-adv-x="570" 
d="M280 273c-104 22 -193 47 -193 164c0 113 83 153 193 153c72 0 135 -10 212 -33l-12 -42c-96 25 -141 30 -199 30c-116 0 -141 -51 -141 -104c0 -101 100 -107 176 -124c103 -21 186 -55 186 -163c0 -116 -98 -164 -212 -164c-73 0 -145 10 -223 32l13 43
c96 -25 155 -30 211 -30c118 0 159 60 159 116c0 94 -101 107 -170 122zM382 750l-77 -120h-30l65 120h42z" />
    <glyph glyph-name="Scaronsmall" unicode="&#xf6fd;" horiz-adv-x="570" 
d="M202 780l82 -110l83 110h40l-104 -140h-37l-104 140h40zM280 273c-104 22 -193 47 -193 164c0 113 83 153 193 153c72 0 135 -10 212 -33l-12 -42c-96 25 -141 30 -199 30c-116 0 -141 -51 -141 -104c0 -101 100 -107 176 -124c103 -21 186 -55 186 -163
c0 -116 -98 -164 -212 -164c-73 0 -145 10 -223 32l13 43c96 -25 155 -30 211 -30c118 0 159 60 159 116c0 94 -101 107 -170 122z" />
    <glyph glyph-name="Scedilla.small" horiz-adv-x="570" 
d="M280 273c-104 22 -193 47 -193 164c0 113 83 153 193 153c72 0 135 -10 212 -33l-12 -42c-96 25 -141 30 -199 30c-116 0 -141 -51 -141 -104c0 -101 100 -107 176 -124c103 -21 186 -55 186 -163c0 -115 -96 -162 -207 -164v-48c41 -2 84 -19 84 -71
c0 -46 -35 -76 -93 -76c-24 0 -42 4 -68 12l5 20c16 -5 31 -10 57 -10c54 0 66 37 66 57s-12 53 -73 53v63c-68 2 -135 12 -206 32l13 43c96 -25 155 -30 211 -30c118 0 159 60 159 116c0 94 -101 107 -170 122z" />
    <glyph glyph-name="Scircumflex.small" unicode="&#xf69a;" horiz-adv-x="570" 
d="M280 273c-104 22 -193 47 -193 164c0 113 83 153 193 153c72 0 135 -10 212 -33l-12 -42c-96 25 -141 30 -199 30c-116 0 -141 -51 -141 -104c0 -101 100 -107 176 -124c103 -21 186 -55 186 -163c0 -116 -98 -164 -212 -164c-73 0 -145 10 -223 32l13 43
c96 -25 155 -30 211 -30c118 0 159 60 159 116c0 94 -101 107 -170 122zM284 725l-92 -95h-30l106 120h33l106 -120h-30z" />
    <glyph glyph-name="Scommaaccent.small" unicode="&#xf69b;" horiz-adv-x="570" 
d="M280 273c-104 22 -193 47 -193 164c0 113 83 153 193 153c72 0 135 -10 212 -33l-12 -42c-96 25 -141 30 -199 30c-116 0 -141 -51 -141 -104c0 -101 100 -107 176 -124c103 -21 186 -55 186 -163c0 -116 -98 -164 -212 -164c-73 0 -145 10 -223 32l13 43
c96 -25 155 -30 211 -30c118 0 159 60 159 116c0 94 -101 107 -170 122zM284 -198h-19l12 88h-13v70h45v-70z" />
    <glyph glyph-name="Tsmall" unicode="&#xf774;" horiz-adv-x="520" 
d="M462 535h-177v-535h-50v535h-178v45h405v-45z" />
    <glyph glyph-name="Tcaron.small" unicode="&#xf69d;" horiz-adv-x="520" 
d="M462 535h-177v-535h-50v535h-178v45h405v-45zM167 750l92 -95l93 95h30l-106 -120h-33l-106 120h30z" />
    <glyph glyph-name="Tbar.small" horiz-adv-x="520" 
d="M142 246h93v289h-178v45h405v-45h-177v-289h92v-32h-92v-214h-50v214h-93v32z" />
    <glyph glyph-name="Tcommaaccent.small" unicode="&#xf69e;" horiz-adv-x="520" 
d="M462 535h-177v-535h-50v535h-178v45h405v-45zM257 -198h-19l12 88h-13v70h45v-70z" />
    <glyph glyph-name="Usmall" unicode="&#xf775;" 
d="M77 225v355h50v-348c0 -88 7 -200 177 -200c155 0 168 112 168 200v348h50v-348c0 -172 -75 -242 -222 -242c-144 0 -223 62 -223 235z" />
    <glyph glyph-name="Uacutesmall" unicode="&#xf7fa;" 
d="M77 225v355h50v-348c0 -88 7 -200 177 -200c155 0 168 112 168 200v348h50v-348c0 -172 -75 -242 -222 -242c-144 0 -223 62 -223 235zM381 750l-77 -120h-30l65 120h42z" />
    <glyph glyph-name="Ubreve.small" unicode="&#xf69f;" 
d="M77 225v355h50v-348c0 -88 7 -200 177 -200c155 0 168 112 168 200v348h50v-348c0 -172 -75 -242 -222 -242c-144 0 -223 62 -223 235zM299 669c74 0 100 56 109 96h24c-13 -92 -69 -128 -133 -128c-62 0 -117 36 -131 128h24c9 -40 36 -96 107 -96z" />
    <glyph glyph-name="Ucircumflexsmall" unicode="&#xf7fb;" 
d="M77 225v355h50v-348c0 -88 7 -200 177 -200c155 0 168 112 168 200v348h50v-348c0 -172 -75 -242 -222 -242c-144 0 -223 62 -223 235zM299 725l-92 -95h-30l106 120h33l106 -120h-30z" />
    <glyph glyph-name="Udieresissmall" unicode="&#xf7fc;" 
d="M77 225v355h50v-348c0 -88 7 -200 177 -200c155 0 168 112 168 200v348h50v-348c0 -172 -75 -242 -222 -242c-144 0 -223 62 -223 235zM149 750h42v-105h-42v105zM409 750h42v-105h-42v105z" />
    <glyph glyph-name="Uhungarumlaut.small" unicode="&#xf6a0;" 
d="M77 225v355h50v-348c0 -88 7 -200 177 -200c155 0 168 112 168 200v348h50v-348c0 -172 -75 -242 -222 -242c-144 0 -223 62 -223 235zM290 750l-70 -120h-30l65 120h35zM397 750l-70 -120h-30l65 120h35z" />
    <glyph glyph-name="Ugravesmall" unicode="&#xf7f9;" 
d="M77 225v355h50v-348c0 -88 7 -200 177 -200c155 0 168 112 168 200v348h50v-348c0 -172 -75 -242 -222 -242c-144 0 -223 62 -223 235zM243 630l-77 120h42l65 -120h-30z" />
    <glyph glyph-name="Umacron.small" unicode="&#xf6a1;" 
d="M77 225v355h50v-348c0 -88 7 -200 177 -200c155 0 168 112 168 200v348h50v-348c0 -172 -75 -242 -222 -242c-144 0 -223 62 -223 235zM152 710h295v-33h-295v33z" />
    <glyph glyph-name="Uogonek.small" 
d="M77 225v355h50v-348c0 -88 7 -200 177 -200c155 0 168 112 168 200v348h50v-348c0 -168 -70 -238 -210 -242c-37 -31 -66 -75 -66 -110c0 -34 19 -55 56 -55c33 0 52 14 66 22l4 -16c-23 -18 -53 -29 -85 -29c-37 0 -77 19 -77 66c0 46 31 89 73 122
c-133 5 -206 68 -206 235z" />
    <glyph glyph-name="Uring.small" unicode="&#xf6a3;" 
d="M77 225v355h50v-348c0 -88 7 -200 177 -200c155 0 168 112 168 200v348h50v-348c0 -172 -75 -242 -222 -242c-144 0 -223 62 -223 235zM227 690c0 42 32 72 73 72c42 0 74 -30 74 -72s-32 -73 -74 -73c-41 0 -73 31 -73 73zM247 690c0 -31 23 -54 53 -54
c31 0 53 23 53 54c0 30 -22 54 -53 54c-30 0 -53 -24 -53 -54z" />
    <glyph glyph-name="Utilde.small" unicode="&#xf6a4;" 
d="M77 225v355h50v-348c0 -88 7 -200 177 -200c155 0 168 112 168 200v348h50v-348c0 -172 -75 -242 -222 -242c-144 0 -223 62 -223 235zM248 705c-25 0 -37 -3 -89 -55l-17 15c43 56 70 74 105 74c47 0 96 -62 130 -62c18 0 39 7 65 51l16 -15c-22 -44 -47 -68 -81 -68
c-38 0 -91 60 -129 60z" />
    <glyph glyph-name="Vsmall" unicode="&#xf776;" horiz-adv-x="610" 
d="M310 59h1l196 521h55l-223 -585h-61l-231 585h59z" />
    <glyph glyph-name="Wsmall" unicode="&#xf777;" horiz-adv-x="900" 
d="M448 500h-2l-146 -505h-64l-189 585h59l166 -520h1l147 520h58l151 -520h1l167 520h55l-188 -585h-69z" />
    <glyph glyph-name="Wacute.small" unicode="&#xf6a5;" horiz-adv-x="900" 
d="M448 500h-2l-146 -505h-64l-189 585h59l166 -520h1l147 520h58l151 -520h1l167 520h55l-188 -585h-69zM545 750l-77 -120h-30l65 120h42z" />
    <glyph glyph-name="Wcircumflex.small" unicode="&#xf6a6;" horiz-adv-x="900" 
d="M448 500h-2l-146 -505h-64l-189 585h59l166 -520h1l147 520h58l151 -520h1l167 520h55l-188 -585h-69zM449 725l-92 -95h-30l106 120h33l106 -120h-30z" />
    <glyph glyph-name="Wdieresis.small" unicode="&#xf6a7;" horiz-adv-x="900" 
d="M448 500h-2l-146 -505h-64l-189 585h59l166 -520h1l147 520h58l151 -520h1l167 520h55l-188 -585h-69zM299 750h42v-105h-42v105zM559 750h42v-105h-42v105z" />
    <glyph glyph-name="Wgrave.small" unicode="&#xf6a8;" horiz-adv-x="900" 
d="M448 500h-2l-146 -505h-64l-189 585h59l166 -520h1l147 520h58l151 -520h1l167 520h55l-188 -585h-69zM431 630l-77 120h42l65 -120h-30z" />
    <glyph glyph-name="Xsmall" unicode="&#xf778;" horiz-adv-x="625" 
d="M488 580h59l-206 -273l233 -307h-64l-201 264l-201 -264h-57l227 304l-203 276h60l177 -231z" />
    <glyph glyph-name="Ysmall" unicode="&#xf779;" horiz-adv-x="580" 
d="M290 240h2l183 340h57l-217 -400v-180h-50v180l-218 400h61z" />
    <glyph glyph-name="Yacutesmall" unicode="&#xf7fd;" horiz-adv-x="580" 
d="M290 240h2l183 340h57l-217 -400v-180h-50v180l-218 400h61zM384 750l-77 -120h-30l65 120h42z" />
    <glyph glyph-name="Ycircumflex.small" unicode="&#xf6a9;" horiz-adv-x="580" 
d="M290 240h2l183 340h57l-217 -400v-180h-50v180l-218 400h61zM289 725l-92 -95h-30l106 120h33l106 -120h-30z" />
    <glyph glyph-name="Ydieresissmall" unicode="&#xf7ff;" horiz-adv-x="580" 
d="M290 240h2l183 340h57l-217 -400v-180h-50v180l-218 400h61zM139 750h42v-105h-42v105zM399 750h42v-105h-42v105z" />
    <glyph glyph-name="Ygrave.small" unicode="&#xf6aa;" horiz-adv-x="580" 
d="M290 240h2l183 340h57l-217 -400v-180h-50v180l-218 400h61zM279 630l-77 120h42l65 -120h-30z" />
    <glyph glyph-name="Zsmall" unicode="&#xf77a;" horiz-adv-x="520" 
d="M120 47v-2h350v-45h-420v40l343 493v2h-323v45h390v-40z" />
    <glyph glyph-name="Zacute.small" unicode="&#xf6ab;" horiz-adv-x="520" 
d="M120 47v-2h350v-45h-420v40l343 493v2h-323v45h390v-40zM342 750l-77 -120h-30l65 120h42z" />
    <glyph glyph-name="Zcaronsmall" unicode="&#xf6ff;" horiz-adv-x="520" 
d="M177 780l82 -110l83 110h40l-104 -140h-37l-104 140h40zM120 47v-2h350v-45h-420v40l343 493v2h-323v45h390v-40z" />
    <glyph glyph-name="Zdotaccent.small" unicode="&#xf6ac;" horiz-adv-x="520" 
d="M120 47v-2h350v-45h-420v40l343 493v2h-323v45h390v-40zM237 750h45v-105h-45v105z" />
    <glyph glyph-name="abreve" unicode="&#x103;" horiz-adv-x="505" 
d="M255 467c-37 0 -85 -2 -161 -17l-8 41c64 13 129 19 179 19c112 0 172 -38 172 -163v-347h-50v50h-2c-53 -41 -100 -60 -168 -60c-100 0 -165 52 -165 141c0 102 74 149 210 149h125v65c0 80 -34 122 -132 122zM387 84v163h-122c-126 0 -163 -44 -163 -112
c0 -61 45 -105 133 -105c74 0 126 32 152 54zM271 599c74 0 100 56 109 96h24c-13 -92 -69 -128 -133 -128c-62 0 -117 36 -131 128h24c9 -40 36 -96 107 -96z" />
    <glyph glyph-name="amacron" unicode="&#x101;" horiz-adv-x="505" 
d="M255 467c-37 0 -85 -2 -161 -17l-8 41c64 13 129 19 179 19c112 0 172 -38 172 -163v-347h-50v50h-2c-53 -41 -100 -60 -168 -60c-100 0 -165 52 -165 141c0 102 74 149 210 149h125v65c0 80 -34 122 -132 122zM387 84v163h-122c-126 0 -163 -44 -163 -112
c0 -61 45 -105 133 -105c74 0 126 32 152 54zM118 642h295v-35h-295v35z" />
    <glyph glyph-name="aogonek" unicode="&#x105;" horiz-adv-x="505" 
d="M398 0h-11v50h-2c-53 -41 -100 -60 -168 -60c-100 0 -165 52 -165 141c0 102 74 149 210 149h125v65c0 80 -34 122 -132 122c-37 0 -85 -2 -161 -17l-8 41c64 13 129 19 179 19c112 0 172 -38 172 -163v-347c-52 -26 -90 -80 -90 -120c0 -34 19 -55 56 -55
c34 0 53 14 66 22l4 -16c-23 -18 -53 -29 -85 -29c-37 0 -77 18 -77 68c0 45 36 93 87 130zM387 84v163h-122c-126 0 -163 -44 -163 -112c0 -61 45 -105 133 -105c74 0 126 32 152 54z" />
    <glyph glyph-name="aeacute" unicode="&#x1fd;" horiz-adv-x="860" 
d="M802 247h-361c1 -128 52 -215 193 -215c54 0 103 4 156 20l7 -41c-58 -16 -105 -21 -170 -21c-102 0 -166 35 -202 94c-66 -73 -141 -94 -208 -94c-93 0 -165 46 -165 141c0 134 126 149 210 149h125v65c0 80 -34 122 -132 122c-37 0 -85 -2 -161 -17l-8 41
c60 12 130 19 179 19c97 0 145 -34 158 -131c27 79 88 131 197 131c166 0 191 -113 191 -187c0 -29 -5 -59 -9 -76zM235 30c73 0 134 32 176 75c-24 50 -23 106 -24 142h-122c-126 0 -163 -44 -163 -112c0 -61 45 -105 133 -105zM617 470c-127 0 -169 -86 -176 -189h313
c3 13 6 32 6 51c0 63 -28 138 -143 138zM534 700l-77 -140h-40l65 140h52z" />
    <glyph glyph-name="cacute" unicode="&#x107;" horiz-adv-x="480" 
d="M57 250c0 152 62 260 233 260c61 0 105 -6 165 -21l-10 -42c-77 20 -123 20 -155 20c-133 0 -180 -97 -180 -217s47 -218 180 -218c32 0 78 0 155 20l10 -41c-60 -15 -104 -21 -165 -21c-171 0 -233 107 -233 260zM361 700l-77 -140h-40l65 140h52z" />
    <glyph glyph-name="ccaron" unicode="&#x10d;" horiz-adv-x="480" 
d="M57 250c0 152 62 260 233 260c61 0 105 -6 165 -21l-10 -42c-77 20 -123 20 -155 20c-133 0 -180 -97 -180 -217s47 -218 180 -218c32 0 78 0 155 20l10 -41c-60 -15 -104 -21 -165 -21c-171 0 -233 107 -233 260zM207 700l82 -110l83 110h40l-104 -140h-37l-104 140h40z
" />
    <glyph glyph-name="ccircumflex" unicode="&#x109;" horiz-adv-x="480" 
d="M57 250c0 152 62 260 233 260c61 0 105 -6 165 -21l-10 -42c-77 20 -123 20 -155 20c-133 0 -180 -97 -180 -217s47 -218 180 -218c32 0 78 0 155 20l10 -41c-60 -15 -104 -21 -165 -21c-171 0 -233 107 -233 260zM275 670l-82 -110h-40l104 140h37l104 -140h-40z" />
    <glyph glyph-name="cdotaccent" unicode="&#x10b;" horiz-adv-x="480" 
d="M57 250c0 152 62 260 233 260c61 0 105 -6 165 -21l-10 -42c-77 20 -123 20 -155 20c-133 0 -180 -97 -180 -217s47 -218 180 -218c32 0 78 0 155 20l10 -41c-60 -15 -104 -21 -165 -21c-171 0 -233 107 -233 260zM260 680h45v-105h-45v105z" />
    <glyph glyph-name="c_t" horiz-adv-x="855" 
d="M587 148v314h-82v34l82 4l7 140h43v-140h155v-38h-155v-307c0 -81 20 -124 98 -124c17 0 32 1 57 5l5 -40c-24 -4 -56 -6 -77 -6c-91 0 -133 38 -133 158zM57 250c0 152 62 260 233 260c61 0 105 -6 165 -21l-10 -42c-77 20 -123 20 -155 20c-133 0 -180 -97 -180 -217
s47 -218 180 -218c32 0 78 0 155 20l10 -41c-60 -15 -104 -21 -165 -21c-171 0 -233 107 -233 260z" />
    <glyph glyph-name="dcaron" unicode="&#x10f;" horiz-adv-x="577" 
d="M412 0v50h-2c-39 -35 -100 -60 -165 -60c-140 0 -188 112 -188 260c0 147 50 260 190 260c64 0 124 -24 163 -59h2v249h50v-700h-50zM110 250c0 -115 34 -218 152 -218c68 0 125 33 150 54v328c-25 20 -82 53 -150 53c-118 0 -152 -102 -152 -217zM541 542h-19l12 88h-13
v70h45v-70z" />
    <glyph glyph-name="dcroat" unicode="&#x111;" horiz-adv-x="530" 
d="M412 0v50h-2c-39 -35 -100 -60 -165 -60c-140 0 -188 112 -188 260c0 147 50 260 190 260c64 0 124 -24 163 -59h2v123h-115v32h115v94h50v-94h70v-32h-70v-574h-50zM110 250c0 -115 34 -218 152 -218c68 0 125 33 150 54v328c-25 20 -82 53 -150 53
c-118 0 -152 -102 -152 -217z" />
    <glyph glyph-name="ebreve" unicode="&#x115;" horiz-adv-x="530" 
d="M472 247h-361c1 -125 49 -215 193 -215c54 0 103 4 156 20l7 -41c-58 -16 -105 -21 -170 -21c-177 0 -240 107 -240 260c0 152 63 260 233 260c157 0 196 -103 191 -202c-1 -20 -5 -40 -9 -61zM287 470c-127 0 -169 -86 -176 -189h313c5 21 7 42 5 63
c-3 68 -41 126 -142 126zM289 599c74 0 100 56 109 96h24c-13 -92 -69 -128 -133 -128c-62 0 -117 36 -131 128h24c9 -40 36 -96 107 -96z" />
    <glyph glyph-name="ecaron" unicode="&#x11b;" horiz-adv-x="530" 
d="M472 247h-361c1 -125 49 -215 193 -215c54 0 103 4 156 20l7 -41c-58 -16 -105 -21 -170 -21c-177 0 -240 107 -240 260c0 152 63 260 233 260c157 0 196 -103 191 -202c-1 -20 -5 -40 -9 -61zM287 470c-127 0 -169 -86 -176 -189h313c5 21 7 42 5 63
c-3 68 -41 126 -142 126zM208 700l82 -110l83 110h40l-104 -140h-37l-104 140h40z" />
    <glyph glyph-name="edotaccent" unicode="&#x117;" horiz-adv-x="530" 
d="M472 247h-361c1 -125 49 -215 193 -215c54 0 103 4 156 20l7 -41c-58 -16 -105 -21 -170 -21c-177 0 -240 107 -240 260c0 152 63 260 233 260c157 0 196 -103 191 -202c-1 -20 -5 -40 -9 -61zM287 470c-127 0 -169 -86 -176 -189h313c5 21 7 42 5 63
c-3 68 -41 126 -142 126zM263 680h45v-105h-45v105z" />
    <glyph glyph-name="emacron" unicode="&#x113;" horiz-adv-x="530" 
d="M472 247h-361c1 -125 49 -215 193 -215c54 0 103 4 156 20l7 -41c-58 -16 -105 -21 -170 -21c-177 0 -240 107 -240 260c0 152 63 260 233 260c157 0 196 -103 191 -202c-1 -20 -5 -40 -9 -61zM287 470c-127 0 -169 -86 -176 -189h313c5 21 7 42 5 63
c-3 68 -41 126 -142 126zM135 642h295v-35h-295v35z" />
    <glyph glyph-name="eogonek" unicode="&#x119;" horiz-adv-x="530" 
d="M111 281h313c5 21 7 42 5 63c-3 68 -41 126 -142 126c-127 0 -169 -86 -176 -189zM472 247h-361c1 -125 49 -215 193 -215c54 0 103 4 156 20l7 -41c-42 -31 -78 -81 -78 -120c0 -34 19 -55 56 -55c34 0 52 14 66 22l4 -15c-23 -18 -53 -29 -85 -29c-37 0 -77 19 -77 66
c0 24 12 73 73 122c-28 -5 -61 -12 -129 -12c-177 0 -240 107 -240 260c0 152 63 260 233 260c157 0 196 -103 191 -202c-1 -20 -5 -40 -9 -61z" />
    <glyph glyph-name="gbreve" unicode="&#x11f;" horiz-adv-x="555" 
d="M82 -73c0 -58 44 -102 167 -102c119 0 213 41 213 124c0 36 -22 68 -103 72l-195 10c-47 -29 -82 -55 -82 -104zM265 212c87 0 142 51 142 128c0 79 -55 135 -142 135c-99 0 -146 -56 -146 -135s55 -128 146 -128zM135 40v2c-29 13 -40 39 -36 67c3 31 23 65 57 89v2
c-51 25 -85 72 -85 140c0 105 71 170 194 170c29 0 47 -5 65 -10h167v-33h-113c58 -34 70 -89 70 -127c0 -108 -83 -163 -189 -163c-27 0 -62 6 -81 14c-12 -11 -21 -23 -28 -36c-19 -37 -14 -80 31 -82l189 -11c105 -6 139 -48 139 -105c0 -102 -87 -167 -280 -167
c-123 0 -195 40 -195 130c0 46 30 85 95 120zM263 599c74 0 100 56 109 96h24c-13 -92 -69 -128 -133 -128c-62 0 -117 36 -131 128h24c9 -40 36 -96 107 -96z" />
    <glyph glyph-name="gcircumflex" unicode="&#x11d;" horiz-adv-x="555" 
d="M82 -73c0 -58 44 -102 167 -102c119 0 213 41 213 124c0 36 -22 68 -103 72l-195 10c-47 -29 -82 -55 -82 -104zM265 212c87 0 142 51 142 128c0 79 -55 135 -142 135c-99 0 -146 -56 -146 -135s55 -128 146 -128zM135 40v2c-29 13 -40 39 -36 67c3 31 23 65 57 89v2
c-51 25 -85 72 -85 140c0 105 71 170 194 170c29 0 47 -5 65 -10h167v-33h-113c58 -34 70 -89 70 -127c0 -108 -83 -163 -189 -163c-27 0 -62 6 -81 14c-12 -11 -21 -23 -28 -36c-19 -37 -14 -80 31 -82l189 -11c105 -6 139 -48 139 -105c0 -102 -87 -167 -280 -167
c-123 0 -195 40 -195 130c0 46 30 85 95 120zM272 670l-82 -110h-40l104 140h37l104 -140h-40z" />
    <glyph glyph-name="gcommaaccent" unicode="&#x123;" horiz-adv-x="555" 
d="M82 -73c0 -58 44 -102 167 -102c119 0 213 41 213 124c0 36 -22 68 -103 72l-195 10c-47 -29 -82 -55 -82 -104zM265 212c87 0 142 51 142 128c0 79 -55 135 -142 135c-99 0 -146 -56 -146 -135s55 -128 146 -128zM135 40v2c-29 13 -40 39 -36 67c3 31 23 65 57 89v2
c-51 25 -85 72 -85 140c0 105 71 170 194 170c29 0 47 -5 65 -10h167v-33h-113c58 -34 70 -89 70 -127c0 -108 -83 -163 -189 -163c-27 0 -62 6 -81 14c-12 -11 -21 -23 -28 -36c-19 -37 -14 -80 31 -82l189 -11c105 -6 139 -48 139 -105c0 -102 -87 -167 -280 -167
c-123 0 -195 40 -195 130c0 46 30 85 95 120zM267 727h19l-12 -87h13v-70h-45v70z" />
    <glyph glyph-name="gdotaccent" unicode="&#x121;" horiz-adv-x="555" 
d="M82 -73c0 -58 44 -102 167 -102c119 0 213 41 213 124c0 36 -22 68 -103 72l-195 10c-47 -29 -82 -55 -82 -104zM265 212c87 0 142 51 142 128c0 79 -55 135 -142 135c-99 0 -146 -56 -146 -135s55 -128 146 -128zM135 40v2c-29 13 -40 39 -36 67c3 31 23 65 57 89v2
c-51 25 -85 72 -85 140c0 105 71 170 194 170c29 0 47 -5 65 -10h167v-33h-113c58 -34 70 -89 70 -127c0 -108 -83 -163 -189 -163c-27 0 -62 6 -81 14c-12 -11 -21 -23 -28 -36c-19 -37 -14 -80 31 -82l189 -11c105 -6 139 -48 139 -105c0 -102 -87 -167 -280 -167
c-123 0 -195 40 -195 130c0 46 30 85 95 120zM241 680h45v-105h-45v105z" />
    <glyph glyph-name="hbar" unicode="&#x127;" horiz-adv-x="530" 
d="M117 574v-149h2c53 49 118 85 193 85c100 0 150 -55 150 -163v-347h-50v337c0 73 -27 130 -120 130c-73 0 -140 -47 -175 -76v-391h-50v574h-70v32h70v94h50v-94h115v-32h-115z" />
    <glyph glyph-name="hcircumflex" unicode="&#x125;" horiz-adv-x="530" 
d="M117 391v-391h-50v700h50v-275h2c53 49 118 85 193 85c100 0 150 -55 150 -163v-347h-50v337c0 73 -27 130 -120 130c-73 0 -140 -47 -175 -76zM92 860l-82 -110h-40l104 140h37l104 -140h-40z" />
    <glyph glyph-name="ibreve" unicode="&#x12d;" horiz-adv-x="185" 
d="M91 599c74 0 100 56 109 96h24c-13 -92 -69 -128 -133 -128c-62 0 -117 36 -131 128h24c9 -40 36 -96 107 -96zM67 500h50v-500h-50v500z" />
    <glyph glyph-name="imacron" unicode="&#x12b;" horiz-adv-x="185" 
d="M-55 642h295v-35h-295v35zM67 500h50v-500h-50v500z" />
    <glyph glyph-name="iogonek" unicode="&#x12f;" horiz-adv-x="185" 
d="M117 500v-500c-48 -26 -85 -81 -85 -120c0 -34 19 -55 56 -55c34 0 52 14 66 22l4 -16c-23 -18 -53 -29 -85 -29c-36 0 -77 20 -77 66c0 50 38 96 85 132c-4 16 -9 31 -14 47v453h50zM67 700h50v-113h-50v113z" />
    <glyph glyph-name="itilde" unicode="&#x129;" horiz-adv-x="185" 
d="M41 635c-25 0 -37 -3 -89 -55l-17 20c43 56 70 74 105 74c47 0 96 -62 130 -62c18 0 39 7 65 51l16 -20c-22 -44 -47 -68 -81 -68c-38 0 -91 60 -129 60zM67 500h50v-500h-50v500z" />
    <glyph glyph-name="ij" unicode="&#x133;" horiz-adv-x="364" 
d="M67 500h50v-500h-50v500zM67 680h50v-113h-50v113zM297 500v-584c0 -92 -38 -126 -133 -126c-21 0 -47 2 -72 6l5 40c25 -4 41 -5 57 -5c71 0 93 24 93 92v577h50zM247 680h50v-113h-50v113z" />
    <glyph glyph-name="dotlessi" unicode="&#x131;" horiz-adv-x="185" 
d="M67 500h50v-500h-50v500z" />
    <glyph glyph-name="jcircumflex" unicode="&#x135;" horiz-adv-x="225" 
d="M157 500v-584c0 -92 -37 -126 -132 -126c-21 0 -48 2 -73 6l6 40c24 -4 40 -5 57 -5c71 0 92 24 92 92v577h50zM132 670l-82 -110h-40l104 140h37l104 -140h-40z" />
    <glyph glyph-name="dotlessj" unicode="&#x237;" horiz-adv-x="225" 
d="M157 500v-584c0 -92 -37 -126 -132 -126c-21 0 -48 2 -73 6l6 40c24 -4 40 -5 57 -5c71 0 92 24 92 92v577h50z" />
    <glyph glyph-name="kcommaaccent" unicode="&#x137;" horiz-adv-x="530" 
d="M117 700v-434l293 234h62l-197 -165l207 -335h-59l-184 307l-122 -96v-211h-50v700h50zM254 -198h-19l12 88h-13v70h45v-70z" />
    <glyph glyph-name="kgreenlandic" unicode="&#x138;" horiz-adv-x="530" 
d="M117 500v-234l293 234h62l-197 -165l207 -335h-59l-184 307l-122 -96v-211h-50v500h50z" />
    <glyph glyph-name="lacute" unicode="&#x13a;" horiz-adv-x="185" 
d="M67 0v700h50v-700h-50zM191 890l-77 -140h-40l65 140h52z" />
    <glyph glyph-name="lcaron" unicode="&#x13e;" horiz-adv-x="224" 
d="M67 0v700h50v-700h-50zM189 542h-19l12 88h-13v70h45v-70z" />
    <glyph glyph-name="lcommaaccent" unicode="&#x13c;" horiz-adv-x="185" 
d="M67 0v700h50v-700h-50zM90 -198h-19l12 88h-13v70h45v-70z" />
    <glyph glyph-name="ldot" unicode="&#x140;" horiz-adv-x="230" 
d="M67 0v700h50v-700h-50zM174 415h45v-110h-45v110z" />
    <glyph glyph-name="lslash" unicode="&#x142;" horiz-adv-x="225" 
d="M245 374l-108 -27v-347h-50v335l-107 -26v32l107 26v333h50v-320l108 26v-32z" />
    <glyph glyph-name="nacute" unicode="&#x144;" horiz-adv-x="530" 
d="M117 391v-391h-50v500h50v-75h2c53 49 118 85 193 85c100 0 150 -55 150 -163v-347h-50v337c0 73 -27 130 -120 130c-73 0 -140 -47 -175 -76zM359 700l-77 -140h-40l65 140h52z" />
    <glyph glyph-name="napostrophe" unicode="&#x149;" horiz-adv-x="530" 
d="M117 391v-391h-50v500h50v-75h2c53 49 118 85 193 85c100 0 150 -55 150 -163v-347h-50v337c0 73 -27 130 -120 130c-73 0 -140 -47 -175 -76zM94 543h-19l12 87h-13v70h45v-70z" />
    <glyph glyph-name="ncaron" unicode="&#x148;" horiz-adv-x="530" 
d="M117 391v-391h-50v500h50v-75h2c53 49 118 85 193 85c100 0 150 -55 150 -163v-347h-50v337c0 73 -27 130 -120 130c-73 0 -140 -47 -175 -76zM182 700l82 -110l83 110h40l-104 -140h-37l-104 140h40z" />
    <glyph glyph-name="ncommaaccent" unicode="&#x146;" horiz-adv-x="530" 
d="M117 391v-391h-50v500h50v-75h2c53 49 118 85 193 85c100 0 150 -55 150 -163v-347h-50v337c0 73 -27 130 -120 130c-73 0 -140 -47 -175 -76zM265 717h19l-12 -87h13v-70h-45v70z" />
    <glyph glyph-name="obreve" unicode="&#x14f;" horiz-adv-x="550" 
d="M275 467c-127 0 -165 -100 -165 -217c0 -118 38 -218 165 -218s165 100 165 218c0 117 -38 217 -165 217zM275 -10c-159 0 -218 107 -218 260c0 152 59 260 218 260s217 -108 217 -260c0 -153 -58 -260 -217 -260zM274 599c74 0 100 56 109 96h24
c-13 -92 -69 -128 -133 -128c-62 0 -117 36 -131 128h24c9 -40 36 -96 107 -96z" />
    <glyph glyph-name="ohungarumlaut" unicode="&#x151;" horiz-adv-x="550" 
d="M275 467c-127 0 -165 -100 -165 -217c0 -118 38 -218 165 -218s165 100 165 218c0 117 -38 217 -165 217zM275 -10c-159 0 -218 107 -218 260c0 152 59 260 218 260s217 -108 217 -260c0 -153 -58 -260 -217 -260zM298 680l-70 -120h-30l65 120h35zM405 680l-70 -120h-30
l65 120h35z" />
    <glyph glyph-name="omacron" unicode="&#x14d;" horiz-adv-x="550" 
d="M275 467c-127 0 -165 -100 -165 -217c0 -118 38 -218 165 -218s165 100 165 218c0 117 -38 217 -165 217zM275 -10c-159 0 -218 107 -218 260c0 152 59 260 218 260s217 -108 217 -260c0 -153 -58 -260 -217 -260zM127 642h295v-35h-295v35z" />
    <glyph glyph-name="oslashacute" unicode="&#x1ff;" horiz-adv-x="550" 
d="M358 700l-77 -140h-40l65 140h52zM275 -10c-71 0 -121 22 -155 61l-66 -78l-19 16l67 79c-32 45 -45 108 -45 182c0 152 59 260 218 260c70 0 120 -23 154 -60l67 77l19 -15l-69 -80c32 -46 46 -109 46 -182c0 -153 -58 -260 -217 -260zM275 32c127 0 165 100 165 218
c0 51 -9 101 -31 138l-257 -301c25 -33 64 -55 123 -55zM275 467c-127 0 -165 -100 -165 -217c0 -52 8 -101 30 -138l258 301c-26 33 -66 54 -123 54z" />
    <glyph glyph-name="racute" unicode="&#x155;" horiz-adv-x="370" 
d="M117 386v-386h-50v500h50v-80h2c50 45 123 90 203 90v-48c-82 0 -165 -46 -205 -76zM271 700l-77 -140h-40l65 140h52z" />
    <glyph glyph-name="rcaron" unicode="&#x159;" horiz-adv-x="370" 
d="M117 386v-386h-50v500h50v-80h2c50 45 123 90 203 90v-48c-82 0 -165 -46 -205 -76zM111 700l82 -110l83 110h40l-104 -140h-37l-104 140h40z" />
    <glyph glyph-name="rcommaaccent" unicode="&#x157;" horiz-adv-x="370" 
d="M117 386v-386h-50v500h50v-80h2c50 45 123 90 203 90v-48c-82 0 -165 -46 -205 -76zM89 -198h-19l12 88h-13v70h45v-70z" />
    <glyph glyph-name="sacute" unicode="&#x15b;" horiz-adv-x="480" 
d="M427 134c0 -90 -58 -144 -172 -144c-74 0 -143 6 -203 21l10 41c78 -20 155 -21 188 -21c121 0 127 80 127 100c0 41 -20 77 -138 101c-99 19 -177 50 -177 148c0 82 59 130 173 130c74 0 130 -6 190 -21l-10 -42c-77 20 -145 22 -178 22c-120 0 -125 -71 -125 -88
c0 -41 18 -79 133 -102c115 -24 182 -57 182 -145zM353 700l-77 -140h-40l65 140h52z" />
    <glyph glyph-name="scedilla" unicode="&#x15f;" horiz-adv-x="480" 
d="M427 134c0 -90 -57 -143 -170 -144v-48c41 -2 84 -19 84 -71c0 -46 -35 -76 -93 -76c-24 0 -43 4 -68 12l4 20c16 -5 32 -10 58 -10c54 0 66 37 66 57s-12 53 -73 53v63c-67 2 -128 8 -183 21l10 41c78 -20 155 -21 188 -21c121 0 127 80 127 100c0 41 -20 77 -138 101
c-99 19 -177 50 -177 148c0 82 59 130 173 130c74 0 130 -6 190 -21l-10 -42c-77 20 -145 22 -178 22c-120 0 -125 -71 -125 -88c0 -41 18 -79 133 -102c115 -24 182 -57 182 -145z" />
    <glyph glyph-name="scircumflex" unicode="&#x15d;" horiz-adv-x="480" 
d="M427 134c0 -90 -58 -144 -172 -144c-74 0 -143 6 -203 21l10 41c78 -20 155 -21 188 -21c121 0 127 80 127 100c0 41 -20 77 -138 101c-99 19 -177 50 -177 148c0 82 59 130 173 130c74 0 130 -6 190 -21l-10 -42c-77 20 -145 22 -178 22c-120 0 -125 -71 -125 -88
c0 -41 18 -79 133 -102c115 -24 182 -57 182 -145zM253 670l-82 -110h-40l104 140h37l104 -140h-40z" />
    <glyph glyph-name="scommaaccent" unicode="&#x219;" horiz-adv-x="480" 
d="M427 134c0 -90 -58 -144 -172 -144c-74 0 -143 6 -203 21l10 41c78 -20 155 -21 188 -21c121 0 127 80 127 100c0 41 -20 77 -138 101c-99 19 -177 50 -177 148c0 82 59 130 173 130c74 0 130 -6 190 -21l-10 -42c-77 20 -145 22 -178 22c-120 0 -125 -71 -125 -88
c0 -41 18 -79 133 -102c115 -24 182 -57 182 -145zM239 -198h-19l12 88h-13v70h45v-70z" />
    <glyph glyph-name="s_p" horiz-adv-x="1025" 
d="M427 134c0 -90 -58 -144 -172 -144c-74 0 -143 6 -203 21l10 41c78 -20 155 -21 188 -21c121 0 127 80 127 100c0 41 -20 77 -138 101c-99 19 -177 50 -177 148c0 82 59 130 173 130c74 0 130 -6 190 -21l-10 -42c-77 20 -145 22 -178 22c-120 0 -125 -71 -125 -88
c0 -41 18 -79 133 -102c115 -24 182 -57 182 -145zM612 500v-50h2c40 35 101 60 166 60c140 0 187 -113 187 -260c0 -148 -50 -260 -190 -260c-63 0 -123 24 -163 59h-2v-249h-50v700h50zM915 250c0 115 -34 217 -153 217c-67 0 -124 -33 -150 -53v-328
c26 -21 83 -54 150 -54c119 0 153 103 153 218z" />
    <glyph glyph-name="s_t" unicode="&#xfb06;" horiz-adv-x="860" 
d="M427 134c0 -90 -58 -144 -172 -144c-74 0 -143 6 -203 21l10 41c78 -20 155 -21 188 -21c121 0 127 80 127 100c0 41 -20 77 -138 101c-99 19 -177 50 -177 148c0 82 59 130 173 130c74 0 130 -6 190 -21l-10 -42c-77 20 -145 22 -178 22c-120 0 -125 -71 -125 -88
c0 -41 18 -79 133 -102c115 -24 182 -57 182 -145zM592 148v314h-82v34l82 4l7 140h43v-140h155v-38h-155v-307c0 -81 20 -124 98 -124c17 0 32 1 57 5l5 -40c-24 -4 -56 -6 -77 -6c-91 0 -133 38 -133 158z" />
    <glyph glyph-name="tbar" unicode="&#x167;" horiz-adv-x="375" 
d="M107 257h-60v33h60v172h-82v34l82 4l7 140h43v-140h155v-38h-155v-172h145v-33h-145v-102c0 -81 20 -124 98 -124c17 0 32 1 57 5l5 -40c-24 -4 -56 -6 -77 -6c-91 0 -133 38 -133 158v109z" />
    <glyph glyph-name="tcaron" unicode="&#x165;" horiz-adv-x="375" 
d="M107 148v314h-82v34l82 4l7 140h43v-140h155v-38h-155v-307c0 -81 20 -124 98 -124c17 0 32 1 57 5l5 -40c-24 -4 -56 -6 -77 -6c-91 0 -133 38 -133 158zM255 542h-19l12 88h-13v70h45v-70z" />
    <glyph glyph-name="tcommaaccent" unicode="&#x163;" horiz-adv-x="375" 
d="M107 148v314h-82v34l82 4l7 140h43v-140h155v-38h-155v-307c0 -81 20 -124 98 -124c17 0 32 1 57 5l5 -40c-24 -4 -56 -6 -77 -6c-91 0 -133 38 -133 158zM197 -198h-19l12 88h-13v70h45v-70z" />
    <glyph glyph-name="uni021B" unicode="&#x21b;" horiz-adv-x="375" 
d="M107 148v314h-82v34l82 4l7 140h43v-140h155v-38h-155v-307c0 -81 20 -124 98 -124c17 0 32 1 57 5l5 -40c-24 -4 -56 -6 -77 -6c-91 0 -133 38 -133 158zM208 -200h-19l12 88h-13v70h45v-70z" />
    <glyph glyph-name="ubreve" unicode="&#x16d;" horiz-adv-x="530" 
d="M412 109v391h50v-500h-50v75h-2c-53 -49 -118 -85 -193 -85c-100 0 -150 55 -150 162v348h50v-338c0 -72 29 -130 120 -130c74 0 140 48 175 77zM264 599c74 0 100 56 109 96h24c-13 -92 -69 -128 -133 -128c-62 0 -117 36 -131 128h24c9 -40 36 -96 107 -96z" />
    <glyph glyph-name="uhungarumlaut" unicode="&#x171;" horiz-adv-x="530" 
d="M412 109v391h50v-500h-50v75h-2c-53 -49 -118 -85 -193 -85c-100 0 -150 55 -150 162v348h50v-338c0 -72 29 -130 120 -130c74 0 140 48 175 77zM289 680l-70 -120h-30l65 120h35zM396 680l-70 -120h-30l65 120h35z" />
    <glyph glyph-name="umacron" unicode="&#x16b;" horiz-adv-x="530" 
d="M412 109v391h50v-500h-50v75h-2c-53 -49 -118 -85 -193 -85c-100 0 -150 55 -150 162v348h50v-338c0 -72 29 -130 120 -130c74 0 140 48 175 77zM117 642h295v-35h-295v35z" />
    <glyph glyph-name="uogonek" unicode="&#x173;" horiz-adv-x="530" 
d="M494 -153l4 -16c-23 -18 -53 -29 -85 -29c-37 0 -77 18 -77 68c0 45 36 93 87 130h-11v75h-2c-53 -49 -118 -85 -193 -85c-100 0 -150 55 -150 162v348h50v-338c0 -72 29 -130 120 -130c74 0 140 48 175 77v391h50v-500c-52 -26 -90 -80 -90 -120c0 -34 19 -55 56 -55
c34 0 53 14 66 22z" />
    <glyph glyph-name="uring" unicode="&#x16f;" horiz-adv-x="530" 
d="M412 109v391h50v-500h-50v75h-2c-53 -49 -118 -85 -193 -85c-100 0 -150 55 -150 162v348h50v-338c0 -72 29 -130 120 -130c74 0 140 48 175 77zM192 620c0 42 32 72 73 72c42 0 74 -30 74 -72s-32 -73 -74 -73c-41 0 -73 31 -73 73zM212 620c0 -31 23 -54 53 -54
c31 0 53 23 53 54c0 30 -22 54 -53 54c-30 0 -53 -24 -53 -54z" />
    <glyph glyph-name="utilde" unicode="&#x169;" horiz-adv-x="530" 
d="M412 109v391h50v-500h-50v75h-2c-53 -49 -118 -85 -193 -85c-100 0 -150 55 -150 162v348h50v-338c0 -72 29 -130 120 -130c74 0 140 48 175 77zM213 635c-25 0 -37 -3 -89 -55l-17 20c43 56 70 74 105 74c47 0 96 -62 130 -62c18 0 39 7 65 51l16 -20
c-22 -44 -47 -68 -81 -68c-38 0 -91 60 -129 60z" />
    <glyph glyph-name="wacute" unicode="&#x1e83;" horiz-adv-x="790" 
d="M396 422h-2l-125 -427h-55l-159 505h55l135 -446h2l125 446h48l130 -446h2l130 446h53l-155 -505h-55zM495 698l-77 -140h-40l65 140h52z" />
    <glyph glyph-name="wcircumflex" unicode="&#x175;" horiz-adv-x="790" 
d="M396 422h-2l-125 -427h-55l-159 505h55l135 -446h2l125 446h48l130 -446h2l130 446h53l-155 -505h-55zM394 670l-82 -110h-40l104 140h37l104 -140h-40z" />
    <glyph glyph-name="wdieresis" unicode="&#x1e85;" horiz-adv-x="790" 
d="M396 422h-2l-125 -427h-55l-159 505h55l135 -446h2l125 446h48l130 -446h2l130 446h53l-155 -505h-55zM271 685h43v-110h-43v110zM476 685h43v-110h-43v110z" />
    <glyph glyph-name="wgrave" unicode="&#x1e81;" horiz-adv-x="790" 
d="M396 422h-2l-125 -427h-55l-159 505h55l135 -446h2l125 446h48l130 -446h2l130 446h53l-155 -505h-55zM374 560l-77 140h52l65 -140h-40z" />
    <glyph glyph-name="ycircumflex" unicode="&#x177;" horiz-adv-x="560" 
d="M259 -12l-204 512h56l176 -454h2l162 454h54l-200 -543c-42 -117 -96 -167 -180 -167c-21 0 -43 2 -60 6l5 43c17 -4 31 -5 45 -5c85 0 119 91 144 154zM279 670l-82 -110h-40l104 140h37l104 -140h-40z" />
    <glyph glyph-name="ygrave" unicode="&#x1ef3;" horiz-adv-x="560" 
d="M259 -12l-204 512h56l176 -454h2l162 454h54l-200 -543c-42 -117 -96 -167 -180 -167c-21 0 -43 2 -60 6l5 43c17 -4 31 -5 45 -5c85 0 119 91 144 154zM258 560l-77 140h52l65 -140h-40z" />
    <glyph glyph-name="zacute" unicode="&#x17a;" horiz-adv-x="470" 
d="M426 500v-38l-324 -420v-2h332v-40h-398v37l325 421v2h-310v40h375zM330 700l-77 -140h-40l65 140h52z" />
    <glyph glyph-name="zdotaccent" unicode="&#x17c;" horiz-adv-x="470" 
d="M426 500v-38l-324 -420v-2h332v-40h-398v37l325 421v2h-310v40h375zM212 680h45v-105h-45v105z" />
    <glyph glyph-name="asuperior" unicode="&#xf6e9;" horiz-adv-x="297" 
d="M154 664c-18 0 -42 -2 -80 -9l-4 21c32 6 64 9 89 9c56 0 86 -19 86 -81v-174h-25v25c-28 -21 -51 -30 -85 -30c-50 0 -83 27 -83 71c0 51 38 74 105 74h63v32c0 41 -17 62 -66 62zM220 472v82h-61c-63 0 -82 -23 -82 -56c0 -31 23 -53 67 -53c37 0 63 16 76 27z" />
    <glyph glyph-name="bsuperior" unicode="&#xf6ea;" horiz-adv-x="307" 
d="M77 780v-125h1c20 18 51 30 83 30c70 0 94 -56 94 -130s-25 -130 -95 -130c-32 0 -62 12 -83 29h-1l-4 -25h-20v351h25zM229 555c0 57 -17 109 -77 109c-33 0 -62 -17 -75 -27v-164c13 -10 42 -27 75 -27c60 0 77 51 77 109z" />
    <glyph glyph-name="dsuperior" horiz-adv-x="307" 
d="M230 655v125h25v-351h-25v25h-1c-21 -17 -50 -29 -82 -29c-70 0 -95 56 -95 130s24 130 94 130c32 0 63 -12 83 -30h1zM79 555c0 -58 16 -109 76 -109c34 0 62 17 75 27v164c-13 10 -41 27 -75 27c-60 0 -76 -52 -76 -109z" />
    <glyph glyph-name="esuperior" unicode="&#xf6ec;" horiz-adv-x="318" 
d="M260 554h-181c1 -63 25 -108 97 -108c27 0 51 2 78 10c1 -7 3 -13 3 -20c-29 -8 -52 -11 -85 -11c-88 0 -120 54 -120 130s32 130 117 130c78 0 95 -52 95 -93c0 -13 -2 -26 -4 -38zM167 665c-63 0 -84 -43 -88 -94h157c2 10 4 21 3 32c-2 32 -21 62 -72 62z" />
    <glyph glyph-name="h.superior" horiz-adv-x="302" 
d="M77 626v-196h-25v350h25v-138h1c27 25 59 43 97 43c50 0 75 -28 75 -81v-174h-25v169c0 36 -14 65 -60 65c-37 0 -70 -24 -88 -38z" />
    <glyph glyph-name="isuperior" unicode="&#xf6ed;" horiz-adv-x="130" 
d="M52 780h25v-56h-25v56zM52 680h25v-250h-25v250z" />
    <glyph glyph-name="lsuperior" unicode="&#xf6ee;" horiz-adv-x="130" 
d="M52 430v350h25v-350h-25z" />
    <glyph glyph-name="msuperior" unicode="&#xf6ef;" horiz-adv-x="452" 
d="M77 626v-196h-25v250h25v-38h1c22 21 48 43 86 43c37 0 61 -15 70 -46c22 23 54 46 91 46c50 0 75 -28 75 -81v-174h-25v169c0 36 -14 65 -60 65c-32 0 -60 -24 -78 -40c1 -7 2 -17 2 -28v-166h-25v170c-1 35 -15 64 -60 64c-33 0 -59 -23 -77 -38z" />
    <glyph glyph-name="nsuperior" unicode="&#x207f;" horiz-adv-x="302" 
d="M77 626v-196h-25v250h25v-38h1c27 25 59 43 97 43c50 0 75 -28 75 -81v-174h-25v169c0 36 -14 65 -60 65c-37 0 -70 -24 -88 -38z" />
    <glyph glyph-name="osuperior" unicode="&#xf6f0;" horiz-adv-x="322" 
d="M162 664c-64 0 -83 -50 -83 -109s19 -109 83 -109c63 0 82 50 82 109s-19 109 -82 109zM162 425c-80 0 -110 54 -110 130s30 130 110 130c79 0 108 -54 108 -130s-29 -130 -108 -130z" />
    <glyph glyph-name="rsuperior" unicode="&#xf6f1;" horiz-adv-x="232" 
d="M77 623v-193h-25v250h25v-40h1c25 23 62 45 102 45v-24c-41 0 -83 -23 -103 -38z" />
    <glyph glyph-name="ssuperior" unicode="&#xf6f2;" horiz-adv-x="292" 
d="M240 497c0 -45 -29 -72 -86 -72c-37 0 -72 3 -102 11l6 20c38 -10 77 -10 93 -10c61 0 64 40 64 50c0 21 -10 39 -69 50c-50 10 -89 25 -89 74c0 41 30 65 87 65c37 0 65 -3 95 -11l-5 -20c-39 10 -73 10 -89 10c-60 0 -63 -35 -63 -43c0 -21 9 -40 67 -52
c57 -11 91 -28 91 -72z" />
    <glyph glyph-name="tsuperior" unicode="&#xf6f3;" horiz-adv-x="252" 
d="M94 504v157h-42v17l42 2l3 70h22v-70h77v-19h-77v-153c0 -41 10 -62 48 -62c9 0 17 1 29 2l3 -20c-13 -2 -29 -3 -39 -3c-46 0 -66 19 -66 79z" />
    <glyph glyph-name="Ethsmall" horiz-adv-x="610" 
d="M132 45h143c170 0 215 100 215 250s-45 240 -215 240h-143v-224h145v-32h-145v-234zM277 0h-195v279h-70v32h70v269h195c190 0 265 -100 265 -285c0 -189 -75 -295 -265 -295z" />
    <glyph glyph-name="Thornsmall" horiz-adv-x="560" 
d="M305 106h-178v-106h-50v580h50v-106h178c127 0 197 -77 197 -184c0 -115 -70 -184 -197 -184zM127 429v-278h178c92 0 146 48 146 139c0 84 -54 139 -146 139h-178z" />
    <glyph glyph-name="Eng" unicode="&#x14a;" horiz-adv-x="650" 
d="M522 -78v78l-391 577h-2v-577h-52v680h53l389 -582h2v582h51v-765c0 -92 -37 -126 -132 -126c-21 0 -48 3 -73 6l6 40c24 -3 40 -5 57 -5c71 0 92 24 92 92z" />
    <glyph glyph-name="Eng.small" horiz-adv-x="610" 
d="M482 -77v77l-354 496h-2v-496h-49v580h53l352 -496h2v496h48v-664c0 -92 -37 -126 -132 -126c-21 0 -48 2 -73 6l6 40c24 -4 40 -5 57 -5c71 0 92 24 92 92z" />
    <glyph glyph-name="eng" unicode="&#x14b;" horiz-adv-x="530" 
d="M412 -77v414c0 73 -27 130 -120 130c-73 0 -140 -47 -175 -76v-391h-50v500h50v-75h2c53 49 118 85 193 85c100 0 150 -55 150 -163v-431c0 -92 -37 -126 -132 -126c-21 0 -48 2 -73 6l6 40c24 -4 40 -5 57 -5c71 0 92 24 92 92z" />
    <glyph glyph-name="longs" unicode="&#x17f;" horiz-adv-x="345" 
d="M107 -77v619c0 120 42 158 133 158c21 0 48 -3 72 -6l-5 -40c-25 3 -40 5 -57 5c-75 0 -93 -43 -93 -124v-619c0 -89 -33 -126 -132 -126c-21 0 -48 2 -73 6l6 40c24 -4 40 -5 57 -5c75 0 92 28 92 92z" />
    <glyph glyph-name="longs_h" horiz-adv-x="865" 
d="M452 671v-246h2c53 49 118 85 193 85c100 0 150 -55 150 -163v-347h-50v337c0 73 -27 130 -120 130c-73 0 -140 -47 -175 -76v-391h-50v630c-63 27 -102 29 -120 29c-96 0 -125 -48 -125 -127v-616c0 -89 -33 -126 -132 -126c-21 0 -48 2 -73 6l6 40c24 -4 40 -5 57 -5
c75 0 92 28 92 92v609c0 120 63 168 170 168c26 0 82 -5 138 -29h37z" />
    <glyph glyph-name="longs_l" horiz-adv-x="520" 
d="M107 -77v609c0 120 63 168 170 168c26 0 82 -5 138 -29h37v-671h-50v630c-63 27 -102 29 -120 29c-96 0 -125 -48 -125 -127v-616c0 -89 -33 -126 -132 -126c-21 0 -48 2 -73 6l6 40c24 -4 40 -5 57 -5c75 0 92 28 92 92z" />
    <glyph glyph-name="longs_t" unicode="&#xfb05;" 
d="M107 -77v619c0 120 42 158 133 158c21 0 48 -3 72 -6l-5 -40c-25 3 -40 5 -57 5c-75 0 -93 -43 -93 -124v-619c0 -89 -33 -126 -132 -126c-21 0 -48 2 -73 6l6 40c24 -4 40 -5 57 -5c75 0 92 28 92 92zM332 148v314h-82v34l82 4l7 140h43v-140h155v-38h-155v-307
c0 -81 20 -124 98 -124c17 0 32 1 57 5l5 -40c-24 -4 -56 -6 -77 -6c-91 0 -133 38 -133 158z" />
    <glyph glyph-name="longs_i" horiz-adv-x="450" 
d="M107 -77v619c0 120 42 158 133 158c21 0 48 -3 72 -6l-5 -40c-25 3 -40 5 -57 5c-75 0 -93 -43 -93 -124v-619c0 -89 -33 -126 -132 -126c-21 0 -48 2 -73 6l6 40c24 -4 40 -5 57 -5c75 0 92 28 92 92zM332 500h50v-500h-50v500z" />
    <glyph glyph-name="longs_longs" horiz-adv-x="605" 
d="M107 -77v619c0 120 42 158 133 158c21 0 48 -3 72 -6l-5 -40c-25 3 -40 5 -57 5c-75 0 -93 -43 -93 -124v-619c0 -89 -33 -126 -132 -126c-21 0 -48 2 -73 6l6 40c24 -4 40 -5 57 -5c75 0 92 28 92 92zM367 -77v619c0 120 42 158 133 158c21 0 48 -3 72 -6l-5 -40
c-25 3 -40 5 -57 5c-75 0 -93 -43 -93 -124v-619c0 -89 -33 -126 -132 -126c-21 0 -48 2 -73 6l6 40c24 -4 40 -5 57 -5c75 0 92 28 92 92z" />
    <glyph glyph-name="zero.slash" horiz-adv-x="590" 
d="M295 -10c-176 0 -228 156 -228 355c0 195 52 345 228 345s227 -150 227 -345c0 -199 -51 -355 -227 -355zM295 32c144 0 175 158 175 313c0 60 -6 122 -24 172l-297 -375c25 -65 69 -110 146 -110zM295 647c-144 0 -175 -147 -175 -302c0 -60 5 -122 23 -172l296 374
c-25 60 -70 100 -144 100z" />
    <glyph glyph-name="franc" unicode="&#x20a3;" horiz-adv-x="700" 
d="M193 426h217l-6 -32h-218c-1 -17 -1 -33 -1 -49c0 -20 1 -40 2 -59h223l-6 -32h-209c19 -116 80 -217 220 -217c79 0 146 29 206 79l19 -41c-35 -28 -104 -85 -233 -85c-168 0 -248 115 -270 264h-77v32h72c-1 19 -2 39 -2 59c0 16 1 32 1 49h-71v32h76
c20 149 100 264 271 264c129 0 198 -57 233 -85l-19 -41c-60 50 -127 78 -206 78c-144 0 -204 -99 -222 -216z" />
    <glyph glyph-name="lira" unicode="&#x20a4;" horiz-adv-x="700" 
d="M193 426h217l-6 -32h-218c-1 -17 -1 -33 -1 -49c0 -20 1 -40 2 -59h223l-6 -32h-209c19 -116 80 -217 220 -217c79 0 146 29 206 79l19 -41c-35 -28 -104 -85 -233 -85c-168 0 -248 115 -270 264h-77v32h72c-1 19 -2 39 -2 59c0 16 1 32 1 49h-71v32h76
c20 149 100 264 271 264c129 0 198 -57 233 -85l-19 -41c-60 50 -127 78 -206 78c-144 0 -204 -99 -222 -216z" />
    <glyph glyph-name="peseta" unicode="&#x20a7;" horiz-adv-x="700" 
d="M193 426h217l-6 -32h-218c-1 -17 -1 -33 -1 -49c0 -20 1 -40 2 -59h223l-6 -32h-209c19 -116 80 -217 220 -217c79 0 146 29 206 79l19 -41c-35 -28 -104 -85 -233 -85c-168 0 -248 115 -270 264h-77v32h72c-1 19 -2 39 -2 59c0 16 1 32 1 49h-71v32h76
c20 149 100 264 271 264c129 0 198 -57 233 -85l-19 -41c-60 50 -127 78 -206 78c-144 0 -204 -99 -222 -216z" />
    <glyph glyph-name="colonmonetary" unicode="&#x20a1;" horiz-adv-x="630" 
d="M422 -100h-25v91c-16 0 -33 -1 -52 -1c-27 0 -51 2 -73 6v-96h-25v102c-148 42 -180 186 -180 343c0 153 33 289 180 333v102h25v-97c22 4 46 7 73 7c19 0 36 -1 52 -2v92h25v-94c41 -3 106 -16 148 -29l-12 -45c-66 16 -124 30 -208 30c-188 0 -228 -140 -228 -297
c0 -159 35 -308 228 -308c84 0 149 16 208 30l12 -45c-45 -13 -96 -23 -148 -28v-94z" />
    <glyph glyph-name="rupiah" unicode="&#xf6dd;" horiz-adv-x="1076" 
d="M130 632v-297h205c92 0 154 55 154 149c0 86 -54 148 -147 148h-212zM614 0h-112l-181 287h-191v-287h-53v680h270c128 0 195 -89 195 -196c0 -100 -59 -178 -166 -189l165 -258h73v463h50v-50h2c39 35 100 60 165 60c140 0 188 -113 188 -260c0 -148 -50 -260 -190 -260
c-64 0 -124 24 -163 59h-2v-249h-50v200zM966 250c0 115 -34 217 -152 217c-68 0 -125 -33 -150 -53v-328c25 -21 82 -54 150 -54c118 0 152 103 152 218z" />
    <glyph glyph-name="zero.fitted" 
d="M300 647c-144 0 -175 -147 -175 -302s31 -313 175 -313s175 158 175 313s-31 302 -175 302zM300 -10c-181 0 -228 164 -228 355c0 187 47 345 228 345s227 -158 227 -345c0 -191 -46 -355 -227 -355z" />
    <glyph glyph-name="one.fitted" 
d="M57 42h225v580l-190 -110l-15 43c78 40 166 89 220 130h35v-643h210v-42h-485v42z" />
    <glyph glyph-name="two.fitted" 
d="M285 644c-54 0 -105 -9 -177 -45l-16 41c65 30 123 50 203 50c141 0 202 -94 202 -199c0 -140 -103 -282 -333 -444v-2h343v-45h-415v51c310 210 353 351 353 428c0 147 -113 165 -160 165z" />
    <glyph glyph-name="three.fitted" 
d="M358 346v-2c97 -15 159 -80 159 -169c0 -117 -73 -185 -226 -185c-75 0 -150 13 -209 46l17 39c55 -29 119 -43 190 -43c163 0 177 99 177 145c0 79 -56 142 -191 142h-80v42h78c116 0 175 74 175 148c0 49 -22 138 -159 138c-65 0 -120 -16 -172 -43l-16 40
c58 31 129 46 195 46c130 0 201 -67 201 -177c0 -89 -65 -146 -139 -167z" />
    <glyph glyph-name="four.fitted" 
d="M115 235h270v379h-2c-68 -137 -167 -265 -268 -379zM371 680h64v-445h102v-43h-102v-192h-50v192h-323v43c110 120 237 284 309 445z" />
    <glyph glyph-name="five.fitted" 
d="M285 -10c-78 0 -138 18 -203 50l16 39c72 -37 126 -47 184 -47c109 0 183 66 183 180c0 79 -38 169 -160 169c-63 0 -113 -28 -153 -84l-39 4l19 379h345v-45h-301l-18 -290l2 -1c35 46 92 81 160 81c124 0 197 -79 197 -210c0 -144 -92 -225 -232 -225z" />
    <glyph glyph-name="six.fitted" 
d="M132 350l2 -1c43 63 105 106 177 106c130 0 206 -85 206 -235c0 -144 -91 -230 -209 -230c-182 0 -226 152 -226 310c0 295 123 390 272 390c65 0 102 -11 142 -23l-7 -40c-48 14 -85 20 -131 20c-186 0 -222 -202 -226 -297zM136 305c-4 -140 23 -273 168 -273
c85 0 161 66 161 188c0 83 -30 191 -166 191c-67 0 -125 -47 -163 -106z" />
    <glyph glyph-name="seven.fitted" 
d="M437 633v2h-330v45h385v-38c-104 -168 -231 -407 -270 -642h-55c30 199 165 475 270 633z" />
    <glyph glyph-name="eight.fitted" 
d="M348 359v-2c99 -39 179 -87 179 -186c0 -111 -82 -181 -228 -181c-145 0 -227 68 -227 177c0 100 85 151 179 184v2c-90 32 -159 80 -159 171c0 103 85 166 209 166c122 0 206 -63 206 -164c0 -89 -64 -129 -159 -167zM124 171c0 -73 44 -142 177 -142
c132 0 175 67 175 138c0 96 -96 133 -183 165c-83 -28 -169 -71 -169 -161zM299 651c-57 0 -157 -23 -157 -127c0 -80 73 -121 163 -146c85 29 152 66 152 143c0 106 -99 130 -158 130z" />
    <glyph glyph-name="nine.fitted" 
d="M467 329l-2 1c-42 -62 -105 -105 -176 -105c-130 0 -207 85 -207 235c0 144 92 230 210 230c182 0 225 -153 225 -310c0 -295 -123 -390 -271 -390c-65 0 -102 11 -143 23l8 39c48 -13 84 -20 131 -20c186 0 222 202 225 297zM464 375c4 140 -23 272 -168 272
c-85 0 -161 -65 -161 -187c0 -83 30 -191 166 -191c66 0 125 47 163 106z" />
    <glyph glyph-name="zerooldstyle" unicode="&#xf730;" horiz-adv-x="590" 
d="M295 467c-117 0 -175 -100 -175 -217c0 -118 58 -218 175 -218s175 100 175 218c0 117 -58 217 -175 217zM295 -10c-146 0 -228 107 -228 260c0 152 82 260 228 260s227 -108 227 -260c0 -153 -81 -260 -227 -260z" />
    <glyph glyph-name="oneoldstyle" horiz-adv-x="361" 
d="M238 442l-191 -110l-15 43c79 40 167 89 221 130h35v-505h-50v442z" />
    <glyph glyph-name="twooldstyle" unicode="&#xf732;" horiz-adv-x="590" 
d="M287 464c-53 0 -116 -11 -187 -45l-13 43c65 30 130 48 208 48c121 0 197 -68 197 -164c0 -159 -174 -229 -333 -302v-2l343 3v-45h-415v51c284 123 353 197 353 285c0 106 -105 128 -153 128z" />
    <glyph glyph-name="threeoldstyle" horiz-adv-x="570" 
d="M343 166v-2c97 -15 159 -80 159 -169c0 -117 -73 -185 -226 -185c-75 0 -150 13 -209 46l17 39c55 -29 119 -43 190 -43c163 0 177 99 177 145c0 79 -56 142 -191 142h-80v42h78c116 0 175 74 175 148c0 49 -22 138 -159 138c-65 0 -120 -16 -172 -43l-16 40
c58 31 129 46 195 46c130 0 201 -67 201 -177c0 -89 -65 -146 -139 -167z" />
    <glyph glyph-name="fouroldstyle" 
d="M366 505h64v-463h102v-42h-102v-170h-50v170h-323v42c110 120 237 302 309 463zM110 42h270v405h-2c-68 -136 -167 -291 -268 -405z" />
    <glyph glyph-name="fiveoldstyle" horiz-adv-x="570" 
d="M270 -190c-78 0 -138 18 -203 50l16 39c72 -37 126 -47 184 -47c109 0 183 66 183 180c0 79 -38 169 -160 169c-63 0 -113 -28 -153 -84l-39 4l19 379h345v-45h-301l-18 -290l2 -1c35 46 92 81 160 81c124 0 197 -79 197 -210c0 -144 -92 -225 -232 -225z" />
    <glyph glyph-name="sixoldstyle" horiz-adv-x="570" 
d="M117 350l2 -1c43 63 105 106 177 106c130 0 206 -85 206 -235c0 -144 -91 -230 -209 -230c-182 0 -226 152 -226 310c0 295 123 390 272 390c65 0 102 -11 142 -23l-7 -40c-48 14 -85 20 -131 20c-186 0 -222 -202 -226 -297zM121 305c-4 -140 23 -273 168 -273
c85 0 161 66 161 188c0 83 -30 191 -166 191c-67 0 -125 -47 -163 -106z" />
    <glyph glyph-name="sevenoldstyle" horiz-adv-x="500" 
d="M387 453v2h-330v45h385v-38c-104 -168 -231 -407 -270 -642h-55c30 199 165 475 270 633z" />
    <glyph glyph-name="eightoldstyle" horiz-adv-x="590" 
d="M343 359v-2c99 -39 179 -87 179 -186c0 -111 -82 -181 -228 -181c-145 0 -227 68 -227 177c0 100 85 151 179 184v2c-90 32 -159 80 -159 171c0 103 85 166 209 166c122 0 206 -63 206 -164c0 -89 -64 -129 -159 -167zM119 171c0 -73 44 -142 177 -142
c132 0 175 67 175 138c0 96 -96 133 -183 165c-83 -28 -169 -71 -169 -161zM294 651c-57 0 -157 -23 -157 -127c0 -80 73 -121 163 -146c85 29 152 66 152 143c0 106 -99 130 -158 130z" />
    <glyph glyph-name="nineoldstyle" horiz-adv-x="570" 
d="M452 149l-2 1c-42 -62 -105 -105 -176 -105c-130 0 -207 85 -207 235c0 144 92 230 210 230c182 0 225 -153 225 -310c0 -295 -123 -390 -271 -390c-65 0 -102 11 -143 23l8 39c48 -13 84 -20 131 -20c186 0 222 202 225 297zM449 195c4 140 -23 272 -168 272
c-85 0 -161 -65 -161 -187c0 -83 30 -191 166 -191c66 0 125 47 163 106z" />
    <glyph glyph-name="centoldstyle" unicode="&#xf7a2;" horiz-adv-x="532" 
d="M304 467c-119 0 -184 -97 -184 -217s65 -218 184 -218c61 0 96 12 154 34l7 -40c-54 -23 -96 -36 -165 -36c-146 0 -233 107 -233 260c0 152 87 260 233 260c69 0 111 -13 165 -36l-7 -40c-58 22 -93 33 -154 33zM310 -130h-30v100h30v-100zM310 530h-30v100h30v-100z
" />
    <glyph glyph-name="dollaroldstyle" unicode="&#xf724;" horiz-adv-x="510" 
d="M254 232c-99 19 -177 50 -177 148c0 82 72 130 173 130c74 0 132 -12 190 -34l-10 -39c-75 25 -128 32 -178 32c-112 0 -125 -71 -125 -88c0 -41 18 -79 133 -102c115 -24 182 -60 182 -153c0 -79 -67 -136 -172 -136c-74 0 -145 12 -203 34l10 38
c74 -25 138 -31 188 -31c114 0 127 75 127 92c0 42 -20 85 -138 109zM270 -130h-30v100h30v-100zM270 530h-30v100h30v-100z" />
    <glyph glyph-name="zero.taboldstyle" 
d="M300 467c-117 0 -175 -100 -175 -217c0 -118 58 -218 175 -218s175 100 175 218c0 117 -58 217 -175 217zM300 -10c-146 0 -228 107 -228 260c0 152 82 260 228 260s227 -108 227 -260c0 -153 -81 -260 -227 -260z" />
    <glyph glyph-name="one.taboldstyle" 
d="M57 42h225v400l-190 -110l-15 43c78 40 166 89 220 130h35v-463h210v-42h-485v42z" />
    <glyph glyph-name="two.taboldstyle" 
d="M292 464c-53 0 -116 -11 -187 -45l-13 43c65 30 130 48 208 48c121 0 197 -68 197 -164c0 -159 -174 -229 -333 -302v-2l343 3v-45h-415v51c284 123 353 197 353 285c0 106 -105 128 -153 128z" />
    <glyph glyph-name="three.taboldstyle" 
d="M358 166v-2c97 -15 159 -80 159 -169c0 -117 -73 -185 -226 -185c-75 0 -150 13 -209 46l17 39c55 -29 119 -43 190 -43c163 0 177 99 177 145c0 79 -56 142 -191 142h-80v42h78c116 0 175 74 175 148c0 49 -22 138 -159 138c-65 0 -120 -16 -172 -43l-16 40
c58 31 129 46 195 46c130 0 201 -67 201 -177c0 -89 -65 -146 -139 -167z" />
    <glyph glyph-name="four.taboldstyle" 
d="M371 505h64v-463h102v-42h-102v-170h-50v170h-323v42c110 120 237 302 309 463zM115 42h270v405h-2c-68 -136 -167 -291 -268 -405z" />
    <glyph glyph-name="five.taboldstyle" 
d="M285 -190c-78 0 -138 18 -203 50l16 39c72 -37 126 -47 184 -47c109 0 183 66 183 180c0 79 -38 169 -160 169c-63 0 -113 -28 -153 -84l-39 4l19 379h345v-45h-301l-18 -290l2 -1c35 46 92 81 160 81c124 0 197 -79 197 -210c0 -144 -92 -225 -232 -225z" />
    <glyph glyph-name="six.taboldstyle" 
d="M132 350l2 -1c43 63 105 106 177 106c130 0 206 -85 206 -235c0 -144 -91 -230 -209 -230c-182 0 -226 152 -226 310c0 295 123 390 272 390c65 0 102 -11 142 -23l-7 -40c-48 14 -85 20 -131 20c-186 0 -222 -202 -226 -297zM136 305c-4 -140 23 -273 168 -273
c85 0 161 66 161 188c0 83 -30 191 -166 191c-67 0 -125 -47 -163 -106z" />
    <glyph glyph-name="seven.taboldstyle" 
d="M437 453v2h-330v45h385v-38c-104 -168 -231 -407 -270 -642h-55c30 199 165 475 270 633z" />
    <glyph glyph-name="eight.taboldstyle" 
d="M348 359v-2c99 -39 179 -87 179 -186c0 -111 -82 -181 -228 -181c-145 0 -227 68 -227 177c0 100 85 151 179 184v2c-90 32 -159 80 -159 171c0 103 85 166 209 166c122 0 206 -63 206 -164c0 -89 -64 -129 -159 -167zM124 171c0 -73 44 -142 177 -142
c132 0 175 67 175 138c0 96 -96 133 -183 165c-83 -28 -169 -71 -169 -161zM299 651c-57 0 -157 -23 -157 -127c0 -80 73 -121 163 -146c85 29 152 66 152 143c0 106 -99 130 -158 130z" />
    <glyph glyph-name="nine.taboldstyle" 
d="M467 149l-2 1c-42 -62 -105 -105 -176 -105c-130 0 -207 85 -207 235c0 144 92 230 210 230c182 0 225 -153 225 -310c0 -295 -123 -390 -271 -390c-65 0 -102 11 -143 23l8 39c48 -13 84 -20 131 -20c186 0 222 202 225 297zM464 195c4 140 -23 272 -168 272
c-85 0 -161 -65 -161 -187c0 -83 30 -191 166 -191c66 0 125 47 163 106z" />
    <glyph glyph-name="currency.taboldstyle" horiz-adv-x="513" 
d="M100 249c0 45 18 85 48 114l-78 90l8 8l79 -90c27 22 62 36 100 36c37 0 72 -14 99 -36l78 90l9 -8l-78 -89c31 -29 50 -70 50 -115s-19 -86 -49 -114l76 -86l-9 -9l-77 87c-27 -22 -62 -35 -99 -35c-38 0 -73 13 -100 35l-76 -87l-9 9l76 86c-30 29 -48 69 -48 114z
M112 249c0 -79 66 -145 145 -145s146 66 146 145s-67 146 -146 146s-145 -67 -145 -146z" />
    <glyph glyph-name="cent.taboldstyle" 
d="M337 467c-118 0 -183 -97 -183 -217s65 -218 183 -218c62 0 97 12 155 34l7 -40c-54 -23 -97 -36 -165 -36c-147 0 -233 107 -233 260c0 152 86 260 233 260c68 0 111 -13 165 -36l-7 -40c-58 22 -93 33 -155 33zM344 -130h-30v100h30v-100zM344 530h-30v100h30v-100z
" />
    <glyph glyph-name="dollar.taboldstyle" 
d="M299 232c-99 19 -177 50 -177 148c0 82 72 130 173 130c74 0 132 -12 190 -34l-10 -39c-75 25 -128 32 -178 32c-112 0 -125 -71 -125 -88c0 -41 18 -79 133 -102c115 -24 182 -60 182 -153c0 -79 -67 -136 -172 -136c-74 0 -145 12 -203 34l10 38
c74 -25 138 -31 188 -31c114 0 127 75 127 92c0 42 -20 85 -138 109zM315 -130h-30v100h30v-100zM315 530h-30v100h30v-100z" />
    <glyph glyph-name="Euro.taboldstyle" 
d="M76 305h54c19 122 101 205 229 205c68 0 111 -13 165 -36l-7 -40c-58 22 -93 33 -155 33c-100 0 -161 -71 -178 -162h147v-20h-151c-1 -12 -1 -24 -1 -35c0 -12 0 -24 1 -35h151v-20h-147c17 -91 78 -163 178 -163c62 0 97 12 155 34l7 -40c-54 -23 -97 -36 -165 -36
c-128 0 -210 82 -229 205h-54v20h52c-2 11 -2 22 -2 35c0 12 0 24 2 35h-52v20z" />
    <glyph glyph-name="franc.taboldstyle" 
d="M76 305h54c19 122 101 205 229 205c68 0 111 -13 165 -36l-7 -40c-58 22 -93 33 -155 33c-100 0 -161 -71 -178 -162h147v-20h-151c-1 -12 -1 -24 -1 -35c0 -12 0 -24 1 -35h151v-20h-147c17 -91 78 -163 178 -163c62 0 97 12 155 34l7 -40c-54 -23 -97 -36 -165 -36
c-128 0 -210 82 -229 205h-54v20h52c-2 11 -2 22 -2 35c0 12 0 24 2 35h-52v20z" />
    <glyph glyph-name="sterling.taboldstyle" 
d="M327 237h-155v-192h335v-45h-435v45h50v192h-50v33h50v89c0 112 95 151 198 151c89 0 156 -23 207 -54l-16 -38c-70 37 -132 49 -194 49c-112 0 -145 -56 -145 -110v-87h155v-33z" />
    <glyph glyph-name="yen.taboldstyle" 
d="M333 195h119v-28h-127v-167h-50v167h-128v28h119l-189 305h61l162 -270h2l163 270h57z" />
    <glyph glyph-name="lira.taboldstyle" 
d="M76 305h54c19 122 101 205 229 205c68 0 111 -13 165 -36l-7 -40c-58 22 -93 33 -155 33c-100 0 -161 -71 -178 -162h147v-20h-151c-1 -12 -1 -24 -1 -35c0 -12 0 -24 1 -35h151v-20h-147c17 -91 78 -163 178 -163c62 0 97 12 155 34l7 -40c-54 -23 -97 -36 -165 -36
c-128 0 -210 82 -229 205h-54v20h52c-2 11 -2 22 -2 35c0 12 0 24 2 35h-52v20z" />
    <glyph glyph-name="peseta.taboldstyle" 
d="M76 305h54c19 122 101 205 229 205c68 0 111 -13 165 -36l-7 -40c-58 22 -93 33 -155 33c-100 0 -161 -71 -178 -162h147v-20h-151c-1 -12 -1 -24 -1 -35c0 -12 0 -24 1 -35h151v-20h-147c17 -91 78 -163 178 -163c62 0 97 12 155 34l7 -40c-54 -23 -97 -36 -165 -36
c-128 0 -210 82 -229 205h-54v20h52c-2 11 -2 22 -2 35c0 12 0 24 2 35h-52v20z" />
    <glyph glyph-name="colonmonetary.taboldstyle" 
d="M337 467c-118 0 -183 -97 -183 -217s65 -218 183 -218c62 0 97 12 155 34l7 -40c-54 -23 -97 -36 -165 -36c-147 0 -233 107 -233 260c0 152 86 260 233 260c68 0 111 -13 165 -36l-7 -40c-58 22 -93 33 -155 33zM289 -130h-30v100h30v-100zM289 530h-30v100h30v-100z
M394 -130h-30v100h30v-100zM394 530h-30v100h30v-100z" />
    <glyph glyph-name="florin.taboldstyle" 
d="M275 -45v507h-83v34l83 4v42c0 120 41 158 132 158c21 0 48 -3 73 -6l-5 -40c-25 3 -41 5 -58 5c-75 0 -92 -43 -92 -124v-35h150v-38h-150v-507c0 -120 -38 -165 -133 -165c-21 0 -47 2 -72 6l5 40c25 -4 41 -5 57 -5c75 0 93 43 93 124z" />
    <glyph glyph-name="numbersign.taboldstyle" 
d="M203 500h38l-14 -128h170l14 128h37l-13 -128h100l-4 -35h-100l-18 -175h100l-4 -35h-100l-14 -127h-37l14 127h-170l-14 -127h-38l14 127h-100l4 35h100l18 175h-100l4 35h100zM224 337l-19 -175h170l19 175h-170z" />
    <glyph glyph-name="zerosuperior" unicode="&#x2070;" horiz-adv-x="335" 
d="M167 846c-69 0 -85 -72 -85 -148c0 -77 16 -155 85 -155c70 0 86 78 86 155c0 76 -16 148 -86 148zM167 520c-89 0 -115 81 -115 178c0 93 26 172 115 172s115 -79 115 -172c0 -97 -26 -178 -115 -178z" />
    <glyph glyph-name="foursuperior" unicode="&#x2074;" horiz-adv-x="345" 
d="M82 649h132v184c-35 -67 -82 -129 -132 -184zM206 870h36v-221h50v-24h-50v-95h-28v95h-162v24c55 60 118 141 154 221z" />
    <glyph glyph-name="fivesuperior" unicode="&#x2075;" horiz-adv-x="325" 
d="M156 520c-40 0 -72 11 -104 28l9 22c35 -18 62 -26 93 -27c50 0 89 33 89 88c0 39 -19 83 -78 83c-31 0 -56 -14 -75 -41l-21 2l8 190h175v-25h-150l-8 -140l1 -1c17 22 45 40 78 40c62 0 99 -40 99 -106c0 -70 -47 -113 -116 -113z" />
    <glyph glyph-name="sixsuperior" unicode="&#x2076;" horiz-adv-x="325" 
d="M80 701h1c21 30 52 51 88 51c64 0 103 -42 103 -117c0 -72 -46 -115 -106 -115c-91 0 -114 76 -114 155c0 147 63 195 137 195c32 0 50 -5 72 -13l-4 -23c-24 9 -43 12 -66 12c-89 0 -109 -97 -111 -145zM83 677c-3 -69 10 -134 81 -134c42 0 78 33 78 92
c0 40 -15 93 -81 93c-32 0 -60 -23 -78 -51z" />
    <glyph glyph-name="sevensuperior" unicode="&#x2077;" horiz-adv-x="320" 
d="M236 844v1h-184v25h215v-21c-56 -91 -115 -201 -135 -319h-30c15 99 82 235 134 314z" />
    <glyph glyph-name="eightsuperior" unicode="&#x2078;" horiz-adv-x="335" 
d="M194 705c48 -22 88 -45 88 -94c0 -56 -42 -91 -115 -91s-115 33 -115 89c0 49 42 75 88 91c-44 18 -78 41 -78 86c0 53 44 84 106 84c61 0 104 -31 104 -83c0 -44 -32 -64 -78 -82zM81 611c0 -37 25 -69 87 -69c64 0 85 32 86 67c0 45 -45 63 -91 80
c-42 -14 -82 -36 -82 -78zM167 848c-28 0 -77 -10 -77 -62c0 -37 34 -58 81 -71c42 14 73 34 73 70c0 52 -48 63 -77 63z" />
    <glyph glyph-name="ninesuperior" unicode="&#x2079;" horiz-adv-x="325" 
d="M244 689h-1c-21 -31 -52 -51 -87 -51c-65 0 -104 42 -104 117c0 72 47 115 106 115c91 0 114 -76 114 -155c0 -148 -62 -195 -137 -195c-32 0 -49 5 -72 13l4 22c25 -8 43 -12 66 -12c90 0 109 97 111 146zM242 713c2 69 -11 133 -81 133c-42 0 -79 -32 -79 -91
c0 -40 15 -93 81 -93c32 0 60 23 79 51z" />
    <glyph glyph-name="parenleftsuperior" unicode="&#x207d;" horiz-adv-x="209" 
d="M52 690c0 83 32 170 84 240h21c-52 -84 -77 -160 -77 -240s25 -155 77 -240h-21c-52 70 -84 158 -84 240z" />
    <glyph glyph-name="parenrightsuperior" unicode="&#x207e;" horiz-adv-x="209" 
d="M157 690c0 -82 -32 -170 -84 -240h-21c53 85 77 160 77 240s-24 156 -77 240h21c52 -70 84 -157 84 -240z" />
    <glyph glyph-name="hyphensuperior" horiz-adv-x="290" 
d="M52 722h185v-24h-185v24z" />
    <glyph glyph-name="commasuperior" horiz-adv-x="152" 
d="M77 465h-25c18 37 20 86 20 124h28c0 -38 -1 -87 -23 -124z" />
    <glyph glyph-name="periodsuperior" horiz-adv-x="133" 
d="M52 589h28v-59h-28v59z" />
    <glyph glyph-name="centsuperior" horiz-adv-x="361" 
d="M197 843c-86 0 -113 -69 -113 -145c0 -77 27 -151 113 -151c38 0 72 14 101 39l11 -23c-18 -15 -52 -43 -117 -43c-100 0 -140 81 -140 178c0 93 40 172 140 172c65 0 99 -28 117 -42l-11 -24c-29 25 -63 39 -101 39zM203 440h-18v60h18v-60zM203 890h-18v60h18v-60z" />
    <glyph glyph-name="dollarsuperior" horiz-adv-x="345" 
d="M185 440h-18v60h18v-60zM185 890h-18v60h18v-60zM171 685c-53 12 -109 42 -109 99c0 62 50 86 113 86c45 0 84 -11 111 -28l-13 -23c-35 19 -68 24 -98 24c-50 0 -81 -17 -81 -59c0 -48 65 -67 95 -74c53 -12 103 -36 103 -94c0 -63 -51 -96 -119 -96
c-45 0 -92 13 -121 34l14 22c32 -20 76 -29 109 -29c52 0 86 25 86 67c0 50 -61 63 -90 71z" />
    <glyph glyph-name="zeroinferior" unicode="&#x2080;" horiz-adv-x="335" 
d="M167 116c-69 0 -85 -72 -85 -148c0 -77 16 -155 85 -155c70 0 86 78 86 155c0 76 -16 148 -86 148zM167 -210c-89 0 -115 81 -115 178c0 93 26 172 115 172s115 -79 115 -172c0 -97 -26 -178 -115 -178z" />
    <glyph glyph-name="oneinferior" unicode="&#x2081;" horiz-adv-x="305" 
d="M49 -177h105v286l-93 -53l-9 23c40 19 84 43 111 64h19v-320h105v-23h-238v23z" />
    <glyph glyph-name="twoinferior" unicode="&#x2082;" horiz-adv-x="315" 
d="M149 119c-26 0 -52 -6 -88 -24l-9 22c32 17 64 28 104 28c70 0 101 -47 101 -100c0 -70 -52 -140 -165 -219v-1h170v-25h-210v28c154 104 176 173 176 211c0 72 -56 80 -79 80z" />
    <glyph glyph-name="threeinferior" unicode="&#x2083;" horiz-adv-x="325" 
d="M193 -32c48 -9 79 -41 79 -85c0 -59 -38 -93 -114 -93c-38 0 -77 8 -106 26l10 22c27 -15 58 -25 95 -25c73 0 86 42 86 65c0 42 -22 75 -93 75h-40v24h38c57 0 86 35 86 72c0 25 -12 67 -76 67c-34 0 -62 -12 -87 -24l-9 22c28 16 64 26 99 26c65 0 101 -34 101 -89
c0 -44 -32 -72 -69 -83z" />
    <glyph glyph-name="fourinferior" unicode="&#x2084;" horiz-adv-x="345" 
d="M82 -81h132v184c-35 -67 -82 -129 -132 -184zM206 140h36v-221h50v-24h-50v-95h-28v95h-162v24c55 60 118 141 154 221z" />
    <glyph glyph-name="fiveinferior" unicode="&#x2085;" horiz-adv-x="325" 
d="M156 -210c-40 0 -72 11 -104 28l9 22c35 -18 62 -26 93 -27c50 0 89 33 89 88c0 39 -19 83 -78 83c-31 0 -56 -14 -75 -41l-21 2l8 190h175v-25h-150l-8 -140l1 -1c17 22 45 40 78 40c62 0 99 -40 99 -106c0 -70 -47 -113 -116 -113z" />
    <glyph glyph-name="sixinferior" unicode="&#x2086;" horiz-adv-x="325" 
d="M80 -29h1c21 30 52 51 88 51c64 0 103 -42 103 -117c0 -72 -46 -115 -106 -115c-91 0 -114 76 -114 155c0 147 63 195 137 195c32 0 50 -5 72 -13l-4 -23c-24 9 -43 12 -66 12c-89 0 -109 -97 -111 -145zM83 -53c-3 -69 10 -134 81 -134c42 0 78 33 78 92
c0 40 -15 93 -81 93c-32 0 -60 -23 -78 -51z" />
    <glyph glyph-name="seveninferior" unicode="&#x2087;" horiz-adv-x="320" 
d="M236 114v1h-184v25h215v-21c-56 -91 -115 -201 -135 -319h-30c15 99 82 235 134 314z" />
    <glyph glyph-name="eightinferior" unicode="&#x2088;" horiz-adv-x="335" 
d="M194 -25c48 -22 88 -45 88 -94c0 -56 -42 -91 -115 -91s-115 33 -115 89c0 49 42 75 88 91c-44 18 -78 41 -78 86c0 53 44 84 106 84c61 0 104 -31 104 -83c0 -44 -32 -64 -78 -82zM81 -119c0 -37 25 -69 87 -69c64 0 85 32 86 67c0 45 -45 63 -91 80
c-42 -14 -82 -36 -82 -78zM167 118c-28 0 -77 -10 -77 -62c0 -37 34 -58 81 -71c42 14 73 34 73 70c0 52 -48 63 -77 63z" />
    <glyph glyph-name="nineinferior" unicode="&#x2089;" horiz-adv-x="325" 
d="M244 -41h-1c-21 -31 -52 -51 -87 -51c-65 0 -104 42 -104 117c0 72 47 115 106 115c91 0 114 -76 114 -155c0 -148 -62 -195 -137 -195c-32 0 -49 5 -72 13l4 22c25 -8 43 -12 66 -12c90 0 109 97 111 146zM242 -17c2 69 -11 133 -81 133c-42 0 -79 -32 -79 -91
c0 -40 15 -93 81 -93c32 0 60 23 79 51z" />
    <glyph glyph-name="parenleftinferior" unicode="&#x208d;" horiz-adv-x="209" 
d="M52 -40c0 83 32 170 84 240h21c-52 -84 -77 -160 -77 -240s25 -155 77 -240h-21c-52 70 -84 158 -84 240z" />
    <glyph glyph-name="parenrightinferior" unicode="&#x208e;" horiz-adv-x="209" 
d="M157 -40c0 -82 -32 -170 -84 -240h-21c53 85 77 160 77 240s-24 156 -77 240h21c52 -70 84 -157 84 -240z" />
    <glyph glyph-name="hypheninferior" horiz-adv-x="290" 
d="M52 -8h185v-24h-185v24z" />
    <glyph glyph-name="commainferior" horiz-adv-x="152" 
d="M77 -265h-25c18 37 20 86 20 124h28c0 -38 -1 -87 -23 -124z" />
    <glyph glyph-name="periodinferior" horiz-adv-x="133" 
d="M52 -141h28v-59h-28v59z" />
    <glyph glyph-name="centinferior" horiz-adv-x="361" 
d="M197 113c-86 0 -113 -69 -113 -145c0 -77 27 -151 113 -151c38 0 72 14 101 39l11 -23c-18 -15 -52 -43 -117 -43c-100 0 -140 81 -140 178c0 93 40 172 140 172c65 0 99 -28 117 -42l-11 -24c-29 25 -63 39 -101 39zM203 -290h-18v60h18v-60zM203 160h-18v60h18v-60z
" />
    <glyph glyph-name="dollarinferior" horiz-adv-x="345" 
d="M185 -290h-18v60h18v-60zM185 160h-18v60h18v-60zM171 -45c-53 12 -109 42 -109 99c0 62 50 86 113 86c45 0 84 -11 111 -28l-13 -23c-35 19 -68 24 -98 24c-50 0 -81 -17 -81 -59c0 -48 65 -67 95 -74c53 -12 103 -36 103 -94c0 -63 -51 -96 -119 -96
c-45 0 -92 13 -121 34l14 22c32 -20 76 -29 109 -29c52 0 86 25 86 67c0 50 -61 63 -90 71z" />
    <glyph glyph-name="zero.denominator" horiz-adv-x="335" 
d="M167 316c-69 0 -85 -72 -85 -148c0 -77 16 -155 85 -155c70 0 86 78 86 155c0 76 -16 148 -86 148zM167 -10c-89 0 -115 81 -115 178c0 93 26 172 115 172s115 -79 115 -172c0 -97 -26 -178 -115 -178z" />
    <glyph glyph-name="one.denominator" horiz-adv-x="305" 
d="M49 23h105v286l-93 -53l-9 23c40 19 84 43 111 64h19v-320h105v-23h-238v23z" />
    <glyph glyph-name="two.denominator" horiz-adv-x="315" 
d="M149 319c-26 0 -52 -6 -88 -24l-9 22c32 17 64 28 104 28c70 0 101 -47 101 -100c0 -70 -52 -140 -165 -219v-1h170v-25h-210v28c154 104 176 173 176 211c0 72 -56 80 -79 80z" />
    <glyph glyph-name="three.denominator" horiz-adv-x="325" 
d="M193 168c48 -9 79 -41 79 -85c0 -59 -38 -93 -114 -93c-38 0 -77 8 -106 26l10 22c27 -15 58 -25 95 -25c73 0 86 42 86 65c0 42 -22 75 -93 75h-40v24h38c57 0 86 35 86 72c0 25 -12 67 -76 67c-34 0 -62 -12 -87 -24l-9 22c28 16 64 26 99 26c65 0 101 -34 101 -89
c0 -44 -32 -72 -69 -83z" />
    <glyph glyph-name="four.denominator" horiz-adv-x="345" 
d="M82 119h132v184c-35 -67 -82 -129 -132 -184zM206 340h36v-221h50v-24h-50v-95h-28v95h-162v24c55 60 118 141 154 221z" />
    <glyph glyph-name="five.denominator" horiz-adv-x="325" 
d="M156 -10c-40 0 -72 11 -104 28l9 22c35 -18 62 -26 93 -27c50 0 89 33 89 88c0 39 -19 83 -78 83c-31 0 -56 -14 -75 -41l-21 2l8 190h175v-25h-150l-8 -140l1 -1c17 22 45 40 78 40c62 0 99 -40 99 -106c0 -70 -47 -113 -116 -113z" />
    <glyph glyph-name="six.denominator" horiz-adv-x="325" 
d="M80 171h1c21 30 52 51 88 51c64 0 103 -42 103 -117c0 -72 -46 -115 -106 -115c-91 0 -114 76 -114 155c0 147 63 195 137 195c32 0 50 -5 72 -13l-4 -23c-24 9 -43 12 -66 12c-89 0 -109 -97 -111 -145zM83 147c-3 -69 10 -134 81 -134c42 0 78 33 78 92
c0 40 -15 93 -81 93c-32 0 -60 -23 -78 -51z" />
    <glyph glyph-name="seven.denominator" horiz-adv-x="320" 
d="M236 314v1h-184v25h215v-21c-56 -91 -115 -201 -135 -319h-30c15 99 82 235 134 314z" />
    <glyph glyph-name="eight.denominator" horiz-adv-x="335" 
d="M194 175c48 -22 88 -45 88 -94c0 -56 -42 -91 -115 -91s-115 33 -115 89c0 49 42 75 88 91c-44 18 -78 41 -78 86c0 53 44 84 106 84c61 0 104 -31 104 -83c0 -44 -32 -64 -78 -82zM81 81c0 -37 25 -69 87 -69c64 0 85 32 86 67c0 45 -45 63 -91 80
c-42 -14 -82 -36 -82 -78zM167 318c-28 0 -77 -10 -77 -62c0 -37 34 -58 81 -71c42 14 73 34 73 70c0 52 -48 63 -77 63z" />
    <glyph glyph-name="nine.denominator" horiz-adv-x="325" 
d="M244 159h-1c-21 -31 -52 -51 -87 -51c-65 0 -104 42 -104 117c0 72 47 115 106 115c91 0 114 -76 114 -155c0 -148 -62 -195 -137 -195c-32 0 -49 5 -72 13l4 22c25 -8 43 -12 66 -12c90 0 109 97 111 146zM242 183c2 69 -11 133 -81 133c-42 0 -79 -32 -79 -91
c0 -40 15 -93 81 -93c32 0 60 23 79 51z" />
    <glyph glyph-name="parenleft.denominator" horiz-adv-x="209" 
d="M52 160c0 83 32 170 84 240h21c-52 -84 -77 -160 -77 -240s25 -155 77 -240h-21c-52 70 -84 158 -84 240z" />
    <glyph glyph-name="parenright.denominator" horiz-adv-x="209" 
d="M157 160c0 -82 -32 -170 -84 -240h-21c53 85 77 160 77 240s-24 156 -77 240h21c52 -70 84 -157 84 -240z" />
    <glyph glyph-name="cent.denominator" horiz-adv-x="361" 
d="M197 313c-86 0 -113 -69 -113 -145c0 -77 27 -151 113 -151c38 0 72 14 101 39l11 -23c-18 -15 -52 -43 -117 -43c-100 0 -140 81 -140 178c0 93 40 172 140 172c65 0 99 -28 117 -42l-11 -24c-29 25 -63 39 -101 39zM203 -90h-18v60h18v-60zM203 360h-18v60h18v-60z" />
    <glyph glyph-name="dollar.denominator" horiz-adv-x="345" 
d="M185 -90h-18v60h18v-60zM185 360h-18v60h18v-60zM171 155c-53 12 -109 42 -109 99c0 62 50 86 113 86c45 0 84 -11 111 -28l-13 -23c-35 19 -68 24 -98 24c-50 0 -81 -17 -81 -59c0 -48 65 -67 95 -74c53 -12 103 -36 103 -94c0 -63 -51 -96 -119 -96
c-45 0 -92 13 -121 34l14 22c32 -20 76 -29 109 -29c52 0 86 25 86 67c0 50 -61 63 -90 71z" />
    <glyph glyph-name="hyphen.denominator" horiz-adv-x="290" 
d="M52 192h185v-24h-185v24z" />
    <glyph glyph-name="comma.denominator" horiz-adv-x="152" 
d="M77 -65h-25c18 37 20 86 20 124h28c0 -38 -1 -87 -23 -124z" />
    <glyph glyph-name="period.denominator" horiz-adv-x="133" 
d="M52 59h28v-59h-28v59z" />
    <glyph glyph-name="zero.numerator" horiz-adv-x="335" 
d="M167 646c-69 0 -85 -72 -85 -148c0 -77 16 -155 85 -155c70 0 86 78 86 155c0 76 -16 148 -86 148zM167 320c-89 0 -115 81 -115 178c0 93 26 172 115 172s115 -79 115 -172c0 -97 -26 -178 -115 -178z" />
    <glyph glyph-name="one.numerator" horiz-adv-x="305" 
d="M49 353h105v286l-93 -53l-9 23c40 19 84 43 111 64h19v-320h105v-23h-238v23z" />
    <glyph glyph-name="two.numerator" horiz-adv-x="315" 
d="M149 649c-26 0 -52 -6 -88 -24l-9 22c32 17 64 28 104 28c70 0 101 -47 101 -100c0 -70 -52 -140 -165 -219v-1h170v-25h-210v28c154 104 176 173 176 211c0 72 -56 80 -79 80z" />
    <glyph glyph-name="three.numerator" horiz-adv-x="325" 
d="M193 498c48 -9 79 -41 79 -85c0 -59 -38 -93 -114 -93c-38 0 -77 8 -106 26l10 22c27 -15 58 -25 95 -25c73 0 86 42 86 65c0 42 -22 75 -93 75h-40v24h38c57 0 86 35 86 72c0 25 -12 67 -76 67c-34 0 -62 -12 -87 -24l-9 22c28 16 64 26 99 26c65 0 101 -34 101 -89
c0 -44 -32 -72 -69 -83z" />
    <glyph glyph-name="four.numerator" horiz-adv-x="345" 
d="M82 449h132v184c-35 -67 -82 -129 -132 -184zM206 670h36v-221h50v-24h-50v-95h-28v95h-162v24c55 60 118 141 154 221z" />
    <glyph glyph-name="five.numerator" horiz-adv-x="325" 
d="M156 320c-40 0 -72 11 -104 28l9 22c35 -18 62 -26 93 -27c50 0 89 33 89 88c0 39 -19 83 -78 83c-31 0 -56 -14 -75 -41l-21 2l8 190h175v-25h-150l-8 -140l1 -1c17 22 45 40 78 40c62 0 99 -40 99 -106c0 -70 -47 -113 -116 -113z" />
    <glyph glyph-name="six.numerator" horiz-adv-x="325" 
d="M80 501h1c21 30 52 51 88 51c64 0 103 -42 103 -117c0 -72 -46 -115 -106 -115c-91 0 -114 76 -114 155c0 147 63 195 137 195c32 0 50 -5 72 -13l-4 -23c-24 9 -43 12 -66 12c-89 0 -109 -97 -111 -145zM83 477c-3 -69 10 -134 81 -134c42 0 78 33 78 92
c0 40 -15 93 -81 93c-32 0 -60 -23 -78 -51z" />
    <glyph glyph-name="seven.numerator" horiz-adv-x="320" 
d="M236 644v1h-184v25h215v-21c-56 -91 -115 -201 -135 -319h-30c15 99 82 235 134 314z" />
    <glyph glyph-name="eight.numerator" horiz-adv-x="335" 
d="M194 505c48 -22 88 -45 88 -94c0 -56 -42 -91 -115 -91s-115 33 -115 89c0 49 42 75 88 91c-44 18 -78 41 -78 86c0 53 44 84 106 84c61 0 104 -31 104 -83c0 -44 -32 -64 -78 -82zM81 411c0 -37 25 -69 87 -69c64 0 85 32 86 67c0 45 -45 63 -91 80
c-42 -14 -82 -36 -82 -78zM167 648c-28 0 -77 -10 -77 -62c0 -37 34 -58 81 -71c42 14 73 34 73 70c0 52 -48 63 -77 63z" />
    <glyph glyph-name="nine.numerator" horiz-adv-x="325" 
d="M244 489h-1c-21 -31 -52 -51 -87 -51c-65 0 -104 42 -104 117c0 72 47 115 106 115c91 0 114 -76 114 -155c0 -148 -62 -195 -137 -195c-32 0 -49 5 -72 13l4 22c25 -8 43 -12 66 -12c90 0 109 97 111 146zM242 513c2 69 -11 133 -81 133c-42 0 -79 -32 -79 -91
c0 -40 15 -93 81 -93c32 0 60 23 79 51z" />
    <glyph glyph-name="parenleft.numerator" horiz-adv-x="209" 
d="M52 490c0 83 32 170 84 240h21c-52 -84 -77 -160 -77 -240s25 -155 77 -240h-21c-52 70 -84 158 -84 240z" />
    <glyph glyph-name="parenright.numerator" horiz-adv-x="209" 
d="M157 490c0 -82 -32 -170 -84 -240h-21c53 85 77 160 77 240s-24 156 -77 240h21c52 -70 84 -157 84 -240z" />
    <glyph glyph-name="cent.numerator" horiz-adv-x="361" 
d="M197 643c-86 0 -113 -69 -113 -145c0 -77 27 -151 113 -151c38 0 72 14 101 39l11 -23c-18 -15 -52 -43 -117 -43c-100 0 -140 81 -140 178c0 93 40 172 140 172c65 0 99 -28 117 -42l-11 -24c-29 25 -63 39 -101 39zM203 240h-18v60h18v-60zM203 690h-18v60h18v-60z" />
    <glyph glyph-name="dollar.numerator" horiz-adv-x="345" 
d="M185 240h-18v60h18v-60zM185 690h-18v60h18v-60zM171 485c-53 12 -109 42 -109 99c0 62 50 86 113 86c45 0 84 -11 111 -28l-13 -23c-35 19 -68 24 -98 24c-50 0 -81 -17 -81 -59c0 -48 65 -67 95 -74c53 -12 103 -36 103 -94c0 -63 -51 -96 -119 -96
c-45 0 -92 13 -121 34l14 22c32 -20 76 -29 109 -29c52 0 86 25 86 67c0 50 -61 63 -90 71z" />
    <glyph glyph-name="hyphen.numerator" horiz-adv-x="290" 
d="M52 522h185v-24h-185v24z" />
    <glyph glyph-name="comma.numerator" horiz-adv-x="152" 
d="M77 265h-25c18 37 20 86 20 124h28c0 -38 -1 -87 -23 -124z" />
    <glyph glyph-name="period.numerator" horiz-adv-x="133" 
d="M52 389h28v-59h-28v59z" />
    <glyph glyph-name="onethird" unicode="&#x2153;" horiz-adv-x="800" 
d="M671 168c48 -9 79 -41 79 -85c0 -59 -38 -93 -114 -93c-38 0 -77 8 -106 26l9 22c27 -15 59 -25 96 -25c73 0 86 42 86 65c0 42 -22 75 -93 75h-40v24h38c57 0 86 35 86 72c0 25 -12 67 -76 67c-34 0 -63 -12 -87 -24l-10 22c28 16 65 26 100 26c64 0 101 -34 101 -89
c0 -44 -32 -72 -69 -83zM50 353h105v286l-94 -53l-8 23c40 19 84 43 111 64h19v-320h105v-23h-238v23zM604 680l-370 -680h-20l370 680h20z" />
    <glyph glyph-name="oneeighth" unicode="&#x215b;" horiz-adv-x="800" 
d="M662 175c47 -22 88 -45 88 -94c0 -56 -42 -91 -116 -91c-72 0 -114 33 -114 89c0 49 42 75 88 91c-44 18 -78 41 -78 86c0 53 44 84 106 84c60 0 104 -31 104 -83c0 -44 -32 -64 -78 -82zM549 81c0 -37 24 -69 87 -69s85 32 85 67c1 45 -44 63 -90 80
c-42 -14 -82 -36 -82 -78zM50 353h105v286l-94 -53l-8 23c40 19 84 43 111 64h19v-320h105v-23h-238v23zM635 318c-28 0 -77 -10 -77 -62c0 -37 34 -58 80 -71c43 14 74 34 74 70c0 52 -49 63 -77 63zM604 680l-370 -680h-20l370 680h20z" />
    <glyph glyph-name="twothirds" unicode="&#x2154;" horiz-adv-x="800" 
d="M604 680l-370 -680h-20l370 680h20zM671 168c48 -9 79 -41 79 -85c0 -59 -38 -93 -114 -93c-38 0 -77 8 -106 26l9 22c27 -15 59 -25 96 -25c73 0 86 42 86 65c0 42 -22 75 -93 75h-40v24h38c57 0 86 35 86 72c0 25 -12 67 -76 67c-34 0 -63 -12 -87 -24l-10 22
c28 16 65 26 100 26c64 0 101 -34 101 -89c0 -44 -32 -72 -69 -83zM147 649c-27 0 -53 -6 -89 -24l-8 22c32 17 63 28 104 28c70 0 101 -47 101 -100c0 -70 -53 -140 -165 -219v-1h170v-25h-210v28c153 104 175 173 175 211c0 72 -55 80 -78 80z" />
    <glyph glyph-name="threeeighths" unicode="&#x215c;" horiz-adv-x="800" 
d="M598 680l-370 -680h-20l370 680h20zM662 175c47 -22 88 -45 88 -94c0 -56 -42 -91 -116 -91c-72 0 -114 33 -114 89c0 49 42 75 88 91c-44 18 -78 41 -78 86c0 53 44 84 106 84c60 0 104 -31 104 -83c0 -44 -32 -64 -78 -82zM549 81c0 -37 24 -69 87 -69s85 32 85 67
c1 45 -44 63 -90 80c-42 -14 -82 -36 -82 -78zM635 318c-28 0 -77 -10 -77 -62c0 -37 34 -58 80 -71c43 14 74 34 74 70c0 52 -49 63 -77 63zM191 498c48 -9 79 -41 79 -85c0 -59 -38 -93 -115 -93c-37 0 -77 8 -105 26l9 22c27 -15 59 -25 96 -25c73 0 85 42 85 65
c0 42 -22 75 -92 75h-41v24h39c57 0 86 35 86 72c0 25 -12 67 -77 67c-34 0 -62 -12 -87 -24l-9 22c28 16 64 26 100 26c64 0 101 -34 101 -89c0 -44 -32 -72 -69 -83z" />
    <glyph glyph-name="fiveeighths" unicode="&#x215d;" horiz-adv-x="800" 
d="M598 680l-370 -680h-20l370 680h20zM662 175c47 -22 88 -45 88 -94c0 -56 -42 -91 -116 -91c-72 0 -114 33 -114 89c0 49 42 75 88 91c-44 18 -78 41 -78 86c0 53 44 84 106 84c60 0 104 -31 104 -83c0 -44 -32 -64 -78 -82zM549 81c0 -37 24 -69 87 -69s85 32 85 67
c1 45 -44 63 -90 80c-42 -14 -82 -36 -82 -78zM635 318c-28 0 -77 -10 -77 -62c0 -37 34 -58 80 -71c43 14 74 34 74 70c0 52 -49 63 -77 63zM154 320c-41 0 -72 11 -104 28l8 22c36 -18 62 -26 93 -27c50 0 89 33 89 88c0 39 -18 83 -78 83c-30 0 -55 -14 -75 -41l-21 2
l9 190h175v-25h-151l-8 -140l1 -1c18 22 46 40 79 40c61 0 99 -40 99 -106c0 -70 -48 -113 -116 -113z" />
    <glyph glyph-name="seveneighths" unicode="&#x215e;" horiz-adv-x="800" 
d="M548 680l-370 -680h-20l370 680h20zM662 175c47 -22 88 -45 88 -94c0 -56 -42 -91 -116 -91c-72 0 -114 33 -114 89c0 49 42 75 88 91c-44 18 -78 41 -78 86c0 53 44 84 106 84c60 0 104 -31 104 -83c0 -44 -32 -64 -78 -82zM549 81c0 -37 24 -69 87 -69s85 32 85 67
c1 45 -44 63 -90 80c-42 -14 -82 -36 -82 -78zM635 318c-28 0 -77 -10 -77 -62c0 -37 34 -58 80 -71c43 14 74 34 74 70c0 52 -49 63 -77 63zM233 644v1h-183v25h215v-21c-56 -91 -116 -201 -135 -319h-30c15 99 81 235 133 314z" />
    <glyph glyph-name="exclamsmall" horiz-adv-x="185" 
d="M67 115h50v-115h-50v115zM67 580h50l-2 -368h-45z" />
    <glyph glyph-name="exclamdownsmall" horiz-adv-x="185" 
d="M117 465h-50v115h50v-115zM117 0h-50l3 367h45z" />
    <glyph glyph-name="exclamdbl" unicode="&#x203c;" horiz-adv-x="310" 
d="M67 115h50v-115h-50v115zM67 680h50l-2 -468h-45zM192 115h50v-115h-50v115zM192 680h50l-2 -468h-45z" />
    <glyph glyph-name="ampersandsmall" unicode="&#xf726;" horiz-adv-x="905" 
d="M627 148v99h-506c3 -125 71 -215 193 -215c61 0 103 14 154 34c2 -13 4 -27 7 -40c-51 -22 -99 -36 -168 -36c-146 0 -240 107 -240 260c0 152 90 260 233 260c172 0 195 -147 185 -229h142c3 73 4 146 7 219h43v-219h155v-34h-155v-87c0 -84 17 -129 98 -129
c17 0 32 1 57 5l5 -40c-24 -4 -56 -6 -77 -6c-91 0 -133 38 -133 158zM297 470c-108 0 -169 -86 -176 -189h313c18 85 -13 189 -137 189z" />
    <glyph glyph-name="fraction" unicode="&#x2044;" horiz-adv-x="540" 
d="M477 680l-370 -680h-45l370 680h45z" />
    <glyph glyph-name="uni2215" unicode="&#x2215;" horiz-adv-x="540" 
d="M477 680l-370 -680h-45l370 680h45z" />
    <glyph glyph-name="uni2219" unicode="&#x2219;" horiz-adv-x="225" 
d="M87 307h50v-115h-50v115z" />
    <glyph glyph-name="at.cap" horiz-adv-x="830" 
d="M553 414v-236c172 0 213 142 213 227c0 181 -153 296 -332 296c-214 0 -370 -148 -370 -368c0 -201 143 -343 338 -343l-3 -30c-216 0 -369 160 -369 373c0 233 171 399 404 399c202 0 366 -132 366 -326c0 -142 -84 -260 -249 -260h-38v39h-2c-36 -31 -76 -46 -129 -46
c-77 0 -128 39 -128 109c0 80 57 118 164 118h95v46c0 61 -23 96 -100 96c-29 0 -78 -6 -127 -21l-9 29c46 15 99 25 145 25c84 0 131 -29 131 -127zM513 213v126h-94c-98 0 -124 -35 -124 -88c0 -48 33 -80 100 -80c58 0 98 25 118 42z" />
    <glyph glyph-name="parenleft.cap" horiz-adv-x="330" 
d="M79 340c0 165 64 340 168 480h35c-104 -168 -153 -319 -153 -480c0 -160 49 -310 153 -480h-35c-104 140 -168 316 -168 480z" />
    <glyph glyph-name="parenright.cap" horiz-adv-x="330" 
d="M251 340c0 -164 -65 -340 -169 -480h-35c105 170 154 320 154 480c0 161 -49 312 -154 480h35c104 -140 169 -315 169 -480z" />
    <glyph glyph-name="bracketleft.cap" horiz-adv-x="300" 
d="M120 -108h132v-32h-185v960h185v-33h-132v-895z" />
    <glyph glyph-name="bracketright.cap" horiz-adv-x="300" 
d="M47 -108h133v895h-133v33h185v-960h-185v32z" />
    <glyph glyph-name="braceleft.cap" horiz-adv-x="340" 
d="M180 5c0 -120 61 -120 112 -120v-25c-101 0 -165 23 -165 146c0 61 10 130 10 189c0 64 0 117 -70 127v35c70 10 70 64 70 128c0 59 -10 128 -10 189c0 123 64 146 165 146v-25c-51 0 -112 0 -112 -120c0 -61 11 -154 11 -216c0 -79 -32 -107 -81 -118v-2
c49 -11 81 -39 81 -118c0 -62 -11 -155 -11 -216z" />
    <glyph glyph-name="braceright.cap" horiz-adv-x="340" 
d="M160 675c0 120 -61 120 -113 120v25c102 0 165 -23 165 -146c0 -61 -10 -130 -10 -189c0 -64 0 -118 70 -128v-35c-70 -10 -70 -63 -70 -127c0 -59 10 -128 10 -189c0 -123 -63 -146 -165 -146v25c52 0 113 0 113 120c0 61 -11 154 -11 216c0 79 31 107 81 118v2
c-50 11 -81 39 -81 118c0 62 11 155 11 216z" />
    <glyph glyph-name="exclamdown.cap" horiz-adv-x="185" 
d="M67 115h50v-115h-50v115zM67 680h50l-2 -468h-45z" />
    <glyph glyph-name="questiondown.cap" horiz-adv-x="480" 
d="M242 -10c-148 0 -185 91 -185 167c0 184 198 172 198 283v30h45v-30c0 -136 -191 -124 -191 -278c0 -116 100 -125 146 -125c33 0 88 10 152 34l15 -43c-54 -22 -116 -38 -180 -38zM302 565h-50v115h50v-115z" />
    <glyph glyph-name="guillemotleft.cap" horiz-adv-x="632" 
d="M67 306l245 166v-46l-192 -136l192 -136v-47l-245 167v32zM320 306l245 166v-46l-193 -136l193 -136v-47l-245 167v32z" />
    <glyph glyph-name="guillemotright.cap" horiz-adv-x="632" 
d="M320 472l245 -166v-32l-245 -167v47l192 136l-192 136v46zM67 472l245 -166v-32l-245 -167v47l193 136l-193 136v46z" />
    <glyph glyph-name="guilsinglleft.cap" horiz-adv-x="380" 
d="M67 306l245 166v-46l-192 -136l192 -136v-47l-245 167v32z" />
    <glyph glyph-name="guilsinglright.cap" horiz-adv-x="380" 
d="M312 274l-245 -167v47l193 136l-193 136v46l245 -166v-32z" />
    <glyph glyph-name="hyphen.cap" horiz-adv-x="500" 
d="M67 326h365v-42h-365v42z" />
    <glyph glyph-name="endash.cap" horiz-adv-x="692" 
d="M67 326h558v-42h-558v42z" />
    <glyph glyph-name="emdash.cap" horiz-adv-x="760" 
d="M67 326h625v-42h-625v42z" />
    <glyph glyph-name="periodcentered.cap" horiz-adv-x="220" 
d="M87 365h45v-110h-45v110z" />
    <glyph glyph-name="lessequal" unicode="&#x2264;" horiz-adv-x="480" 
d="M77 314l325 161v-38l-272 -137l272 -138v-37l-325 161v28zM67 70h345v-33h-345v33z" />
    <glyph glyph-name="approxequal" unicode="&#x2248;" horiz-adv-x="501" 
d="M174 377c-20 0 -37 -2 -89 -54l-18 14c44 56 70 77 105 77c48 0 147 -62 181 -62c18 0 39 4 65 49l16 -16c-22 -43 -44 -68 -81 -68c-38 0 -141 60 -179 60zM174 177c-20 0 -37 -2 -89 -54l-18 14c44 56 70 77 105 77c48 0 147 -62 181 -62c18 0 39 4 65 49l16 -16
c-22 -43 -44 -68 -81 -68c-38 0 -141 60 -179 60z" />
    <glyph glyph-name="notequal" unicode="&#x2260;" horiz-adv-x="500" 
d="M67 186h127l86 158h-213v42h236l119 219h25l-119 -219h104v-42h-127l-86 -158h213v-42h-236l-119 -219h-25l119 219h-104v42z" />
    <glyph glyph-name="estimated" unicode="&#x212e;" horiz-adv-x="736" 
d="M706 349h-528v-235c54 -52 118 -78 190 -78c108 0 193 53 252 157l46 -26c-88 -125 -163 -177 -298 -177c-202 0 -338 155 -338 359c0 209 139 361 338 361c178 0 330 -122 338 -361zM178 397h380v189c-54 51 -118 77 -191 77c-75 0 -137 -26 -189 -77v-189z" />
    <glyph glyph-name="partialdiff" unicode="&#x2202;" horiz-adv-x="574" 
d="M462 349c1 0 1 1 2 1c10 95 2 297 -184 297c-46 0 -84 -6 -134 -22l-2 39c45 15 82 26 147 26c148 0 258 -95 216 -390c-22 -158 -87 -310 -269 -310c-118 0 -198 86 -177 230c21 150 110 235 239 235c72 0 129 -43 162 -106zM454 305c-30 59 -82 106 -148 106
c-136 0 -181 -108 -192 -191c-18 -122 49 -188 134 -188c145 0 190 133 206 273z" />
    <glyph glyph-name="greaterequal" unicode="&#x2265;" horiz-adv-x="480" 
d="M77 475l325 -161v-28l-325 -161v37l273 138l-273 137v38zM67 70h345v-33h-345v33z" />
    <glyph glyph-name="questionsmall" unicode="&#xf73f;" horiz-adv-x="480" 
d="M237 610c130 0 185 -60 185 -138c0 -169 -197 -124 -197 -235v-27h-45v30c0 135 191 88 191 226c0 95 -108 99 -146 99c-33 0 -90 -10 -155 -37l-13 39c53 22 117 43 180 43zM177 115h50v-115h-50v115z" />
    <glyph glyph-name="questiondownsmall" horiz-adv-x="480" 
d="M242 0c-130 0 -185 59 -185 137c0 169 198 125 198 235v28h45v-30c0 -136 -191 -89 -191 -226c0 -95 107 -99 146 -99c33 0 90 10 155 36l12 -38c-52 -23 -116 -43 -180 -43zM302 495h-50v115h50v-115z" />
    <glyph glyph-name="percent.oldstyle" horiz-adv-x="760" 
d="M582 580l-370 -580h-35l370 580h35zM181 318c-83 0 -129 51 -129 132c0 82 46 132 129 132c84 0 129 -50 129 -132c0 -81 -45 -132 -129 -132zM181 346c64 0 96 38 96 104s-32 104 -96 104c-63 0 -95 -38 -95 -104s32 -104 95 -104zM578 -3c-83 0 -129 51 -129 133
c0 81 46 132 129 132c84 0 129 -51 129 -132c0 -82 -45 -133 -129 -133zM578 26c64 0 96 38 96 104s-32 103 -96 103c-63 0 -95 -37 -95 -103s32 -104 95 -104z" />
    <glyph glyph-name="perthousand.oldstyle" horiz-adv-x="1070" 
d="M578 -3c-83 0 -129 51 -129 133c0 81 46 132 129 132c84 0 129 -51 129 -132c0 -82 -45 -133 -129 -133zM578 26c64 0 96 38 96 104s-32 103 -96 103c-63 0 -95 -37 -95 -103s32 -104 95 -104zM888 -3c-83 0 -129 51 -129 133c0 81 46 132 129 132c84 0 129 -51 129 -132
c0 -82 -45 -133 -129 -133zM888 26c64 0 96 38 96 104s-32 103 -96 103c-63 0 -95 -37 -95 -103s32 -104 95 -104zM582 580l-370 -580h-35l370 580h35zM181 318c-83 0 -129 51 -129 132c0 82 46 132 129 132c84 0 129 -50 129 -132c0 -81 -45 -132 -129 -132zM181 346
c64 0 96 38 96 104s-32 104 -96 104c-63 0 -95 -38 -95 -104s32 -104 95 -104z" />
    <glyph glyph-name="figuredash" unicode="&#x2012;" horiz-adv-x="692" 
d="M67 286h558v-42h-558v42z" />
    <glyph glyph-name="threequartersemdash" horiz-adv-x="760" 
d="M67 286h625v-42h-625v42z" />
    <glyph glyph-name="minus" unicode="&#x2212;" horiz-adv-x="500" 
d="M67 286h365v-42h-365v42z" />
    <glyph glyph-name="overscore" horiz-adv-x="425" 
d="M65 640h295v-33h-295v33z" />
    <glyph glyph-name="uni03BC" unicode="&#x3bc;" horiz-adv-x="530" 
d="M117 500v-347c3 -68 33 -121 120 -121c74 0 140 48 175 77v391h50v-500h-50v75h-2c-49 -44 -108 -79 -175 -82c-59 -1 -99 18 -118 62v-100c0 -126 -44 -165 -135 -165c-21 0 -45 2 -70 6l6 40c24 -4 40 -5 57 -5c79 0 92 49 92 124v545h50z" />
    <glyph glyph-name="onedotenleader" unicode="&#x2024;" horiz-adv-x="185" 
d="M67 115h50v-115h-50v115z" />
    <glyph glyph-name="twodotenleader" unicode="&#x2025;" horiz-adv-x="310" 
d="M67 115h50v-115h-50v115zM192 115h50v-115h-50v115z" />
    <glyph glyph-name="afii61352" unicode="&#x2116;" horiz-adv-x="1081" 
d="M837 350c-109 0 -167 65 -167 170s58 170 167 170s167 -65 167 -170s-58 -170 -167 -170zM670 320h334v-33h-334v33zM837 380c84 0 130 53 130 140s-46 139 -130 139c-85 0 -130 -52 -130 -139s45 -140 130 -140zM129 0h-52v680h53l389 -582h2v582h51v-680h-52l-389 577
h-2v-577z" />
    <glyph glyph-name="product" unicode="&#x220f;" horiz-adv-x="650" 
d="M127 0h-50v700h495v-700h-50v655h-395v-655z" />
    <glyph glyph-name="summation" unicode="&#x2211;" horiz-adv-x="550" 
d="M131 630l186 -291l-185 -290v-2h358v-47h-430v40l191 298l-191 302v40h430v-48h-359v-2z" />
    <glyph glyph-name="radical" unicode="&#x221a;" horiz-adv-x="807" 
d="M87 357v33h205l128 -336h2l244 646h54l-271 -705h-59l-143 362h-160z" />
    <glyph glyph-name="infinity" unicode="&#x221e;" horiz-adv-x="685" 
d="M178 361c-66 0 -117 -40 -117 -114c0 -59 41 -110 116 -110c78 0 127 76 143 110c-16 40 -69 114 -142 114zM340 222c-28 -55 -85 -116 -169 -116c-88 0 -144 57 -144 144c0 85 59 144 156 144c79 0 131 -64 160 -120c30 56 86 120 171 120c88 0 144 -57 144 -144
c0 -80 -56 -144 -153 -144c-59 0 -127 39 -165 116zM507 363c-71 0 -125 -72 -145 -115c23 -56 83 -110 143 -110c83 0 119 55 119 112c0 56 -33 113 -117 113z" />
    <glyph glyph-name="integral" unicode="&#x222b;" horiz-adv-x="345" 
d="M107 -77v619c0 120 42 158 133 158c21 0 48 -3 72 -6l-5 -40c-25 3 -40 5 -57 5c-75 0 -93 -43 -93 -124v-619c0 -89 -33 -126 -132 -126c-21 0 -48 2 -73 6l6 40c24 -4 40 -5 57 -5c75 0 92 28 92 92z" />
    <glyph glyph-name="lozenge" unicode="&#x25ca;" horiz-adv-x="472" 
d="M229 -30l-199 374l199 374h14l199 -374l-199 -374h-14zM72 344l164 -307l163 307l-163 306z" />
    <glyph glyph-name="uni037E" unicode="&#x37e;" horiz-adv-x="225" 
d="M87 307h50v-115h-50v115z" />
    <glyph glyph-name="litre" unicode="&#x2113;" horiz-adv-x="449" 
d="M42 156l-12 11l94 99v243c0 67 13 118 40 151c27 32 60 50 100 50c59 0 96 -39 96 -99c0 -34 -10 -71 -31 -112c-20 -41 -63 -100 -129 -176v-168c0 -51 8 -86 23 -106s35 -29 60 -29c22 0 44 9 64 29c21 19 39 53 54 103h18c-14 -55 -36 -97 -68 -127
c-24 -23 -54 -35 -89 -35c-58 0 -107 35 -127 90c-7 21 -11 56 -11 107v52zM200 543v-193c89 103 134 183 134 242c0 57 -30 89 -67 89c-19 0 -35 -9 -48 -28s-19 -55 -19 -110z" />
    <glyph glyph-name="tonos" unicode="&#x384;" horiz-adv-x="237" 
d="M172 680l-77 -120h-30l65 120h42z" />
    <glyph glyph-name="dieresistonos" unicode="&#x385;" horiz-adv-x="460" 
d="M65 680h42v-105h-42v105zM352 680h43v-105h-43v105zM292 700l-77 -125h-30l65 125h42z" />
    <glyph glyph-name="anoteleia" unicode="&#x387;" horiz-adv-x="432" 
d="M65 680h42v-105h-42v105zM325 680h42v-105h-42v105z" />
    <glyph glyph-name="Delta" unicode="&#x2206;" horiz-adv-x="628" 
d="M294 710l284 -710h-528zM286 626l-205 -601h442z" />
    <glyph glyph-name="Omega" unicode="&#x2126;" horiz-adv-x="670" 
d="M335 690c201 0 277 -138 277 -300c0 -127 -66 -247 -198 -261v-92h198v-37h-236v154c130 5 181 118 181 236c0 130 -51 255 -222 255s-223 -125 -223 -255c0 -118 52 -231 182 -236v-154h-237v37h199v92c-132 14 -199 134 -199 261c0 162 77 300 278 300z" />
    <glyph glyph-name="pi" unicode="&#x3c0;" horiz-adv-x="530" 
d="M117 0h-50v500h395v-500h-50v455h-295v-455z" />
    <glyph glyph-name="ampersand.alt" horiz-adv-x="840" 
d="M562 235h-287c-44 0 -150 -16 -150 -98c0 -62 42 -105 147 -105c45 0 99 5 164 30l8 -39c-70 -25 -119 -33 -184 -33c-127 0 -193 50 -193 140c0 75 62 111 133 123v2c-68 15 -113 55 -113 125c0 100 90 130 183 130c65 0 123 -12 175 -33c-3 -13 -5 -27 -7 -40
c-65 25 -125 30 -162 30c-55 0 -136 -16 -136 -97c0 -20 9 -98 135 -98h287c3 76 4 152 7 228h43v-228h155v-33h-155v-84c0 -81 20 -124 98 -124c17 0 32 1 57 5l5 -40c-24 -4 -56 -6 -77 -6c-91 0 -133 38 -133 158v87z" />
    <glyph glyph-name="sigma" unicode="&#x3c3;" horiz-adv-x="513" 
d="M100 249c0 45 18 85 48 114l-78 90l8 8l79 -90c27 22 62 36 100 36c37 0 72 -14 99 -36l78 90l9 -8l-78 -89c31 -29 50 -70 50 -115s-19 -86 -49 -114l76 -86l-9 -9l-77 87c-27 -22 -62 -35 -99 -35c-38 0 -73 13 -100 35l-76 -87l-9 9l76 86c-30 29 -48 69 -48 114z
M112 249c0 -79 66 -145 145 -145s146 66 146 145s-67 146 -146 146s-145 -67 -145 -146z" />
    <glyph glyph-name="uni03C2" unicode="&#x3c2;" horiz-adv-x="513" 
d="M100 249c0 45 18 85 48 114l-78 90l8 8l79 -90c27 22 62 36 100 36c37 0 72 -14 99 -36l78 90l9 -8l-78 -89c31 -29 50 -70 50 -115s-19 -86 -49 -114l76 -86l-9 -9l-77 87c-27 -22 -62 -35 -99 -35c-38 0 -73 13 -100 35l-76 -87l-9 9l76 86c-30 29 -48 69 -48 114z
M112 249c0 -79 66 -145 145 -145s146 66 146 145s-67 146 -146 146s-145 -67 -145 -146z" />
    </font>
</defs>
</svg>
