<?xml version="1.0" standalone="no"?>
<!DOCTYPE svg PUBLIC "-//W3C//DTD SVG 1.1//EN" "http://www.w3.org/Graphics/SVG/1.1/DTD/svg11.dtd" >
<svg xmlns="http://www.w3.org/2000/svg" xmlns:xlink="http://www.w3.org/1999/xlink" version="1.1">
<metadata>
Created by FontForge 20190801 at Fri Sep  2 14:26:16 2011
 By Jimmy Wärting
Copyright (c) 2008 by Dino dos Santos _DSType. All rights reserved.
</metadata>
<defs>
<font id="Prelo-Hairline" horiz-adv-x="600" >
  <font-face 
    font-family="Prelo Hairline"
    font-weight="100"
    font-stretch="normal"
    units-per-em="1000"
    panose-1="2 0 5 6 2 0 0 2 0 4"
    ascent="750"
    descent="-250"
    x-height="500"
    cap-height="680"
    bbox="-95 -290 1004 950"
    underline-thickness="50"
    underline-position="-100"
    stemh="10"
    stemv="10"
    unicode-range="U+0020-FB06"
  />
<missing-glyph horiz-adv-x="590" 
d="M70 500h450v-500h-450v500zM287 249l-206 236v-469zM304 249l205 -231v465zM93 488l203 -229l202 229h-405zM296 240l-201 -228h401z" />
    <glyph glyph-name="T_h" unicode="Th" horiz-adv-x="1030" 
d="M590 405v-405h-10v670h-295v-670h-10v670h-205v10h520v-260h2c58 50 128 90 208 90c100 0 150 -50 150 -160v-350h-10v350c0 80 -30 150 -140 150c-90 0 -170 -60 -210 -95z" />
    <glyph glyph-name="T_h.caron" unicode="&#x164;h" horiz-adv-x="1030" 
d="M590 405v-405h-10v670h-295v-670h-10v670h-205v10h520v-260h2c58 50 128 90 208 90c100 0 150 -50 150 -160v-350h-10v350c0 80 -30 150 -140 150c-90 0 -170 -60 -210 -95zM180 850l100 -130l100 130h10l-105 -140h-10l-105 140h10z" />
    <glyph glyph-name="T_h.commaaccent" unicode="&#x162;h" horiz-adv-x="1030" 
d="M590 405v-405h-10v670h-295v-670h-10v670h-205v10h520v-260h2c58 50 128 90 208 90c100 0 150 -50 150 -160v-350h-10v350c0 80 -30 150 -140 150c-90 0 -170 -60 -210 -95zM278 -190h-9l6 90v60h10v-60z" />
    <glyph glyph-name="ff" unicode="ff" horiz-adv-x="640" 
d="M415 500v40c0 127 40 160 120 160c18 0 42 -2 65 -5l-2 -10c-28 4 -44 5 -63 5c-90 0 -110 -52 -110 -150v-40h170v-10h-170v-490h-10v490h-285v-490h-10v490h-90v8l90 2v40c0 127 40 160 120 160c18 0 42 -2 65 -5l-2 -10c-28 4 -44 5 -63 5c-90 0 -110 -52 -110 -150
v-40h285z" />
    <glyph glyph-name="ffi" unicode="ffi" horiz-adv-x="800" 
d="M415 490h-285v-490h-10v490h-90v8l90 2v40c0 127 40 160 120 160c18 0 42 -2 65 -5l-2 -10c-28 4 -44 5 -63 5c-90 0 -110 -52 -110 -150v-40h285v40c0 127 70 160 150 160c18 0 80 -5 145 -35l-5 -10c-78 34 -121 35 -140 35c-100 0 -140 -52 -140 -150v-40h295v-500
h-10v490h-285v-490h-10v490z" />
    <glyph glyph-name="f_f_j" unicode="ffj" horiz-adv-x="800" 
d="M710 -90v580h-285v-490h-10v490h-285v-490h-10v490h-90v8l90 2v40c0 127 40 160 120 160c18 0 42 -2 65 -5l-2 -10c-28 4 -44 5 -63 5c-90 0 -110 -52 -110 -150v-40h285v40c0 127 70 160 150 160c18 0 80 -5 145 -35l-5 -10c-78 34 -121 35 -140 35
c-100 0 -140 -52 -140 -150v-40h295v-595c0 -90 -40 -115 -120 -115c-18 0 -42 2 -65 5l2 10c28 -4 44 -5 63 -5c85 0 110 30 110 110z" />
    <glyph glyph-name="ffl" unicode="ffl" horiz-adv-x="800" 
d="M415 490h-285v-490h-10v490h-90v8l90 2v40c0 127 40 160 120 160c18 0 42 -2 65 -5l-2 -10c-28 4 -44 5 -63 5c-90 0 -110 -52 -110 -150v-40h285v40c0 127 70 160 150 160c18 0 80 -5 145 -35h10v-665h-10v653c-80 35 -126 37 -145 37c-100 0 -140 -52 -140 -150v-40
h170v-10h-170v-490h-10v490z" />
    <glyph glyph-name="fi" unicode="fi" horiz-adv-x="505" 
d="M120 500v40c0 127 70 160 150 160c18 0 80 -5 145 -35l-5 -10c-78 34 -121 35 -140 35c-100 0 -140 -52 -140 -150v-40h295v-500h-10v490h-285v-490h-10v490h-90v8z" />
    <glyph glyph-name="f_j" unicode="fj" horiz-adv-x="505" 
d="M415 -90v580h-285v-490h-10v490h-90v8l90 2v40c0 127 70 160 150 160c18 0 80 -5 145 -35l-5 -10c-78 34 -121 35 -140 35c-100 0 -140 -52 -140 -150v-40h295v-595c0 -90 -40 -115 -120 -115c-18 0 -42 2 -65 5l2 10c28 -4 44 -5 63 -5c85 0 110 30 110 110z" />
    <glyph glyph-name="fl" unicode="fl" horiz-adv-x="505" 
d="M130 490v-490h-10v490h-90v8l90 2v40c0 127 70 160 150 160c18 0 80 -5 145 -35h10v-665h-10v653c-80 35 -126 37 -145 37c-100 0 -140 -52 -140 -150v-40h170v-10h-170z" />
    <glyph glyph-name=".notdef" horiz-adv-x="590" 
d="M70 500h450v-500h-450v500zM287 249l-206 236v-469zM304 249l205 -231v465zM93 488l203 -229l202 229h-405zM296 240l-201 -228h401z" />
    <glyph glyph-name="space" unicode=" " horiz-adv-x="180" 
 />
    <glyph glyph-name="exclam" unicode="!" horiz-adv-x="170" 
d="M80 100h10v-100h-10v100zM80 680h10v-470h-10v470z" />
    <glyph glyph-name="quotedbl" unicode="&#x22;" horiz-adv-x="370" 
d="M80 680h10v-100h-10v100zM280 680h10v-100h-10v100z" />
    <glyph glyph-name="numbersign" unicode="#" horiz-adv-x="603" 
d="M218 500h10l-15 -140h200l15 140h10l-15 -140h100l-1 -10h-100l-21 -200h100l-1 -10h-100l-15 -140h-10l15 140h-200l-15 -140h-10l15 140h-100l1 10h100l21 200h-100l1 10h100zM212 350l-21 -200h200l21 200h-200z" />
    <glyph glyph-name="dollar" unicode="$" 
d="M305 -100h-10v90c-85 1 -160 14 -215 30l3 10c79 -22 153 -30 217 -30c160 0 210 95 210 170c0 120 -134 156 -195 170c-96 22 -225 75 -225 190c0 113 87 159 205 160v90h10v-90c84 -1 140 -12 205 -30l-3 -10c-86 23 -143 30 -207 30c-160 0 -200 -75 -200 -150
c0 -120 154 -165 215 -180c96 -21 205 -65 205 -180c0 -114 -88 -178 -215 -180v-90z" />
    <glyph glyph-name="percent" unicode="%" horiz-adv-x="760" 
d="M570 680l-370 -680h-10l370 680h10zM182 430c-79 0 -122 48 -122 125s43 125 122 125s122 -48 122 -125s-43 -125 -122 -125zM182 440c75 0 112 43 112 115s-37 115 -112 115s-112 -43 -112 -115s37 -115 112 -115zM578 0c-79 0 -122 48 -122 125s43 125 122 125
s122 -48 122 -125s-43 -125 -122 -125zM578 10c75 0 112 43 112 115s-37 115 -112 115s-112 -43 -112 -115s37 -115 112 -115z" />
    <glyph glyph-name="ampersand" unicode="&#x26;" horiz-adv-x="705" 
d="M475 555c0 -65 -41 -128 -197 -194l255 -255c49 54 86 133 102 244h10c-11 -81 -41 -179 -105 -252l95 -98l-8 -8l-94 98c-55 -59 -135 -100 -248 -100c-139 0 -210 71 -210 175c0 80 43 143 186 200c-26 27 -101 90 -101 175c0 107 85 150 165 150
c91 0 150 -47 150 -135zM295 0c76 0 163 26 231 98l-257 259c-90 -37 -184 -81 -184 -192c0 -52 23 -165 210 -165zM170 542c0 -70 48 -119 101 -173c97 39 193 95 193 186c0 117 -109 125 -139 125c-136 0 -155 -104 -155 -138z" />
    <glyph glyph-name="quotesingle" unicode="'" horiz-adv-x="170" 
d="M80 680h10v-100h-10v100z" />
    <glyph glyph-name="parenleft" unicode="(" horiz-adv-x="330" 
d="M95 340c0 164 67 340 165 480h10c-110 -170 -165 -320 -165 -480s55 -310 165 -480h-10c-98 140 -165 316 -165 480z" />
    <glyph glyph-name="parenright" unicode=")" horiz-adv-x="330" 
d="M235 340c0 -164 -67 -340 -165 -480h-10c110 170 165 320 165 480s-55 310 -165 480h10c98 -140 165 -316 165 -480z" />
    <glyph glyph-name="asterisk" unicode="*" horiz-adv-x="423" 
d="M207 543v137h10v-137l153 30l3 -10l-155 -30l100 -131l-8 -6l-99 130l-98 -130l-8 6l100 131l-155 30l3 10z" />
    <glyph glyph-name="plus" unicode="+" horiz-adv-x="500" 
d="M255 435v-165h165v-10h-165v-165h-10v165h-165v10h165v165h10z" />
    <glyph glyph-name="comma" unicode="," horiz-adv-x="170" 
d="M80 -130h-10l10 130v100h10v-100z" />
    <glyph glyph-name="hyphen" unicode="-" horiz-adv-x="500" 
d="M80 270h340v-10h-340v10z" />
    <glyph glyph-name="period" unicode="." horiz-adv-x="170" 
d="M80 100h10v-100h-10v100z" />
    <glyph glyph-name="slash" unicode="/" horiz-adv-x="540" 
d="M460 680l-370 -680h-10l370 680h10z" />
    <glyph glyph-name="zero" unicode="0" horiz-adv-x="590" 
d="M295 680c-170 0 -205 -170 -205 -335s35 -345 205 -345s205 180 205 345s-35 335 -205 335zM295 -10c-170 0 -215 165 -215 355c0 185 45 345 215 345s215 -160 215 -345c0 -190 -45 -355 -215 -355z" />
    <glyph glyph-name="one" unicode="1" horiz-adv-x="351" 
d="M261 667l-215 -132l-6 10c79 45 169 99 226 140h5v-685h-10v667z" />
    <glyph glyph-name="two" unicode="2" horiz-adv-x="550" 
d="M270 680c-58 0 -113 -10 -186 -49l-4 9c56 29 113 50 190 50c135 0 190 -95 190 -195c0 -140 -105 -300 -365 -483v-2h375v-10h-390v15c332 231 370 396 370 475c0 170 -130 190 -180 190z" />
    <glyph glyph-name="three" unicode="3" horiz-adv-x="570" 
d="M320 342v-2c98 -11 170 -74 170 -170c0 -112 -65 -180 -215 -180c-70 0 -147 14 -195 45l6 9c49 -29 115 -44 189 -44c196 0 205 120 205 170c0 87 -62 165 -220 165h-75v10h75c125 0 201 83 201 170c0 54 -19 165 -186 165c-66 0 -125 -18 -170 -44l-5 9
c47 28 113 45 175 45c136 0 195 -70 195 -175c0 -96 -75 -155 -150 -173z" />
    <glyph glyph-name="four" unicode="4" horiz-adv-x="590" 
d="M83 220h317v445h-2c-74 -155 -198 -315 -315 -445zM395 680h15v-460h110v-10h-110v-210h-10v210h-330v10c110 120 252 299 325 460z" />
    <glyph glyph-name="five" unicode="5" horiz-adv-x="570" 
d="M270 -10c-77 0 -134 21 -190 50l4 9c73 -39 128 -49 186 -49c120 0 210 72 210 210c0 92 -45 195 -185 195c-74 0 -130 -35 -175 -102l-12 2l22 375h320v-10h-311l-22 -352l2 -1c36 55 97 98 176 98c125 0 195 -80 195 -205c0 -139 -90 -220 -220 -220z" />
    <glyph glyph-name="six" unicode="6" horiz-adv-x="570" 
d="M90 333l2 -1c46 73 114 123 193 123c130 0 205 -85 205 -235c0 -144 -89 -230 -197 -230c-182 0 -213 154 -213 310c0 290 116 390 259 390c65 0 96 -11 130 -21l-3 -9c-43 13 -77 20 -127 20c-229 0 -244 -263 -249 -347zM90 313c-2 -163 30 -313 200 -313
c100 0 190 77 190 220c0 97 -35 225 -196 225c-79 0 -150 -58 -194 -132z" />
    <glyph glyph-name="seven" unicode="7" horiz-adv-x="500" 
d="M418 668v2h-348v10h360v-10c-110 -170 -252 -440 -290 -670h-10c30 210 183 510 288 668z" />
    <glyph glyph-name="eight" unicode="8" horiz-adv-x="590" 
d="M310 359v-2c105 -37 200 -83 200 -192c0 -100 -65 -175 -215 -175s-215 75 -215 175c0 110 100 160 200 192v2c-100 31 -180 77 -180 173c0 93 70 158 195 158s195 -65 195 -158c0 -96 -75 -135 -180 -173zM90 165c0 -85 50 -165 205 -165s205 80 205 165
c0 108 -104 151 -205 188c-100 -33 -205 -80 -205 -188zM295 680c-60 0 -185 -20 -185 -150c0 -91 80 -135 185 -166c104 35 185 75 185 166c0 130 -125 150 -185 150z" />
    <glyph glyph-name="nine" unicode="9" horiz-adv-x="570" 
d="M480 347l-2 1c-46 -73 -114 -123 -193 -123c-130 0 -205 85 -205 235c0 144 89 230 197 230c182 0 213 -154 213 -310c0 -290 -116 -390 -259 -390c-65 0 -96 11 -130 21l3 9c43 -13 77 -20 127 -20c229 0 244 263 249 347zM480 367c2 163 -30 313 -200 313
c-100 0 -190 -77 -190 -220c0 -97 35 -225 196 -225c79 0 150 58 194 132z" />
    <glyph glyph-name="colon" unicode=":" horiz-adv-x="170" 
d="M80 100h10v-100h-10v100zM80 460h10v-100h-10v100z" />
    <glyph glyph-name="semicolon" unicode=";" horiz-adv-x="170" 
d="M80 -130h-10l10 130v100h10v-100zM80 460h10v-100h-10v100z" />
    <glyph glyph-name="less" unicode="&#x3c;" horiz-adv-x="380" 
d="M80 255l220 165v-12l-210 -158l210 -158v-12l-220 165v10z" />
    <glyph glyph-name="equal" unicode="=" horiz-adv-x="500" 
d="M80 370h340v-10h-340v10zM80 170h340v-10h-340v10z" />
    <glyph glyph-name="greater" unicode="&#x3e;" horiz-adv-x="380" 
d="M300 245l-220 -165v12l210 158l-210 158v12l220 -165v-10z" />
    <glyph glyph-name="question" unicode="?" horiz-adv-x="480" 
d="M235 690c140 0 175 -85 175 -160c0 -191 -210 -171 -210 -290v-30h-10v30c0 124 210 107 210 290c0 140 -120 150 -170 150c-33 0 -88 -9 -156 -37l-4 10c52 20 105 37 165 37zM190 100h10v-100h-10v100z" />
    <glyph glyph-name="at" unicode="@" horiz-adv-x="830" 
d="M541 335v-259c204 0 249 160 249 250c0 194 -166 316 -356 316c-227 0 -394 -156 -394 -389c0 -216 153 -363 360 -363l-1 -10c-216 0 -369 160 -369 373c0 233 171 399 404 399c202 0 366 -132 366 -326c0 -142 -85 -260 -253 -260h-16v39h-2c-38 -30 -81 -46 -136 -46
c-77 0 -132 33 -132 104c0 73 42 116 164 116h106v56c0 72 -24 116 -114 116c-29 0 -79 -6 -127 -21l-3 9c40 14 93 22 130 22c82 0 124 -29 124 -126zM531 119v150h-106c-125 0 -154 -43 -154 -106c0 -54 37 -94 122 -94c71 0 115 30 138 50z" />
    <glyph glyph-name="A" unicode="A" horiz-adv-x="650" 
d="M579 0l-78 210h-349l-81 -210h-11l263 685h14l253 -685h-11zM331 673h-2l-173 -453h342z" />
    <glyph glyph-name="B" unicode="B" horiz-adv-x="610" 
d="M393 346v-2c101 -16 147 -87 147 -169c0 -105 -60 -175 -180 -175h-270v680h250c120 0 180 -75 180 -170c0 -84 -41 -146 -127 -164zM340 340h-240v-330h260c110 0 170 60 170 165c0 95 -60 165 -190 165zM510 510c0 95 -60 160 -170 160h-240v-320h240
c110 0 170 55 170 160z" />
    <glyph glyph-name="C" unicode="C" horiz-adv-x="620" 
d="M80 345c0 185 45 345 265 345c70 0 145 -10 215 -30l-3 -10c-97 25 -152 30 -212 30c-220 0 -255 -170 -255 -335c0 -175 35 -345 255 -345c60 0 115 5 212 30l3 -10c-70 -20 -145 -30 -215 -30c-220 0 -265 160 -265 355z" />
    <glyph glyph-name="D" unicode="D" horiz-adv-x="650" 
d="M310 0h-220v680h220c200 0 260 -150 260 -335c0 -190 -60 -345 -260 -345zM100 10h210c200 0 250 170 250 335s-50 325 -250 325h-210v-660z" />
    <glyph glyph-name="E" unicode="E" horiz-adv-x="560" 
d="M475 680v-10h-375v-310h330v-10h-330v-340h380v-10h-390v680h385z" />
    <glyph glyph-name="F" unicode="F" horiz-adv-x="535" 
d="M465 680v-10h-365v-330h320v-10h-320v-330h-10v680h375z" />
    <glyph glyph-name="G" unicode="G" horiz-adv-x="640" 
d="M345 -10c-220 0 -265 160 -265 355c0 185 45 345 265 345c70 0 135 -10 205 -30l-3 -10c-97 25 -142 30 -202 30c-220 0 -255 -170 -255 -335c0 -175 35 -345 255 -345c81 0 143 25 195 64v246h-180v10h190v-262c-37 -28 -98 -68 -205 -68z" />
    <glyph glyph-name="H" unicode="H" horiz-adv-x="640" 
d="M100 0h-10v680h10v-320h440v320h10v-680h-10v350h-440v-350z" />
    <glyph glyph-name="I" unicode="I" horiz-adv-x="190" 
d="M100 0h-10v680h10v-680z" />
    <glyph glyph-name="J" unicode="J" horiz-adv-x="300" 
d="M210 680v-530c0 -127 -40 -160 -120 -160c-18 0 -42 2 -65 5l2 10c28 -4 44 -5 63 -5c90 0 110 52 110 150v530h10z" />
    <glyph glyph-name="K" unicode="K" horiz-adv-x="610" 
d="M100 680v-440l423 440h12l-260 -273l270 -407h-13l-265 399l-167 -173v-226h-10v680h10z" />
    <glyph glyph-name="L" unicode="L" horiz-adv-x="540" 
d="M90 680h10v-670h370v-10h-380v680z" />
    <glyph glyph-name="M" unicode="M" horiz-adv-x="800" 
d="M100 680l299 -664h2l299 664h10v-680h-10v650h-2l-293 -650h-10l-293 650h-2v-650h-10v680h10z" />
    <glyph glyph-name="N" unicode="N" horiz-adv-x="650" 
d="M100 0h-10v680h10l448 -659h2v659h10v-680h-10l-448 659h-2v-659z" />
    <glyph glyph-name="O" unicode="O" horiz-adv-x="690" 
d="M345 680c-220 0 -255 -170 -255 -335s35 -345 255 -345s255 180 255 345s-35 335 -255 335zM345 -10c-220 0 -265 165 -265 355c0 185 45 345 265 345s265 -160 265 -345c0 -190 -45 -355 -265 -355z" />
    <glyph glyph-name="P" unicode="P" 
d="M350 330h-250v-330h-10v680h260c120 0 180 -80 180 -175c0 -105 -60 -175 -180 -175zM100 670v-330h250c110 0 170 60 170 165c0 95 -60 165 -170 165h-250z" />
    <glyph glyph-name="Q" unicode="Q" horiz-adv-x="690" 
d="M80 345c0 185 45 345 265 345s265 -160 265 -345c0 -188 -44 -352 -260 -355c26 -36 76 -61 142 -69c33 -4 69 -4 108 0v-11c-35 -4 -70 -5 -104 -1c-67 7 -127 32 -158 81c-214 4 -258 167 -258 355zM345 680c-220 0 -255 -170 -255 -335s35 -345 255 -345
s255 180 255 345s-35 335 -255 335z" />
    <glyph glyph-name="R" unicode="R" horiz-adv-x="615" 
d="M550 0h-12l-200 310h-238v-310h-10v680h260c120 0 180 -90 180 -185c0 -103 -68 -182 -182 -185zM100 670v-350h240c110 0 180 70 180 175c0 95 -60 175 -170 175h-250z" />
    <glyph glyph-name="S" unicode="S" 
d="M300 -10c-70 0 -150 10 -220 30l3 10c97 -25 157 -30 217 -30c160 0 210 95 210 170c0 120 -134 155 -195 170c-96 21 -225 75 -225 190s90 160 210 160c70 0 140 -10 210 -30l-3 -10c-97 25 -147 30 -207 30c-160 0 -200 -75 -200 -150c0 -120 154 -165 215 -180
c96 -21 205 -65 205 -180s-90 -180 -220 -180z" />
    <glyph glyph-name="T" unicode="T" horiz-adv-x="560" 
d="M490 670h-205v-670h-10v670h-205v10h420v-10z" />
    <glyph glyph-name="U" unicode="U" horiz-adv-x="640" 
d="M325 0c210 0 215 160 215 240v440h10v-440c0 -170 -65 -250 -230 -250s-230 80 -230 250v440h10v-440c0 -80 0 -240 225 -240z" />
    <glyph glyph-name="V" unicode="V" horiz-adv-x="650" 
d="M330 7h1l248 673h11l-253 -685h-14l-263 685h11z" />
    <glyph glyph-name="W" unicode="W" horiz-adv-x="940" 
d="M471 665h-2l-194 -670h-15l-200 685h11l196 -665h1l195 665h14l195 -665h1l196 665h11l-200 -685h-15z" />
    <glyph glyph-name="X" unicode="X" horiz-adv-x="650" 
d="M572 0l-246 351h-2l-246 -351h-13l253 361l-223 319h13l216 -308h2l216 308h13l-224 -319l254 -361h-13z" />
    <glyph glyph-name="Y" unicode="Y" horiz-adv-x="620" 
d="M309 255h2l237 425h12l-245 -440v-240h-10v240l-245 440h12z" />
    <glyph glyph-name="Z" unicode="Z" horiz-adv-x="560" 
d="M75 12v-2h425v-10h-440v10l417 658v2h-397v10h410v-10z" />
    <glyph glyph-name="bracketleft" unicode="[" horiz-adv-x="300" 
d="M90 -130h150v-10h-160v960h160v-10h-150v-940z" />
    <glyph glyph-name="backslash" unicode="\" horiz-adv-x="540" 
d="M450 0l-370 680h10l370 -680h-10z" />
    <glyph glyph-name="bracketright" unicode="]" horiz-adv-x="300" 
d="M60 -130h150v940h-150v10h160v-960h-160v10z" />
    <glyph glyph-name="asciicircum" unicode="^" horiz-adv-x="380" 
d="M189 691l-99 -181h-10l101 190h17l102 -190h-10z" />
    <glyph glyph-name="underscore" unicode="_" horiz-adv-x="500" 
d="M80 -60h340v-10h-340v10z" />
    <glyph glyph-name="grave" unicode="`" horiz-adv-x="220" 
d="M140 560l-70 140h10l70 -140h-10z" />
    <glyph glyph-name="a" unicode="a" horiz-adv-x="505" 
d="M265 500c-35 0 -85 -2 -163 -17l-2 10c60 12 120 17 165 17c105 0 160 -40 160 -160v-350h-10v50h-2c-58 -40 -108 -60 -178 -60c-100 0 -170 45 -170 135c0 92 55 145 210 145h140v80c0 95 -35 150 -150 150zM415 65v195h-140c-160 0 -200 -56 -200 -135
c0 -70 50 -125 160 -125c90 0 150 40 180 65z" />
    <glyph glyph-name="b" unicode="b" horiz-adv-x="530" 
d="M90 700v-250h2c43 35 108 60 178 60c140 0 190 -110 190 -260s-50 -260 -190 -260c-70 0 -135 25 -178 60h-2l-2 -50h-8v700h10zM450 250c0 130 -40 250 -180 250c-80 0 -150 -40 -180 -65v-370c30 -25 100 -65 180 -65c140 0 180 120 180 250z" />
    <glyph glyph-name="c" unicode="c" horiz-adv-x="480" 
d="M70 250c0 150 60 260 220 260c60 0 100 -5 160 -20l-3 -10c-75 20 -127 20 -157 20c-160 0 -210 -120 -210 -250s50 -250 210 -250c30 0 82 0 157 20l3 -10c-60 -15 -100 -20 -160 -20c-160 0 -220 110 -220 260z" />
    <glyph glyph-name="d" unicode="d" horiz-adv-x="530" 
d="M440 0v50h-2c-43 -35 -108 -60 -178 -60c-140 0 -190 110 -190 260s50 260 190 260c70 0 135 -25 178 -60h2v250h10v-700h-10zM80 250c0 -130 40 -250 180 -250c80 0 150 40 180 65v370c-30 25 -100 65 -180 65c-140 0 -180 -120 -180 -250z" />
    <glyph glyph-name="e" unicode="e" horiz-adv-x="530" 
d="M460 260h-380c0 -150 50 -260 220 -260c60 0 110 5 157 20l3 -10c-55 -15 -95 -20 -160 -20c-170 0 -230 110 -230 260s60 260 220 260s187 -118 180 -199c-2 -20 -6 -38 -10 -51zM290 500c-155 0 -202 -108 -210 -230h372c6 25 9 52 7 78c-5 79 -49 152 -169 152z" />
    <glyph glyph-name="f" unicode="f" horiz-adv-x="345" 
d="M130 580v-80h150v-10h-150v-490h-10v490h-90v8l90 2v85c0 90 40 115 120 115c18 0 42 -2 65 -5l-2 -10c-28 4 -44 5 -63 5c-85 0 -110 -30 -110 -110z" />
    <glyph glyph-name="g" unicode="g" horiz-adv-x="555" 
d="M60 -80c0 -61 35 -120 185 -120c143 0 250 50 250 150c0 42 -25 80 -125 85l-205 10c-60 -35 -105 -68 -105 -125zM265 190c105 0 170 63 170 150c0 90 -66 160 -170 160c-120 0 -175 -70 -175 -160s65 -150 175 -150zM153 49v2c-30 12 -39 38 -34 66s22 59 47 81v2
c-51 25 -86 70 -86 140c0 100 65 170 185 170c30 0 45 -5 62 -10h158v-10h-130c78 -41 90 -110 90 -150c0 -104 -80 -160 -180 -160c-25 0 -65 5 -90 15c-14 -12 -26 -27 -34 -42c-24 -45 -17 -96 34 -98l198 -10c107 -6 132 -49 132 -95c0 -90 -82 -160 -270 -160
c-110 0 -185 40 -185 130c0 48 33 90 103 129z" />
    <glyph glyph-name="h" unicode="h" horiz-adv-x="530" 
d="M90 405v-405h-10v700h10v-280h2c58 50 128 90 208 90c100 0 150 -50 150 -160v-350h-10v350c0 80 -30 150 -140 150c-90 0 -170 -60 -210 -95z" />
    <glyph glyph-name="i" unicode="i" horiz-adv-x="170" 
d="M80 500h10v-500h-10v500zM80 680h10v-100h-10v100z" />
    <glyph glyph-name="j" unicode="j" horiz-adv-x="210" 
d="M130 500v-595c0 -90 -40 -115 -120 -115c-18 0 -42 2 -65 5l2 10c28 -4 44 -5 63 -5c85 0 110 30 110 110v590h10zM120 680h10v-100h-10v100z" />
    <glyph glyph-name="k" unicode="k" horiz-adv-x="520" 
d="M90 700v-463l345 263h15l-205 -157l215 -343h-13l-210 337l-147 -111v-226h-10v700h10z" />
    <glyph glyph-name="l" unicode="l" horiz-adv-x="170" 
d="M80 0v700h10v-700h-10z" />
    <glyph glyph-name="m" unicode="m" horiz-adv-x="830" 
d="M90 405v-405h-10v500h10v-80h2c43 40 98 90 178 90c78 0 126 -31 143 -97c40 40 109 97 187 97c100 0 150 -50 150 -160v-350h-10v350c0 80 -30 150 -140 150c-79 0 -144 -60 -185 -98c3 -15 5 -33 5 -52v-350h-10v350c0 80 -30 150 -140 150c-80 0 -140 -58 -180 -95z
" />
    <glyph glyph-name="n" unicode="n" horiz-adv-x="530" 
d="M90 405v-405h-10v500h10v-80h2c58 50 128 90 208 90c100 0 150 -50 150 -160v-350h-10v350c0 80 -30 150 -140 150c-90 0 -170 -60 -210 -95z" />
    <glyph glyph-name="o" unicode="o" horiz-adv-x="550" 
d="M275 500c-150 0 -195 -120 -195 -250s45 -250 195 -250s195 120 195 250s-45 250 -195 250zM275 -10c-150 0 -205 110 -205 260s55 260 205 260s205 -110 205 -260s-55 -260 -205 -260z" />
    <glyph glyph-name="p" unicode="p" horiz-adv-x="530" 
d="M90 500v-50h2c43 35 108 60 178 60c140 0 190 -110 190 -260s-50 -260 -190 -260c-70 0 -135 25 -178 60h-2v-250h-10v700h10zM450 250c0 130 -40 250 -180 250c-80 0 -150 -40 -180 -65v-370c30 -25 100 -65 180 -65c140 0 180 120 180 250z" />
    <glyph glyph-name="q" unicode="q" horiz-adv-x="530" 
d="M440 -200v250h-2c-43 -35 -108 -60 -178 -60c-140 0 -190 110 -190 260s50 260 190 260c70 0 135 -25 178 -60h2l2 50h8v-700h-10zM80 250c0 -130 40 -250 180 -250c80 0 150 40 180 65v370c-30 25 -100 65 -180 65c-140 0 -180 -120 -180 -250z" />
    <glyph glyph-name="r" unicode="r" horiz-adv-x="370" 
d="M90 405v-405h-10v500h10v-80h2c58 45 138 90 218 90v-10c-90 0 -180 -60 -220 -95z" />
    <glyph glyph-name="s" unicode="s" horiz-adv-x="480" 
d="M415 125c0 -80 -50 -135 -160 -135c-70 0 -130 5 -190 20l3 10c75 -20 157 -20 187 -20c150 0 150 105 150 125c0 50 -17 98 -165 128c-92 19 -165 47 -165 137c0 70 50 120 160 120c70 0 120 -5 180 -20l-3 -10c-75 20 -147 20 -177 20c-150 0 -150 -93 -150 -110
c0 -50 18 -100 159 -128c124 -25 171 -62 171 -137z" />
    <glyph glyph-name="t" unicode="t" horiz-adv-x="375" 
d="M120 150v340h-90v8l90 2l2 140h8v-140h170v-10h-170v-340c0 -98 20 -150 110 -150c19 0 35 1 63 5l2 -10c-23 -3 -47 -5 -65 -5c-80 0 -120 33 -120 160z" />
    <glyph glyph-name="u" unicode="u" horiz-adv-x="530" 
d="M440 95v405h10v-500h-10v80h-2c-58 -50 -128 -90 -208 -90c-100 0 -150 50 -150 160v350h10v-350c0 -80 30 -150 140 -150c90 0 170 60 210 95z" />
    <glyph glyph-name="v" unicode="v" horiz-adv-x="560" 
d="M285 -5h-10l-205 505h12l197 -488h2l197 488h12z" />
    <glyph glyph-name="w" unicode="w" horiz-adv-x="790" 
d="M396 483h-2l-149 -488h-10l-165 505h10l159 -488h2l149 488h10l154 -488h2l154 488h10l-160 -505h-10z" />
    <glyph glyph-name="x" unicode="x" horiz-adv-x="545" 
d="M471 0l-199 252h-2l-196 -252h-14l204 261l-189 239h13l182 -230h2l179 230h14l-187 -239l207 -261h-14z" />
    <glyph glyph-name="y" unicode="y" horiz-adv-x="560" 
d="M284 -14l-214 514h12l207 -498h2l187 498h12l-211 -555c-40 -105 -88 -155 -159 -155c-18 0 -32 2 -45 5l2 10c18 -4 28 -5 43 -5c103 0 136 119 164 186z" />
    <glyph glyph-name="z" unicode="z" horiz-adv-x="470" 
d="M420 500v-10l-360 -478v-2h365v-10h-380v10l360 478v2h-345v10h360z" />
    <glyph glyph-name="braceleft" unicode="{" horiz-adv-x="340" 
d="M150 0c0 -130 75 -130 130 -130v-10c-94 0 -140 30 -140 146c0 61 10 130 10 189c0 64 0 125 -70 135v20c70 10 70 71 70 135c0 59 -10 128 -10 189c0 116 46 146 140 146v-10c-55 0 -130 0 -130 -130c0 -61 10 -159 10 -221c0 -79 -26 -109 -71 -118v-2
c45 -9 71 -39 71 -118c0 -62 -10 -160 -10 -221z" />
    <glyph glyph-name="bar" unicode="|" horiz-adv-x="190" 
d="M100 -100h-10v880h10v-880z" />
    <glyph glyph-name="braceright" unicode="}" horiz-adv-x="340" 
d="M190 680c0 130 -75 130 -130 130v10c94 0 140 -30 140 -146c0 -61 -10 -130 -10 -189c0 -64 0 -125 70 -135v-20c-70 -10 -70 -71 -70 -135c0 -59 10 -128 10 -189c0 -116 -46 -146 -140 -146v10c55 0 130 0 130 130c0 61 -10 159 -10 221c0 79 26 109 71 118v2
c-45 9 -71 39 -71 118c0 62 10 160 10 221z" />
    <glyph glyph-name="asciitilde" unicode="~" horiz-adv-x="455" 
d="M154 355c-20 0 -37 -1 -98 -61l-6 6c48 48 68 65 103 65c47 0 146 -70 180 -70c18 0 40 6 65 56l7 -4c-18 -35 -35 -62 -72 -62c-38 0 -141 70 -179 70z" />
    <glyph glyph-name="Euro" unicode="&#x20ac;" horiz-adv-x="700" 
d="M153 415h237l-5 -10h-233c-2 -20 -2 -40 -2 -60c0 -23 1 -47 3 -70h237l-5 -10h-231c17 -139 83 -265 251 -265c95 0 163 35 220 85l5 -10c-32 -26 -95 -85 -225 -85c-172 0 -244 121 -261 275h-74v10h73c-2 22 -3 46 -3 70c0 20 1 40 2 60h-72v10h73
c15 153 88 275 262 275c130 0 193 -59 225 -85l-5 -10c-57 50 -125 85 -220 85c-172 0 -237 -125 -252 -265z" />
    <glyph glyph-name="quotesinglbase" unicode="&#x201a;" horiz-adv-x="170" 
d="M80 -130h-10l10 130v100h10v-100z" />
    <glyph glyph-name="florin" unicode="&#x192;" horiz-adv-x="345" 
d="M120 -50v540h-90v8l90 2v40c0 127 40 160 120 160c18 0 42 -2 65 -5l-2 -10c-28 4 -44 5 -63 5c-90 0 -110 -52 -110 -150v-40h170v-10h-170v-540c0 -127 -40 -160 -120 -160c-18 0 -42 2 -65 5l2 10c28 -4 44 -5 63 -5c90 0 110 52 110 150z" />
    <glyph glyph-name="quotedblbase" unicode="&#x201e;" horiz-adv-x="390" 
d="M80 -130h-10l10 130v100h10v-100zM300 -130h-10l10 130v100h10v-100z" />
    <glyph glyph-name="ellipsis" unicode="&#x2026;" horiz-adv-x="570" 
d="M80 100h10v-100h-10v100zM480 100h10v-100h-10v100zM280 100h10v-100h-10v100z" />
    <glyph glyph-name="dagger" unicode="&#x2020;" horiz-adv-x="580" 
d="M500 490h-205v-490h-10v490h-205v10h205v200h10v-200h205v-10z" />
    <glyph glyph-name="daggerdbl" unicode="&#x2021;" horiz-adv-x="580" 
d="M285 240v220h-205v10h205v230h10v-230h205v-10h-205v-220h205v-10h-205v-230h-10v230h-205v10h205z" />
    <glyph glyph-name="circumflex" unicode="&#x2c6;" horiz-adv-x="360" 
d="M180 690l-100 -130h-10l105 140h10l105 -140h-10z" />
    <glyph glyph-name="perthousand" unicode="&#x2030;" horiz-adv-x="1060" 
d="M570 680l-370 -680h-10l370 680h10zM182 430c-79 0 -122 48 -122 125s43 125 122 125s122 -48 122 -125s-43 -125 -122 -125zM182 440c75 0 112 43 112 115s-37 115 -112 115s-112 -43 -112 -115s37 -115 112 -115zM578 0c-79 0 -122 48 -122 125s43 125 122 125
s122 -48 122 -125s-43 -125 -122 -125zM578 10c75 0 112 43 112 115s-37 115 -112 115s-112 -43 -112 -115s37 -115 112 -115zM878 0c-79 0 -122 48 -122 125s43 125 122 125s122 -48 122 -125s-43 -125 -122 -125zM878 10c75 0 112 43 112 115s-37 115 -112 115
s-112 -43 -112 -115s37 -115 112 -115z" />
    <glyph glyph-name="Scaron" unicode="&#x160;" 
d="M300 -10c-70 0 -150 10 -220 30l3 10c97 -25 157 -30 217 -30c160 0 210 95 210 170c0 120 -134 155 -195 170c-96 21 -225 75 -225 190s90 160 210 160c70 0 140 -10 210 -30l-3 -10c-97 25 -147 30 -207 30c-160 0 -200 -75 -200 -150c0 -120 154 -165 215 -180
c96 -21 205 -65 205 -180s-90 -180 -220 -180zM200 850l100 -130l100 130h10l-105 -140h-10l-105 140h10z" />
    <glyph glyph-name="guilsinglleft" unicode="&#x2039;" horiz-adv-x="380" 
d="M80 255l220 165v-12l-210 -158l210 -158v-12l-220 165v10z" />
    <glyph glyph-name="OE" unicode="&#x152;" horiz-adv-x="1070" 
d="M985 680v-10h-375v-310h330v-10h-330v-340h380v-10h-390v208h-1c-34 -216 -223 -218 -254 -218c-220 0 -265 165 -265 355c0 185 45 345 265 345c166 0 231 -92 254 -211h1v201h385zM345 680c-220 0 -255 -170 -255 -335s35 -345 255 -345s255 180 255 357
c0 161 -41 323 -255 323z" />
    <glyph glyph-name="Zcaron" unicode="&#x17d;" horiz-adv-x="560" 
d="M75 12v-2h425v-10h-440v10l417 658v2h-397v10h410v-10zM180 850l100 -130l100 130h10l-105 -140h-10l-105 140h10z" />
    <glyph glyph-name="quoteleft" unicode="&#x2018;" horiz-adv-x="170" 
d="M90 680h10l-10 -130v-100h-10v100z" />
    <glyph glyph-name="quoteright" unicode="&#x2019;" horiz-adv-x="170" 
d="M80 450h-10l10 130v100h10v-100z" />
    <glyph glyph-name="quotedblleft" unicode="&#x201c;" horiz-adv-x="390" 
d="M310 680h10l-10 -130v-100h-10v100zM90 680h10l-10 -130v-100h-10v100z" />
    <glyph glyph-name="quotedblright" unicode="&#x201d;" horiz-adv-x="390" 
d="M80 450h-10l10 130v100h10v-100zM300 450h-10l10 130v100h10v-100z" />
    <glyph glyph-name="bullet" unicode="&#x2022;" horiz-adv-x="210" 
d="M100 300h10v-100h-10v100z" />
    <glyph glyph-name="endash" unicode="&#x2013;" horiz-adv-x="690" 
d="M80 270h530v-10h-530v10z" />
    <glyph glyph-name="emdash" unicode="&#x2014;" horiz-adv-x="760" 
d="M80 270h600v-10h-600v10z" />
    <glyph glyph-name="tilde" unicode="&#x2dc;" horiz-adv-x="445" 
d="M174 655c-28 0 -37 -1 -98 -61l-6 6c48 48 68 65 103 65c47 0 96 -70 130 -70c18 0 40 6 65 56l7 -4c-18 -35 -39 -62 -72 -62c-38 0 -91 70 -129 70z" />
    <glyph glyph-name="trademark" unicode="&#x2122;" horiz-adv-x="780" 
d="M418 680l147 -329h2l153 329h10v-344h-10v314h-2l-147 -314h-10l-141 314h-2v-314h-10v344h10zM294 670h-117v-334h-10v334h-117v10h244v-10z" />
    <glyph glyph-name="scaron" unicode="&#x161;" horiz-adv-x="480" 
d="M415 125c0 -80 -50 -135 -160 -135c-70 0 -130 5 -190 20l3 10c75 -20 157 -20 187 -20c150 0 150 105 150 125c0 50 -17 98 -165 128c-92 19 -165 47 -165 137c0 70 50 120 160 120c70 0 120 -5 180 -20l-3 -10c-75 20 -147 20 -177 20c-150 0 -150 -93 -150 -110
c0 -50 18 -100 159 -128c124 -25 171 -62 171 -137zM149 700l100 -130l100 130h10l-105 -140h-10l-105 140h10z" />
    <glyph glyph-name="guilsinglright" unicode="&#x203a;" horiz-adv-x="380" 
d="M300 245l-220 -165v12l210 158l-210 158v12l220 -165v-10z" />
    <glyph glyph-name="oe" unicode="&#x153;" horiz-adv-x="930" 
d="M860 260h-380c0 -150 50 -260 220 -260c60 0 110 5 157 20l3 -10c-55 -15 -95 -20 -160 -20c-142 0 -208 77 -225 189c-16 -112 -75 -189 -200 -189c-150 0 -205 110 -205 260s55 260 205 260c125 0 184 -77 200 -189c17 112 81 189 215 189c155 0 181 -110 181 -177
c0 -30 -7 -60 -11 -73zM275 500c-150 0 -195 -120 -195 -250s45 -250 195 -250c146 0 195 114 195 250c0 130 -45 250 -195 250zM690 500c-155 0 -202 -108 -210 -230h373c5 20 8 42 8 63c0 84 -43 167 -171 167z" />
    <glyph glyph-name="zcaron" unicode="&#x17e;" horiz-adv-x="470" 
d="M420 500v-10l-360 -478v-2h365v-10h-380v10l360 478v2h-345v10h360zM135 700l100 -130l100 130h10l-105 -140h-10l-105 140h10z" />
    <glyph glyph-name="Ydieresis" unicode="&#x178;" horiz-adv-x="620" 
d="M309 255h2l237 425h12l-245 -440v-240h-10v240l-245 440h12zM200 840h10v-100h-10v100zM410 840h10v-100h-10v100z" />
    <glyph glyph-name="exclamdown" unicode="&#xa1;" horiz-adv-x="170" 
d="M90 400h-10v100h10v-100zM90 -180h-10v470h10v-470z" />
    <glyph glyph-name="cent" unicode="&#xa2;" horiz-adv-x="520" 
d="M295 -100h-10v90c-137 3 -215 112 -215 260s78 257 215 260v90h10v-90c67 -1 108 -15 155 -35l-2 -10c-55 20 -87 34 -153 35v-500c66 0 98 14 153 35l2 -10c-47 -21 -88 -34 -155 -35v-90zM80 250c0 -129 68 -247 205 -250v500c-137 -3 -205 -122 -205 -250z" />
    <glyph glyph-name="sterling" unicode="&#xa3;" horiz-adv-x="610" 
d="M390 340h-260v-330h380v-10h-440v10h50v330h-50v10h50v180c0 115 90 160 210 160c86 0 160 -20 210 -50l-5 -9c-70 39 -141 49 -205 49c-160 0 -200 -75 -200 -150v-180h260v-10z" />
    <glyph glyph-name="currency" unicode="&#xa4;" horiz-adv-x="513" 
d="M100 249c0 45 18 85 48 114l-78 90l8 8l79 -90c27 22 62 36 100 36c37 0 72 -14 99 -36l78 90l9 -8l-78 -89c31 -29 50 -70 50 -115s-19 -86 -49 -114l76 -86l-9 -9l-77 87c-27 -22 -62 -35 -99 -35c-38 0 -73 13 -100 35l-76 -87l-9 9l76 86c-30 29 -48 69 -48 114z
M112 249c0 -79 66 -145 145 -145s146 66 146 145s-67 146 -146 146s-145 -67 -145 -146z" />
    <glyph glyph-name="yen" unicode="&#xa5;" horiz-adv-x="640" 
d="M328 245h182v-10h-185v-235h-10v235h-185v10h182l-242 435h12l237 -425h2l237 425h12z" />
    <glyph glyph-name="brokenbar" unicode="&#xa6;" horiz-adv-x="170" 
d="M90 -100h-10v400h10v-400zM90 380h-10v400h10v-400z" />
    <glyph glyph-name="section" unicode="&#xa7;" horiz-adv-x="580" 
d="M510 320h-10c0 120 -134 155 -195 170c-96 21 -225 75 -225 190s90 160 210 160c70 0 140 -10 210 -30l-3 -10c-97 25 -147 30 -207 30c-160 0 -200 -75 -200 -150c0 -120 154 -165 215 -180c96 -21 205 -65 205 -180zM80 380h10c0 -120 154 -165 215 -180
c96 -21 205 -65 205 -180s-90 -180 -220 -180c-70 0 -150 10 -220 30l3 10c97 -25 157 -30 217 -30c160 0 210 95 210 170c0 120 -134 155 -195 170c-96 21 -225 75 -225 190z" />
    <glyph glyph-name="dieresis" unicode="&#xa8;" horiz-adv-x="420" 
d="M100 680h10v-100h-10v100zM310 680h10v-100h-10v100z" />
    <glyph glyph-name="copyright" unicode="&#xa9;" horiz-adv-x="765" 
d="M30 340c0 195 157 350 352 350s353 -155 353 -350s-158 -350 -353 -350s-352 155 -352 350zM40 340c0 -189 153 -340 342 -340s343 151 343 340s-154 340 -343 340s-342 -151 -342 -340zM383 506c-108 0 -143 -66 -143 -162c0 -100 35 -172 143 -172c42 0 77 8 111 30
l5 -8c-21 -14 -57 -32 -116 -32c-107 0 -153 67 -153 182c0 108 46 172 153 172c59 0 95 -18 116 -32l-4 -10c-35 22 -70 32 -112 32z" />
    <glyph glyph-name="ordfeminine" unicode="&#xaa;" horiz-adv-x="300" 
d="M235 463v97h-70c-80 0 -100 -28 -100 -67c0 -35 25 -63 80 -63c45 0 75 20 90 33zM160 680c-17 0 -42 -1 -81 -8c0 2 -1 3 -1 5c30 6 60 8 82 8c53 0 80 -20 80 -80v-175h-5v25c-30 -20 -55 -30 -90 -30c-50 0 -85 23 -85 68c0 46 28 72 105 72h70v40c0 48 -17 75 -75 75
z" />
    <glyph glyph-name="guillemotleft" unicode="&#xab;" 
d="M80 255l220 165v-12l-210 -158l210 -158v-12l-220 165v10zM300 255l220 165v-12l-210 -158l210 -158v-12l-220 165v10z" />
    <glyph glyph-name="logicalnot" unicode="&#xac;" horiz-adv-x="590" 
d="M100 270h390v-125h-10v115h-380v10z" />
    <glyph glyph-name="uni00AD" unicode="&#xad;" horiz-adv-x="500" 
d="M80 270h340v-10h-340v10z" />
    <glyph glyph-name="registered" unicode="&#xae;" horiz-adv-x="765" 
d="M519 168h-13l-120 132h-105v-132h-10v344h129c75 0 110 -44 110 -103c0 -67 -40 -109 -110 -109zM281 502v-192h114c70 0 105 35 105 99c0 55 -35 93 -100 93h-119zM30 340c0 195 157 350 352 350s353 -155 353 -350s-158 -350 -353 -350s-352 155 -352 350zM40 340
c0 -189 153 -340 342 -340s343 151 343 340s-154 340 -343 340s-342 -151 -342 -340z" />
    <glyph glyph-name="macron" unicode="&#xaf;" horiz-adv-x="420" 
d="M70 630h280v-10h-280v10z" />
    <glyph glyph-name="degree" unicode="&#xb0;" horiz-adv-x="262" 
d="M50 599c0 45 36 81 81 81s81 -36 81 -81s-36 -81 -81 -81s-81 36 -81 81zM59 599c0 -41 31 -72 72 -72s72 31 72 72s-31 72 -72 72s-72 -31 -72 -72z" />
    <glyph glyph-name="plusminus" unicode="&#xb1;" horiz-adv-x="500" 
d="M80 90h165v170h-165v10h165v165h10v-165h165v-10h-165v-170h165v-10h-340v10z" />
    <glyph glyph-name="twosuperior" unicode="&#xb2;" horiz-adv-x="318" 
d="M156 866c-29 0 -56 -5 -93 -24l-3 8c29 14 58 25 97 25c68 0 96 -47 96 -98c0 -70 -53 -148 -180 -237v-1h185v-9h-198v11c164 114 184 194 184 233c0 83 -64 92 -88 92z" />
    <glyph glyph-name="threesuperior" unicode="&#xb3;" horiz-adv-x="328" 
d="M184 696c49 -7 84 -38 84 -85c0 -57 -34 -91 -109 -91c-35 0 -74 7 -99 23l4 8c25 -15 58 -23 95 -23c87 0 99 50 99 75c0 46 -23 88 -106 88h-38v8h37c61 0 98 40 98 83c0 28 -11 80 -91 80c-33 0 -62 -11 -84 -23l-4 8c24 14 58 23 90 23c67 0 98 -35 98 -88
c0 -47 -37 -76 -74 -86z" />
    <glyph glyph-name="acute" unicode="&#xb4;" horiz-adv-x="220" 
d="M150 700l-70 -140h-10l70 140h10z" />
    <glyph glyph-name="mu" unicode="&#xb5;" horiz-adv-x="530" 
d="M90 500v-362c3 -75 35 -138 140 -138c90 0 170 60 210 95v405h10v-500h-10v80h-2c-58 -50 -128 -90 -208 -90c-75 0 -121 27 -140 87v-127c0 -127 -40 -160 -120 -160c-18 0 -42 2 -65 5l2 10c28 -4 44 -5 63 -5c97 0 110 61 110 150v550h10z" />
    <glyph glyph-name="paragraph" unicode="&#xb6;" horiz-adv-x="555" 
d="M505 670h-82v-670h-10v670h-70v-375h-92c-120 0 -201 78 -201 193c0 120 81 192 201 192h254v-10z" />
    <glyph glyph-name="periodcentered" unicode="&#xb7;" horiz-adv-x="210" 
d="M100 300h10v-100h-10v100z" />
    <glyph glyph-name="cedilla" unicode="&#xb8;" horiz-adv-x="290" 
d="M126 -70v70h10v-60c44 -1 84 -20 84 -70c0 -45 -34 -75 -88 -75c-24 0 -37 4 -62 12l3 9c16 -5 32 -11 60 -11c65 0 77 45 77 65s-9 61 -84 60z" />
    <glyph glyph-name="onesuperior" unicode="&#xb9;" horiz-adv-x="308" 
d="M59 538h110v321l-105 -63l-4 8c40 22 85 48 113 69h5v-335h110v-8h-229v8z" />
    <glyph glyph-name="ordmasculine" unicode="&#xba;" horiz-adv-x="325" 
d="M163 680c-75 0 -98 -60 -98 -125s23 -125 98 -125s97 60 97 125s-22 125 -97 125zM163 425c-75 0 -103 55 -103 130s28 130 103 130s102 -55 102 -130s-27 -130 -102 -130z" />
    <glyph glyph-name="guillemotright" unicode="&#xbb;" 
d="M300 420l220 -165v-10l-220 -165v12l210 158l-210 158v12zM80 420l220 -165v-10l-220 -165v12l210 158l-210 158v12z" />
    <glyph glyph-name="onequarter" unicode="&#xbc;" horiz-adv-x="800" 
d="M673 340h13v-228h54v-9h-54v-103h-9v103h-165v9c55 60 125 148 161 228zM523 112h154v215c-37 -75 -97 -152 -154 -215zM637 680l-370 -680h-10l370 680h10zM60 338h110v321l-105 -63l-4 8c40 22 85 48 113 69h5v-335h110v-8h-229v8z" />
    <glyph glyph-name="onehalf" unicode="&#xbd;" horiz-adv-x="800" 
d="M617 680l-370 -680h-10l370 680h10zM638 336c-29 0 -56 -5 -93 -24l-3 8c29 14 58 25 97 25c68 0 96 -47 96 -98c0 -70 -53 -148 -180 -237v-1h185v-9h-198v11c164 114 184 194 184 233c0 83 -64 92 -88 92zM60 338h110v321l-105 -63l-4 8c40 22 85 48 113 69h5v-335h110
v-8h-229v8z" />
    <glyph glyph-name="threequarters" unicode="&#xbe;" horiz-adv-x="800" 
d="M637 680l-370 -680h-10l370 680h10zM523 112h154v215c-37 -75 -97 -152 -154 -215zM673 340h13v-228h54v-9h-54v-103h-9v103h-165v9c55 60 125 148 161 228zM184 496c49 -7 84 -38 84 -85c0 -57 -34 -91 -109 -91c-35 0 -74 7 -99 23l4 8c25 -15 58 -23 95 -23
c87 0 99 50 99 75c0 46 -23 88 -106 88h-38v8h37c61 0 98 40 98 83c0 28 -11 80 -91 80c-33 0 -62 -11 -84 -23l-4 8c24 14 58 23 90 23c67 0 98 -35 98 -88c0 -47 -37 -76 -74 -86z" />
    <glyph glyph-name="questiondown" unicode="&#xbf;" horiz-adv-x="480" 
d="M245 -190c-140 0 -175 85 -175 160c0 191 210 171 210 290v30h10v-30c0 -124 -210 -107 -210 -290c0 -140 120 -150 170 -150c33 0 88 9 156 37l4 -10c-52 -20 -105 -37 -165 -37zM290 400h-10v100h10v-100z" />
    <glyph glyph-name="Agrave" unicode="&#xc0;" horiz-adv-x="650" 
d="M579 0l-78 210h-349l-81 -210h-11l263 685h14l253 -685h-11zM331 673h-2l-173 -453h342zM320 710l-70 140h10l70 -140h-10z" />
    <glyph glyph-name="Aacute" unicode="&#xc1;" horiz-adv-x="650" 
d="M579 0l-78 210h-349l-81 -210h-11l263 685h14l253 -685h-11zM331 673h-2l-173 -453h342zM407 850l-70 -140h-10l70 140h10z" />
    <glyph glyph-name="Acircumflex" unicode="&#xc2;" horiz-adv-x="650" 
d="M579 0l-78 210h-349l-81 -210h-11l263 685h14l253 -685h-11zM331 673h-2l-173 -453h342zM325 840l-100 -130h-10l105 140h10l105 -140h-10z" />
    <glyph glyph-name="Atilde" unicode="&#xc3;" horiz-adv-x="650" 
d="M579 0l-78 210h-349l-81 -210h-11l263 685h14l253 -685h-11zM331 673h-2l-173 -453h342zM277 815c-28 0 -37 -1 -98 -61l-6 6c48 48 68 65 103 65c47 0 96 -70 130 -70c18 0 40 6 65 56l7 -4c-18 -35 -39 -62 -72 -62c-38 0 -91 70 -129 70z" />
    <glyph glyph-name="Adieresis" unicode="&#xc4;" horiz-adv-x="650" 
d="M579 0l-78 210h-349l-81 -210h-11l263 685h14l253 -685h-11zM331 673h-2l-173 -453h342zM215 840h10v-100h-10v100zM425 840h10v-100h-10v100z" />
    <glyph glyph-name="Aring" unicode="&#xc5;" horiz-adv-x="650" 
d="M579 0l-78 210h-349l-81 -210h-11l263 685h14l253 -685h-11zM331 673h-2l-173 -453h342zM255 790c0 40 30 70 70 70s70 -30 70 -70s-30 -70 -70 -70s-70 30 -70 70zM265 790c0 -34 25 -60 60 -60s60 26 60 60s-25 60 -60 60s-60 -26 -60 -60z" />
    <glyph glyph-name="AE" unicode="&#xc6;" horiz-adv-x="926" 
d="M456 350h-184l-200 -350h-12l389 680h392v-10h-375v-310h330v-10h-330v-340h380v-10h-390v350zM454 669l-177 -309h179v309h-2z" />
    <glyph glyph-name="Ccedilla" unicode="&#xc7;" horiz-adv-x="620" 
d="M80 345c0 185 45 345 265 345c70 0 145 -10 215 -30l-3 -10c-97 25 -152 30 -212 30c-220 0 -255 -170 -255 -335c0 -175 35 -345 255 -345c60 0 115 5 212 30l3 -10c-70 -20 -145 -30 -214 -30v-50c44 -1 84 -20 84 -70c0 -45 -34 -75 -88 -75c-24 0 -37 4 -62 12l3 9
c16 -5 32 -11 62 -11c65 0 75 45 75 65s-9 61 -84 60v60c-212 4 -256 162 -256 355z" />
    <glyph glyph-name="Egrave" unicode="&#xc8;" horiz-adv-x="560" 
d="M475 680v-10h-375v-310h330v-10h-330v-340h380v-10h-390v680h385zM293 710l-70 140h10l70 -140h-10z" />
    <glyph glyph-name="Eacute" unicode="&#xc9;" horiz-adv-x="560" 
d="M475 680v-10h-375v-310h330v-10h-330v-340h380v-10h-390v680h385zM346 850l-70 -140h-10l70 140h10z" />
    <glyph glyph-name="Ecircumflex" unicode="&#xca;" horiz-adv-x="560" 
d="M475 680v-10h-375v-310h330v-10h-330v-340h380v-10h-390v680h385zM294 840l-100 -130h-10l105 140h10l105 -140h-10z" />
    <glyph glyph-name="Edieresis" unicode="&#xcb;" horiz-adv-x="560" 
d="M475 680v-10h-375v-310h330v-10h-330v-340h380v-10h-390v680h385zM171 840h10v-100h-10v100zM381 840h10v-100h-10v100z" />
    <glyph glyph-name="Igrave" unicode="&#xcc;" horiz-adv-x="190" 
d="M100 0h-10v680h10v-680zM89 710l-70 140h10l70 -140h-10z" />
    <glyph glyph-name="Iacute" unicode="&#xcd;" horiz-adv-x="190" 
d="M100 0h-10v680h10v-680zM171 850l-70 -140h-10l70 140h10z" />
    <glyph glyph-name="Icircumflex" unicode="&#xce;" horiz-adv-x="190" 
d="M99 0h-10v680h10v-680zM95 840l-100 -130h-10l105 140h10l105 -140h-10z" />
    <glyph glyph-name="Idieresis" unicode="&#xcf;" horiz-adv-x="190" 
d="M101 0h-10v680h10v-680zM-15 840h10v-100h-10v100zM195 840h10v-100h-10v100z" />
    <glyph glyph-name="Eth" unicode="&#xd0;" horiz-adv-x="650" 
d="M310 0h-220v340h-50v10h50v330h220c200 0 260 -150 260 -335c0 -190 -60 -345 -260 -345zM100 10h210c200 0 250 170 250 335s-50 325 -250 325h-210v-320h140v-10h-140v-330z" />
    <glyph glyph-name="Ntilde" unicode="&#xd1;" horiz-adv-x="650" 
d="M100 0h-10v680h10l448 -659h2v659h10v-680h-10l-448 659h-2v-659zM277 815c-28 0 -37 -1 -98 -61l-6 6c48 48 68 65 103 65c47 0 96 -70 130 -70c18 0 40 6 65 56l7 -4c-18 -35 -39 -62 -72 -62c-38 0 -91 70 -129 70z" />
    <glyph glyph-name="Ograve" unicode="&#xd2;" horiz-adv-x="690" 
d="M345 680c-220 0 -255 -170 -255 -335s35 -345 255 -345s255 180 255 345s-35 335 -255 335zM345 -10c-220 0 -265 165 -265 355c0 185 45 345 265 345s265 -160 265 -345c0 -190 -45 -355 -265 -355zM351 710l-70 140h10l70 -140h-10z" />
    <glyph glyph-name="Oacute" unicode="&#xd3;" horiz-adv-x="690" 
d="M345 680c-220 0 -255 -170 -255 -335s35 -345 255 -345s255 180 255 345s-35 335 -255 335zM345 -10c-220 0 -265 165 -265 355c0 185 45 345 265 345s265 -160 265 -345c0 -190 -45 -355 -265 -355zM419 850l-70 -140h-10l70 140h10z" />
    <glyph glyph-name="Ocircumflex" unicode="&#xd4;" horiz-adv-x="690" 
d="M345 680c-220 0 -255 -170 -255 -335s35 -345 255 -345s255 180 255 345s-35 335 -255 335zM345 -10c-220 0 -265 165 -265 355c0 185 45 345 265 345s265 -160 265 -345c0 -190 -45 -355 -265 -355zM345 840l-100 -130h-10l105 140h10l105 -140h-10z" />
    <glyph glyph-name="Otilde" unicode="&#xd5;" horiz-adv-x="690" 
d="M345 680c-220 0 -255 -170 -255 -335s35 -345 255 -345s255 180 255 345s-35 335 -255 335zM345 -10c-220 0 -265 165 -265 355c0 185 45 345 265 345s265 -160 265 -345c0 -190 -45 -355 -265 -355zM297 815c-28 0 -37 -1 -98 -61l-6 6c48 48 68 65 103 65
c47 0 96 -70 130 -70c18 0 40 6 65 56l7 -4c-18 -35 -39 -62 -72 -62c-38 0 -91 70 -129 70z" />
    <glyph glyph-name="Odieresis" unicode="&#xd6;" horiz-adv-x="690" 
d="M345 680c-220 0 -255 -170 -255 -335s35 -345 255 -345s255 180 255 345s-35 335 -255 335zM345 -10c-220 0 -265 165 -265 355c0 185 45 345 265 345s265 -160 265 -345c0 -190 -45 -355 -265 -355zM235 840h10v-100h-10v100zM445 840h10v-100h-10v100z" />
    <glyph glyph-name="multiply" unicode="&#xd7;" horiz-adv-x="464" 
d="M384 410l-145 -145l145 -145l-7 -7l-145 145l-145 -145l-7 7l145 145l-145 145l7 7l145 -145l145 145z" />
    <glyph glyph-name="Oslash" unicode="&#xd8;" horiz-adv-x="690" 
d="M345 -10c-101 0 -165 34 -205 90l-81 -102l-9 7l84 105c-42 65 -54 157 -54 255c0 185 45 345 265 345c97 0 160 -32 200 -83l86 108l9 -7l-88 -110c45 -64 58 -155 58 -253c0 -190 -45 -355 -265 -355zM345 0c220 0 255 180 255 345c0 89 -10 180 -55 244l-397 -500
c38 -54 99 -89 197 -89zM345 680c-220 0 -255 -170 -255 -335c0 -88 9 -179 51 -246l398 500c-38 49 -99 81 -194 81z" />
    <glyph glyph-name="Ugrave" unicode="&#xd9;" horiz-adv-x="640" 
d="M325 0c210 0 215 160 215 240v440h10v-440c0 -170 -65 -250 -230 -250s-230 80 -230 250v440h10v-440c0 -80 0 -240 225 -240zM320 710l-70 140h10l70 -140h-10z" />
    <glyph glyph-name="Uacute" unicode="&#xda;" horiz-adv-x="640" 
d="M325 0c210 0 215 160 215 240v440h10v-440c0 -170 -65 -250 -230 -250s-230 80 -230 250v440h10v-440c0 -80 0 -240 225 -240zM395 850l-70 -140h-10l70 140h10z" />
    <glyph glyph-name="Ucircumflex" unicode="&#xdb;" horiz-adv-x="640" 
d="M325 0c210 0 215 160 215 240v440h10v-440c0 -170 -65 -250 -230 -250s-230 80 -230 250v440h10v-440c0 -80 0 -240 225 -240zM320 840l-100 -130h-10l105 140h10l105 -140h-10z" />
    <glyph glyph-name="Udieresis" unicode="&#xdc;" horiz-adv-x="640" 
d="M325 0c210 0 215 160 215 240v440h10v-440c0 -170 -65 -250 -230 -250s-230 80 -230 250v440h10v-440c0 -80 0 -240 225 -240zM210 840h10v-100h-10v100zM420 840h10v-100h-10v100z" />
    <glyph glyph-name="Yacute" unicode="&#xdd;" horiz-adv-x="620" 
d="M309 255h2l237 425h12l-245 -440v-240h-10v240l-245 440h12zM394 850l-70 -140h-10l70 140h10z" />
    <glyph glyph-name="Thorn" unicode="&#xde;" 
d="M350 170h-250v-170h-10v680h10v-160h250c120 0 180 -80 180 -175c0 -105 -60 -175 -180 -175zM100 510v-330h250c110 0 170 60 170 165c0 95 -60 165 -170 165h-250z" />
    <glyph glyph-name="germandbls" unicode="&#xdf;" horiz-adv-x="645" 
d="M320 700c124 0 180 -65 180 -150c0 -135 -139 -150 -139 -199c0 -25 35 -39 53 -44c106 -30 166 -77 166 -162c0 -115 -90 -155 -176 -155c-50 0 -91 8 -129 20l3 10c43 -14 89 -20 122 -20c167 0 170 120 170 145c0 111 -126 141 -158 152c-48 16 -62 33 -62 54
c0 57 140 68 140 198c0 124 -114 141 -170 141c-180 0 -190 -130 -190 -210v-480h-10v490h-90v8l90 2c0 158 95 200 200 200z" />
    <glyph glyph-name="agrave" unicode="&#xe0;" horiz-adv-x="505" 
d="M265 500c-35 0 -85 -2 -163 -17l-2 10c60 12 120 17 165 17c105 0 160 -40 160 -160v-350h-10v50h-2c-58 -40 -108 -60 -178 -60c-100 0 -170 45 -170 135c0 92 55 145 210 145h140v80c0 95 -35 150 -150 150zM415 65v195h-140c-160 0 -200 -56 -200 -135
c0 -70 50 -125 160 -125c90 0 150 40 180 65zM265 560l-70 140h10l70 -140h-10z" />
    <glyph glyph-name="aacute" unicode="&#xe1;" horiz-adv-x="505" 
d="M265 500c-35 0 -85 -2 -163 -17l-2 10c60 12 120 17 165 17c105 0 160 -40 160 -160v-350h-10v50h-2c-58 -40 -108 -60 -178 -60c-100 0 -170 45 -170 135c0 92 55 145 210 145h140v80c0 95 -35 150 -150 150zM415 65v195h-140c-160 0 -200 -56 -200 -135
c0 -70 50 -125 160 -125c90 0 150 40 180 65zM336 700l-70 -140h-10l70 140h10z" />
    <glyph glyph-name="acircumflex" unicode="&#xe2;" horiz-adv-x="505" 
d="M265 500c-35 0 -85 -2 -163 -17l-2 10c60 12 120 17 165 17c105 0 160 -40 160 -160v-350h-10v50h-2c-58 -40 -108 -60 -178 -60c-100 0 -170 45 -170 135c0 92 55 145 210 145h140v80c0 95 -35 150 -150 150zM415 65v195h-140c-160 0 -200 -56 -200 -135
c0 -70 50 -125 160 -125c90 0 150 40 180 65zM262 690l-100 -130h-10l105 140h10l105 -140h-10z" />
    <glyph glyph-name="atilde" unicode="&#xe3;" horiz-adv-x="505" 
d="M265 500c-35 0 -85 -2 -163 -17l-2 10c60 12 120 17 165 17c105 0 160 -40 160 -160v-350h-10v50h-2c-58 -40 -108 -60 -178 -60c-100 0 -170 45 -170 135c0 92 55 145 210 145h140v80c0 95 -35 150 -150 150zM415 65v195h-140c-160 0 -200 -56 -200 -135
c0 -70 50 -125 160 -125c90 0 150 40 180 65zM221 655c-28 0 -37 -1 -98 -61l-6 6c48 48 68 65 103 65c47 0 96 -70 130 -70c18 0 40 6 65 56l7 -4c-18 -35 -39 -62 -72 -62c-38 0 -91 70 -129 70z" />
    <glyph glyph-name="adieresis" unicode="&#xe4;" horiz-adv-x="505" 
d="M265 500c-35 0 -85 -2 -163 -17l-2 10c60 12 120 17 165 17c105 0 160 -40 160 -160v-350h-10v50h-2c-58 -40 -108 -60 -178 -60c-100 0 -170 45 -170 135c0 92 55 145 210 145h140v80c0 95 -35 150 -150 150zM415 65v195h-140c-160 0 -200 -56 -200 -135
c0 -70 50 -125 160 -125c90 0 150 40 180 65zM152 680h10v-100h-10v100zM362 680h10v-100h-10v100z" />
    <glyph glyph-name="aring" unicode="&#xe5;" horiz-adv-x="505" 
d="M265 500c-35 0 -85 -2 -163 -17l-2 10c60 12 120 17 165 17c105 0 160 -40 160 -160v-350h-10v50h-2c-58 -40 -108 -60 -178 -60c-100 0 -170 45 -170 135c0 92 55 145 210 145h140v80c0 95 -35 150 -150 150zM415 65v195h-140c-160 0 -200 -56 -200 -135
c0 -70 50 -125 160 -125c90 0 150 40 180 65zM201 620c0 40 30 70 70 70s70 -30 70 -70s-30 -70 -70 -70s-70 30 -70 70zM211 620c0 -34 25 -60 60 -60s60 26 60 60s-25 60 -60 60s-60 -26 -60 -60z" />
    <glyph glyph-name="ae" unicode="&#xe6;" horiz-adv-x="875" 
d="M805 260h-380c0 -155 54 -260 220 -260c60 0 110 5 157 20l3 -10c-55 -15 -95 -20 -160 -20c-98 0 -159 36 -194 95c-65 -71 -147 -95 -216 -95c-92 0 -170 39 -170 135c0 134 125 145 210 145h140v80c0 95 -35 150 -150 150c-35 0 -85 -2 -163 -17l-2 10
c60 12 120 17 165 17c111 0 160 -45 160 -164c23 99 87 164 210 164c162 0 180 -121 180 -179c0 -29 -6 -59 -10 -71zM235 0c89 0 161 40 212 93c-32 60 -31 126 -32 167h-140c-160 0 -200 -56 -200 -135c0 -70 50 -125 160 -125zM635 500c-155 0 -202 -108 -210 -230h372
c4 15 8 39 8 62c0 75 -33 168 -170 168z" />
    <glyph glyph-name="ccedilla" unicode="&#xe7;" horiz-adv-x="480" 
d="M70 250c0 150 60 260 220 260c60 0 100 -5 160 -20l-3 -10c-75 20 -127 20 -157 20c-160 0 -210 -120 -210 -250s50 -250 210 -250c30 0 82 0 157 20l3 -10c-60 -15 -100 -20 -160 -20v-50c44 -1 84 -20 84 -70c0 -45 -34 -75 -88 -75c-24 0 -37 4 -62 12l3 9
c16 -5 32 -11 62 -11c65 0 75 45 75 65s-9 61 -84 60v60c-153 5 -210 113 -210 260z" />
    <glyph glyph-name="egrave" unicode="&#xe8;" horiz-adv-x="530" 
d="M460 260h-380c0 -150 50 -260 220 -260c60 0 110 5 157 20l3 -10c-55 -15 -95 -20 -160 -20c-170 0 -230 110 -230 260s60 260 220 260s187 -118 180 -199c-2 -20 -6 -38 -10 -51zM290 500c-155 0 -202 -108 -210 -230h372c6 25 9 52 7 78c-5 79 -49 152 -169 152z
M285 560l-70 140h10l70 -140h-10z" />
    <glyph glyph-name="eacute" unicode="&#xe9;" horiz-adv-x="530" 
d="M460 260h-380c0 -150 50 -260 220 -260c60 0 110 5 157 20l3 -10c-55 -15 -95 -20 -160 -20c-170 0 -230 110 -230 260s60 260 220 260s187 -118 180 -199c-2 -20 -6 -38 -10 -51zM290 500c-155 0 -202 -108 -210 -230h372c6 25 9 52 7 78c-5 79 -49 152 -169 152z
M356 700l-70 -140h-10l70 140h10z" />
    <glyph glyph-name="ecircumflex" unicode="&#xea;" horiz-adv-x="530" 
d="M460 260h-380c0 -150 50 -260 220 -260c60 0 110 5 157 20l3 -10c-55 -15 -95 -20 -160 -20c-170 0 -230 110 -230 260s60 260 220 260s187 -118 180 -199c-2 -20 -6 -38 -10 -51zM290 500c-155 0 -202 -108 -210 -230h372c6 25 9 52 7 78c-5 79 -49 152 -169 152z
M265 690l-100 -130h-10l105 140h10l105 -140h-10z" />
    <glyph glyph-name="edieresis" unicode="&#xeb;" horiz-adv-x="530" 
d="M460 260h-380c0 -150 50 -260 220 -260c60 0 110 5 157 20l3 -10c-55 -15 -95 -20 -160 -20c-170 0 -230 110 -230 260s60 260 220 260s187 -118 180 -199c-2 -20 -6 -38 -10 -51zM290 500c-155 0 -202 -108 -210 -230h372c6 25 9 52 7 78c-5 79 -49 152 -169 152z
M155 680h10v-100h-10v100zM365 680h10v-100h-10v100z" />
    <glyph glyph-name="igrave" unicode="&#xec;" horiz-adv-x="170" 
d="M80 560l-70 140h10l70 -140h-10zM80 500h10v-500h-10v500z" />
    <glyph glyph-name="iacute" unicode="&#xed;" horiz-adv-x="170" 
d="M163 700l-70 -140h-10l70 140h10zM80 500h10v-500h-10v500z" />
    <glyph glyph-name="icircumflex" unicode="&#xee;" horiz-adv-x="170" 
d="M80 500h10v-500h-10v500zM85 690l-100 -130h-10l105 140h10l105 -140h-10z" />
    <glyph glyph-name="idieresis" unicode="&#xef;" horiz-adv-x="170" 
d="M-25 680h10v-100h-10v100zM185 680h10v-100h-10v100zM80 500h10v-500h-10v500z" />
    <glyph glyph-name="eth" unicode="&#xf0;" horiz-adv-x="550" 
d="M382 628l80 80l8 -8l-80 -80c55 -60 90 -162 90 -320c0 -156 -31 -310 -213 -310c-108 0 -197 86 -197 230c0 150 75 235 205 235c79 0 147 -50 193 -123l2 1c-4 57 -12 195 -87 279l-94 -94l-8 9l94 94c-36 35 -86 59 -154 59c-50 0 -84 -7 -127 -20l-3 9
c34 10 65 21 130 21c61 0 117 -18 161 -62zM470 313c-44 74 -115 132 -194 132c-161 0 -196 -128 -196 -225c0 -143 90 -220 190 -220c170 0 202 150 200 313z" />
    <glyph glyph-name="ntilde" unicode="&#xf1;" horiz-adv-x="530" 
d="M90 405v-405h-10v500h10v-80h2c58 50 128 90 208 90c100 0 150 -50 150 -160v-350h-10v350c0 80 -30 150 -140 150c-90 0 -170 -60 -210 -95zM217 655c-28 0 -37 -1 -98 -61l-6 6c48 48 68 65 103 65c47 0 96 -70 130 -70c18 0 40 6 65 56l7 -4c-18 -35 -39 -62 -72 -62
c-38 0 -91 70 -129 70z" />
    <glyph glyph-name="ograve" unicode="&#xf2;" horiz-adv-x="550" 
d="M275 500c-150 0 -195 -120 -195 -250s45 -250 195 -250s195 120 195 250s-45 250 -195 250zM275 -10c-150 0 -205 110 -205 260s55 260 205 260s205 -110 205 -260s-55 -260 -205 -260zM279 560l-70 140h10l70 -140h-10z" />
    <glyph glyph-name="oacute" unicode="&#xf3;" horiz-adv-x="550" 
d="M275 500c-150 0 -195 -120 -195 -250s45 -250 195 -250s195 120 195 250s-45 250 -195 250zM275 -10c-150 0 -205 110 -205 260s55 260 205 260s205 -110 205 -260s-55 -260 -205 -260zM333 700l-70 -140h-10l70 140h10z" />
    <glyph glyph-name="ocircumflex" unicode="&#xf4;" horiz-adv-x="550" 
d="M275 500c-150 0 -195 -120 -195 -250s45 -250 195 -250s195 120 195 250s-45 250 -195 250zM275 -10c-150 0 -205 110 -205 260s55 260 205 260s205 -110 205 -260s-55 -260 -205 -260zM275 690l-100 -130h-10l105 140h10l105 -140h-10z" />
    <glyph glyph-name="otilde" unicode="&#xf5;" horiz-adv-x="550" 
d="M275 500c-150 0 -195 -120 -195 -250s45 -250 195 -250s195 120 195 250s-45 250 -195 250zM275 -10c-150 0 -205 110 -205 260s55 260 205 260s205 -110 205 -260s-55 -260 -205 -260zM230 655c-28 0 -37 -1 -98 -61l-6 6c48 48 68 65 103 65c47 0 96 -70 130 -70
c18 0 40 6 65 56l7 -4c-18 -35 -39 -62 -72 -62c-38 0 -91 70 -129 70z" />
    <glyph glyph-name="odieresis" unicode="&#xf6;" horiz-adv-x="550" 
d="M275 500c-150 0 -195 -120 -195 -250s45 -250 195 -250s195 120 195 250s-45 250 -195 250zM275 -10c-150 0 -205 110 -205 260s55 260 205 260s205 -110 205 -260s-55 -260 -205 -260zM165 680h10v-100h-10v100zM375 680h10v-100h-10v100z" />
    <glyph glyph-name="divide" unicode="&#xf7;" horiz-adv-x="500" 
d="M245 165h10v-100h-10v100zM245 465h10v-100h-10v100zM80 270h340v-10h-340v10z" />
    <glyph glyph-name="oslash" unicode="&#xf8;" horiz-adv-x="550" 
d="M275 -10c-73 0 -123 26 -156 70l-70 -82l-9 7l72 84c-30 46 -42 109 -42 181c0 150 55 260 205 260c72 0 123 -26 155 -69l71 82l9 -7l-73 -85c30 -46 43 -109 43 -181c0 -150 -55 -260 -205 -260zM275 0c150 0 195 120 195 250c0 64 -11 126 -40 172l-303 -354
c30 -41 77 -68 148 -68zM275 500c-150 0 -195 -120 -195 -250c0 -64 11 -126 40 -172l303 354c-31 41 -78 68 -148 68z" />
    <glyph glyph-name="ugrave" unicode="&#xf9;" horiz-adv-x="530" 
d="M440 95v405h10v-500h-10v80h-2c-58 -50 -128 -90 -208 -90c-100 0 -150 50 -150 160v350h10v-350c0 -80 30 -150 140 -150c90 0 170 60 210 95zM254 560l-70 140h10l70 -140h-10z" />
    <glyph glyph-name="uacute" unicode="&#xfa;" horiz-adv-x="530" 
d="M440 95v405h10v-500h-10v80h-2c-58 -50 -128 -90 -208 -90c-100 0 -150 50 -150 160v350h10v-350c0 -80 30 -150 140 -150c90 0 170 60 210 95zM323 700l-70 -140h-10l70 140h10z" />
    <glyph glyph-name="ucircumflex" unicode="&#xfb;" horiz-adv-x="530" 
d="M440 95v405h10v-500h-10v80h-2c-58 -50 -128 -90 -208 -90c-100 0 -150 50 -150 160v350h10v-350c0 -80 30 -150 140 -150c90 0 170 60 210 95zM265 690l-100 -130h-10l105 140h10l105 -140h-10z" />
    <glyph glyph-name="udieresis" unicode="&#xfc;" horiz-adv-x="530" 
d="M440 95v405h10v-500h-10v80h-2c-58 -50 -128 -90 -208 -90c-100 0 -150 50 -150 160v350h10v-350c0 -80 30 -150 140 -150c90 0 170 60 210 95zM155 680h10v-100h-10v100zM365 680h10v-100h-10v100z" />
    <glyph glyph-name="yacute" unicode="&#xfd;" horiz-adv-x="560" 
d="M284 -14l-214 514h12l207 -498h2l187 498h12l-211 -555c-40 -105 -88 -155 -159 -155c-18 0 -32 2 -45 5l2 10c18 -4 28 -5 43 -5c103 0 136 119 164 186zM362 700l-70 -140h-10l70 140h10z" />
    <glyph glyph-name="thorn" unicode="&#xfe;" horiz-adv-x="530" 
d="M90 700v-250h2c43 35 108 60 178 60c140 0 190 -110 190 -260s-50 -260 -190 -260c-70 0 -135 25 -178 60h-2v-250h-10v900h10zM450 250c0 130 -40 250 -180 250c-80 0 -150 -40 -180 -65v-370c30 -25 100 -65 180 -65c140 0 180 120 180 250z" />
    <glyph glyph-name="ydieresis" unicode="&#xff;" horiz-adv-x="560" 
d="M284 -14l-214 514h12l207 -498h2l187 498h12l-211 -555c-40 -105 -88 -155 -159 -155c-18 0 -32 2 -45 5l2 10c18 -4 28 -5 43 -5c103 0 136 119 164 186zM170 680h10v-100h-10v100zM380 680h10v-100h-10v100z" />
    <glyph glyph-name="breve" unicode="&#x2d8;" horiz-adv-x="390" 
d="M194 580c86 0 109 70 116 110h10c-15 -94 -75 -120 -126 -120c-49 0 -109 26 -124 120h10c7 -40 30 -110 114 -110z" />
    <glyph glyph-name="cyrbreve" horiz-adv-x="390" 
d="M194 580c86 0 109 70 116 110h10c-15 -94 -75 -120 -126 -120c-49 0 -109 26 -124 120h10c7 -40 30 -110 114 -110z" />
    <glyph glyph-name="caron" unicode="&#x2c7;" horiz-adv-x="360" 
d="M80 700l100 -130l100 130h10l-105 -140h-10l-105 140h10z" />
    <glyph glyph-name="commaaccent" unicode="&#xf6c3;" horiz-adv-x="156" 
d="M77 710h9l-6 -90v-60h-10v60z" />
    <glyph glyph-name="undercommaaccent" horiz-adv-x="156" 
d="M79 -190h-9l6 90v60h10v-60z" />
    <glyph glyph-name="dieresisacute" horiz-adv-x="420" 
d="M70 680h10v-100h-10v100zM340 680h10v-100h-10v100zM260 700l-70 -120h-10l70 120h10z" />
    <glyph glyph-name="dieresisgrave" horiz-adv-x="420" 
d="M340 680h10v-100h-10v100zM70 680h10v-100h-10v100zM230 580l-70 120h10l70 -120h-10z" />
    <glyph glyph-name="dotaccent" unicode="&#x2d9;" horiz-adv-x="150" 
d="M70 680h10v-100h-10v100z" />
    <glyph glyph-name="hungarumlaut" unicode="&#x2dd;" horiz-adv-x="320" 
d="M150 680l-70 -120h-10l70 120h10zM250 680l-70 -120h-10l70 120h10z" />
    <glyph glyph-name="dblgrave" horiz-adv-x="320" 
d="M240 560l-70 120h10l70 -120h-10zM140 560l-70 120h10l70 -120h-10z" />
    <glyph glyph-name="cyrflex" horiz-adv-x="360" 
d="M180 690l-100 -130h-10l105 140h10l105 -140h-10z" />
    <glyph glyph-name="uni02C9" unicode="&#x2c9;" horiz-adv-x="420" 
d="M70 630h280v-10h-280v10z" />
    <glyph glyph-name="ogonek" unicode="&#x2db;" horiz-adv-x="285" 
d="M211 -158l4 -8c-23 -18 -48 -29 -80 -29c-26 0 -65 14 -65 61c0 52 41 98 85 134h12c-44 -32 -87 -88 -87 -130c0 -34 18 -55 55 -55c41 0 62 18 76 27z" />
    <glyph glyph-name="ring" unicode="&#x2da;" horiz-adv-x="280" 
d="M70 620c0 40 30 70 70 70s70 -30 70 -70s-30 -70 -70 -70s-70 30 -70 70zM80 620c0 -34 25 -60 60 -60s60 26 60 60s-25 60 -60 60s-60 -26 -60 -60z" />
    <glyph glyph-name="Acute" horiz-adv-x="220" 
d="M150 850l-70 -140h-10l70 140h10z" />
    <glyph glyph-name="Breve" horiz-adv-x="390" 
d="M194 750c86 0 109 70 116 110h10c-15 -94 -75 -120 -126 -120c-49 0 -109 26 -124 120h10c7 -40 30 -110 114 -110z" />
    <glyph glyph-name="cyrBreve" horiz-adv-x="390" 
d="M194 750c86 0 109 70 116 110h10c-15 -94 -75 -120 -126 -120c-49 0 -109 26 -124 120h10c7 -40 30 -110 114 -110z" />
    <glyph glyph-name="Caron" horiz-adv-x="360" 
d="M80 850l100 -130l100 130h10l-105 -140h-10l-105 140h10z" />
    <glyph glyph-name="Cedilla" horiz-adv-x="290" 
d="M126 -70v70h10v-60c44 -1 84 -20 84 -70c0 -45 -34 -75 -88 -75c-24 0 -37 4 -62 12l3 9c16 -5 32 -11 60 -11c65 0 77 45 77 65s-9 61 -84 60z" />
    <glyph glyph-name="Circumflex" horiz-adv-x="360" 
d="M180 840l-100 -130h-10l105 140h10l105 -140h-10z" />
    <glyph glyph-name="commaaccent.cap" horiz-adv-x="156" 
d="M79 -190h-9l6 90v60h10v-60z" />
    <glyph glyph-name="Dieresis" horiz-adv-x="420" 
d="M100 840h10v-100h-10v100zM310 840h10v-100h-10v100z" />
    <glyph glyph-name="DieresisAcute" horiz-adv-x="420" 
d="M70 850h10v-100h-10v100zM340 850h10v-100h-10v100zM260 870l-70 -120h-10l70 120h10z" />
    <glyph glyph-name="DieresisGrave" horiz-adv-x="420" 
d="M340 850h10v-100h-10v100zM70 850h10v-100h-10v100zM230 750l-70 120h10l70 -120h-10z" />
    <glyph glyph-name="Dotaccent" horiz-adv-x="150" 
d="M70 850h10v-100h-10v100z" />
    <glyph glyph-name="Hungarumlaut" horiz-adv-x="320" 
d="M150 850l-70 -120h-10l70 120h10zM250 850l-70 -120h-10l70 120h10z" />
    <glyph glyph-name="Grave" horiz-adv-x="220" 
d="M140 710l-70 140h10l70 -140h-10z" />
    <glyph glyph-name="dblGrave" horiz-adv-x="320" 
d="M240 730l-70 120h10l70 -120h-10zM140 730l-70 120h10l70 -120h-10z" />
    <glyph glyph-name="cyrFlex" horiz-adv-x="360" 
d="M180 840l-100 -130h-10l105 140h10l105 -140h-10z" />
    <glyph glyph-name="Macron" horiz-adv-x="420" 
d="M70 800h280v-10h-280v10z" />
    <glyph glyph-name="Ogonek" horiz-adv-x="285" 
d="M211 -158l4 -8c-23 -18 -48 -29 -80 -29c-26 0 -65 14 -65 61c0 52 41 98 85 134h12c-44 -32 -87 -88 -87 -130c0 -34 18 -55 55 -55c41 0 62 18 76 27z" />
    <glyph glyph-name="Ring" horiz-adv-x="280" 
d="M70 790c0 40 30 70 70 70s70 -30 70 -70s-30 -70 -70 -70s-70 30 -70 70zM80 790c0 -34 25 -60 60 -60s60 26 60 60s-25 60 -60 60s-60 -26 -60 -60z" />
    <glyph glyph-name="Tilde" horiz-adv-x="445" 
d="M174 815c-28 0 -37 -1 -98 -61l-6 6c48 48 68 65 103 65c47 0 96 -70 130 -70c18 0 40 6 65 56l7 -4c-18 -35 -39 -62 -72 -62c-38 0 -91 70 -129 70z" />
    <glyph glyph-name="Acutesmall" horiz-adv-x="220" 
d="M150 750l-70 -120h-10l70 120h10z" />
    <glyph glyph-name="Brevesmall" horiz-adv-x="390" 
d="M194 650c86 0 109 70 116 110h10c-15 -94 -75 -120 -126 -120c-49 0 -109 26 -124 120h10c7 -40 30 -110 114 -110z" />
    <glyph glyph-name="Caronsmall" horiz-adv-x="360" 
d="M80 750l100 -110l100 110h10l-105 -120h-10l-105 120h10z" />
    <glyph glyph-name="Cedillasmall" horiz-adv-x="290" 
d="M126 -70v70h10v-60c44 -1 84 -20 84 -70c0 -45 -34 -75 -88 -75c-24 0 -37 4 -62 12l3 9c16 -5 32 -11 60 -11c65 0 77 45 77 65s-9 61 -84 60z" />
    <glyph glyph-name="Circumflexsmall" horiz-adv-x="360" 
d="M180 740l-100 -110h-10l105 120h10l105 -120h-10z" />
    <glyph glyph-name="commaaccent.small" horiz-adv-x="156" 
d="M79 -190h-9l6 90v60h10v-60z" />
    <glyph glyph-name="Dieresissmall" horiz-adv-x="420" 
d="M70 750h10v-100h-10v100zM340 750h10v-100h-10v100z" />
    <glyph glyph-name="DieresisAcute.small" horiz-adv-x="420" 
d="M70 750h10v-100h-10v100zM340 750h10v-100h-10v100zM260 770l-70 -120h-10l70 120h10z" />
    <glyph glyph-name="DieresisGrave.small" horiz-adv-x="420" 
d="M340 750h10v-100h-10v100zM70 750h10v-100h-10v100zM230 650l-70 120h10l70 -120h-10z" />
    <glyph glyph-name="Dotaccentsmall" horiz-adv-x="150" 
d="M70 750h10v-100h-10v100z" />
    <glyph glyph-name="Hungarumlautsmall" horiz-adv-x="320" 
d="M150 750l-70 -120h-10l70 120h10zM250 750l-70 -120h-10l70 120h10z" />
    <glyph glyph-name="Gravesmall" horiz-adv-x="220" 
d="M140 630l-70 120h10l70 -120h-10z" />
    <glyph glyph-name="dblGrave.small" horiz-adv-x="320" 
d="M240 630l-70 120h10l70 -120h-10zM140 630l-70 120h10l70 -120h-10z" />
    <glyph glyph-name="Macronsmall" horiz-adv-x="420" 
d="M70 700h280v-10h-280v10z" />
    <glyph glyph-name="Ogoneksmall" horiz-adv-x="285" 
d="M211 -158l4 -8c-23 -18 -48 -29 -80 -29c-26 0 -65 14 -65 61c0 52 41 98 85 134h12c-44 -32 -87 -88 -87 -130c0 -34 18 -55 55 -55c41 0 62 18 76 27z" />
    <glyph glyph-name="Ringsmall" horiz-adv-x="280" 
d="M70 690c0 40 30 70 70 70s70 -30 70 -70s-30 -70 -70 -70s-70 30 -70 70zM80 690c0 -34 25 -60 60 -60s60 26 60 60s-25 60 -60 60s-60 -26 -60 -60z" />
    <glyph glyph-name="Tildesmall" horiz-adv-x="445" 
d="M174 725c-28 0 -37 -1 -98 -61l-6 6c48 48 68 65 103 65c47 0 96 -70 130 -70c18 0 40 6 65 56l7 -4c-18 -35 -39 -62 -72 -62c-38 0 -91 70 -129 70z" />
    <glyph glyph-name="middot" horiz-adv-x="210" 
d="M100 360h10v-100h-10v100z" />
    <glyph glyph-name="Abreve" unicode="&#x102;" horiz-adv-x="650" 
d="M579 0l-78 210h-349l-81 -210h-11l263 685h14l253 -685h-11zM331 673h-2l-173 -453h342zM324 750c86 0 109 70 116 110h10c-15 -94 -75 -120 -126 -120c-49 0 -109 26 -124 120h10c7 -40 30 -110 114 -110z" />
    <glyph glyph-name="Amacron" unicode="&#x100;" horiz-adv-x="650" 
d="M579 0l-78 210h-349l-81 -210h-11l263 685h14l253 -685h-11zM331 673h-2l-173 -453h342zM185 800h280v-10h-280v10z" />
    <glyph glyph-name="Aogonek" unicode="&#x104;" horiz-adv-x="650" 
d="M579 0l-78 210h-349l-81 -210h-11l263 685h14l253 -685c-39 -30 -87 -88 -87 -130c0 -34 18 -55 55 -55c41 0 62 18 76 27l4 -8c-23 -18 -48 -29 -80 -29c-26 0 -65 13 -65 60c0 52 46 104 86 135zM331 673h-1l-174 -453h342z" />
    <glyph glyph-name="AEacute" unicode="&#x1fc;" horiz-adv-x="926" 
d="M456 350h-184l-200 -350h-12l389 680h392v-10h-375v-310h330v-10h-330v-340h380v-10h-390v350zM454 669l-177 -309h179v309h-2zM541 850l-70 -140h-10l70 140h10z" />
    <glyph glyph-name="Cacute" unicode="&#x106;" horiz-adv-x="620" 
d="M80 345c0 185 45 345 265 345c70 0 145 -10 215 -30l-3 -10c-97 25 -152 30 -212 30c-220 0 -255 -170 -255 -335c0 -175 35 -345 255 -345c60 0 115 5 212 30l3 -10c-70 -20 -145 -30 -215 -30c-220 0 -265 160 -265 355zM442 850l-70 -140h-10l70 140h10z" />
    <glyph glyph-name="Ccaron" unicode="&#x10c;" horiz-adv-x="620" 
d="M80 345c0 185 45 345 265 345c70 0 145 -10 215 -30l-3 -10c-97 25 -152 30 -212 30c-220 0 -255 -170 -255 -335c0 -175 35 -345 255 -345c60 0 115 5 212 30l3 -10c-70 -20 -145 -30 -215 -30c-220 0 -265 160 -265 355zM264 850l100 -130l100 130h10l-105 -140h-10
l-105 140h10z" />
    <glyph glyph-name="Ccircumflex" unicode="&#x108;" horiz-adv-x="620" 
d="M80 345c0 185 45 345 265 345c70 0 145 -10 215 -30l-3 -10c-97 25 -152 30 -212 30c-220 0 -255 -170 -255 -335c0 -175 35 -345 255 -345c60 0 115 5 212 30l3 -10c-70 -20 -145 -30 -215 -30c-220 0 -265 160 -265 355zM346 840l-100 -130h-10l105 140h10l105 -140
h-10z" />
    <glyph glyph-name="Cdotaccent" unicode="&#x10a;" horiz-adv-x="620" 
d="M80 345c0 185 45 345 265 345c70 0 145 -10 215 -30l-3 -10c-97 25 -152 30 -212 30c-220 0 -255 -170 -255 -335c0 -175 35 -345 255 -345c60 0 115 5 212 30l3 -10c-70 -20 -145 -30 -215 -30c-220 0 -265 160 -265 355zM355 850h10v-100h-10v100z" />
    <glyph glyph-name="Dcaron" unicode="&#x10e;" horiz-adv-x="650" 
d="M310 0h-220v680h220c200 0 260 -150 260 -335c0 -190 -60 -345 -260 -345zM100 10h210c200 0 250 170 250 335s-50 325 -250 325h-210v-660zM206 850l100 -130l100 130h10l-105 -140h-10l-105 140h10z" />
    <glyph glyph-name="Dcroat" unicode="&#x110;" horiz-adv-x="650" 
d="M310 0h-220v340h-50v10h50v330h220c200 0 260 -150 260 -335c0 -190 -60 -345 -260 -345zM100 10h210c200 0 250 170 250 335s-50 325 -250 325h-210v-320h140v-10h-140v-330z" />
    <glyph glyph-name="Ebreve" unicode="&#x114;" horiz-adv-x="560" 
d="M475 680v-10h-375v-310h330v-10h-330v-340h380v-10h-390v680h385zM287 750c86 0 109 70 116 110h10c-15 -94 -75 -120 -126 -120c-49 0 -109 26 -124 120h10c7 -40 30 -110 114 -110z" />
    <glyph glyph-name="Ecaron" unicode="&#x11a;" horiz-adv-x="560" 
d="M475 680v-10h-375v-310h330v-10h-330v-340h380v-10h-390v680h385zM187 850l100 -130l100 130h10l-105 -140h-10l-105 140h10z" />
    <glyph glyph-name="Edotaccent" unicode="&#x116;" horiz-adv-x="560" 
d="M475 680v-10h-375v-310h330v-10h-330v-340h380v-10h-390v680h385zM286 850h10v-100h-10v100z" />
    <glyph glyph-name="Emacron" unicode="&#x112;" horiz-adv-x="560" 
d="M475 680v-10h-375v-310h330v-10h-330v-340h380v-10h-390v680h385zM147 800h280v-10h-280v10z" />
    <glyph glyph-name="Eogonek" unicode="&#x118;" horiz-adv-x="560" 
d="M524 -158l4 -8c-23 -18 -48 -29 -80 -29c-26 0 -65 13 -65 60c0 52 41 99 85 135h-378v680h385v-10h-375v-310h330v-10h-330v-340h380v-10c-44 -32 -87 -88 -87 -130c0 -34 18 -55 55 -55c41 0 62 18 76 27z" />
    <glyph glyph-name="Gbreve" unicode="&#x11e;" horiz-adv-x="640" 
d="M345 -10c-220 0 -265 160 -265 355c0 185 45 345 265 345c70 0 135 -10 205 -30l-3 -10c-97 25 -142 30 -202 30c-220 0 -255 -170 -255 -335c0 -175 35 -345 255 -345c81 0 143 25 195 64v246h-180v10h190v-262c-37 -28 -98 -68 -205 -68zM343 750c86 0 109 70 116 110
h10c-15 -94 -75 -120 -126 -120c-49 0 -109 26 -124 120h10c7 -40 30 -110 114 -110z" />
    <glyph glyph-name="Gcircumflex" unicode="&#x11c;" horiz-adv-x="640" 
d="M345 -10c-220 0 -265 160 -265 355c0 185 45 345 265 345c70 0 135 -10 205 -30l-3 -10c-97 25 -142 30 -202 30c-220 0 -255 -170 -255 -335c0 -175 35 -345 255 -345c81 0 143 25 195 64v246h-180v10h190v-262c-37 -28 -98 -68 -205 -68zM345 840l-100 -130h-10
l105 140h10l105 -140h-10z" />
    <glyph glyph-name="Gcommaaccent" unicode="&#x122;" horiz-adv-x="640" 
d="M345 -10c-220 0 -265 160 -265 355c0 185 45 345 265 345c70 0 135 -10 205 -30l-3 -10c-97 25 -142 30 -202 30c-220 0 -255 -170 -255 -335c0 -175 35 -345 255 -345c81 0 143 25 195 64v246h-180v10h190v-262c-37 -28 -98 -68 -205 -68zM341 -190h-9l6 90v60h10v-60z
" />
    <glyph glyph-name="Gdotaccent" unicode="&#x120;" horiz-adv-x="640" 
d="M345 -10c-220 0 -265 160 -265 355c0 185 45 345 265 345c70 0 135 -10 205 -30l-3 -10c-97 25 -142 30 -202 30c-220 0 -255 -170 -255 -335c0 -175 35 -345 255 -345c81 0 143 25 195 64v246h-180v10h190v-262c-37 -28 -98 -68 -205 -68zM334 850h10v-100h-10v100z" />
    <glyph glyph-name="Hbar" unicode="&#x126;" horiz-adv-x="640" 
d="M20 555h70v125h10v-125h440v125h10v-125h70v-10h-70v-545h-10v350h-440v-350h-10v545h-70v10zM100 360h440v185h-440v-185z" />
    <glyph glyph-name="Hcircumflex" unicode="&#x124;" horiz-adv-x="640" 
d="M100 0h-10v680h10v-320h440v320h10v-680h-10v350h-440v-350zM320 840l-100 -130h-10l105 140h10l105 -140h-10z" />
    <glyph glyph-name="Ibreve" unicode="&#x12c;" horiz-adv-x="190" 
d="M102 0h-10v680h10v-680zM94 750c86 0 109 70 116 110h10c-15 -94 -75 -120 -126 -120c-49 0 -109 26 -124 120h10c7 -40 30 -110 114 -110z" />
    <glyph glyph-name="Idotaccent" unicode="&#x130;" horiz-adv-x="190" 
d="M100 0h-10v680h10v-680zM90 850h10v-100h-10v100z" />
    <glyph glyph-name="Imacron" unicode="&#x12a;" horiz-adv-x="190" 
d="M96 0h-10v680h10v-680zM-45 800h280v-10h-280v10z" />
    <glyph glyph-name="Iogonek" unicode="&#x12e;" horiz-adv-x="190" 
d="M90 0v680h10v-680c-46 -38 -87 -88 -87 -130c0 -34 18 -55 55 -55c41 0 62 18 76 27l4 -8c-23 -18 -48 -29 -80 -29c-26 0 -65 13 -65 60c0 52 45 103 87 135z" />
    <glyph glyph-name="Itilde" unicode="&#x128;" horiz-adv-x="190" 
d="M99 0h-10v680h10v-680zM47 815c-28 0 -37 -1 -98 -61l-6 6c48 48 68 65 103 65c47 0 96 -70 130 -70c18 0 40 6 65 56l7 -4c-18 -35 -39 -62 -72 -62c-38 0 -91 70 -129 70z" />
    <glyph glyph-name="IJ" unicode="&#x132;" horiz-adv-x="490" 
d="M100 0h-10v680h10v-680zM400 680v-530c0 -127 -40 -160 -120 -160c-18 0 -42 2 -65 5l2 10c28 -4 44 -5 63 -5c90 0 110 52 110 150v530h10z" />
    <glyph glyph-name="Jcircumflex" unicode="&#x134;" horiz-adv-x="300" 
d="M210 680v-530c0 -127 -40 -160 -120 -160c-18 0 -42 2 -65 5l2 10c28 -4 44 -5 63 -5c90 0 110 52 110 150v530h10zM205 840l-100 -130h-10l105 140h10l105 -140h-10z" />
    <glyph glyph-name="Kcommaaccent" unicode="&#x136;" horiz-adv-x="610" 
d="M100 680v-440l423 440h12l-260 -273l270 -407h-13l-265 399l-167 -173v-226h-10v680h10zM310 -183h-9l6 90v60h10v-60z" />
    <glyph glyph-name="Lacute" unicode="&#x139;" horiz-adv-x="540" 
d="M90 680h10v-670h370v-10h-380v680zM171 850l-70 -140h-10l70 140h10z" />
    <glyph glyph-name="Lcaron" unicode="&#x13d;" horiz-adv-x="540" 
d="M90 680h10v-670h370v-10h-380v680zM238 530h-9l6 90v60h10v-60z" />
    <glyph glyph-name="Lcommaaccent" unicode="&#x13b;" horiz-adv-x="540" 
d="M90 680h10v-670h370v-10h-380v680zM289 -182h-9l6 90v60h10v-60z" />
    <glyph glyph-name="Ldot" unicode="&#x13f;" horiz-adv-x="540" 
d="M90 680h10v-670h370v-10h-380v680zM270 430h10v-100h-10v100z" />
    <glyph glyph-name="Lslash" unicode="&#x141;" horiz-adv-x="550" 
d="M230 400l-120 -30v-360h370v-10h-380v367l-70 -17v10l70 17v303h10v-300l120 30v-10z" />
    <glyph glyph-name="Nacute" unicode="&#x143;" horiz-adv-x="650" 
d="M100 0h-10v680h10l448 -659h2v659h10v-680h-10l-448 659h-2v-659zM409 850l-70 -140h-10l70 140h10z" />
    <glyph glyph-name="Ncaron" unicode="&#x147;" horiz-adv-x="650" 
d="M100 0h-10v680h10l448 -659h2v659h10v-680h-10l-448 659h-2v-659zM225 850l100 -130l100 130h10l-105 -140h-10l-105 140h10z" />
    <glyph glyph-name="Ncommaaccent" unicode="&#x145;" horiz-adv-x="650" 
d="M100 0h-10v680h10l448 -659h2v659h10v-680h-10l-448 659h-2v-659zM326 -190h-9l6 90v60h10v-60z" />
    <glyph glyph-name="Obreve" unicode="&#x14e;" horiz-adv-x="690" 
d="M345 680c-220 0 -255 -170 -255 -335s35 -345 255 -345s255 180 255 345s-35 335 -255 335zM345 -10c-220 0 -265 165 -265 355c0 185 45 345 265 345s265 -160 265 -345c0 -190 -45 -355 -265 -355zM344 750c86 0 109 70 116 110h10c-15 -94 -75 -120 -126 -120
c-49 0 -109 26 -124 120h10c7 -40 30 -110 114 -110z" />
    <glyph glyph-name="Ohungarumlaut" unicode="&#x150;" horiz-adv-x="690" 
d="M345 680c-220 0 -255 -170 -255 -335s35 -345 255 -345s255 180 255 345s-35 335 -255 335zM345 -10c-220 0 -265 165 -265 355c0 185 45 345 265 345s265 -160 265 -345c0 -190 -45 -355 -265 -355zM362 850l-70 -120h-10l70 120h10zM462 850l-70 -120h-10l70 120h10z
" />
    <glyph glyph-name="Omacron" unicode="&#x14c;" horiz-adv-x="690" 
d="M345 680c-220 0 -255 -170 -255 -335s35 -345 255 -345s255 180 255 345s-35 335 -255 335zM345 -10c-220 0 -265 165 -265 355c0 185 45 345 265 345s265 -160 265 -345c0 -190 -45 -355 -265 -355zM205 800h280v-10h-280v10z" />
    <glyph glyph-name="Oslashacute" unicode="&#x1fe;" horiz-adv-x="690" 
d="M397 850l-70 -140h-10l70 140h10zM345 -10c-101 0 -165 34 -205 90l-81 -102l-9 7l84 105c-42 65 -54 157 -54 255c0 185 45 345 265 345c97 0 160 -32 200 -83l86 108l9 -7l-88 -110c45 -64 58 -155 58 -253c0 -190 -45 -355 -265 -355zM345 0c220 0 255 180 255 345
c0 89 -10 180 -55 244l-397 -500c38 -54 99 -89 197 -89zM345 680c-220 0 -255 -170 -255 -335c0 -88 9 -179 51 -246l398 500c-38 49 -99 81 -194 81z" />
    <glyph glyph-name="Racute" unicode="&#x154;" horiz-adv-x="615" 
d="M550 0h-12l-200 310h-238v-310h-10v680h260c120 0 180 -90 180 -185c0 -103 -68 -182 -182 -185zM100 670v-350h240c110 0 180 70 180 175c0 95 -60 175 -170 175h-250zM362 850l-70 -140h-10l70 140h10z" />
    <glyph glyph-name="Rcaron" unicode="&#x158;" horiz-adv-x="615" 
d="M550 0h-12l-200 310h-238v-310h-10v680h260c120 0 180 -90 180 -185c0 -103 -68 -182 -182 -185zM100 670v-350h240c110 0 180 70 180 175c0 95 -60 175 -170 175h-250zM190 850l100 -130l100 130h10l-105 -140h-10l-105 140h10z" />
    <glyph glyph-name="Rcommaaccent" unicode="&#x156;" horiz-adv-x="615" 
d="M550 0h-12l-200 310h-238v-310h-10v680h260c120 0 180 -90 180 -185c0 -103 -68 -182 -182 -185zM100 670v-350h240c110 0 180 70 180 175c0 95 -60 175 -170 175h-250zM320 -184h-9l6 90v60h10v-60z" />
    <glyph glyph-name="Sacute" unicode="&#x15a;" 
d="M300 -10c-70 0 -150 10 -220 30l3 10c97 -25 157 -30 217 -30c160 0 210 95 210 170c0 120 -134 155 -195 170c-96 21 -225 75 -225 190s90 160 210 160c70 0 140 -10 210 -30l-3 -10c-97 25 -147 30 -207 30c-160 0 -200 -75 -200 -150c0 -120 154 -165 215 -180
c96 -21 205 -65 205 -180s-90 -180 -220 -180zM379 850l-70 -140h-10l70 140h10z" />
    <glyph glyph-name="Scedilla" unicode="&#x15e;" 
d="M520 170c0 -114 -88 -178 -215 -180v-50c44 -1 84 -20 84 -70c0 -45 -34 -75 -88 -75c-24 0 -37 4 -62 12l3 9c16 -5 32 -11 62 -11c65 0 75 45 75 65s-9 61 -84 60v60c-69 1 -147 10 -215 30l3 10c97 -25 157 -30 217 -30c160 0 210 95 210 170c0 120 -134 155 -195 170
c-96 21 -225 75 -225 190s90 160 210 160c70 0 140 -10 210 -30l-3 -10c-97 25 -147 30 -207 30c-160 0 -200 -75 -200 -150c0 -120 154 -165 215 -180c96 -21 205 -65 205 -180z" />
    <glyph glyph-name="Scircumflex" unicode="&#x15c;" 
d="M300 -10c-70 0 -150 10 -220 30l3 10c97 -25 157 -30 217 -30c160 0 210 95 210 170c0 120 -134 155 -195 170c-96 21 -225 75 -225 190s90 160 210 160c70 0 140 -10 210 -30l-3 -10c-97 25 -147 30 -207 30c-160 0 -200 -75 -200 -150c0 -120 154 -165 215 -180
c96 -21 205 -65 205 -180s-90 -180 -220 -180zM310 840l-100 -130h-10l105 140h10l105 -140h-10z" />
    <glyph glyph-name="Scommaaccent" unicode="&#x218;" 
d="M300 -10c-70 0 -150 10 -220 30l3 10c97 -25 157 -30 217 -30c160 0 210 95 210 170c0 120 -134 155 -195 170c-96 21 -225 75 -225 190s90 160 210 160c70 0 140 -10 210 -30l-3 -10c-97 25 -147 30 -207 30c-160 0 -200 -75 -200 -150c0 -120 154 -165 215 -180
c96 -21 205 -65 205 -180s-90 -180 -220 -180zM301 -190h-9l6 90v60h10v-60z" />
    <glyph glyph-name="Tbar" unicode="&#x166;" horiz-adv-x="560" 
d="M175 275h100v395h-205v10h420v-10h-205v-395h100v-10h-100v-265h-10v265h-100v10z" />
    <glyph glyph-name="Tcaron" unicode="&#x164;" horiz-adv-x="560" 
d="M490 670h-205v-670h-10v670h-205v10h420v-10zM180 850l100 -130l100 130h10l-105 -140h-10l-105 140h10z" />
    <glyph glyph-name="Tcommaaccent" unicode="&#x162;" horiz-adv-x="560" 
d="M490 670h-205v-670h-10v670h-205v10h420v-10zM278 -190h-9l6 90v60h10v-60z" />
    <glyph glyph-name="uni021A" unicode="&#x21a;" horiz-adv-x="560" 
d="M490 670h-205v-670h-10v670h-205v10h420v-10zM278 -190h-9l6 90v60h10v-60z" />
    <glyph glyph-name="Ubreve" unicode="&#x16c;" horiz-adv-x="640" 
d="M325 0c210 0 215 160 215 240v440h10v-440c0 -170 -65 -250 -230 -250s-230 80 -230 250v440h10v-440c0 -80 0 -240 225 -240zM319 750c86 0 109 70 116 110h10c-15 -94 -75 -120 -126 -120c-49 0 -109 26 -124 120h10c7 -40 30 -110 114 -110z" />
    <glyph glyph-name="Uhungarumlaut" unicode="&#x170;" horiz-adv-x="640" 
d="M325 0c210 0 215 160 215 240v440h10v-440c0 -170 -65 -250 -230 -250s-230 80 -230 250v440h10v-440c0 -80 0 -240 225 -240zM327 850l-70 -120h-10l70 120h10zM427 850l-70 -120h-10l70 120h10z" />
    <glyph glyph-name="Umacron" unicode="&#x16a;" horiz-adv-x="640" 
d="M325 0c210 0 215 160 215 240v440h10v-440c0 -170 -65 -250 -230 -250s-230 80 -230 250v440h10v-440c0 -80 0 -240 225 -240zM180 800h280v-10h-280v10z" />
    <glyph glyph-name="Uogonek" unicode="&#x172;" horiz-adv-x="640" 
d="M325 0c210 0 215 160 215 240v440h10v-440c0 -169 -64 -248 -226 -250c-39 -33 -74 -82 -74 -120c0 -34 18 -55 55 -55c41 0 62 18 76 27l4 -8c-23 -18 -48 -29 -80 -29c-26 0 -65 13 -65 60s34 91 73 125c-160 3 -223 82 -223 250v440h10v-440c0 -80 0 -240 225 -240z
" />
    <glyph glyph-name="Uring" unicode="&#x16e;" horiz-adv-x="640" 
d="M325 0c210 0 215 160 215 240v440h10v-440c0 -170 -65 -250 -230 -250s-230 80 -230 250v440h10v-440c0 -80 0 -240 225 -240zM250 790c0 40 30 70 70 70s70 -30 70 -70s-30 -70 -70 -70s-70 30 -70 70zM260 790c0 -34 25 -60 60 -60s60 26 60 60s-25 60 -60 60
s-60 -26 -60 -60z" />
    <glyph glyph-name="Utilde" unicode="&#x168;" horiz-adv-x="640" 
d="M325 0c210 0 215 160 215 240v440h10v-440c0 -170 -65 -250 -230 -250s-230 80 -230 250v440h10v-440c0 -80 0 -240 225 -240zM272 815c-28 0 -37 -1 -98 -61l-6 6c48 48 68 65 103 65c47 0 96 -70 130 -70c18 0 40 6 65 56l7 -4c-18 -35 -39 -62 -72 -62
c-38 0 -91 70 -129 70z" />
    <glyph glyph-name="Wacute" unicode="&#x1e82;" horiz-adv-x="940" 
d="M471 665h-2l-194 -670h-15l-200 685h11l196 -665h1l195 665h14l195 -665h1l196 665h11l-200 -685h-15zM548 850l-70 -140h-10l70 140h10z" />
    <glyph glyph-name="Wcircumflex" unicode="&#x174;" horiz-adv-x="940" 
d="M471 665h-2l-194 -670h-15l-200 685h11l196 -665h1l195 665h14l195 -665h1l196 665h11l-200 -685h-15zM470 840l-100 -130h-10l105 140h10l105 -140h-10z" />
    <glyph glyph-name="Wdieresis" unicode="&#x1e84;" horiz-adv-x="940" 
d="M471 665h-2l-194 -670h-15l-200 685h11l196 -665h1l195 665h14l195 -665h1l196 665h11l-200 -685h-15zM360 840h10v-100h-10v100zM570 840h10v-100h-10v100z" />
    <glyph glyph-name="Wgrave" unicode="&#x1e80;" horiz-adv-x="940" 
d="M471 665h-2l-194 -670h-15l-200 685h11l196 -665h1l195 665h14l195 -665h1l196 665h11l-200 -685h-15zM463 710l-70 140h10l70 -140h-10z" />
    <glyph glyph-name="Ycircumflex" unicode="&#x176;" horiz-adv-x="620" 
d="M309 255h2l237 425h12l-245 -440v-240h-10v240l-245 440h12zM310 840l-100 -130h-10l105 140h10l105 -140h-10z" />
    <glyph glyph-name="Ygrave" unicode="&#x1ef2;" horiz-adv-x="620" 
d="M309 255h2l237 425h12l-245 -440v-240h-10v240l-245 440h12zM303 710l-70 140h10l70 -140h-10z" />
    <glyph glyph-name="Zacute" unicode="&#x179;" horiz-adv-x="560" 
d="M75 12v-2h425v-10h-440v10l417 658v2h-397v10h410v-10zM360 850l-70 -140h-10l70 140h10z" />
    <glyph glyph-name="Zdotaccent" unicode="&#x17b;" horiz-adv-x="560" 
d="M75 12v-2h425v-10h-440v10l417 658v2h-397v10h410v-10zM275 850h10v-100h-10v100z" />
    <glyph glyph-name="Asmall" unicode="&#xf761;" horiz-adv-x="610" 
d="M539 0l-78 195h-309l-81 -195h-11l243 585h14l233 -585h-11zM458 205l-148 370h-1l-153 -370h302z" />
    <glyph glyph-name="Aacutesmall" unicode="&#xf7e1;" horiz-adv-x="610" 
d="M539 0l-78 195h-309l-81 -195h-11l243 585h14l233 -585h-11zM458 205l-148 370h-1l-153 -370h302zM387 750l-70 -120h-10l70 120h10z" />
    <glyph glyph-name="Abreve.small" unicode="&#xf66d;" horiz-adv-x="610" 
d="M539 0l-78 195h-309l-81 -195h-11l243 585h14l233 -585h-11zM458 205l-148 370h-1l-153 -370h302zM304 650c86 0 109 70 116 110h10c-15 -94 -75 -120 -126 -120c-49 0 -109 26 -124 120h10c7 -40 30 -110 114 -110z" />
    <glyph glyph-name="Acircumflexsmall" unicode="&#xf7e2;" horiz-adv-x="610" 
d="M539 0l-78 195h-309l-81 -195h-11l243 585h14l233 -585h-11zM458 205l-148 370h-1l-153 -370h302zM305 740l-100 -110h-10l105 120h10l105 -120h-10z" />
    <glyph glyph-name="Adieresissmall" unicode="&#xf7e4;" horiz-adv-x="610" 
d="M539 0l-78 195h-309l-81 -195h-11l243 585h14l233 -585h-11zM458 205l-148 370h-1l-153 -370h302zM165 750h10v-100h-10v100zM435 750h10v-100h-10v100z" />
    <glyph glyph-name="Agravesmall" unicode="&#xf7e0;" horiz-adv-x="610" 
d="M539 0l-78 195h-309l-81 -195h-11l243 585h14l233 -585h-11zM458 205l-148 370h-1l-153 -370h302zM302 630l-70 120h10l70 -120h-10z" />
    <glyph glyph-name="Amacron.small" unicode="&#xf66e;" horiz-adv-x="610" 
d="M539 0l-78 195h-309l-81 -195h-11l243 585h14l233 -585h-11zM458 205l-148 370h-1l-153 -370h302zM165 700h280v-10h-280v10z" />
    <glyph glyph-name="Aogonek.small" horiz-adv-x="610" 
d="M539 0l-78 195h-309l-81 -195h-11l243 585h14l233 -585c-43 -32 -87 -88 -87 -130c0 -34 18 -55 55 -55c41 0 62 18 76 27l4 -8c-23 -18 -48 -29 -80 -29c-26 0 -65 13 -65 60c0 52 42 102 86 135zM310 575h-1l-153 -370h302z" />
    <glyph glyph-name="Aringsmall" unicode="&#xf7e5;" horiz-adv-x="610" 
d="M539 0l-78 195h-309l-81 -195h-11l243 585h14l233 -585h-11zM458 205l-148 370h-1l-153 -370h302zM235 690c0 40 30 70 70 70s70 -30 70 -70s-30 -70 -70 -70s-70 30 -70 70zM245 690c0 -34 25 -60 60 -60s60 26 60 60s-25 60 -60 60s-60 -26 -60 -60z" />
    <glyph glyph-name="Atildesmall" unicode="&#xf7e3;" horiz-adv-x="610" 
d="M539 0l-78 195h-309l-81 -195h-11l243 585h14l233 -585h-11zM458 205l-148 370h-1l-153 -370h302zM257 725c-28 0 -37 -1 -98 -61l-6 6c48 48 68 65 103 65c47 0 96 -70 130 -70c18 0 40 6 65 56l7 -4c-18 -35 -39 -62 -72 -62c-38 0 -91 70 -129 70z" />
    <glyph glyph-name="AEsmall" unicode="&#xf7e6;" horiz-adv-x="886" 
d="M72 0h-12l388 580h353v-10h-335v-270h290v-10h-290v-280h340v-10h-350v290h-190zM273 300h183v270h-2z" />
    <glyph glyph-name="AEacute.small" unicode="&#xf670;" horiz-adv-x="886" 
d="M72 0h-12l388 580h353v-10h-335v-270h290v-10h-290v-280h340v-10h-350v290h-190zM273 300h183v270h-2zM540 750l-70 -120h-10l70 120h10z" />
    <glyph glyph-name="Bsmall" unicode="&#xf762;" horiz-adv-x="570" 
d="M353 296v-2c97 -9 147 -62 147 -144c0 -100 -70 -150 -190 -150h-220v580h210c120 0 180 -55 180 -140c0 -84 -48 -130 -127 -144zM290 290h-190v-280h210c110 0 180 40 180 140c0 95 -70 140 -200 140zM470 440c0 80 -60 130 -170 130h-200v-270h190
c100 0 180 35 180 140z" />
    <glyph glyph-name="Csmall" unicode="&#xf763;" horiz-adv-x="590" 
d="M80 295c0 185 60 295 255 295c70 0 125 -10 195 -30l-3 -10c-92 25 -132 30 -192 30c-200 0 -245 -120 -245 -285c0 -175 45 -295 245 -295c60 0 100 5 192 30l3 -10c-70 -20 -125 -30 -195 -30c-195 0 -255 110 -255 305z" />
    <glyph glyph-name="Cacute.small" unicode="&#xf671;" horiz-adv-x="590" 
d="M80 295c0 185 60 295 255 295c70 0 125 -10 195 -30l-3 -10c-92 25 -132 30 -192 30c-200 0 -245 -120 -245 -285c0 -175 45 -295 245 -295c60 0 100 5 192 30l3 -10c-70 -20 -125 -30 -195 -30c-195 0 -255 110 -255 305zM406 750l-70 -120h-10l70 120h10z" />
    <glyph glyph-name="Ccaron.small" unicode="&#xf672;" horiz-adv-x="590" 
d="M80 295c0 185 60 295 255 295c70 0 125 -10 195 -30l-3 -10c-92 25 -132 30 -192 30c-200 0 -245 -120 -245 -285c0 -175 45 -295 245 -295c60 0 100 5 192 30l3 -10c-70 -20 -125 -30 -195 -30c-195 0 -255 110 -255 305zM237 750l100 -110l100 110h10l-105 -120h-10
l-105 120h10z" />
    <glyph glyph-name="Ccedillasmall" unicode="&#xf7e7;" horiz-adv-x="590" 
d="M330 -70v60c-191 2 -250 111 -250 305c0 185 60 295 255 295c70 0 125 -10 195 -30l-3 -10c-92 25 -132 30 -192 30c-200 0 -245 -120 -245 -285c0 -175 45 -295 245 -295c60 0 100 5 192 30l3 -10c-69 -20 -123 -29 -190 -30v-50c44 -1 84 -20 84 -70
c0 -45 -34 -75 -88 -75c-24 0 -37 4 -62 12l3 9c16 -5 32 -11 62 -11c65 0 75 45 75 65s-9 61 -84 60z" />
    <glyph glyph-name="Ccircumflex.small" unicode="&#xf673;" horiz-adv-x="590" 
d="M80 295c0 185 60 295 255 295c70 0 125 -10 195 -30l-3 -10c-92 25 -132 30 -192 30c-200 0 -245 -120 -245 -285c0 -175 45 -295 245 -295c60 0 100 5 192 30l3 -10c-70 -20 -125 -30 -195 -30c-195 0 -255 110 -255 305zM325 740l-100 -110h-10l105 120h10l105 -120
h-10z" />
    <glyph glyph-name="Cdotaccent.small" unicode="&#xf674;" horiz-adv-x="590" 
d="M80 295c0 185 60 295 255 295c70 0 125 -10 195 -30l-3 -10c-92 25 -132 30 -192 30c-200 0 -245 -120 -245 -285c0 -175 45 -295 245 -295c60 0 100 5 192 30l3 -10c-70 -20 -125 -30 -195 -30c-195 0 -255 110 -255 305zM331 750h10v-100h-10v100z" />
    <glyph glyph-name="Dsmall" unicode="&#xf764;" horiz-adv-x="610" 
d="M270 0h-180v580h180c190 0 260 -100 260 -285c0 -190 -70 -295 -260 -295zM100 10h170c200 0 250 120 250 285s-50 275 -250 275h-170v-560z" />
    <glyph glyph-name="Dcaron.small" unicode="&#xf675;" horiz-adv-x="610" 
d="M270 0h-180v580h180c190 0 260 -100 260 -285c0 -190 -70 -295 -260 -295zM100 10h170c200 0 250 120 250 285s-50 275 -250 275h-170v-560zM164 750l100 -110l100 110h10l-105 -120h-10l-105 120h10z" />
    <glyph glyph-name="Dcroat.small" horiz-adv-x="610" 
d="M100 10h170c200 0 250 120 250 285s-50 275 -250 275h-170v-270h160v-10h-160v-280zM270 0h-180v290h-70v10h70v280h180c190 0 260 -100 260 -285c0 -190 -70 -295 -260 -295z" />
    <glyph glyph-name="Esmall" unicode="&#xf765;" horiz-adv-x="520" 
d="M435 580v-10h-335v-270h290v-10h-290v-280h340v-10h-350v580h345z" />
    <glyph glyph-name="Eacutesmall" unicode="&#xf7e9;" horiz-adv-x="520" 
d="M435 580v-10h-335v-270h290v-10h-290v-280h340v-10h-350v580h345zM340 750l-70 -120h-10l70 120h10z" />
    <glyph glyph-name="Ebreve.small" unicode="&#xf677;" horiz-adv-x="520" 
d="M435 580v-10h-335v-270h290v-10h-290v-280h340v-10h-350v580h345zM259 650c86 0 109 70 116 110h10c-15 -94 -75 -120 -126 -120c-49 0 -109 26 -124 120h10c7 -40 30 -110 114 -110z" />
    <glyph glyph-name="Ecaron.small" unicode="&#xf678;" horiz-adv-x="520" 
d="M435 580v-10h-335v-270h290v-10h-290v-280h340v-10h-350v580h345zM153 750l100 -110l100 110h10l-105 -120h-10l-105 120h10z" />
    <glyph glyph-name="Ecircumflexsmall" unicode="&#xf7ea;" horiz-adv-x="520" 
d="M435 580v-10h-335v-270h290v-10h-290v-280h340v-10h-350v580h345zM258 740l-100 -110h-10l105 120h10l105 -120h-10z" />
    <glyph glyph-name="Edieresissmall" unicode="&#xf7eb;" horiz-adv-x="520" 
d="M435 580v-10h-335v-270h290v-10h-290v-280h340v-10h-350v580h345zM119 750h10v-100h-10v100zM389 750h10v-100h-10v100z" />
    <glyph glyph-name="Edotaccent.small" unicode="&#xf679;" horiz-adv-x="520" 
d="M435 580v-10h-335v-270h290v-10h-290v-280h340v-10h-350v580h345zM266 750h10v-100h-10v100z" />
    <glyph glyph-name="Egravesmall" unicode="&#xf7e8;" horiz-adv-x="520" 
d="M435 580v-10h-335v-270h290v-10h-290v-280h340v-10h-350v580h345zM271 630l-70 120h10l70 -120h-10z" />
    <glyph glyph-name="Emacron.small" unicode="&#xf67a;" horiz-adv-x="520" 
d="M435 580v-10h-335v-270h290v-10h-290v-280h340v-10h-350v580h345zM119 700h280v-10h-280v10z" />
    <glyph glyph-name="Eogonek.small" horiz-adv-x="520" 
d="M484 -158l4 -8c-23 -18 -48 -29 -80 -29c-26 0 -65 13 -65 60c0 52 41 99 85 135h-338v580h345v-10h-335v-270h290v-10h-290v-280h340v-10c-44 -32 -87 -88 -87 -130c0 -34 18 -55 55 -55c41 0 62 18 76 27z" />
    <glyph glyph-name="Fsmall" unicode="&#xf766;" horiz-adv-x="495" 
d="M425 580v-10h-325v-290h280v-10h-280v-270h-10v580h335z" />
    <glyph glyph-name="Gsmall" unicode="&#xf767;" horiz-adv-x="620" 
d="M335 0c58 0 95 5 175 28v242h-160v10h170v-260c-65 -20 -115 -30 -185 -30c-195 0 -255 110 -255 305c0 185 60 295 255 295c70 0 125 -10 195 -30l-3 -10c-92 25 -132 30 -192 30c-200 0 -245 -120 -245 -285c0 -175 45 -295 245 -295z" />
    <glyph glyph-name="Gbreve.small" unicode="&#xf67d;" horiz-adv-x="620" 
d="M335 0c58 0 95 5 175 28v242h-160v10h170v-260c-65 -20 -115 -30 -185 -30c-195 0 -255 110 -255 305c0 185 60 295 255 295c70 0 125 -10 195 -30l-3 -10c-92 25 -132 30 -192 30c-200 0 -245 -120 -245 -285c0 -175 45 -295 245 -295zM329 650c86 0 109 70 116 110h10
c-15 -94 -75 -120 -126 -120c-49 0 -109 26 -124 120h10c7 -40 30 -110 114 -110z" />
    <glyph glyph-name="Gcircumflex.small" unicode="&#xf67e;" horiz-adv-x="620" 
d="M335 0c58 0 95 5 175 28v242h-160v10h170v-260c-65 -20 -115 -30 -185 -30c-195 0 -255 110 -255 305c0 185 60 295 255 295c70 0 125 -10 195 -30l-3 -10c-92 25 -132 30 -192 30c-200 0 -245 -120 -245 -285c0 -175 45 -295 245 -295zM334 740l-100 -110h-10l105 120
h10l105 -120h-10z" />
    <glyph glyph-name="Gcommaaccent.small" unicode="&#xf67f;" horiz-adv-x="620" 
d="M335 0c58 0 95 5 175 28v242h-160v10h170v-260c-65 -20 -115 -30 -185 -30c-195 0 -255 110 -255 305c0 185 60 295 255 295c70 0 125 -10 195 -30l-3 -10c-92 25 -132 30 -192 30c-200 0 -245 -120 -245 -285c0 -175 45 -295 245 -295zM319 -190h-9l6 90v60h10v-60z" />
    <glyph glyph-name="Gdotaccent.small" unicode="&#xf680;" horiz-adv-x="620" 
d="M335 0c58 0 95 5 175 28v242h-160v10h170v-260c-65 -20 -115 -30 -185 -30c-195 0 -255 110 -255 305c0 185 60 295 255 295c70 0 125 -10 195 -30l-3 -10c-92 25 -132 30 -192 30c-200 0 -245 -120 -245 -285c0 -175 45 -295 245 -295zM332 750h10v-100h-10v100z" />
    <glyph glyph-name="Hsmall" unicode="&#xf768;" 
d="M100 0h-10v580h10v-280h400v280h10v-580h-10v290h-400v-290z" />
    <glyph glyph-name="Hbar.small" horiz-adv-x="620" 
d="M30 475h70v105h10v-105h400v105h10v-105h70v-10h-70v-465h-10v290h-400v-290h-10v465h-70v10zM110 300h400v165h-400v-165z" />
    <glyph glyph-name="Hcircumflex.small" unicode="&#xf682;" 
d="M100 0h-10v580h10v-280h400v280h10v-580h-10v290h-400v-290zM300 740l-100 -110h-10l105 120h10l105 -120h-10z" />
    <glyph glyph-name="Ismall" unicode="&#xf769;" horiz-adv-x="190" 
d="M100 0h-10v580h10v-580z" />
    <glyph glyph-name="Iacutesmall" unicode="&#xf7ed;" horiz-adv-x="190" 
d="M100 0h-10v580h10v-580zM172 750l-70 -120h-10l70 120h10z" />
    <glyph glyph-name="Ibreve.small" unicode="&#xf683;" horiz-adv-x="190" 
d="M100 0h-10v580h10v-580zM94 650c86 0 109 70 116 110h10c-15 -94 -75 -120 -126 -120c-49 0 -109 26 -124 120h10c7 -40 30 -110 114 -110z" />
    <glyph glyph-name="Icircumflexsmall" unicode="&#xf7ee;" horiz-adv-x="190" 
d="M100 0h-10v580h10v-580zM95 740l-100 -110h-10l105 120h10l105 -120h-10z" />
    <glyph glyph-name="Idieresissmall" unicode="&#xf7ef;" horiz-adv-x="190" 
d="M100 0h-10v580h10v-580zM-45 750h10v-100h-10v100zM225 750h10v-100h-10v100z" />
    <glyph glyph-name="Idotaccent.small" unicode="&#xf6ad;" horiz-adv-x="190" 
d="M100 0h-10v580h10v-580zM90 750h10v-100h-10v100z" />
    <glyph glyph-name="Igravesmall" unicode="&#xf7ec;" horiz-adv-x="190" 
d="M100 0h-10v580h10v-580zM89 630l-70 120h10l70 -120h-10z" />
    <glyph glyph-name="Imacron.small" unicode="&#xf685;" horiz-adv-x="190" 
d="M100 0h-10v580h10v-580zM-45 700h280v-10h-280v10z" />
    <glyph glyph-name="Iogonek.small" horiz-adv-x="190" 
d="M100 580v-580c-44 -32 -87 -88 -87 -130c0 -34 18 -55 55 -55c41 0 62 18 76 27l4 -8c-23 -18 -48 -29 -80 -29c-26 0 -65 13 -65 60c0 52 43 105 87 135v580h10z" />
    <glyph glyph-name="Itilde.small" unicode="&#xf687;" horiz-adv-x="190" 
d="M100 0h-10v580h10v-580zM47 725c-28 0 -37 -1 -98 -61l-6 6c48 48 68 65 103 65c47 0 96 -70 130 -70c18 0 40 6 65 56l7 -4c-18 -35 -39 -62 -72 -62c-38 0 -91 70 -129 70z" />
    <glyph glyph-name="IJ.small" horiz-adv-x="490" 
d="M100 0h-10v580h10v-580zM400 580v-430c0 -127 -40 -160 -120 -160c-18 0 -42 2 -65 5l2 10c28 -4 44 -5 63 -5c90 0 110 52 110 150v430h10z" />
    <glyph glyph-name="Jsmall" unicode="&#xf76a;" horiz-adv-x="300" 
d="M210 580v-430c0 -127 -40 -160 -120 -160c-18 0 -42 2 -65 5l2 10c28 -4 44 -5 63 -5c90 0 110 52 110 150v430h10z" />
    <glyph glyph-name="Jcircumflex.small" unicode="&#xf688;" horiz-adv-x="300" 
d="M210 580v-430c0 -127 -40 -160 -120 -160c-18 0 -42 2 -65 5l2 10c28 -4 44 -5 63 -5c90 0 110 52 110 150v430h10zM205 740l-100 -110h-10l105 120h10l105 -120h-10z" />
    <glyph glyph-name="Ksmall" unicode="&#xf76b;" horiz-adv-x="570" 
d="M100 580v-390l381 390h14l-220 -224l230 -356h-13l-225 348l-167 -172v-176h-10v580h10z" />
    <glyph glyph-name="Kcommaaccent.small" unicode="&#xf689;" horiz-adv-x="570" 
d="M100 580v-390l381 390h14l-220 -224l230 -356h-13l-225 348l-167 -172v-176h-10v580h10zM275 -190h-9l6 90v60h10v-60z" />
    <glyph glyph-name="Lsmall" unicode="&#xf76c;" horiz-adv-x="500" 
d="M90 580h10v-570h330v-10h-340v580z" />
    <glyph glyph-name="Lacute.small" unicode="&#xf68a;" horiz-adv-x="500" 
d="M90 580h10v-570h330v-10h-340v580zM171 750l-70 -120h-10l70 120h10z" />
    <glyph glyph-name="Lcaron.small" unicode="&#xf68b;" horiz-adv-x="500" 
d="M90 580h10v-570h330v-10h-340v580zM224 430h-9l6 90v60h10v-60z" />
    <glyph glyph-name="Lcommaaccent.small" unicode="&#xf68c;" horiz-adv-x="500" 
d="M90 580h10v-570h330v-10h-340v580zM262 -190h-9l6 90v60h10v-60z" />
    <glyph glyph-name="Ldot.small" unicode="&#xf68d;" horiz-adv-x="500" 
d="M90 580h10v-570h330v-10h-340v580zM220 370h10v-100h-10v100z" />
    <glyph glyph-name="Lslashsmall" unicode="&#xf6f9;" horiz-adv-x="500" 
d="M220 320l-120 -30v-280h330v-10h-340v287l-70 -17v10l70 17v283h10v-280l120 30v-10z" />
    <glyph glyph-name="Msmall" unicode="&#xf76d;" horiz-adv-x="760" 
d="M100 580l279 -565h2l279 565h10v-580h-10v552h-2l-273 -552h-10l-273 552h-2v-552h-10v580h10z" />
    <glyph glyph-name="Nsmall" unicode="&#xf76e;" horiz-adv-x="610" 
d="M100 0h-10v580h10l408 -560h2v560h10v-580h-10l-408 560h-2v-560z" />
    <glyph glyph-name="Nacute.small" unicode="&#xf68e;" horiz-adv-x="610" 
d="M100 0h-10v580h10l408 -560h2v560h10v-580h-10l-408 560h-2v-560zM384 750l-70 -120h-10l70 120h10z" />
    <glyph glyph-name="Ncaron.small" unicode="&#xf68f;" horiz-adv-x="610" 
d="M100 0h-10v580h10l408 -560h2v560h10v-580h-10l-408 560h-2v-560zM205 750l100 -110l100 110h10l-105 -120h-10l-105 120h10z" />
    <glyph glyph-name="Ncommaaccent.small" unicode="&#xf690;" horiz-adv-x="610" 
d="M100 0h-10v580h10l408 -560h2v560h10v-580h-10l-408 560h-2v-560zM306 -190h-9l6 90v60h10v-60z" />
    <glyph glyph-name="Ntildesmall" unicode="&#xf7f1;" horiz-adv-x="610" 
d="M100 0h-10v580h10l408 -560h2v560h10v-580h-10l-408 560h-2v-560zM257 725c-28 0 -37 -1 -98 -61l-6 6c48 48 68 65 103 65c47 0 96 -70 130 -70c18 0 40 6 65 56l7 -4c-18 -35 -39 -62 -72 -62c-38 0 -91 70 -129 70z" />
    <glyph glyph-name="Osmall" unicode="&#xf76f;" horiz-adv-x="650" 
d="M325 580c-200 0 -235 -130 -235 -285s35 -295 235 -295s235 140 235 295s-35 285 -235 285zM325 -10c-190 0 -245 120 -245 305c0 180 55 295 245 295s245 -115 245 -295c0 -185 -55 -305 -245 -305z" />
    <glyph glyph-name="Oacutesmall" unicode="&#xf7f3;" horiz-adv-x="650" 
d="M325 580c-200 0 -235 -130 -235 -285s35 -295 235 -295s235 140 235 295s-35 285 -235 285zM325 -10c-190 0 -245 120 -245 305c0 180 55 295 245 295s245 -115 245 -295c0 -185 -55 -305 -245 -305zM394 750l-70 -120h-10l70 120h10z" />
    <glyph glyph-name="Obreve.small" unicode="&#xf691;" horiz-adv-x="650" 
d="M325 580c-200 0 -235 -130 -235 -285s35 -295 235 -295s235 140 235 295s-35 285 -235 285zM325 -10c-190 0 -245 120 -245 305c0 180 55 295 245 295s245 -115 245 -295c0 -185 -55 -305 -245 -305zM324 650c86 0 109 70 116 110h10c-15 -94 -75 -120 -126 -120
c-49 0 -109 26 -124 120h10c7 -40 30 -110 114 -110z" />
    <glyph glyph-name="Ocircumflexsmall" unicode="&#xf7f4;" horiz-adv-x="650" 
d="M325 580c-200 0 -235 -130 -235 -285s35 -295 235 -295s235 140 235 295s-35 285 -235 285zM325 -10c-190 0 -245 120 -245 305c0 180 55 295 245 295s245 -115 245 -295c0 -185 -55 -305 -245 -305zM325 740l-100 -110h-10l105 120h10l105 -120h-10z" />
    <glyph glyph-name="Odieresissmall" unicode="&#xf7f6;" horiz-adv-x="650" 
d="M325 580c-200 0 -235 -130 -235 -285s35 -295 235 -295s235 140 235 295s-35 285 -235 285zM325 -10c-190 0 -245 120 -245 305c0 180 55 295 245 295s245 -115 245 -295c0 -185 -55 -305 -245 -305zM185 750h10v-100h-10v100zM455 750h10v-100h-10v100z" />
    <glyph glyph-name="Ogravesmall" unicode="&#xf7f2;" horiz-adv-x="650" 
d="M325 580c-200 0 -235 -130 -235 -285s35 -295 235 -295s235 140 235 295s-35 285 -235 285zM325 -10c-190 0 -245 120 -245 305c0 180 55 295 245 295s245 -115 245 -295c0 -185 -55 -305 -245 -305zM324 630l-70 120h10l70 -120h-10z" />
    <glyph glyph-name="Ohungarumlaut.small" unicode="&#xf692;" horiz-adv-x="650" 
d="M325 580c-200 0 -235 -130 -235 -285s35 -295 235 -295s235 140 235 295s-35 285 -235 285zM325 -10c-190 0 -245 120 -245 305c0 180 55 295 245 295s245 -115 245 -295c0 -185 -55 -305 -245 -305zM330 750l-70 -120h-10l70 120h10zM430 750l-70 -120h-10l70 120h10z
" />
    <glyph glyph-name="Omacron.small" unicode="&#xf693;" horiz-adv-x="650" 
d="M325 580c-200 0 -235 -130 -235 -285s35 -295 235 -295s235 140 235 295s-35 285 -235 285zM325 -10c-190 0 -245 120 -245 305c0 180 55 295 245 295s245 -115 245 -295c0 -185 -55 -305 -245 -305zM185 700h280v-10h-280v10z" />
    <glyph glyph-name="Otildesmall" unicode="&#xf7f5;" horiz-adv-x="650" 
d="M325 580c-200 0 -235 -130 -235 -285s35 -295 235 -295s235 140 235 295s-35 285 -235 285zM325 -10c-190 0 -245 120 -245 305c0 180 55 295 245 295s245 -115 245 -295c0 -185 -55 -305 -245 -305zM277 725c-28 0 -37 -1 -98 -61l-6 6c48 48 68 65 103 65
c47 0 96 -70 130 -70c18 0 40 6 65 56l7 -4c-18 -35 -39 -62 -72 -62c-38 0 -91 70 -129 70z" />
    <glyph glyph-name="Oslashsmall" unicode="&#xf7f8;" horiz-adv-x="650" 
d="M325 -10c-85 0 -143 24 -181 67l-66 -82l-8 7l67 83c-42 53 -57 132 -57 230c0 180 55 295 245 295c86 0 145 -24 183 -67l64 79l8 -7l-65 -80c40 -52 55 -127 55 -220c0 -185 -55 -305 -245 -305zM325 580c-200 0 -235 -130 -235 -285c0 -86 11 -167 54 -222l358 442
c-36 40 -91 65 -177 65zM325 0c200 0 235 140 235 295c0 83 -11 160 -51 212l-359 -442c36 -40 91 -65 175 -65z" />
    <glyph glyph-name="Oslashacute.small" unicode="&#xf694;" horiz-adv-x="650" 
d="M387 750l-70 -120h-10l70 120h10zM325 -10c-85 0 -143 24 -181 67l-66 -82l-8 7l67 83c-42 53 -57 132 -57 230c0 180 55 295 245 295c86 0 145 -24 183 -67l64 79l8 -7l-65 -80c40 -52 55 -127 55 -220c0 -185 -55 -305 -245 -305zM325 580c-200 0 -235 -130 -235 -285
c0 -86 11 -167 54 -222l358 442c-36 40 -91 65 -177 65zM325 0c200 0 235 140 235 295c0 83 -11 160 -51 212l-359 -442c36 -40 91 -65 175 -65z" />
    <glyph glyph-name="OEsmall" unicode="&#xf6fa;" horiz-adv-x="990" 
d="M905 580v-10h-335v-270h290v-10h-290v-280h340v-10h-350v177c-23 -117 -90 -187 -235 -187c-190 0 -245 120 -245 305c0 180 55 295 245 295c145 0 209 -64 235 -180v170h345zM325 580c-200 0 -235 -130 -235 -285s35 -295 235 -295s235 140 235 295s-35 285 -235 285z
" />
    <glyph glyph-name="Psmall" unicode="&#xf770;" horiz-adv-x="560" 
d="M310 230h-210v-230h-10v580h220c120 0 180 -80 180 -175c0 -105 -60 -175 -180 -175zM100 570v-330h210c110 0 170 60 170 165c0 95 -60 165 -170 165h-210z" />
    <glyph glyph-name="Qsmall" unicode="&#xf771;" horiz-adv-x="650" 
d="M325 0c190 0 235 130 235 295c0 155 -35 285 -235 285s-235 -130 -235 -285s35 -295 235 -295zM318 -10c-185 3 -238 122 -238 305c0 180 55 295 245 295s245 -115 245 -295c0 -188 -54 -302 -240 -305c38 -54 114 -82 230 -69v-11c-105 -12 -196 6 -242 80z" />
    <glyph glyph-name="Rsmall" unicode="&#xf772;" horiz-adv-x="575" 
d="M510 0h-15l-200 230h-195v-230h-10v580h220c120 0 180 -80 180 -175c0 -103 -60 -175 -182 -175zM100 570v-330h200c120 0 180 60 180 165c0 95 -60 165 -170 165h-210z" />
    <glyph glyph-name="Racute.small" unicode="&#xf695;" horiz-adv-x="575" 
d="M510 0h-15l-200 230h-195v-230h-10v580h220c120 0 180 -80 180 -175c0 -103 -60 -175 -182 -175zM100 570v-330h200c120 0 180 60 180 165c0 95 -60 165 -170 165h-210zM340 750l-70 -120h-10l70 120h10z" />
    <glyph glyph-name="Rcaron.small" unicode="&#xf696;" horiz-adv-x="575" 
d="M510 0h-15l-200 230h-195v-230h-10v580h220c120 0 180 -80 180 -175c0 -103 -60 -175 -182 -175zM100 570v-330h200c120 0 180 60 180 165c0 95 -60 165 -170 165h-210zM164 750l100 -110l100 110h10l-105 -120h-10l-105 120h10z" />
    <glyph glyph-name="Rcommaaccent.small" unicode="&#xf697;" horiz-adv-x="575" 
d="M510 0h-15l-200 230h-195v-230h-10v580h220c120 0 180 -80 180 -175c0 -103 -60 -175 -182 -175zM100 570v-330h200c120 0 180 60 180 165c0 95 -60 165 -170 165h-210zM277 -190h-9l6 90v60h10v-60z" />
    <glyph glyph-name="Ssmall" unicode="&#xf773;" horiz-adv-x="570" 
d="M295 292c-96 22 -195 36 -195 158c0 105 80 140 180 140c70 0 130 -10 200 -30l-3 -10c-92 25 -137 30 -197 30c-140 0 -170 -65 -170 -130c0 -125 115 -131 195 -150c95 -22 185 -46 185 -155c0 -110 -95 -155 -200 -155c-70 0 -140 10 -210 30l3 10
c92 -25 147 -30 207 -30c140 0 190 75 190 145c0 115 -124 133 -185 147z" />
    <glyph glyph-name="Sacute.small" unicode="&#xf698;" horiz-adv-x="570" 
d="M295 292c-96 22 -195 36 -195 158c0 105 80 140 180 140c70 0 130 -10 200 -30l-3 -10c-92 25 -137 30 -197 30c-140 0 -170 -65 -170 -130c0 -125 115 -131 195 -150c95 -22 185 -46 185 -155c0 -110 -95 -155 -200 -155c-70 0 -140 10 -210 30l3 10
c92 -25 147 -30 207 -30c140 0 190 75 190 145c0 115 -124 133 -185 147zM367 750l-70 -120h-10l70 120h10z" />
    <glyph glyph-name="Scaronsmall" unicode="&#xf6fd;" horiz-adv-x="570" 
d="M185 780l100 -130l100 130h10l-105 -140h-10l-105 140h10zM295 292c-96 22 -195 36 -195 158c0 105 80 140 180 140c70 0 130 -10 200 -30l-3 -10c-92 25 -137 30 -197 30c-140 0 -170 -65 -170 -130c0 -125 115 -131 195 -150c95 -22 185 -46 185 -155
c0 -110 -95 -155 -200 -155c-70 0 -140 10 -210 30l3 10c92 -25 147 -30 207 -30c140 0 190 75 190 145c0 115 -124 133 -185 147z" />
    <glyph glyph-name="Scedilla.small" horiz-adv-x="570" 
d="M295 292c-96 22 -195 36 -195 158c0 105 80 140 180 140c70 0 130 -10 200 -30l-3 -10c-92 25 -137 30 -197 30c-140 0 -170 -65 -170 -130c0 -125 115 -131 195 -150c95 -22 185 -46 185 -155c0 -110 -94 -154 -198 -155v-50c44 -1 84 -20 84 -70c0 -45 -34 -75 -88 -75
c-24 0 -37 4 -62 12l3 9c16 -5 32 -11 62 -11c65 0 75 45 75 65s-9 61 -84 60v60c-68 1 -135 11 -202 30l3 10c92 -25 147 -30 207 -30c140 0 190 75 190 145c0 115 -124 133 -185 147z" />
    <glyph glyph-name="Scircumflex.small" unicode="&#xf69a;" horiz-adv-x="570" 
d="M295 292c-96 22 -195 36 -195 158c0 105 80 140 180 140c70 0 130 -10 200 -30l-3 -10c-92 25 -137 30 -197 30c-140 0 -170 -65 -170 -130c0 -125 115 -131 195 -150c95 -22 185 -46 185 -155c0 -110 -95 -155 -200 -155c-70 0 -140 10 -210 30l3 10
c92 -25 147 -30 207 -30c140 0 190 75 190 145c0 115 -124 133 -185 147zM285 740l-100 -110h-10l105 120h10l105 -120h-10z" />
    <glyph glyph-name="Scommaaccent.small" unicode="&#xf69b;" horiz-adv-x="570" 
d="M295 292c-96 22 -195 36 -195 158c0 105 80 140 180 140c70 0 130 -10 200 -30l-3 -10c-92 25 -137 30 -197 30c-140 0 -170 -65 -170 -130c0 -125 115 -131 195 -150c95 -22 185 -46 185 -155c0 -110 -95 -155 -200 -155c-70 0 -140 10 -210 30l3 10
c92 -25 147 -30 207 -30c140 0 190 75 190 145c0 115 -124 133 -185 147zM286 -190h-9l6 90v60h10v-60z" />
    <glyph glyph-name="Tsmall" unicode="&#xf774;" horiz-adv-x="520" 
d="M450 570h-185v-570h-10v570h-185v10h380v-10z" />
    <glyph glyph-name="Tcaron.small" unicode="&#xf69d;" horiz-adv-x="520" 
d="M450 570h-185v-570h-10v570h-185v10h380v-10zM160 750l100 -110l100 110h10l-105 -120h-10l-105 120h10z" />
    <glyph glyph-name="Tbar.small" horiz-adv-x="520" 
d="M155 235h100v335h-185v10h380v-10h-185v-335h100v-10h-100v-225h-10v225h-100v10z" />
    <glyph glyph-name="Tcommaaccent.small" unicode="&#xf69e;" horiz-adv-x="520" 
d="M450 570h-185v-570h-10v570h-185v10h380v-10zM258 -190h-9l6 90v60h10v-60z" />
    <glyph glyph-name="Usmall" unicode="&#xf775;" 
d="M90 220v360h10v-350c0 -95 5 -230 205 -230c180 0 195 135 195 230v350h10v-350c0 -170 -70 -240 -210 -240c-135 0 -210 60 -210 230z" />
    <glyph glyph-name="Uacutesmall" unicode="&#xf7fa;" 
d="M90 220v360h10v-350c0 -95 5 -230 205 -230c180 0 195 135 195 230v350h10v-350c0 -170 -70 -240 -210 -240c-135 0 -210 60 -210 230zM359 750l-70 -120h-10l70 120h10z" />
    <glyph glyph-name="Ubreve.small" unicode="&#xf69f;" 
d="M90 220v360h10v-350c0 -95 5 -230 205 -230c180 0 195 135 195 230v350h10v-350c0 -170 -70 -240 -210 -240c-135 0 -210 60 -210 230zM299 650c86 0 109 70 116 110h10c-15 -94 -75 -120 -126 -120c-49 0 -109 26 -124 120h10c7 -40 30 -110 114 -110z" />
    <glyph glyph-name="Ucircumflexsmall" unicode="&#xf7fb;" 
d="M90 220v360h10v-350c0 -95 5 -230 205 -230c180 0 195 135 195 230v350h10v-350c0 -170 -70 -240 -210 -240c-135 0 -210 60 -210 230zM300 740l-100 -110h-10l105 120h10l105 -120h-10z" />
    <glyph glyph-name="Udieresissmall" unicode="&#xf7fc;" 
d="M90 220v360h10v-350c0 -95 5 -230 205 -230c180 0 195 135 195 230v350h10v-350c0 -170 -70 -240 -210 -240c-135 0 -210 60 -210 230zM160 750h10v-100h-10v100zM430 750h10v-100h-10v100z" />
    <glyph glyph-name="Uhungarumlaut.small" unicode="&#xf6a0;" 
d="M90 220v360h10v-350c0 -95 5 -230 205 -230c180 0 195 135 195 230v350h10v-350c0 -170 -70 -240 -210 -240c-135 0 -210 60 -210 230zM275 750l-70 -120h-10l70 120h10zM375 750l-70 -120h-10l70 120h10z" />
    <glyph glyph-name="Ugravesmall" unicode="&#xf7f9;" 
d="M90 220v360h10v-350c0 -95 5 -230 205 -230c180 0 195 135 195 230v350h10v-350c0 -170 -70 -240 -210 -240c-135 0 -210 60 -210 230zM241 630l-70 120h10l70 -120h-10z" />
    <glyph glyph-name="Umacron.small" unicode="&#xf6a1;" 
d="M90 220v360h10v-350c0 -95 5 -230 205 -230c180 0 195 135 195 230v350h10v-350c0 -170 -70 -240 -210 -240c-135 0 -210 60 -210 230zM160 700h280v-10h-280v10z" />
    <glyph glyph-name="Uogonek.small" 
d="M90 220v360h10v-350c0 -95 5 -230 205 -230c180 0 195 135 195 230v350h10v-350c0 -168 -68 -238 -205 -240c-39 -33 -74 -82 -74 -120c0 -34 18 -55 55 -55c41 0 62 18 76 27l4 -8c-23 -18 -48 -29 -80 -29c-26 0 -65 13 -65 60c0 48 33 91 73 125
c-131 2 -204 62 -204 230z" />
    <glyph glyph-name="Uring.small" unicode="&#xf6a3;" 
d="M90 220v360h10v-350c0 -95 5 -230 205 -230c180 0 195 135 195 230v350h10v-350c0 -170 -70 -240 -210 -240c-135 0 -210 60 -210 230zM230 690c0 40 30 70 70 70s70 -30 70 -70s-30 -70 -70 -70s-70 30 -70 70zM240 690c0 -34 25 -60 60 -60s60 26 60 60s-25 60 -60 60
s-60 -26 -60 -60z" />
    <glyph glyph-name="Utilde.small" unicode="&#xf6a4;" 
d="M90 220v360h10v-350c0 -95 5 -230 205 -230c180 0 195 135 195 230v350h10v-350c0 -170 -70 -240 -210 -240c-135 0 -210 60 -210 230zM252 725c-28 0 -37 -1 -98 -61l-6 6c48 48 68 65 103 65c47 0 96 -70 130 -70c18 0 40 6 65 56l7 -4c-18 -35 -39 -62 -72 -62
c-38 0 -91 70 -129 70z" />
    <glyph glyph-name="Vsmall" unicode="&#xf776;" horiz-adv-x="610" 
d="M310 5h1l228 575h11l-233 -585h-14l-243 585h11z" />
    <glyph glyph-name="Wsmall" unicode="&#xf777;" horiz-adv-x="900" 
d="M451 570h-2l-174 -575h-15l-200 585h11l196 -573h1l175 573h14l176 -573h1l195 573h11l-200 -585h-15z" />
    <glyph glyph-name="Wacute.small" unicode="&#xf6a5;" horiz-adv-x="900" 
d="M451 570h-2l-174 -575h-15l-200 585h11l196 -573h1l175 573h14l176 -573h1l195 573h11l-200 -585h-15zM527 750l-70 -120h-10l70 120h10z" />
    <glyph glyph-name="Wcircumflex.small" unicode="&#xf6a6;" horiz-adv-x="900" 
d="M451 570h-2l-174 -575h-15l-200 585h11l196 -573h1l175 573h14l176 -573h1l195 573h11l-200 -585h-15zM450 740l-100 -110h-10l105 120h10l105 -120h-10z" />
    <glyph glyph-name="Wdieresis.small" unicode="&#xf6a7;" horiz-adv-x="900" 
d="M451 570h-2l-174 -575h-15l-200 585h11l196 -573h1l175 573h14l176 -573h1l195 573h11l-200 -585h-15zM310 750h10v-100h-10v100zM580 750h10v-100h-10v100z" />
    <glyph glyph-name="Wgrave.small" unicode="&#xf6a8;" horiz-adv-x="900" 
d="M451 570h-2l-174 -575h-15l-200 585h11l196 -573h1l175 573h14l176 -573h1l195 573h11l-200 -585h-15zM443 630l-70 120h10l70 -120h-10z" />
    <glyph glyph-name="Xsmall" unicode="&#xf778;" horiz-adv-x="630" 
d="M522 580h13l-214 -271l244 -309h-13l-237 301l-237 -301h-13l243 309l-213 271h13l207 -263z" />
    <glyph glyph-name="Ysmall" unicode="&#xf779;" horiz-adv-x="580" 
d="M289 193h2l217 387h12l-225 -400v-180h-10v180l-225 400h12z" />
    <glyph glyph-name="Yacutesmall" unicode="&#xf7fd;" horiz-adv-x="580" 
d="M289 193h2l217 387h12l-225 -400v-180h-10v180l-225 400h12zM367 750l-70 -120h-10l70 120h10z" />
    <glyph glyph-name="Ycircumflex.small" unicode="&#xf6a9;" horiz-adv-x="580" 
d="M289 193h2l217 387h12l-225 -400v-180h-10v180l-225 400h12zM290 740l-100 -110h-10l105 120h10l105 -120h-10z" />
    <glyph glyph-name="Ydieresissmall" unicode="&#xf7ff;" horiz-adv-x="580" 
d="M289 193h2l217 387h12l-225 -400v-180h-10v180l-225 400h12zM150 750h10v-100h-10v100zM420 750h10v-100h-10v100z" />
    <glyph glyph-name="Ygrave.small" unicode="&#xf6aa;" horiz-adv-x="580" 
d="M289 193h2l217 387h12l-225 -400v-180h-10v180l-225 400h12zM289 630l-70 120h10l70 -120h-10z" />
    <glyph glyph-name="Zsmall" unicode="&#xf77a;" horiz-adv-x="520" 
d="M75 12v-2h385v-10h-400v10l377 558v2h-357v10h370v-10z" />
    <glyph glyph-name="Zacute.small" unicode="&#xf6ab;" horiz-adv-x="520" 
d="M75 12v-2h385v-10h-400v10l377 558v2h-357v10h370v-10zM325 750l-70 -120h-10l70 120h10z" />
    <glyph glyph-name="Zcaronsmall" unicode="&#xf6ff;" horiz-adv-x="520" 
d="M160 780l100 -130l100 130h10l-105 -140h-10l-105 140h10zM75 12v-2h385v-10h-400v10l377 558v2h-357v10h370v-10z" />
    <glyph glyph-name="Zdotaccent.small" unicode="&#xf6ac;" horiz-adv-x="520" 
d="M75 12v-2h385v-10h-400v10l377 558v2h-357v10h370v-10zM255 750h10v-100h-10v100z" />
    <glyph glyph-name="abreve" unicode="&#x103;" horiz-adv-x="505" 
d="M265 500c-35 0 -85 -2 -163 -17l-2 10c60 12 120 17 165 17c105 0 160 -40 160 -160v-350h-10v50h-2c-58 -40 -108 -60 -178 -60c-100 0 -170 45 -170 135c0 92 55 145 210 145h140v80c0 95 -35 150 -150 150zM415 65v195h-140c-160 0 -200 -56 -200 -135
c0 -70 50 -125 160 -125c90 0 150 40 180 65zM272 580c86 0 109 70 116 110h10c-15 -94 -75 -120 -126 -120c-49 0 -109 26 -124 120h10c7 -40 30 -110 114 -110z" />
    <glyph glyph-name="amacron" unicode="&#x101;" horiz-adv-x="505" 
d="M265 500c-35 0 -85 -2 -163 -17l-2 10c60 12 120 17 165 17c105 0 160 -40 160 -160v-350h-10v50h-2c-58 -40 -108 -60 -178 -60c-100 0 -170 45 -170 135c0 92 55 145 210 145h140v80c0 95 -35 150 -150 150zM415 65v195h-140c-160 0 -200 -56 -200 -135
c0 -70 50 -125 160 -125c90 0 150 40 180 65zM126 630h280v-10h-280v10z" />
    <glyph glyph-name="aogonek" unicode="&#x105;" horiz-adv-x="505" 
d="M415 0v50h-2c-58 -40 -108 -60 -178 -60c-100 0 -170 45 -170 135c0 92 55 145 210 145h140v80c0 95 -35 150 -150 150c-35 0 -85 -2 -163 -17l-2 10c60 12 120 17 165 17c105 0 160 -40 160 -160v-350c-44 -35 -87 -88 -87 -130c0 -34 18 -55 55 -55c41 0 63 18 76 27
l4 -8c-23 -18 -48 -29 -80 -29s-65 15 -65 62c0 46 38 96 87 133zM415 65v195h-140c-160 0 -200 -56 -200 -135c0 -70 50 -125 160 -125c90 0 150 40 180 65z" />
    <glyph glyph-name="aeacute" unicode="&#x1fd;" horiz-adv-x="875" 
d="M805 260h-380c0 -155 54 -260 220 -260c60 0 110 5 157 20l3 -10c-55 -15 -95 -20 -160 -20c-98 0 -159 36 -194 95c-65 -71 -147 -95 -216 -95c-92 0 -170 39 -170 135c0 134 125 145 210 145h140v80c0 95 -35 150 -150 150c-35 0 -85 -2 -163 -17l-2 10
c60 12 120 17 165 17c111 0 160 -45 160 -164c23 99 87 164 210 164c162 0 180 -121 180 -179c0 -29 -6 -59 -10 -71zM235 0c89 0 161 40 212 93c-32 60 -31 126 -32 167h-140c-160 0 -200 -56 -200 -135c0 -70 50 -125 160 -125zM635 500c-155 0 -202 -108 -210 -230h372
c4 15 8 39 8 62c0 75 -33 168 -170 168zM517 700l-70 -140h-10l70 140h10z" />
    <glyph glyph-name="cacute" unicode="&#x107;" horiz-adv-x="480" 
d="M70 250c0 150 60 260 220 260c60 0 100 -5 160 -20l-3 -10c-75 20 -127 20 -157 20c-160 0 -210 -120 -210 -250s50 -250 210 -250c30 0 82 0 157 20l3 -10c-60 -15 -100 -20 -160 -20c-160 0 -220 110 -220 260zM334 700l-70 -140h-10l70 140h10z" />
    <glyph glyph-name="ccaron" unicode="&#x10d;" horiz-adv-x="480" 
d="M70 250c0 150 60 260 220 260c60 0 100 -5 160 -20l-3 -10c-75 20 -127 20 -157 20c-160 0 -210 -120 -210 -250s50 -250 210 -250c30 0 82 0 157 20l3 -10c-60 -15 -100 -20 -160 -20c-160 0 -220 110 -220 260zM190 700l100 -130l100 130h10l-105 -140h-10l-105 140h10
z" />
    <glyph glyph-name="ccircumflex" unicode="&#x109;" horiz-adv-x="480" 
d="M70 250c0 150 60 260 220 260c60 0 100 -5 160 -20l-3 -10c-75 20 -127 20 -157 20c-160 0 -210 -120 -210 -250s50 -250 210 -250c30 0 82 0 157 20l3 -10c-60 -15 -100 -20 -160 -20c-160 0 -220 110 -220 260zM276 690l-100 -130h-10l105 140h10l105 -140h-10z" />
    <glyph glyph-name="cdotaccent" unicode="&#x10b;" horiz-adv-x="480" 
d="M70 250c0 150 60 260 220 260c60 0 100 -5 160 -20l-3 -10c-75 20 -127 20 -157 20c-160 0 -210 -120 -210 -250s50 -250 210 -250c30 0 82 0 157 20l3 -10c-60 -15 -100 -20 -160 -20c-160 0 -220 110 -220 260zM278 680h10v-100h-10v100z" />
    <glyph glyph-name="c_t" horiz-adv-x="855" 
d="M600 150v340h-90v8l90 2l2 140h8v-140h170v-10h-170v-340c0 -98 20 -150 110 -150c19 0 35 1 63 5l2 -10c-23 -3 -47 -5 -65 -5c-80 0 -120 33 -120 160zM70 250c0 150 60 260 220 260c60 0 100 -5 160 -20l-3 -10c-75 20 -127 20 -157 20c-160 0 -210 -120 -210 -250
s50 -250 210 -250c30 0 82 0 157 20l3 -10c-60 -15 -100 -20 -160 -20c-160 0 -220 110 -220 260z" />
    <glyph glyph-name="dcaron" unicode="&#x10f;" horiz-adv-x="536" 
d="M440 0v50h-2c-43 -35 -108 -60 -178 -60c-140 0 -190 110 -190 260s50 260 190 260c70 0 135 -25 178 -60h2v250h10v-700h-10zM80 250c0 -130 40 -250 180 -250c80 0 150 40 180 65v370c-30 25 -100 65 -180 65c-140 0 -180 -120 -180 -250zM519 550h-9l6 90v60h10v-60z
" />
    <glyph glyph-name="dcroat" unicode="&#x111;" horiz-adv-x="530" 
d="M440 0v50h-2c-43 -35 -108 -60 -178 -60c-140 0 -190 110 -190 260s50 260 190 260c70 0 135 -25 178 -60h2v135h-120v10h120v105h10v-105h70v-10h-70v-585h-10zM80 250c0 -130 40 -250 180 -250c80 0 150 40 180 65v370c-30 25 -100 65 -180 65
c-140 0 -180 -120 -180 -250z" />
    <glyph glyph-name="ebreve" unicode="&#x115;" horiz-adv-x="530" 
d="M460 260h-380c0 -150 50 -260 220 -260c60 0 110 5 157 20l3 -10c-55 -15 -95 -20 -160 -20c-170 0 -230 110 -230 260s60 260 220 260s187 -118 180 -199c-2 -20 -6 -38 -10 -51zM290 500c-155 0 -202 -108 -210 -230h372c6 25 9 52 7 78c-5 79 -49 152 -169 152z
M291 580c86 0 109 70 116 110h10c-15 -94 -75 -120 -126 -120c-49 0 -109 26 -124 120h10c7 -40 30 -110 114 -110z" />
    <glyph glyph-name="ecaron" unicode="&#x11b;" horiz-adv-x="530" 
d="M460 260h-380c0 -150 50 -260 220 -260c60 0 110 5 157 20l3 -10c-55 -15 -95 -20 -160 -20c-170 0 -230 110 -230 260s60 260 220 260s187 -118 180 -199c-2 -20 -6 -38 -10 -51zM290 500c-155 0 -202 -108 -210 -230h372c6 25 9 52 7 78c-5 79 -49 152 -169 152z
M193 700l100 -130l100 130h10l-105 -140h-10l-105 140h10z" />
    <glyph glyph-name="edotaccent" unicode="&#x117;" horiz-adv-x="530" 
d="M460 260h-380c0 -150 50 -260 220 -260c60 0 110 5 157 20l3 -10c-55 -15 -95 -20 -160 -20c-170 0 -230 110 -230 260s60 260 220 260s187 -118 180 -199c-2 -20 -6 -38 -10 -51zM290 500c-155 0 -202 -108 -210 -230h372c6 25 9 52 7 78c-5 79 -49 152 -169 152z
M281 680h10v-100h-10v100z" />
    <glyph glyph-name="emacron" unicode="&#x113;" horiz-adv-x="530" 
d="M460 260h-380c0 -150 50 -260 220 -260c60 0 110 5 157 20l3 -10c-55 -15 -95 -20 -160 -20c-170 0 -230 110 -230 260s60 260 220 260s187 -118 180 -199c-2 -20 -6 -38 -10 -51zM290 500c-155 0 -202 -108 -210 -230h372c6 25 9 52 7 78c-5 79 -49 152 -169 152z
M143 630h280v-10h-280v10z" />
    <glyph glyph-name="eogonek" unicode="&#x119;" horiz-adv-x="530" 
d="M80 270h372c6 25 9 52 7 78c-5 79 -49 152 -169 152c-155 0 -202 -108 -210 -230zM460 260h-380c0 -150 50 -260 220 -260c60 0 110 5 157 20l3 -10c-44 -32 -87 -88 -87 -130c0 -34 18 -55 55 -55c41 0 62 18 76 27l4 -8c-23 -18 -48 -29 -80 -29c-26 0 -65 13 -65 60
c0 17 6 72 77 130c-25 -6 -62 -15 -140 -15c-170 0 -230 110 -230 260s60 260 220 260s187 -118 180 -199c-2 -20 -6 -38 -10 -51z" />
    <glyph glyph-name="gbreve" unicode="&#x11f;" horiz-adv-x="555" 
d="M60 -80c0 -61 35 -120 185 -120c143 0 250 50 250 150c0 42 -25 80 -125 85l-205 10c-60 -35 -105 -68 -105 -125zM265 190c105 0 170 63 170 150c0 90 -66 160 -170 160c-120 0 -175 -70 -175 -160s65 -150 175 -150zM153 49v2c-30 12 -39 38 -34 66s22 59 47 81v2
c-51 25 -86 70 -86 140c0 100 65 170 185 170c30 0 45 -5 62 -10h158v-10h-130c78 -41 90 -110 90 -150c0 -104 -80 -160 -180 -160c-25 0 -65 5 -90 15c-14 -12 -26 -27 -34 -42c-24 -45 -17 -96 34 -98l198 -10c107 -6 132 -49 132 -95c0 -90 -82 -160 -270 -160
c-110 0 -185 40 -185 130c0 48 33 90 103 129zM261 580c86 0 109 70 116 110h10c-15 -94 -75 -120 -126 -120c-49 0 -109 26 -124 120h10c7 -40 30 -110 114 -110z" />
    <glyph glyph-name="gcircumflex" unicode="&#x11d;" horiz-adv-x="555" 
d="M60 -80c0 -61 35 -120 185 -120c143 0 250 50 250 150c0 42 -25 80 -125 85l-205 10c-60 -35 -105 -68 -105 -125zM265 190c105 0 170 63 170 150c0 90 -66 160 -170 160c-120 0 -175 -70 -175 -160s65 -150 175 -150zM153 49v2c-30 12 -39 38 -34 66s22 59 47 81v2
c-51 25 -86 70 -86 140c0 100 65 170 185 170c30 0 45 -5 62 -10h158v-10h-130c78 -41 90 -110 90 -150c0 -104 -80 -160 -180 -160c-25 0 -65 5 -90 15c-14 -12 -26 -27 -34 -42c-24 -45 -17 -96 34 -98l198 -10c107 -6 132 -49 132 -95c0 -90 -82 -160 -270 -160
c-110 0 -185 40 -185 130c0 48 33 90 103 129zM270 690l-100 -130h-10l105 140h10l105 -140h-10z" />
    <glyph glyph-name="gcommaaccent" unicode="&#x123;" horiz-adv-x="555" 
d="M60 -80c0 -61 35 -120 185 -120c143 0 250 50 250 150c0 42 -25 80 -125 85l-205 10c-60 -35 -105 -68 -105 -125zM265 190c105 0 170 63 170 150c0 90 -66 160 -170 160c-120 0 -175 -70 -175 -160s65 -150 175 -150zM153 49v2c-30 12 -39 38 -34 66s22 59 47 81v2
c-51 25 -86 70 -86 140c0 100 65 170 185 170c30 0 45 -5 62 -10h158v-10h-130c78 -41 90 -110 90 -150c0 -104 -80 -160 -180 -160c-25 0 -65 5 -90 15c-14 -12 -26 -27 -34 -42c-24 -45 -17 -96 34 -98l198 -10c107 -6 132 -49 132 -95c0 -90 -82 -160 -270 -160
c-110 0 -185 40 -185 130c0 48 33 90 103 129zM259 720h9l-6 -90v-60h-10v60z" />
    <glyph glyph-name="gdotaccent" unicode="&#x121;" horiz-adv-x="555" 
d="M60 -80c0 -61 35 -120 185 -120c143 0 250 50 250 150c0 42 -25 80 -125 85l-205 10c-60 -35 -105 -68 -105 -125zM265 190c105 0 170 63 170 150c0 90 -66 160 -170 160c-120 0 -175 -70 -175 -160s65 -150 175 -150zM153 49v2c-30 12 -39 38 -34 66s22 59 47 81v2
c-51 25 -86 70 -86 140c0 100 65 170 185 170c30 0 45 -5 62 -10h158v-10h-130c78 -41 90 -110 90 -150c0 -104 -80 -160 -180 -160c-25 0 -65 5 -90 15c-14 -12 -26 -27 -34 -42c-24 -45 -17 -96 34 -98l198 -10c107 -6 132 -49 132 -95c0 -90 -82 -160 -270 -160
c-110 0 -185 40 -185 130c0 48 33 90 103 129zM256 680h10v-100h-10v100z" />
    <glyph glyph-name="hbar" unicode="&#x127;" horiz-adv-x="530" 
d="M90 585v-165h2c58 50 128 90 208 90c100 0 150 -50 150 -160v-350h-10v350c0 80 -30 150 -140 150c-90 0 -170 -60 -210 -95v-405h-10v585h-70v10h70v105h10v-105h120v-10h-120z" />
    <glyph glyph-name="hcircumflex" unicode="&#x125;" horiz-adv-x="530" 
d="M90 405v-405h-10v700h10v-280h2c58 50 128 90 208 90c100 0 150 -50 150 -160v-350h-10v350c0 80 -30 150 -140 150c-90 0 -170 -60 -210 -95zM85 880l-100 -130h-10l105 140h10l105 -140h-10z" />
    <glyph glyph-name="ibreve" unicode="&#x12d;" horiz-adv-x="170" 
d="M84 580c86 0 109 70 116 110h10c-15 -94 -75 -120 -126 -120c-49 0 -109 26 -124 120h10c7 -40 30 -110 114 -110zM80 500h10v-500h-10v500z" />
    <glyph glyph-name="imacron" unicode="&#x12b;" horiz-adv-x="170" 
d="M-55 630h280v-10h-280v10zM80 500h10v-500h-10v500z" />
    <glyph glyph-name="iogonek" unicode="&#x12f;" horiz-adv-x="170" 
d="M90 500v-500c-43 -35 -85 -88 -85 -130c0 -34 18 -55 55 -55c41 0 62 18 76 27l4 -8c-23 -18 -48 -29 -80 -29c-26 0 -65 13 -65 60c0 52 41 99 85 135v500h10zM80 700h10v-100h-10v100z" />
    <glyph glyph-name="itilde" unicode="&#x129;" horiz-adv-x="170" 
d="M37 655c-28 0 -37 -1 -98 -61l-6 6c48 48 68 65 103 65c47 0 96 -70 130 -70c18 0 40 6 65 56l7 -4c-18 -35 -39 -62 -72 -62c-38 0 -91 70 -129 70zM80 500h10v-500h-10v500z" />
    <glyph glyph-name="ij" unicode="&#x133;" horiz-adv-x="332" 
d="M80 500h10v-500h-10v500zM80 680h10v-100h-10v100zM252 500v-595c0 -90 -40 -115 -120 -115c-18 0 -42 2 -65 5l2 10c28 -4 44 -5 63 -5c85 0 110 30 110 110v590h10zM242 680h10v-100h-10v100z" />
    <glyph glyph-name="dotlessi" unicode="&#x131;" horiz-adv-x="170" 
d="M80 500h10v-500h-10v500z" />
    <glyph glyph-name="jcircumflex" unicode="&#x135;" horiz-adv-x="210" 
d="M130 500v-595c0 -90 -40 -115 -120 -115c-18 0 -42 2 -65 5l2 10c28 -4 44 -5 63 -5c85 0 110 30 110 110v590h10zM125 690l-100 -130h-10l105 140h10l105 -140h-10z" />
    <glyph glyph-name="dotlessj" unicode="&#x237;" horiz-adv-x="210" 
d="M130 500v-595c0 -90 -40 -115 -120 -115c-18 0 -42 2 -65 5l2 10c28 -4 44 -5 63 -5c85 0 110 30 110 110v590h10z" />
    <glyph glyph-name="kcommaaccent" unicode="&#x137;" horiz-adv-x="520" 
d="M90 700v-463l345 263h15l-205 -157l215 -343h-13l-210 337l-147 -111v-226h-10v700h10zM249 -190h-9l6 90v60h10v-60z" />
    <glyph glyph-name="kgreenlandic" unicode="&#x138;" horiz-adv-x="520" 
d="M90 500v-263l345 263h15l-205 -157l215 -343h-13l-210 337l-147 -111v-226h-10v500h10z" />
    <glyph glyph-name="lacute" unicode="&#x13a;" horiz-adv-x="170" 
d="M80 0v700h10v-700h-10zM161 890l-70 -140h-10l70 140h10z" />
    <glyph glyph-name="lcaron" unicode="&#x13e;" horiz-adv-x="166" 
d="M80 0v700h10v-700h-10zM149 550h-9l6 90v60h10v-60z" />
    <glyph glyph-name="lcommaaccent" unicode="&#x13c;" horiz-adv-x="170" 
d="M80 0v700h10v-700h-10zM83 -190h-9l6 90v60h10v-60z" />
    <glyph glyph-name="ldot" unicode="&#x140;" horiz-adv-x="170" 
d="M80 0v700h10v-700h-10zM150 410h10v-100h-10v100z" />
    <glyph glyph-name="lslash" unicode="&#x142;" horiz-adv-x="210" 
d="M230 380l-120 -29v-351h-10v349l-120 -29v10l120 29v341h10v-339l120 29v-10z" />
    <glyph glyph-name="nacute" unicode="&#x144;" horiz-adv-x="530" 
d="M90 405v-405h-10v500h10v-80h2c58 50 128 90 208 90c100 0 150 -50 150 -160v-350h-10v350c0 80 -30 150 -140 150c-90 0 -170 -60 -210 -95zM339 700l-70 -140h-10l70 140h10z" />
    <glyph glyph-name="napostrophe" unicode="&#x149;" horiz-adv-x="530" 
d="M90 405v-405h-10v500h10v-80h2c58 50 128 90 208 90c100 0 150 -50 150 -160v-350h-10v350c0 80 -30 150 -140 150c-90 0 -170 -60 -210 -95zM91 550h-9l6 90v60h10v-60z" />
    <glyph glyph-name="ncaron" unicode="&#x148;" horiz-adv-x="530" 
d="M90 405v-405h-10v500h10v-80h2c58 50 128 90 208 90c100 0 150 -50 150 -160v-350h-10v350c0 80 -30 150 -140 150c-90 0 -170 -60 -210 -95zM165 700l100 -130l100 130h10l-105 -140h-10l-105 140h10z" />
    <glyph glyph-name="ncommaaccent" unicode="&#x146;" horiz-adv-x="530" 
d="M90 405v-405h-10v500h10v-80h2c58 50 128 90 208 90c100 0 150 -50 150 -160v-350h-10v350c0 80 -30 150 -140 150c-90 0 -170 -60 -210 -95zM264 710h9l-6 -90v-60h-10v60z" />
    <glyph glyph-name="obreve" unicode="&#x14f;" horiz-adv-x="550" 
d="M275 500c-150 0 -195 -120 -195 -250s45 -250 195 -250s195 120 195 250s-45 250 -195 250zM275 -10c-150 0 -205 110 -205 260s55 260 205 260s205 -110 205 -260s-55 -260 -205 -260zM274 580c86 0 109 70 116 110h10c-15 -94 -75 -120 -126 -120
c-49 0 -109 26 -124 120h10c7 -40 30 -110 114 -110z" />
    <glyph glyph-name="ohungarumlaut" unicode="&#x151;" horiz-adv-x="550" 
d="M275 500c-150 0 -195 -120 -195 -250s45 -250 195 -250s195 120 195 250s-45 250 -195 250zM275 -10c-150 0 -205 110 -205 260s55 260 205 260s205 -110 205 -260s-55 -260 -205 -260zM291 680l-70 -120h-10l70 120h10zM391 680l-70 -120h-10l70 120h10z" />
    <glyph glyph-name="omacron" unicode="&#x14d;" horiz-adv-x="550" 
d="M275 500c-150 0 -195 -120 -195 -250s45 -250 195 -250s195 120 195 250s-45 250 -195 250zM275 -10c-150 0 -205 110 -205 260s55 260 205 260s205 -110 205 -260s-55 -260 -205 -260zM135 630h280v-10h-280v10z" />
    <glyph glyph-name="oslashacute" unicode="&#x1ff;" horiz-adv-x="550" 
d="M331 700l-70 -140h-10l70 140h10zM275 -10c-73 0 -123 26 -156 70l-70 -82l-9 7l72 84c-30 46 -42 109 -42 181c0 150 55 260 205 260c72 0 123 -26 155 -69l71 82l9 -7l-73 -85c30 -46 43 -109 43 -181c0 -150 -55 -260 -205 -260zM275 0c150 0 195 120 195 250
c0 64 -11 126 -40 172l-303 -354c30 -41 77 -68 148 -68zM275 500c-150 0 -195 -120 -195 -250c0 -64 11 -126 40 -172l303 354c-31 41 -78 68 -148 68z" />
    <glyph glyph-name="racute" unicode="&#x155;" horiz-adv-x="370" 
d="M90 405v-405h-10v500h10v-80h2c58 45 138 90 218 90v-10c-90 0 -180 -60 -220 -95zM241 700l-70 -140h-10l70 140h10z" />
    <glyph glyph-name="rcaron" unicode="&#x159;" horiz-adv-x="370" 
d="M90 405v-405h-10v500h10v-80h2c58 45 138 90 218 90v-10c-90 0 -180 -60 -220 -95zM93 700l100 -130l100 130h10l-105 -140h-10l-105 140h10z" />
    <glyph glyph-name="rcommaaccent" unicode="&#x157;" horiz-adv-x="370" 
d="M90 405v-405h-10v500h10v-80h2c58 45 138 90 218 90v-10c-90 0 -180 -60 -220 -95zM83 -190h-9l6 90v60h10v-60z" />
    <glyph glyph-name="sacute" unicode="&#x15b;" horiz-adv-x="480" 
d="M415 125c0 -80 -50 -135 -160 -135c-70 0 -130 5 -190 20l3 10c75 -20 157 -20 187 -20c150 0 150 105 150 125c0 50 -17 98 -165 128c-92 19 -165 47 -165 137c0 70 50 120 160 120c70 0 120 -5 180 -20l-3 -10c-75 20 -147 20 -177 20c-150 0 -150 -93 -150 -110
c0 -50 18 -100 159 -128c124 -25 171 -62 171 -137zM334 700l-70 -140h-10l70 140h10z" />
    <glyph glyph-name="scedilla" unicode="&#x15f;" horiz-adv-x="480" 
d="M415 125c0 -80 -50 -135 -160 -135v-50c44 -1 84 -20 84 -70c0 -45 -34 -75 -88 -75c-24 0 -37 4 -62 12l3 9c16 -5 32 -11 62 -11c65 0 75 45 75 65s-9 61 -84 60v60c-66 1 -123 6 -180 20l3 10c75 -20 157 -20 187 -20c150 0 150 105 150 125c0 50 -17 98 -165 128
c-92 19 -165 47 -165 137c0 70 50 120 160 120c70 0 120 -5 180 -20l-3 -10c-75 20 -147 20 -177 20c-150 0 -150 -93 -150 -110c0 -50 18 -100 159 -128c124 -25 171 -62 171 -137z" />
    <glyph glyph-name="scircumflex" unicode="&#x15d;" horiz-adv-x="480" 
d="M415 125c0 -80 -50 -135 -160 -135c-70 0 -130 5 -190 20l3 10c75 -20 157 -20 187 -20c150 0 150 105 150 125c0 50 -17 98 -165 128c-92 19 -165 47 -165 137c0 70 50 120 160 120c70 0 120 -5 180 -20l-3 -10c-75 20 -147 20 -177 20c-150 0 -150 -93 -150 -110
c0 -50 18 -100 159 -128c124 -25 171 -62 171 -137zM256 690l-100 -130h-10l105 140h10l105 -140h-10z" />
    <glyph glyph-name="scommaaccent" unicode="&#x219;" horiz-adv-x="480" 
d="M415 125c0 -80 -50 -135 -160 -135c-70 0 -130 5 -190 20l3 10c75 -20 157 -20 187 -20c150 0 150 105 150 125c0 50 -17 98 -165 128c-92 19 -165 47 -165 137c0 70 50 120 160 120c70 0 120 -5 180 -20l-3 -10c-75 20 -147 20 -177 20c-150 0 -150 -93 -150 -110
c0 -50 18 -100 159 -128c124 -25 171 -62 171 -137zM241 -190h-9l6 90v60h10v-60z" />
    <glyph glyph-name="s_p" horiz-adv-x="1025" 
d="M415 125c0 -80 -50 -135 -160 -135c-70 0 -130 5 -190 20l3 10c75 -20 157 -20 187 -20c150 0 150 105 150 125c0 50 -17 98 -165 128c-92 19 -165 47 -165 137c0 70 50 120 160 120c70 0 120 -5 180 -20l-3 -10c-75 20 -147 20 -177 20c-150 0 -150 -93 -150 -110
c0 -50 18 -100 159 -128c124 -25 171 -62 171 -137zM585 500v-50h2c43 35 108 60 178 60c140 0 190 -110 190 -260s-50 -260 -190 -260c-70 0 -135 25 -178 60h-2v-250h-10v700h10zM945 250c0 130 -40 250 -180 250c-80 0 -150 -40 -180 -65v-370c30 -25 100 -65 180 -65
c140 0 180 120 180 250z" />
    <glyph glyph-name="s_t" unicode="&#xfb06;" horiz-adv-x="860" 
d="M415 125c0 -80 -50 -135 -160 -135c-70 0 -130 5 -190 20l3 10c75 -20 157 -20 187 -20c150 0 150 105 150 125c0 50 -17 98 -165 128c-92 19 -165 47 -165 137c0 70 50 120 160 120c70 0 120 -5 180 -20l-3 -10c-75 20 -147 20 -177 20c-150 0 -150 -93 -150 -110
c0 -50 18 -100 159 -128c124 -25 171 -62 171 -137zM605 150v340h-90v8l90 2l2 140h8v-140h170v-10h-170v-340c0 -98 20 -150 110 -150c19 0 35 1 63 5l2 -10c-23 -3 -47 -5 -65 -5c-80 0 -120 33 -120 160z" />
    <glyph glyph-name="tbar" unicode="&#x167;" horiz-adv-x="375" 
d="M120 270h-60v10h60v210h-90v8l90 2l2 140h8v-140h170v-10h-170v-210h160v-10h-160v-120c0 -98 20 -150 110 -150c19 0 35 1 63 5l2 -10c-23 -3 -47 -5 -65 -5c-80 0 -120 33 -120 160v120z" />
    <glyph glyph-name="tcaron" unicode="&#x165;" horiz-adv-x="375" 
d="M120 150v340h-90v8l90 2l2 140h8v-140h170v-10h-170v-340c0 -98 20 -150 110 -150c19 0 35 1 63 5l2 -10c-23 -3 -47 -5 -65 -5c-80 0 -120 33 -120 160zM224 550h-9l6 90v60h10v-60z" />
    <glyph glyph-name="tcommaaccent" unicode="&#x163;" horiz-adv-x="375" 
d="M120 150v340h-90v8l90 2l2 140h8v-140h170v-10h-170v-340c0 -98 20 -150 110 -150c19 0 35 1 63 5l2 -10c-23 -3 -47 -5 -65 -5c-80 0 -120 33 -120 160zM197 -190h-9l6 90v60h10v-60z" />
    <glyph glyph-name="uni021B" unicode="&#x21b;" horiz-adv-x="375" 
d="M120 150v340h-90v8l90 2l2 140h8v-140h170v-10h-170v-340c0 -98 20 -150 110 -150c19 0 35 1 63 5l2 -10c-23 -3 -47 -5 -65 -5c-80 0 -120 33 -120 160zM208 -192h-9l6 90v60h10v-60z" />
    <glyph glyph-name="ubreve" unicode="&#x16d;" horiz-adv-x="530" 
d="M440 95v405h10v-500h-10v80h-2c-58 -50 -128 -90 -208 -90c-100 0 -150 50 -150 160v350h10v-350c0 -80 30 -150 140 -150c90 0 170 60 210 95zM264 580c86 0 109 70 116 110h10c-15 -94 -75 -120 -126 -120c-49 0 -109 26 -124 120h10c7 -40 30 -110 114 -110z" />
    <glyph glyph-name="uhungarumlaut" unicode="&#x171;" horiz-adv-x="530" 
d="M440 95v405h10v-500h-10v80h-2c-58 -50 -128 -90 -208 -90c-100 0 -150 50 -150 160v350h10v-350c0 -80 30 -150 140 -150c90 0 170 60 210 95zM280 680l-70 -120h-10l70 120h10zM380 680l-70 -120h-10l70 120h10z" />
    <glyph glyph-name="umacron" unicode="&#x16b;" horiz-adv-x="530" 
d="M440 95v405h10v-500h-10v80h-2c-58 -50 -128 -90 -208 -90c-100 0 -150 50 -150 160v350h10v-350c0 -80 30 -150 140 -150c90 0 170 60 210 95zM125 630h280v-10h-280v10z" />
    <glyph glyph-name="uogonek" unicode="&#x173;" horiz-adv-x="530" 
d="M494 -158l4 -8c-23 -18 -48 -29 -80 -29s-65 15 -65 62c0 46 38 96 87 133v80h-2c-58 -50 -128 -90 -208 -90c-100 0 -150 50 -150 160v350h10v-350c0 -80 30 -150 140 -150c90 0 170 60 210 95v405h10v-500c-44 -35 -87 -88 -87 -130c0 -34 18 -55 55 -55
c41 0 63 18 76 27z" />
    <glyph glyph-name="uring" unicode="&#x16f;" horiz-adv-x="530" 
d="M440 95v405h10v-500h-10v80h-2c-58 -50 -128 -90 -208 -90c-100 0 -150 50 -150 160v350h10v-350c0 -80 30 -150 140 -150c90 0 170 60 210 95zM195 620c0 40 30 70 70 70s70 -30 70 -70s-30 -70 -70 -70s-70 30 -70 70zM205 620c0 -34 25 -60 60 -60s60 26 60 60
s-25 60 -60 60s-60 -26 -60 -60z" />
    <glyph glyph-name="utilde" unicode="&#x169;" horiz-adv-x="530" 
d="M440 95v405h10v-500h-10v80h-2c-58 -50 -128 -90 -208 -90c-100 0 -150 50 -150 160v350h10v-350c0 -80 30 -150 140 -150c90 0 170 60 210 95zM217 655c-28 0 -37 -1 -98 -61l-6 6c48 48 68 65 103 65c47 0 96 -70 130 -70c18 0 40 6 65 56l7 -4
c-18 -35 -39 -62 -72 -62c-38 0 -91 70 -129 70z" />
    <glyph glyph-name="wacute" unicode="&#x1e83;" horiz-adv-x="790" 
d="M396 483h-2l-149 -488h-10l-165 505h10l159 -488h2l149 488h10l154 -488h2l154 488h10l-160 -505h-10zM473 698l-70 -140h-10l70 140h10z" />
    <glyph glyph-name="wcircumflex" unicode="&#x175;" horiz-adv-x="790" 
d="M396 483h-2l-149 -488h-10l-165 505h10l159 -488h2l149 488h10l154 -488h2l154 488h10l-160 -505h-10zM395 690l-100 -130h-10l105 140h10l105 -140h-10z" />
    <glyph glyph-name="wdieresis" unicode="&#x1e85;" horiz-adv-x="790" 
d="M396 483h-2l-149 -488h-10l-165 505h10l159 -488h2l149 488h10l154 -488h2l154 488h10l-160 -505h-10zM285 680h10v-100h-10v100zM495 680h10v-100h-10v100z" />
    <glyph glyph-name="wgrave" unicode="&#x1e81;" horiz-adv-x="790" 
d="M396 483h-2l-149 -488h-10l-165 505h10l159 -488h2l149 488h10l154 -488h2l154 488h10l-160 -505h-10zM391 560l-70 140h10l70 -140h-10z" />
    <glyph glyph-name="ycircumflex" unicode="&#x177;" horiz-adv-x="560" 
d="M284 -14l-214 514h12l207 -498h2l187 498h12l-211 -555c-40 -105 -88 -155 -159 -155c-18 0 -32 2 -45 5l2 10c18 -4 28 -5 43 -5c103 0 136 119 164 186zM280 690l-100 -130h-10l105 140h10l105 -140h-10z" />
    <glyph glyph-name="ygrave" unicode="&#x1ef3;" horiz-adv-x="560" 
d="M284 -14l-214 514h12l207 -498h2l187 498h12l-211 -555c-40 -105 -88 -155 -159 -155c-18 0 -32 2 -45 5l2 10c18 -4 28 -5 43 -5c103 0 136 119 164 186zM274 560l-70 140h10l70 -140h-10z" />
    <glyph glyph-name="zacute" unicode="&#x17a;" horiz-adv-x="470" 
d="M420 500v-10l-360 -478v-2h365v-10h-380v10l360 478v2h-345v10h360zM311 700l-70 -140h-10l70 140h10z" />
    <glyph glyph-name="zdotaccent" unicode="&#x17c;" horiz-adv-x="470" 
d="M420 500v-10l-360 -478v-2h365v-10h-380v10l360 478v2h-345v10h360zM230 680h10v-100h-10v100z" />
    <glyph glyph-name="asuperior" unicode="&#xf6e9;" horiz-adv-x="300" 
d="M235 463v97h-70c-80 0 -100 -28 -100 -67c0 -35 25 -63 80 -63c45 0 75 20 90 33zM160 680c-17 0 -42 -1 -81 -8c0 2 -1 3 -1 5c30 6 60 8 82 8c53 0 80 -20 80 -80v-175h-5v25c-30 -20 -55 -30 -90 -30c-50 0 -85 23 -85 68c0 46 28 72 105 72h70v40c0 48 -17 75 -75 75
z" />
    <glyph glyph-name="bsuperior" unicode="&#xf6ea;" horiz-adv-x="310" 
d="M65 780v-125h1c22 18 54 30 89 30c70 0 95 -55 95 -130s-25 -130 -95 -130c-35 0 -67 13 -89 30h-1l-1 -25h-4v350h5zM245 555c0 65 -20 125 -90 125c-40 0 -75 -20 -90 -32v-185c15 -13 50 -33 90 -33c70 0 90 60 90 125z" />
    <glyph glyph-name="dsuperior" horiz-adv-x="310" 
d="M245 655v125h5v-350h-5v25h-1c-22 -17 -54 -30 -89 -30c-70 0 -95 55 -95 130s25 130 95 130c35 0 67 -12 89 -30h1zM65 555c0 -65 20 -125 90 -125c40 0 75 20 90 33v185c-15 12 -50 32 -90 32c-70 0 -90 -60 -90 -125z" />
    <glyph glyph-name="esuperior" unicode="&#xf6ec;" horiz-adv-x="321" 
d="M255 560h-190c0 -75 25 -130 110 -130c30 0 55 3 79 10c0 -2 1 -3 1 -5c-27 -7 -47 -10 -80 -10c-85 0 -115 55 -115 130s30 130 110 130s93 -59 90 -99c-1 -10 -3 -19 -5 -26zM170 680c-77 0 -101 -54 -105 -115h186c3 12 5 26 4 39c-2 39 -25 76 -85 76z" />
    <glyph glyph-name="h.superior" horiz-adv-x="305" 
d="M65 633v-203h-5v350h5v-140h1c29 25 64 45 104 45c50 0 75 -25 75 -80v-175h-5v175c0 40 -15 75 -70 75c-45 0 -85 -30 -105 -47z" />
    <glyph glyph-name="isuperior" unicode="&#xf6ed;" horiz-adv-x="125" 
d="M60 780h5v-50h-5v50zM60 680h5v-250h-5v250z" />
    <glyph glyph-name="lsuperior" unicode="&#xf6ee;" horiz-adv-x="125" 
d="M60 430v350h5v-350h-5z" />
    <glyph glyph-name="msuperior" unicode="&#xf6ef;" horiz-adv-x="455" 
d="M65 633v-203h-5v250h5v-40h1c22 20 49 45 89 45c39 0 63 -15 72 -48c20 20 54 48 93 48c50 0 75 -25 75 -80v-175h-5v175c0 40 -15 75 -70 75c-39 0 -72 -30 -92 -49c1 -7 2 -16 2 -26v-175h-5v175c0 40 -15 75 -70 75c-40 0 -70 -29 -90 -47z" />
    <glyph glyph-name="nsuperior" unicode="&#x207f;" horiz-adv-x="305" 
d="M65 633v-203h-5v250h5v-40h1c29 25 64 45 104 45c50 0 75 -25 75 -80v-175h-5v175c0 40 -15 75 -70 75c-45 0 -85 -30 -105 -47z" />
    <glyph glyph-name="osuperior" unicode="&#xf6f0;" horiz-adv-x="325" 
d="M163 680c-75 0 -98 -60 -98 -125s23 -125 98 -125s97 60 97 125s-22 125 -97 125zM163 425c-75 0 -103 55 -103 130s28 130 103 130s102 -55 102 -130s-27 -130 -102 -130z" />
    <glyph glyph-name="rsuperior" unicode="&#xf6f1;" horiz-adv-x="235" 
d="M65 633v-203h-5v250h5v-40h1c29 23 69 45 109 45v-5c-45 0 -90 -30 -110 -47z" />
    <glyph glyph-name="ssuperior" unicode="&#xf6f2;" horiz-adv-x="295" 
d="M235 493c0 -40 -25 -68 -80 -68c-35 0 -65 3 -95 10l2 5c37 -10 78 -10 93 -10c75 0 75 53 75 63c0 25 -8 49 -82 64c-46 9 -83 23 -83 68c0 35 25 60 80 60c35 0 60 -2 90 -10l-1 -5c-38 10 -74 10 -89 10c-75 0 -75 -46 -75 -55c0 -25 9 -50 80 -64
c62 -12 85 -31 85 -68z" />
    <glyph glyph-name="tsuperior" unicode="&#xf6f3;" horiz-adv-x="258" 
d="M105 505v170h-45v4l45 1l1 70h4v-70h85v-5h-85v-170c0 -49 10 -75 55 -75c10 0 18 1 32 3l1 -5c-12 -2 -24 -3 -33 -3c-40 0 -60 17 -60 80z" />
    <glyph glyph-name="Ethsmall" horiz-adv-x="610" 
d="M100 10h170c200 0 250 120 250 285s-50 275 -250 275h-170v-270h160v-10h-160v-280zM270 0h-180v290h-70v10h70v280h180c190 0 260 -100 260 -285c0 -190 -70 -295 -260 -295z" />
    <glyph glyph-name="Thornsmall" horiz-adv-x="560" 
d="M310 115h-210v-115h-10v580h10v-115h210c120 0 180 -80 180 -175c0 -105 -60 -175 -180 -175zM100 455v-330h210c110 0 170 60 170 165c0 95 -60 165 -170 165h-210z" />
    <glyph glyph-name="Eng" unicode="&#x14a;" horiz-adv-x="650" 
d="M550 -90v90l-448 659h-2v-659h-10v680h10l448 -659h2v659h10v-775c0 -90 -40 -115 -120 -115c-18 0 -42 2 -65 5l2 10c28 -4 44 -5 63 -5c85 0 110 30 110 110z" />
    <glyph glyph-name="Eng.small" horiz-adv-x="610" 
d="M510 -90v90l-408 560h-2v-560h-10v580h10l408 -560h2v560h10v-675c0 -90 -40 -115 -120 -115c-18 0 -42 2 -65 5l2 10c28 -4 44 -5 63 -5c85 0 110 30 110 110z" />
    <glyph glyph-name="eng" unicode="&#x14b;" horiz-adv-x="530" 
d="M440 -90v440c0 80 -30 150 -140 150c-90 0 -170 -60 -210 -95v-405h-10v500h10v-80h2c58 50 128 90 208 90c100 0 150 -50 150 -160v-445c0 -90 -40 -115 -120 -115c-18 0 -42 2 -65 5l2 10c28 -4 44 -5 63 -5c85 0 110 30 110 110z" />
    <glyph glyph-name="longs" unicode="&#x17f;" horiz-adv-x="345" 
d="M120 -90v630c0 127 40 160 120 160c18 0 42 -2 65 -5l-2 -10c-28 4 -44 5 -63 5c-90 0 -110 -52 -110 -150v-635c0 -86 -35 -115 -120 -115c-18 0 -42 2 -65 5l2 10c28 -4 44 -5 63 -5c90 0 110 35 110 110z" />
    <glyph glyph-name="longs_h" horiz-adv-x="865" 
d="M425 665v-245h2c58 50 128 90 208 90c100 0 150 -50 150 -160v-350h-10v350c0 80 -30 150 -140 150c-90 0 -170 -60 -210 -95v-405h-10v653c-80 35 -126 37 -145 37c-100 0 -140 -52 -140 -150v-635c0 -86 -35 -115 -120 -115c-18 0 -42 2 -65 5l2 10c28 -4 44 -5 63 -5
c90 0 110 35 110 110v630c0 127 70 160 150 160c18 0 80 -5 145 -35h10z" />
    <glyph glyph-name="longs_l" horiz-adv-x="505" 
d="M120 -90v630c0 127 70 160 150 160c18 0 80 -5 145 -35h10v-665h-10v653c-80 35 -126 37 -145 37c-100 0 -140 -52 -140 -150v-635c0 -86 -35 -115 -120 -115c-18 0 -42 2 -65 5l2 10c28 -4 44 -5 63 -5c90 0 110 35 110 110z" />
    <glyph glyph-name="longs_t" unicode="&#xfb05;" horiz-adv-x="585" 
d="M120 -90v630c0 127 40 160 120 160c18 0 42 -2 65 -5l-2 -10c-28 4 -44 5 -63 5c-90 0 -110 -52 -110 -150v-635c0 -86 -35 -115 -120 -115c-18 0 -42 2 -65 5l2 10c28 -4 44 -5 63 -5c90 0 110 35 110 110zM330 150v340h-90v8l90 2l2 140h8v-140h170v-10h-170v-340
c0 -98 20 -150 110 -150c19 0 35 1 63 5l2 -10c-23 -3 -47 -5 -65 -5c-80 0 -120 33 -120 160z" />
    <glyph glyph-name="longs_i" horiz-adv-x="420" 
d="M120 -90v630c0 127 40 160 120 160c18 0 42 -2 65 -5l-2 -10c-28 4 -44 5 -63 5c-90 0 -110 -52 -110 -150v-635c0 -86 -35 -115 -120 -115c-18 0 -42 2 -65 5l2 10c28 -4 44 -5 63 -5c90 0 110 35 110 110zM330 500h10v-500h-10v500z" />
    <glyph glyph-name="longs_longs" horiz-adv-x="595" 
d="M120 -90v630c0 127 40 160 120 160c18 0 42 -2 65 -5l-2 -10c-28 4 -44 5 -63 5c-90 0 -110 -52 -110 -150v-635c0 -86 -35 -115 -120 -115c-18 0 -42 2 -65 5l2 10c28 -4 44 -5 63 -5c90 0 110 35 110 110zM370 -90v630c0 127 40 160 120 160c18 0 42 -2 65 -5l-2 -10
c-28 4 -44 5 -63 5c-90 0 -110 -52 -110 -150v-635c0 -86 -35 -115 -120 -115c-18 0 -42 2 -65 5l2 10c28 -4 44 -5 63 -5c90 0 110 35 110 110z" />
    <glyph glyph-name="zero.slash" horiz-adv-x="590" 
d="M295 -10c-170 0 -215 165 -215 355c0 185 45 345 215 345s215 -160 215 -345c0 -190 -45 -355 -215 -355zM295 0c170 0 205 180 205 345c0 74 -8 150 -31 211l-345 -435c29 -71 81 -121 171 -121zM295 680c-170 0 -205 -170 -205 -335c0 -74 7 -150 30 -212l344 434
c-29 67 -81 113 -169 113z" />
    <glyph glyph-name="franc" unicode="&#x20a3;" horiz-adv-x="700" 
d="M153 415h237l-5 -10h-233c-2 -20 -2 -40 -2 -60c0 -23 1 -47 3 -70h237l-5 -10h-231c17 -139 83 -265 251 -265c95 0 163 35 220 85l5 -10c-32 -26 -95 -85 -225 -85c-172 0 -244 121 -261 275h-74v10h73c-2 22 -3 46 -3 70c0 20 1 40 2 60h-72v10h73
c15 153 88 275 262 275c130 0 193 -59 225 -85l-5 -10c-57 50 -125 85 -220 85c-172 0 -237 -125 -252 -265z" />
    <glyph glyph-name="lira" unicode="&#x20a4;" horiz-adv-x="700" 
d="M153 415h237l-5 -10h-233c-2 -20 -2 -40 -2 -60c0 -23 1 -47 3 -70h237l-5 -10h-231c17 -139 83 -265 251 -265c95 0 163 35 220 85l5 -10c-32 -26 -95 -85 -225 -85c-172 0 -244 121 -261 275h-74v10h73c-2 22 -3 46 -3 70c0 20 1 40 2 60h-72v10h73
c15 153 88 275 262 275c130 0 193 -59 225 -85l-5 -10c-57 50 -125 85 -220 85c-172 0 -237 -125 -252 -265z" />
    <glyph glyph-name="peseta" unicode="&#x20a7;" horiz-adv-x="700" 
d="M153 415h237l-5 -10h-233c-2 -20 -2 -40 -2 -60c0 -23 1 -47 3 -70h237l-5 -10h-231c17 -139 83 -265 251 -265c95 0 163 35 220 85l5 -10c-32 -26 -95 -85 -225 -85c-172 0 -244 121 -261 275h-74v10h73c-2 22 -3 46 -3 70c0 20 1 40 2 60h-72v10h73
c15 153 88 275 262 275c130 0 193 -59 225 -85l-5 -10c-57 50 -125 85 -220 85c-172 0 -237 -125 -252 -265z" />
    <glyph glyph-name="colonmonetary" unicode="&#x20a1;" horiz-adv-x="630" 
d="M415 -100h-10v92c-18 -1 -38 -2 -60 -2c-30 0 -56 3 -80 8v-98h-10v101c-146 40 -175 186 -175 344c0 154 30 292 175 334v101h10v-98c24 5 50 8 80 8c22 0 42 -1 60 -2v92h10v-93c39 -3 105 -15 145 -27l-3 -10c-62 15 -117 30 -212 30c-219 0 -255 -170 -255 -335
s30 -345 255 -345c95 0 159 17 212 30l3 -10c-43 -13 -98 -22 -145 -27v-93z" />
    <glyph glyph-name="rupiah" unicode="&#xf6dd;" horiz-adv-x="1050" 
d="M100 670v-350h240c110 0 180 70 180 175c0 95 -60 175 -170 175h-250zM600 0h-62l-200 310h-238v-310h-10v680h260c120 0 180 -90 180 -185c0 -103 -68 -182 -182 -185l195 -300h57v490h10v-50h2c43 35 108 60 178 60c140 0 190 -110 190 -260s-50 -260 -190 -260
c-70 0 -135 25 -178 60h-2v-250h-10v200zM970 250c0 130 -40 250 -180 250c-80 0 -150 -40 -180 -65v-370c30 -25 100 -65 180 -65c140 0 180 120 180 250z" />
    <glyph glyph-name="zero.fitted" 
d="M300 680c-170 0 -205 -170 -205 -335s35 -345 205 -345s205 180 205 345s-35 335 -205 335zM300 -10c-170 0 -215 165 -215 355c0 185 45 345 215 345s215 -160 215 -345c0 -190 -45 -355 -215 -355z" />
    <glyph glyph-name="one.fitted" 
d="M65 10h240v657l-215 -132l-6 10c79 45 169 99 226 140h5v-675h220v-10h-470v10z" />
    <glyph glyph-name="two.fitted" 
d="M295 680c-58 0 -113 -10 -186 -49l-4 9c56 29 113 50 190 50c135 0 190 -95 190 -195c0 -140 -105 -300 -365 -483v-2h375v-10h-390v15c332 231 370 396 370 475c0 170 -130 190 -180 190z" />
    <glyph glyph-name="three.fitted" 
d="M335 342v-2c98 -11 170 -74 170 -170c0 -112 -65 -180 -215 -180c-70 0 -147 14 -195 45l6 9c49 -29 115 -44 189 -44c196 0 205 120 205 170c0 87 -62 165 -220 165h-75v10h75c125 0 201 83 201 170c0 54 -19 165 -186 165c-66 0 -125 -18 -170 -44l-5 9
c47 28 113 45 175 45c136 0 195 -70 195 -175c0 -96 -75 -155 -150 -173z" />
    <glyph glyph-name="four.fitted" 
d="M88 220h317v445h-2c-74 -155 -198 -315 -315 -445zM400 680h15v-460h110v-10h-110v-210h-10v210h-330v10c110 120 252 299 325 460z" />
    <glyph glyph-name="five.fitted" 
d="M285 -10c-77 0 -134 21 -190 50l4 9c73 -39 128 -49 186 -49c120 0 210 72 210 210c0 92 -45 195 -185 195c-74 0 -130 -35 -175 -102l-12 2l22 375h320v-10h-311l-22 -352l2 -1c36 55 97 98 176 98c125 0 195 -80 195 -205c0 -139 -90 -220 -220 -220z" />
    <glyph glyph-name="six.fitted" 
d="M105 333l2 -1c46 73 114 123 193 123c130 0 205 -85 205 -235c0 -144 -89 -230 -197 -230c-182 0 -213 154 -213 310c0 290 116 390 259 390c65 0 96 -11 130 -21l-3 -9c-43 13 -77 20 -127 20c-229 0 -244 -263 -249 -347zM105 313c-2 -163 30 -313 200 -313
c100 0 190 77 190 220c0 97 -35 225 -196 225c-79 0 -150 -58 -194 -132z" />
    <glyph glyph-name="seven.fitted" 
d="M468 668v2h-348v10h360v-10c-110 -170 -252 -440 -290 -670h-10c30 210 183 510 288 668z" />
    <glyph glyph-name="eight.fitted" 
d="M315 359v-2c105 -37 200 -83 200 -192c0 -100 -65 -175 -215 -175s-215 75 -215 175c0 110 100 160 200 192v2c-100 31 -180 77 -180 173c0 93 70 158 195 158s195 -65 195 -158c0 -96 -75 -135 -180 -173zM95 165c0 -85 50 -165 205 -165s205 80 205 165
c0 108 -104 151 -205 188c-100 -33 -205 -80 -205 -188zM300 680c-60 0 -185 -20 -185 -150c0 -91 80 -135 185 -166c104 35 185 75 185 166c0 130 -125 150 -185 150z" />
    <glyph glyph-name="nine.fitted" 
d="M495 347l-2 1c-46 -73 -114 -123 -193 -123c-130 0 -205 85 -205 235c0 144 89 230 197 230c182 0 213 -154 213 -310c0 -290 -116 -390 -259 -390c-65 0 -96 11 -130 21l3 9c43 -13 77 -20 127 -20c229 0 244 263 249 347zM495 367c2 163 -30 313 -200 313
c-100 0 -190 -77 -190 -220c0 -97 35 -225 196 -225c79 0 150 58 194 132z" />
    <glyph glyph-name="zerooldstyle" unicode="&#xf730;" horiz-adv-x="590" 
d="M295 500c-140 0 -205 -120 -205 -250s65 -250 205 -250s205 120 205 250s-65 250 -205 250zM295 -10c-140 0 -215 110 -215 260s75 260 215 260s215 -110 215 -260s-75 -260 -215 -260z" />
    <glyph glyph-name="oneoldstyle" horiz-adv-x="351" 
d="M261 487l-215 -132l-6 10c79 45 169 99 226 140h5v-505h-10v487z" />
    <glyph glyph-name="twooldstyle" unicode="&#xf732;" horiz-adv-x="590" 
d="M290 500c-58 0 -113 -10 -186 -49l-4 9c56 29 113 50 190 50c115 0 190 -70 190 -165c0 -165 -182 -246 -365 -333v-2h375v-10h-390v15c319 142 370 232 370 330c0 130 -130 155 -180 155z" />
    <glyph glyph-name="threeoldstyle" horiz-adv-x="570" 
d="M320 162v-2c98 -11 170 -74 170 -170c0 -112 -65 -180 -215 -180c-70 0 -147 14 -195 45l6 9c49 -29 115 -44 189 -44c196 0 205 120 205 170c0 87 -62 165 -220 165h-75v10h75c125 0 201 83 201 170c0 54 -19 165 -186 165c-66 0 -125 -18 -170 -44l-5 9
c47 28 113 45 175 45c136 0 195 -70 195 -175c0 -96 -75 -155 -150 -173z" />
    <glyph glyph-name="fouroldstyle" 
d="M395 505h15v-495h110v-10h-110v-170h-10v170h-330v10c110 120 252 334 325 495zM83 10h317v480h-2c-74 -155 -198 -350 -315 -480z" />
    <glyph glyph-name="fiveoldstyle" horiz-adv-x="570" 
d="M270 -190c-77 0 -134 21 -190 50l4 9c73 -39 128 -49 186 -49c120 0 210 72 210 210c0 92 -45 195 -185 195c-74 0 -130 -35 -175 -102l-12 2l22 375h320v-10h-311l-22 -352l2 -1c36 55 97 98 176 98c125 0 195 -80 195 -205c0 -139 -90 -220 -220 -220z" />
    <glyph glyph-name="sixoldstyle" horiz-adv-x="570" 
d="M90 333l2 -1c46 73 114 123 193 123c130 0 205 -85 205 -235c0 -144 -89 -230 -197 -230c-182 0 -213 154 -213 310c0 290 116 390 259 390c65 0 96 -11 130 -21l-3 -9c-43 13 -77 20 -127 20c-229 0 -244 -263 -249 -347zM90 313c-2 -163 30 -313 200 -313
c100 0 190 77 190 220c0 97 -35 225 -196 225c-79 0 -150 -58 -194 -132z" />
    <glyph glyph-name="sevenoldstyle" horiz-adv-x="500" 
d="M418 488v2h-348v10h360v-10c-110 -170 -252 -440 -290 -670h-10c30 210 183 510 288 668z" />
    <glyph glyph-name="eightoldstyle" horiz-adv-x="590" 
d="M310 359v-2c105 -37 200 -83 200 -192c0 -100 -65 -175 -215 -175s-215 75 -215 175c0 110 100 160 200 192v2c-100 31 -180 77 -180 173c0 93 70 158 195 158s195 -65 195 -158c0 -96 -75 -135 -180 -173zM90 165c0 -85 50 -165 205 -165s205 80 205 165
c0 108 -104 151 -205 188c-100 -33 -205 -80 -205 -188zM295 680c-60 0 -185 -20 -185 -150c0 -91 80 -135 185 -166c104 35 185 75 185 166c0 130 -125 150 -185 150z" />
    <glyph glyph-name="nineoldstyle" horiz-adv-x="570" 
d="M480 167l-2 1c-46 -73 -114 -123 -193 -123c-130 0 -205 85 -205 235c0 144 89 230 197 230c182 0 213 -154 213 -310c0 -290 -116 -390 -259 -390c-65 0 -96 11 -130 21l3 9c43 -13 77 -20 127 -20c229 0 244 263 249 347zM480 187c2 163 -30 313 -200 313
c-100 0 -190 -77 -190 -220c0 -97 35 -225 196 -225c79 0 150 58 194 132z" />
    <glyph glyph-name="centoldstyle" unicode="&#xf7a2;" horiz-adv-x="540" 
d="M300 500c-140 0 -210 -120 -210 -250s70 -250 210 -250c70 0 102 14 158 35l2 -10c-48 -21 -90 -35 -160 -35c-140 0 -220 110 -220 260s80 260 220 260c70 0 112 -14 160 -35l-2 -10c-56 21 -88 35 -158 35zM300 -130h-10v100h10v-100zM300 530h-10v100h10v-100z" />
    <glyph glyph-name="dollaroldstyle" unicode="&#xf724;" horiz-adv-x="510" 
d="M255 253c-92 19 -165 47 -165 137c0 70 60 120 160 120c70 0 120 -10 180 -30l-3 -10c-75 25 -127 30 -177 30c-140 0 -150 -93 -150 -110c0 -50 18 -100 159 -128c124 -25 171 -67 171 -147c0 -65 -55 -125 -160 -125c-70 0 -130 10 -190 30l3 10
c75 -25 137 -30 187 -30c140 0 150 98 150 115c0 50 -17 108 -165 138zM260 -130h-10v100h10v-100zM260 530h-10v100h10v-100z" />
    <glyph glyph-name="zero.taboldstyle" 
d="M300 500c-140 0 -205 -120 -205 -250s65 -250 205 -250s205 120 205 250s-65 250 -205 250zM300 -10c-140 0 -215 110 -215 260s75 260 215 260s215 -110 215 -260s-75 -260 -215 -260z" />
    <glyph glyph-name="one.taboldstyle" 
d="M65 10h240v477l-215 -132l-6 10c79 45 169 99 226 140h5v-495h220v-10h-470v10z" />
    <glyph glyph-name="two.taboldstyle" 
d="M295 500c-58 0 -113 -10 -186 -49l-4 9c56 29 113 50 190 50c115 0 190 -70 190 -165c0 -165 -182 -246 -365 -333v-2h375v-10h-390v15c319 142 370 232 370 330c0 130 -130 155 -180 155z" />
    <glyph glyph-name="three.taboldstyle" 
d="M335 162v-2c98 -11 170 -74 170 -170c0 -112 -65 -180 -215 -180c-70 0 -147 14 -195 45l6 9c49 -29 115 -44 189 -44c196 0 205 120 205 170c0 87 -62 165 -220 165h-75v10h75c125 0 201 83 201 170c0 54 -19 165 -186 165c-66 0 -125 -18 -170 -44l-5 9
c47 28 113 45 175 45c136 0 195 -70 195 -175c0 -96 -75 -155 -150 -173z" />
    <glyph glyph-name="four.taboldstyle" 
d="M400 505h15v-495h110v-10h-110v-170h-10v170h-330v10c110 120 252 334 325 495zM88 10h317v480h-2c-74 -155 -198 -350 -315 -480z" />
    <glyph glyph-name="five.taboldstyle" 
d="M285 -190c-77 0 -134 21 -190 50l4 9c73 -39 128 -49 186 -49c120 0 210 72 210 210c0 92 -45 195 -185 195c-74 0 -130 -35 -175 -102l-12 2l22 375h320v-10h-311l-22 -352l2 -1c36 55 97 98 176 98c125 0 195 -80 195 -205c0 -139 -90 -220 -220 -220z" />
    <glyph glyph-name="six.taboldstyle" 
d="M105 333l2 -1c46 73 114 123 193 123c130 0 205 -85 205 -235c0 -144 -89 -230 -197 -230c-182 0 -213 154 -213 310c0 290 116 390 259 390c65 0 96 -11 130 -21l-3 -9c-43 13 -77 20 -127 20c-229 0 -244 -263 -249 -347zM105 313c-2 -163 30 -313 200 -313
c100 0 190 77 190 220c0 97 -35 225 -196 225c-79 0 -150 -58 -194 -132z" />
    <glyph glyph-name="seven.taboldstyle" 
d="M468 488v2h-348v10h360v-10c-110 -170 -252 -440 -290 -670h-10c30 210 183 510 288 668z" />
    <glyph glyph-name="eight.taboldstyle" 
d="M315 359v-2c105 -37 200 -83 200 -192c0 -100 -65 -175 -215 -175s-215 75 -215 175c0 110 100 160 200 192v2c-100 31 -180 77 -180 173c0 93 70 158 195 158s195 -65 195 -158c0 -96 -75 -135 -180 -173zM95 165c0 -85 50 -165 205 -165s205 80 205 165
c0 108 -104 151 -205 188c-100 -33 -205 -80 -205 -188zM300 680c-60 0 -185 -20 -185 -150c0 -91 80 -135 185 -166c104 35 185 75 185 166c0 130 -125 150 -185 150z" />
    <glyph glyph-name="nine.taboldstyle" 
d="M495 167l-2 1c-46 -73 -114 -123 -193 -123c-130 0 -205 85 -205 235c0 144 89 230 197 230c182 0 213 -154 213 -310c0 -290 -116 -390 -259 -390c-65 0 -96 11 -130 21l3 9c43 -13 77 -20 127 -20c229 0 244 263 249 347zM495 187c2 163 -30 313 -200 313
c-100 0 -190 -77 -190 -220c0 -97 35 -225 196 -225c79 0 150 58 194 132z" />
    <glyph glyph-name="currency.taboldstyle" horiz-adv-x="513" 
d="M100 249c0 45 18 85 48 114l-78 90l8 8l79 -90c27 22 62 36 100 36c37 0 72 -14 99 -36l78 90l9 -8l-78 -89c31 -29 50 -70 50 -115s-19 -86 -49 -114l76 -86l-9 -9l-77 87c-27 -22 -62 -35 -99 -35c-38 0 -73 13 -100 35l-76 -87l-9 9l76 86c-30 29 -48 69 -48 114z
M112 249c0 -79 66 -145 145 -145s146 66 146 145s-67 146 -146 146s-145 -67 -145 -146z" />
    <glyph glyph-name="cent.taboldstyle" 
d="M330 500c-140 0 -210 -120 -210 -250s70 -250 210 -250c70 0 102 14 158 35l2 -10c-48 -21 -90 -35 -160 -35c-140 0 -220 110 -220 260s80 260 220 260c70 0 112 -14 160 -35l-2 -10c-56 21 -88 35 -158 35zM330 -130h-10v100h10v-100zM330 530h-10v100h10v-100z" />
    <glyph glyph-name="dollar.taboldstyle" 
d="M300 253c-92 19 -165 47 -165 137c0 70 60 120 160 120c70 0 120 -10 180 -30l-3 -10c-75 25 -127 30 -177 30c-140 0 -150 -93 -150 -110c0 -50 18 -100 159 -128c124 -25 171 -67 171 -147c0 -65 -55 -125 -160 -125c-70 0 -130 10 -190 30l3 10
c75 -25 137 -30 187 -30c140 0 150 98 150 115c0 50 -17 108 -165 138zM305 -130h-10v100h10v-100zM305 530h-10v100h10v-100z" />
    <glyph glyph-name="Euro.taboldstyle" 
d="M85 300h53c16 123 93 210 217 210c70 0 112 -14 160 -35l-2 -10c-56 21 -88 35 -158 35c-122 0 -191 -91 -207 -200h167v-10h-168c-2 -13 -2 -27 -2 -40c0 -14 0 -27 2 -40h168v-10h-167c16 -109 85 -200 207 -200c70 0 102 14 158 35l2 -10c-48 -21 -90 -35 -160 -35
c-124 0 -201 86 -217 210h-53v10h52c-2 13 -2 26 -2 40c0 13 0 27 2 40h-52v10z" />
    <glyph glyph-name="franc.taboldstyle" 
d="M85 300h53c16 123 93 210 217 210c70 0 112 -14 160 -35l-2 -10c-56 21 -88 35 -158 35c-122 0 -191 -91 -207 -200h167v-10h-168c-2 -13 -2 -27 -2 -40c0 -14 0 -27 2 -40h168v-10h-167c16 -109 85 -200 207 -200c70 0 102 14 158 35l2 -10c-48 -21 -90 -35 -160 -35
c-124 0 -201 86 -217 210h-53v10h52c-2 13 -2 26 -2 40c0 13 0 27 2 40h-52v10z" />
    <glyph glyph-name="sterling.taboldstyle" 
d="M315 250h-170v-240h350v-10h-410v10h50v240h-50v10h50v110c0 105 90 140 180 140c86 0 150 -20 200 -50l-5 -9c-70 39 -131 49 -195 49c-130 0 -170 -65 -170 -130v-110h170v-10z" />
    <glyph glyph-name="yen.taboldstyle" 
d="M308 185h132v-10h-135v-175h-10v175h-135v10h132l-202 315h12l197 -307h2l197 307h12z" />
    <glyph glyph-name="lira.taboldstyle" 
d="M85 300h53c16 123 93 210 217 210c70 0 112 -14 160 -35l-2 -10c-56 21 -88 35 -158 35c-122 0 -191 -91 -207 -200h167v-10h-168c-2 -13 -2 -27 -2 -40c0 -14 0 -27 2 -40h168v-10h-167c16 -109 85 -200 207 -200c70 0 102 14 158 35l2 -10c-48 -21 -90 -35 -160 -35
c-124 0 -201 86 -217 210h-53v10h52c-2 13 -2 26 -2 40c0 13 0 27 2 40h-52v10z" />
    <glyph glyph-name="peseta.taboldstyle" 
d="M85 300h53c16 123 93 210 217 210c70 0 112 -14 160 -35l-2 -10c-56 21 -88 35 -158 35c-122 0 -191 -91 -207 -200h167v-10h-168c-2 -13 -2 -27 -2 -40c0 -14 0 -27 2 -40h168v-10h-167c16 -109 85 -200 207 -200c70 0 102 14 158 35l2 -10c-48 -21 -90 -35 -160 -35
c-124 0 -201 86 -217 210h-53v10h52c-2 13 -2 26 -2 40c0 13 0 27 2 40h-52v10z" />
    <glyph glyph-name="colonmonetary.taboldstyle" 
d="M330 500c-140 0 -210 -120 -210 -250s70 -250 210 -250c70 0 102 14 158 35l2 -10c-48 -21 -90 -35 -160 -35c-140 0 -220 110 -220 260s80 260 220 260c70 0 112 -14 160 -35l-2 -10c-56 21 -88 35 -158 35zM280 -130h-10v100h10v-100zM280 530h-10v100h10v-100z
M380 -130h-10v100h10v-100zM380 530h-10v100h10v-100z" />
    <glyph glyph-name="florin.taboldstyle" 
d="M295 -50v540h-90v8l90 2v40c0 127 40 160 120 160c18 0 42 -2 65 -5l-2 -10c-28 4 -44 5 -63 5c-90 0 -110 -52 -110 -150v-40h170v-10h-170v-540c0 -127 -40 -160 -120 -160c-18 0 -42 2 -65 5l2 10c28 -4 44 -5 63 -5c90 0 110 52 110 150z" />
    <glyph glyph-name="numbersign.taboldstyle" 
d="M216 500h10l-15 -140h200l15 140h10l-15 -140h100l-1 -10h-100l-21 -200h100l-1 -10h-100l-15 -140h-10l15 140h-200l-15 -140h-10l15 140h-100l1 10h100l21 200h-100l1 10h100zM210 350l-21 -200h200l21 200h-200z" />
    <glyph glyph-name="zerosuperior" unicode="&#x2070;" horiz-adv-x="338" 
d="M169 862c-82 0 -99 -83 -99 -164c0 -82 17 -170 99 -170s100 88 100 170c0 81 -18 164 -100 164zM169 520c-86 0 -109 82 -109 178c0 92 23 172 109 172s109 -80 109 -172c0 -96 -23 -178 -109 -178z" />
    <glyph glyph-name="foursuperior" unicode="&#x2074;" horiz-adv-x="348" 
d="M71 642h154v215c-37 -75 -97 -152 -154 -215zM221 870h13v-228h54v-9h-54v-103h-9v103h-165v9c55 60 125 148 161 228z" />
    <glyph glyph-name="fivesuperior" unicode="&#x2075;" horiz-adv-x="328" 
d="M157 520c-39 0 -68 11 -97 26l3 7c36 -19 63 -24 92 -25c59 0 104 39 104 102c0 45 -22 95 -90 95c-36 0 -64 -17 -86 -49l-8 1l10 188h163v-8h-155l-10 -170l1 -1c18 27 48 48 86 48c62 0 98 -40 98 -103c0 -70 -46 -111 -111 -111z" />
    <glyph glyph-name="sixsuperior" unicode="&#x2076;" horiz-adv-x="328" 
d="M69 693h1c23 35 56 59 95 59c65 0 103 -42 103 -117c0 -72 -45 -115 -100 -115c-91 0 -108 77 -108 155c0 145 59 195 131 195c32 0 48 -5 66 -11l-2 -8c-22 7 -39 11 -64 11c-110 0 -119 -126 -122 -169zM70 681c-2 -80 14 -153 96 -153c49 0 92 38 92 107
c0 47 -17 109 -95 109c-38 0 -72 -28 -93 -63z" />
    <glyph glyph-name="sevensuperior" unicode="&#x2077;" horiz-adv-x="323" 
d="M252 861v1h-192v8h203v-8c-60 -94 -124 -216 -143 -332h-10c15 104 90 252 142 331z" />
    <glyph glyph-name="eightsuperior" unicode="&#x2078;" horiz-adv-x="338" 
d="M180 705c51 -21 98 -43 98 -97c0 -51 -34 -88 -109 -88s-109 37 -109 88c0 54 49 79 98 95c-49 18 -88 39 -88 87s37 80 99 80s99 -32 99 -80c0 -47 -37 -67 -88 -85zM69 608c0 -41 25 -80 100 -80s100 39 100 80c0 53 -52 73 -101 91c-48 -16 -99 -39 -99 -91zM169 862
c-30 0 -90 -10 -90 -73c0 -44 40 -66 91 -81c50 17 89 37 89 81c0 63 -60 73 -90 73z" />
    <glyph glyph-name="ninesuperior" unicode="&#x2079;" horiz-adv-x="328" 
d="M259 697h-1c-23 -35 -56 -59 -95 -59c-65 0 -103 42 -103 117c0 72 45 115 100 115c91 0 108 -77 108 -155c0 -145 -59 -195 -131 -195c-32 0 -48 5 -66 11l2 8c22 -7 39 -11 64 -11c110 0 119 126 122 169zM258 709c2 80 -14 153 -96 153c-49 0 -92 -38 -92 -107
c0 -47 17 -109 95 -109c38 0 72 28 93 63z" />
    <glyph glyph-name="parenleftsuperior" unicode="&#x207d;" horiz-adv-x="211" 
d="M60 690c0 82 33 170 82 240h9c-55 -85 -82 -160 -82 -240s27 -155 82 -240h-9c-49 70 -82 158 -82 240z" />
    <glyph glyph-name="parenrightsuperior" unicode="&#x207e;" horiz-adv-x="211" 
d="M151 690c0 -82 -33 -170 -82 -240h-9c55 85 82 160 82 240s-27 155 -82 240h9c49 -70 82 -158 82 -240z" />
    <glyph glyph-name="hyphensuperior" horiz-adv-x="293" 
d="M60 715h173v-9h-173v9z" />
    <glyph glyph-name="commasuperior" horiz-adv-x="147" 
d="M69 465h-9c17 36 18 81 18 117h9c0 -36 0 -81 -18 -117z" />
    <glyph glyph-name="periodsuperior" horiz-adv-x="129" 
d="M60 582h9v-52h-9v52z" />
    <glyph glyph-name="centsuperior" horiz-adv-x="367" 
d="M195 861c-98 0 -125 -82 -125 -163c0 -82 27 -169 125 -169c46 0 80 17 108 42l4 -8c-16 -14 -48 -43 -113 -43c-100 0 -134 82 -134 178c0 92 34 172 134 172c65 0 97 -29 113 -42l-4 -9c-28 25 -62 42 -108 42zM201 440h-8v60h8v-60zM201 890h-8v60h8v-60z" />
    <glyph glyph-name="dollarsuperior" horiz-adv-x="348" 
d="M182 440h-8v60h8v-60zM182 890h-8v60h8v-60zM182 693c-49 11 -112 39 -112 96c0 58 46 81 107 81c43 0 80 -10 106 -25l-5 -8c-35 19 -70 24 -101 24c-58 0 -97 -20 -97 -72c0 -58 75 -80 105 -87c49 -11 103 -33 103 -91s-46 -91 -112 -91c-43 0 -88 12 -116 31l5 7
c34 -22 79 -29 112 -29c61 0 101 31 101 82c0 58 -66 75 -96 82z" />
    <glyph glyph-name="zeroinferior" unicode="&#x2080;" horiz-adv-x="338" 
d="M169 132c-82 0 -99 -83 -99 -164c0 -82 17 -170 99 -170s100 88 100 170c0 81 -18 164 -100 164zM169 -210c-86 0 -109 82 -109 178c0 92 23 172 109 172s109 -80 109 -172c0 -96 -23 -178 -109 -178z" />
    <glyph glyph-name="oneinferior" unicode="&#x2081;" horiz-adv-x="308" 
d="M59 -192h110v321l-105 -63l-4 8c40 22 85 48 113 69h5v-335h110v-8h-229v8z" />
    <glyph glyph-name="twoinferior" unicode="&#x2082;" horiz-adv-x="318" 
d="M156 136c-29 0 -56 -5 -93 -24l-3 8c29 14 58 25 97 25c68 0 96 -47 96 -98c0 -70 -53 -148 -180 -237v-1h185v-9h-198v11c164 114 184 194 184 233c0 83 -64 92 -88 92z" />
    <glyph glyph-name="threeinferior" unicode="&#x2083;" horiz-adv-x="328" 
d="M184 -34c49 -7 84 -38 84 -85c0 -57 -34 -91 -109 -91c-35 0 -74 7 -99 23l4 8c25 -15 58 -23 95 -23c87 0 99 50 99 75c0 46 -23 88 -106 88h-38v8h37c61 0 98 40 98 83c0 28 -11 80 -91 80c-33 0 -62 -11 -84 -23l-4 8c24 14 58 23 90 23c67 0 98 -35 98 -88
c0 -47 -37 -76 -74 -86z" />
    <glyph glyph-name="fourinferior" unicode="&#x2084;" horiz-adv-x="348" 
d="M71 -88h154v215c-37 -75 -97 -152 -154 -215zM221 140h13v-228h54v-9h-54v-103h-9v103h-165v9c55 60 125 148 161 228z" />
    <glyph glyph-name="fiveinferior" unicode="&#x2085;" horiz-adv-x="328" 
d="M157 -210c-39 0 -68 11 -97 26l3 7c36 -19 63 -24 92 -25c59 0 104 39 104 102c0 45 -22 95 -90 95c-36 0 -64 -17 -86 -49l-8 1l10 188h163v-8h-155l-10 -170l1 -1c18 27 48 48 86 48c62 0 98 -40 98 -103c0 -70 -46 -111 -111 -111z" />
    <glyph glyph-name="sixinferior" unicode="&#x2086;" horiz-adv-x="328" 
d="M69 -37h1c23 35 56 59 95 59c65 0 103 -42 103 -117c0 -72 -45 -115 -100 -115c-91 0 -108 77 -108 155c0 145 59 195 131 195c32 0 48 -5 66 -11l-2 -8c-22 7 -39 11 -64 11c-110 0 -119 -126 -122 -169zM70 -49c-2 -80 14 -153 96 -153c49 0 92 38 92 107
c0 47 -17 109 -95 109c-38 0 -72 -28 -93 -63z" />
    <glyph glyph-name="seveninferior" unicode="&#x2087;" horiz-adv-x="323" 
d="M252 131v1h-192v8h203v-8c-60 -94 -124 -216 -143 -332h-10c15 104 90 252 142 331z" />
    <glyph glyph-name="eightinferior" unicode="&#x2088;" horiz-adv-x="338" 
d="M180 -25c51 -21 98 -43 98 -97c0 -51 -34 -88 -109 -88s-109 37 -109 88c0 54 49 79 98 95c-49 18 -88 39 -88 87s37 80 99 80s99 -32 99 -80c0 -47 -37 -67 -88 -85zM69 -122c0 -41 25 -80 100 -80s100 39 100 80c0 53 -52 73 -101 91c-48 -16 -99 -39 -99 -91zM169 132
c-30 0 -90 -10 -90 -73c0 -44 40 -66 91 -81c50 17 89 37 89 81c0 63 -60 73 -90 73z" />
    <glyph glyph-name="nineinferior" unicode="&#x2089;" horiz-adv-x="328" 
d="M259 -33h-1c-23 -35 -56 -59 -95 -59c-65 0 -103 42 -103 117c0 72 45 115 100 115c91 0 108 -77 108 -155c0 -145 -59 -195 -131 -195c-32 0 -48 5 -66 11l2 8c22 -7 39 -11 64 -11c110 0 119 126 122 169zM258 -21c2 80 -14 153 -96 153c-49 0 -92 -38 -92 -107
c0 -47 17 -109 95 -109c38 0 72 28 93 63z" />
    <glyph glyph-name="parenleftinferior" unicode="&#x208d;" horiz-adv-x="211" 
d="M60 -40c0 82 33 170 82 240h9c-55 -85 -82 -160 -82 -240s27 -155 82 -240h-9c-49 70 -82 158 -82 240z" />
    <glyph glyph-name="parenrightinferior" unicode="&#x208e;" horiz-adv-x="211" 
d="M151 -40c0 -82 -33 -170 -82 -240h-9c55 85 82 160 82 240s-27 155 -82 240h9c49 -70 82 -158 82 -240z" />
    <glyph glyph-name="hypheninferior" horiz-adv-x="293" 
d="M60 -15h173v-9h-173v9z" />
    <glyph glyph-name="commainferior" horiz-adv-x="147" 
d="M69 -265h-9c17 36 18 81 18 117h9c0 -36 0 -81 -18 -117z" />
    <glyph glyph-name="periodinferior" horiz-adv-x="129" 
d="M60 -148h9v-52h-9v52z" />
    <glyph glyph-name="centinferior" horiz-adv-x="367" 
d="M195 131c-98 0 -125 -82 -125 -163c0 -82 27 -169 125 -169c46 0 80 17 108 42l4 -8c-16 -14 -48 -43 -113 -43c-100 0 -134 82 -134 178c0 92 34 172 134 172c65 0 97 -29 113 -42l-4 -9c-28 25 -62 42 -108 42zM201 -290h-8v60h8v-60zM201 160h-8v60h8v-60z" />
    <glyph glyph-name="dollarinferior" horiz-adv-x="348" 
d="M182 -290h-8v60h8v-60zM182 160h-8v60h8v-60zM182 -37c-49 11 -112 39 -112 96c0 58 46 81 107 81c43 0 80 -10 106 -25l-5 -8c-35 19 -70 24 -101 24c-58 0 -97 -20 -97 -72c0 -58 75 -80 105 -87c49 -11 103 -33 103 -91s-46 -91 -112 -91c-43 0 -88 12 -116 31l5 7
c34 -22 79 -29 112 -29c61 0 101 31 101 82c0 58 -66 75 -96 82z" />
    <glyph glyph-name="zero.denominator" horiz-adv-x="338" 
d="M169 332c-82 0 -99 -83 -99 -164c0 -82 17 -170 99 -170s100 88 100 170c0 81 -18 164 -100 164zM169 -10c-86 0 -109 82 -109 178c0 92 23 172 109 172s109 -80 109 -172c0 -96 -23 -178 -109 -178z" />
    <glyph glyph-name="one.denominator" horiz-adv-x="308" 
d="M59 8h110v321l-105 -63l-4 8c40 22 85 48 113 69h5v-335h110v-8h-229v8z" />
    <glyph glyph-name="two.denominator" horiz-adv-x="318" 
d="M156 336c-29 0 -56 -5 -93 -24l-3 8c29 14 58 25 97 25c68 0 96 -47 96 -98c0 -70 -53 -148 -180 -237v-1h185v-9h-198v11c164 114 184 194 184 233c0 83 -64 92 -88 92z" />
    <glyph glyph-name="three.denominator" horiz-adv-x="328" 
d="M184 166c49 -7 84 -38 84 -85c0 -57 -34 -91 -109 -91c-35 0 -74 7 -99 23l4 8c25 -15 58 -23 95 -23c87 0 99 50 99 75c0 46 -23 88 -106 88h-38v8h37c61 0 98 40 98 83c0 28 -11 80 -91 80c-33 0 -62 -11 -84 -23l-4 8c24 14 58 23 90 23c67 0 98 -35 98 -88
c0 -47 -37 -76 -74 -86z" />
    <glyph glyph-name="four.denominator" horiz-adv-x="348" 
d="M71 112h154v215c-37 -75 -97 -152 -154 -215zM221 340h13v-228h54v-9h-54v-103h-9v103h-165v9c55 60 125 148 161 228z" />
    <glyph glyph-name="five.denominator" horiz-adv-x="328" 
d="M157 -10c-39 0 -68 11 -97 26l3 7c36 -19 63 -24 92 -25c59 0 104 39 104 102c0 45 -22 95 -90 95c-36 0 -64 -17 -86 -49l-8 1l10 188h163v-8h-155l-10 -170l1 -1c18 27 48 48 86 48c62 0 98 -40 98 -103c0 -70 -46 -111 -111 -111z" />
    <glyph glyph-name="six.denominator" horiz-adv-x="328" 
d="M69 163h1c23 35 56 59 95 59c65 0 103 -42 103 -117c0 -72 -45 -115 -100 -115c-91 0 -108 77 -108 155c0 145 59 195 131 195c32 0 48 -5 66 -11l-2 -8c-22 7 -39 11 -64 11c-110 0 -119 -126 -122 -169zM70 151c-2 -80 14 -153 96 -153c49 0 92 38 92 107
c0 47 -17 109 -95 109c-38 0 -72 -28 -93 -63z" />
    <glyph glyph-name="seven.denominator" horiz-adv-x="323" 
d="M252 331v1h-192v8h203v-8c-60 -94 -124 -216 -143 -332h-10c15 104 90 252 142 331z" />
    <glyph glyph-name="eight.denominator" horiz-adv-x="338" 
d="M180 175c51 -21 98 -43 98 -97c0 -51 -34 -88 -109 -88s-109 37 -109 88c0 54 49 79 98 95c-49 18 -88 39 -88 87s37 80 99 80s99 -32 99 -80c0 -47 -37 -67 -88 -85zM69 78c0 -41 25 -80 100 -80s100 39 100 80c0 53 -52 73 -101 91c-48 -16 -99 -39 -99 -91zM169 332
c-30 0 -90 -10 -90 -73c0 -44 40 -66 91 -81c50 17 89 37 89 81c0 63 -60 73 -90 73z" />
    <glyph glyph-name="nine.denominator" horiz-adv-x="328" 
d="M259 167h-1c-23 -35 -56 -59 -95 -59c-65 0 -103 42 -103 117c0 72 45 115 100 115c91 0 108 -77 108 -155c0 -145 -59 -195 -131 -195c-32 0 -48 5 -66 11l2 8c22 -7 39 -11 64 -11c110 0 119 126 122 169zM258 179c2 80 -14 153 -96 153c-49 0 -92 -38 -92 -107
c0 -47 17 -109 95 -109c38 0 72 28 93 63z" />
    <glyph glyph-name="parenleft.denominator" horiz-adv-x="211" 
d="M60 160c0 82 33 170 82 240h9c-55 -85 -82 -160 -82 -240s27 -155 82 -240h-9c-49 70 -82 158 -82 240z" />
    <glyph glyph-name="parenright.denominator" horiz-adv-x="211" 
d="M151 160c0 -82 -33 -170 -82 -240h-9c55 85 82 160 82 240s-27 155 -82 240h9c49 -70 82 -158 82 -240z" />
    <glyph glyph-name="cent.denominator" horiz-adv-x="367" 
d="M195 331c-98 0 -125 -82 -125 -163c0 -82 27 -169 125 -169c46 0 80 17 108 42l4 -8c-16 -14 -48 -43 -113 -43c-100 0 -134 82 -134 178c0 92 34 172 134 172c65 0 97 -29 113 -42l-4 -9c-28 25 -62 42 -108 42zM201 -90h-8v60h8v-60zM201 360h-8v60h8v-60z" />
    <glyph glyph-name="dollar.denominator" horiz-adv-x="348" 
d="M182 -90h-8v60h8v-60zM182 360h-8v60h8v-60zM182 163c-49 11 -112 39 -112 96c0 58 46 81 107 81c43 0 80 -10 106 -25l-5 -8c-35 19 -70 24 -101 24c-58 0 -97 -20 -97 -72c0 -58 75 -80 105 -87c49 -11 103 -33 103 -91s-46 -91 -112 -91c-43 0 -88 12 -116 31l5 7
c34 -22 79 -29 112 -29c61 0 101 31 101 82c0 58 -66 75 -96 82z" />
    <glyph glyph-name="hyphen.denominator" horiz-adv-x="293" 
d="M60 185h173v-9h-173v9z" />
    <glyph glyph-name="comma.denominator" horiz-adv-x="147" 
d="M69 -65h-9c17 36 18 81 18 117h9c0 -36 0 -81 -18 -117z" />
    <glyph glyph-name="period.denominator" horiz-adv-x="129" 
d="M60 52h9v-52h-9v52z" />
    <glyph glyph-name="zero.numerator" horiz-adv-x="338" 
d="M169 662c-82 0 -99 -83 -99 -164c0 -82 17 -170 99 -170s100 88 100 170c0 81 -18 164 -100 164zM169 320c-86 0 -109 82 -109 178c0 92 23 172 109 172s109 -80 109 -172c0 -96 -23 -178 -109 -178z" />
    <glyph glyph-name="one.numerator" horiz-adv-x="308" 
d="M59 338h110v321l-105 -63l-4 8c40 22 85 48 113 69h5v-335h110v-8h-229v8z" />
    <glyph glyph-name="two.numerator" horiz-adv-x="318" 
d="M156 666c-29 0 -56 -5 -93 -24l-3 8c29 14 58 25 97 25c68 0 96 -47 96 -98c0 -70 -53 -148 -180 -237v-1h185v-9h-198v11c164 114 184 194 184 233c0 83 -64 92 -88 92z" />
    <glyph glyph-name="three.numerator" horiz-adv-x="328" 
d="M184 496c49 -7 84 -38 84 -85c0 -57 -34 -91 -109 -91c-35 0 -74 7 -99 23l4 8c25 -15 58 -23 95 -23c87 0 99 50 99 75c0 46 -23 88 -106 88h-38v8h37c61 0 98 40 98 83c0 28 -11 80 -91 80c-33 0 -62 -11 -84 -23l-4 8c24 14 58 23 90 23c67 0 98 -35 98 -88
c0 -47 -37 -76 -74 -86z" />
    <glyph glyph-name="four.numerator" horiz-adv-x="348" 
d="M71 442h154v215c-37 -75 -97 -152 -154 -215zM221 670h13v-228h54v-9h-54v-103h-9v103h-165v9c55 60 125 148 161 228z" />
    <glyph glyph-name="five.numerator" horiz-adv-x="328" 
d="M157 320c-39 0 -68 11 -97 26l3 7c36 -19 63 -24 92 -25c59 0 104 39 104 102c0 45 -22 95 -90 95c-36 0 -64 -17 -86 -49l-8 1l10 188h163v-8h-155l-10 -170l1 -1c18 27 48 48 86 48c62 0 98 -40 98 -103c0 -70 -46 -111 -111 -111z" />
    <glyph glyph-name="six.numerator" horiz-adv-x="328" 
d="M69 493h1c23 35 56 59 95 59c65 0 103 -42 103 -117c0 -72 -45 -115 -100 -115c-91 0 -108 77 -108 155c0 145 59 195 131 195c32 0 48 -5 66 -11l-2 -8c-22 7 -39 11 -64 11c-110 0 -119 -126 -122 -169zM70 481c-2 -80 14 -153 96 -153c49 0 92 38 92 107
c0 47 -17 109 -95 109c-38 0 -72 -28 -93 -63z" />
    <glyph glyph-name="seven.numerator" horiz-adv-x="323" 
d="M252 661v1h-192v8h203v-8c-60 -94 -124 -216 -143 -332h-10c15 104 90 252 142 331z" />
    <glyph glyph-name="eight.numerator" horiz-adv-x="338" 
d="M180 505c51 -21 98 -43 98 -97c0 -51 -34 -88 -109 -88s-109 37 -109 88c0 54 49 79 98 95c-49 18 -88 39 -88 87s37 80 99 80s99 -32 99 -80c0 -47 -37 -67 -88 -85zM69 408c0 -41 25 -80 100 -80s100 39 100 80c0 53 -52 73 -101 91c-48 -16 -99 -39 -99 -91zM169 662
c-30 0 -90 -10 -90 -73c0 -44 40 -66 91 -81c50 17 89 37 89 81c0 63 -60 73 -90 73z" />
    <glyph glyph-name="nine.numerator" horiz-adv-x="328" 
d="M259 497h-1c-23 -35 -56 -59 -95 -59c-65 0 -103 42 -103 117c0 72 45 115 100 115c91 0 108 -77 108 -155c0 -145 -59 -195 -131 -195c-32 0 -48 5 -66 11l2 8c22 -7 39 -11 64 -11c110 0 119 126 122 169zM258 509c2 80 -14 153 -96 153c-49 0 -92 -38 -92 -107
c0 -47 17 -109 95 -109c38 0 72 28 93 63z" />
    <glyph glyph-name="parenleft.numerator" horiz-adv-x="211" 
d="M60 490c0 82 33 170 82 240h9c-55 -85 -82 -160 -82 -240s27 -155 82 -240h-9c-49 70 -82 158 -82 240z" />
    <glyph glyph-name="parenright.numerator" horiz-adv-x="211" 
d="M151 490c0 -82 -33 -170 -82 -240h-9c55 85 82 160 82 240s-27 155 -82 240h9c49 -70 82 -158 82 -240z" />
    <glyph glyph-name="cent.numerator" horiz-adv-x="367" 
d="M195 661c-98 0 -125 -82 -125 -163c0 -82 27 -169 125 -169c46 0 80 17 108 42l4 -8c-16 -14 -48 -43 -113 -43c-100 0 -134 82 -134 178c0 92 34 172 134 172c65 0 97 -29 113 -42l-4 -9c-28 25 -62 42 -108 42zM201 240h-8v60h8v-60zM201 690h-8v60h8v-60z" />
    <glyph glyph-name="dollar.numerator" horiz-adv-x="348" 
d="M182 240h-8v60h8v-60zM182 690h-8v60h8v-60zM182 493c-49 11 -112 39 -112 96c0 58 46 81 107 81c43 0 80 -10 106 -25l-5 -8c-35 19 -70 24 -101 24c-58 0 -97 -20 -97 -72c0 -58 75 -80 105 -87c49 -11 103 -33 103 -91s-46 -91 -112 -91c-43 0 -88 12 -116 31l5 7
c34 -22 79 -29 112 -29c61 0 101 31 101 82c0 58 -66 75 -96 82z" />
    <glyph glyph-name="hyphen.numerator" horiz-adv-x="293" 
d="M60 515h173v-9h-173v9z" />
    <glyph glyph-name="comma.numerator" horiz-adv-x="147" 
d="M69 265h-9c17 36 18 81 18 117h9c0 -36 0 -81 -18 -117z" />
    <glyph glyph-name="period.numerator" horiz-adv-x="129" 
d="M60 382h9v-52h-9v52z" />
    <glyph glyph-name="onethird" unicode="&#x2153;" horiz-adv-x="800" 
d="M656 166c49 -7 84 -38 84 -85c0 -57 -34 -91 -109 -91c-35 0 -74 7 -99 23l4 8c25 -15 58 -23 95 -23c87 0 99 50 99 75c0 46 -23 88 -106 88h-38v8h37c61 0 98 40 98 83c0 28 -11 80 -91 80c-33 0 -62 -11 -84 -23l-4 8c24 14 58 23 90 23c67 0 98 -35 98 -88
c0 -47 -37 -76 -74 -86zM597 680l-370 -680h-10l370 680h10zM60 338h110v321l-105 -63l-4 8c40 22 85 48 113 69h5v-335h110v-8h-229v8z" />
    <glyph glyph-name="oneeighth" unicode="&#x215b;" horiz-adv-x="800" 
d="M642 175c51 -21 98 -43 98 -97c0 -51 -34 -88 -109 -88s-109 37 -109 88c0 54 49 79 98 95c-49 18 -88 39 -88 87s37 80 99 80s99 -32 99 -80c0 -47 -37 -67 -88 -85zM531 78c0 -41 25 -80 100 -80s100 39 100 80c0 53 -52 73 -101 91c-48 -16 -99 -39 -99 -91zM631 332
c-30 0 -90 -10 -90 -73c0 -44 40 -66 91 -81c50 17 89 37 89 81c0 63 -60 73 -90 73zM597 680l-370 -680h-10l370 680h10zM60 338h110v321l-105 -63l-4 8c40 22 85 48 113 69h5v-335h110v-8h-229v8z" />
    <glyph glyph-name="twothirds" unicode="&#x2154;" horiz-adv-x="800" 
d="M597 680l-370 -680h-10l370 680h10zM656 166c49 -7 84 -38 84 -85c0 -57 -34 -91 -109 -91c-35 0 -74 7 -99 23l4 8c25 -15 58 -23 95 -23c87 0 99 50 99 75c0 46 -23 88 -106 88h-38v8h37c61 0 98 40 98 83c0 28 -11 80 -91 80c-33 0 -62 -11 -84 -23l-4 8
c24 14 58 23 90 23c67 0 98 -35 98 -88c0 -47 -37 -76 -74 -86zM156 666c-29 0 -56 -5 -93 -24l-3 8c29 14 58 25 97 25c68 0 96 -47 96 -98c0 -70 -53 -148 -180 -237v-1h185v-9h-198v11c164 114 184 194 184 233c0 83 -64 92 -88 92z" />
    <glyph glyph-name="threeeighths" unicode="&#x215c;" horiz-adv-x="800" 
d="M592 680l-370 -680h-10l370 680h10zM642 175c51 -21 98 -43 98 -97c0 -51 -34 -88 -109 -88s-109 37 -109 88c0 54 49 79 98 95c-49 18 -88 39 -88 87s37 80 99 80s99 -32 99 -80c0 -47 -37 -67 -88 -85zM531 78c0 -41 25 -80 100 -80s100 39 100 80c0 53 -52 73 -101 91
c-48 -16 -99 -39 -99 -91zM631 332c-30 0 -90 -10 -90 -73c0 -44 40 -66 91 -81c50 17 89 37 89 81c0 63 -60 73 -90 73zM184 496c49 -7 84 -38 84 -85c0 -57 -34 -91 -109 -91c-35 0 -74 7 -99 23l4 8c25 -15 58 -23 95 -23c87 0 99 50 99 75c0 46 -23 88 -106 88h-38v8h37
c61 0 98 40 98 83c0 28 -11 80 -91 80c-33 0 -62 -11 -84 -23l-4 8c24 14 58 23 90 23c67 0 98 -35 98 -88c0 -47 -37 -76 -74 -86z" />
    <glyph glyph-name="fiveeighths" unicode="&#x215d;" horiz-adv-x="800" 
d="M592 680l-370 -680h-10l370 680h10zM642 175c51 -21 98 -43 98 -97c0 -51 -34 -88 -109 -88s-109 37 -109 88c0 54 49 79 98 95c-49 18 -88 39 -88 87s37 80 99 80s99 -32 99 -80c0 -47 -37 -67 -88 -85zM531 78c0 -41 25 -80 100 -80s100 39 100 80c0 53 -52 73 -101 91
c-48 -16 -99 -39 -99 -91zM631 332c-30 0 -90 -10 -90 -73c0 -44 40 -66 91 -81c50 17 89 37 89 81c0 63 -60 73 -90 73zM157 320c-39 0 -68 11 -97 26l3 7c36 -19 63 -24 92 -25c59 0 104 39 104 102c0 45 -22 95 -90 95c-36 0 -64 -17 -86 -49l-8 1l10 188h163v-8h-155
l-10 -170l1 -1c18 27 48 48 86 48c62 0 98 -40 98 -103c0 -70 -46 -111 -111 -111z" />
    <glyph glyph-name="seveneighths" unicode="&#x215e;" horiz-adv-x="800" 
d="M542 680l-370 -680h-10l370 680h10zM642 175c51 -21 98 -43 98 -97c0 -51 -34 -88 -109 -88s-109 37 -109 88c0 54 49 79 98 95c-49 18 -88 39 -88 87s37 80 99 80s99 -32 99 -80c0 -47 -37 -67 -88 -85zM531 78c0 -41 25 -80 100 -80s100 39 100 80c0 53 -52 73 -101 91
c-48 -16 -99 -39 -99 -91zM631 332c-30 0 -90 -10 -90 -73c0 -44 40 -66 91 -81c50 17 89 37 89 81c0 63 -60 73 -90 73zM252 661v1h-192v8h203v-8c-60 -94 -124 -216 -143 -332h-10c15 104 90 252 142 331z" />
    <glyph glyph-name="exclamsmall" horiz-adv-x="170" 
d="M80 100h10v-100h-10v100zM80 580h10v-370h-10v370z" />
    <glyph glyph-name="exclamdownsmall" horiz-adv-x="170" 
d="M90 480h-10v100h10v-100zM90 0h-10v370h10v-370z" />
    <glyph glyph-name="exclamdbl" unicode="&#x203c;" horiz-adv-x="270" 
d="M80 100h10v-100h-10v100zM80 680h10v-470h-10v470zM180 100h10v-100h-10v100zM180 680h10v-470h-10v470z" />
    <glyph glyph-name="ampersandsmall" unicode="&#xf726;" horiz-adv-x="905" 
d="M640 150v110h-550c0 -150 80 -260 220 -260c70 0 110 15 157 35l3 -10c-45 -20 -90 -35 -160 -35c-140 0 -230 110 -230 260s85 260 220 260c181 0 190 -168 173 -240h167l2 230h8v-230h170v-10h-170v-110c0 -98 20 -150 110 -150c19 0 35 1 63 5l2 -10
c-23 -3 -47 -5 -65 -5c-80 0 -120 33 -120 160zM300 500c-133 0 -202 -108 -210 -230h372c23 100 -12 230 -162 230z" />
    <glyph glyph-name="fraction" unicode="&#x2044;" horiz-adv-x="540" 
d="M460 680l-370 -680h-10l370 680h10z" />
    <glyph glyph-name="uni2215" unicode="&#x2215;" horiz-adv-x="540" 
d="M460 680l-370 -680h-10l370 680h10z" />
    <glyph glyph-name="uni2219" unicode="&#x2219;" horiz-adv-x="210" 
d="M100 300h10v-100h-10v100z" />
    <glyph glyph-name="at.cap" horiz-adv-x="830" 
d="M541 415v-259c204 0 249 160 249 250c0 194 -166 316 -356 316c-227 0 -394 -156 -394 -389c0 -216 153 -363 360 -363l-1 -10c-216 0 -369 160 -369 373c0 233 171 399 404 399c202 0 366 -132 366 -326c0 -142 -85 -260 -253 -260h-16v39h-2c-38 -30 -81 -46 -136 -46
c-77 0 -132 33 -132 104c0 73 42 116 164 116h106v56c0 72 -24 116 -114 116c-29 0 -79 -6 -127 -21l-3 9c40 14 93 22 130 22c82 0 124 -29 124 -126zM531 199v150h-106c-125 0 -154 -43 -154 -106c0 -54 37 -94 122 -94c71 0 115 30 138 50z" />
    <glyph glyph-name="parenleft.cap" horiz-adv-x="330" 
d="M95 340c0 164 67 340 165 480h10c-110 -170 -165 -320 -165 -480s55 -310 165 -480h-10c-98 140 -165 316 -165 480z" />
    <glyph glyph-name="parenright.cap" horiz-adv-x="330" 
d="M235 340c0 -164 -67 -340 -165 -480h-10c110 170 165 320 165 480s-55 310 -165 480h10c98 -140 165 -316 165 -480z" />
    <glyph glyph-name="bracketleft.cap" horiz-adv-x="300" 
d="M90 -130h150v-10h-160v960h160v-10h-150v-940z" />
    <glyph glyph-name="bracketright.cap" horiz-adv-x="300" 
d="M60 -130h150v940h-150v10h160v-960h-160v10z" />
    <glyph glyph-name="braceleft.cap" horiz-adv-x="340" 
d="M150 0c0 -130 75 -130 130 -130v-10c-94 0 -140 30 -140 146c0 61 10 130 10 189c0 64 0 125 -70 135v20c70 10 70 71 70 135c0 59 -10 128 -10 189c0 116 46 146 140 146v-10c-55 0 -130 0 -130 -130c0 -61 10 -159 10 -221c0 -79 -26 -109 -71 -118v-2
c45 -9 71 -39 71 -118c0 -62 -10 -160 -10 -221z" />
    <glyph glyph-name="braceright.cap" horiz-adv-x="340" 
d="M190 680c0 130 -75 130 -130 130v10c94 0 140 -30 140 -146c0 -61 -10 -130 -10 -189c0 -64 0 -125 70 -135v-20c-70 -10 -70 -71 -70 -135c0 -59 10 -128 10 -189c0 -116 -46 -146 -140 -146v10c55 0 130 0 130 130c0 61 -10 159 -10 221c0 79 26 109 71 118v2
c-45 9 -71 39 -71 118c0 62 10 160 10 221z" />
    <glyph glyph-name="exclamdown.cap" horiz-adv-x="170" 
d="M80 100h10v-100h-10v100zM80 680h10v-470h-10v470z" />
    <glyph glyph-name="questiondown.cap" horiz-adv-x="480" 
d="M245 -10c-140 0 -175 85 -175 160c0 191 210 171 210 290v30h10v-30c0 -124 -210 -107 -210 -290c0 -140 120 -150 170 -150c33 0 88 9 156 37l4 -10c-52 -20 -105 -37 -165 -37zM290 580h-10v100h10v-100z" />
    <glyph glyph-name="guillemotleft.cap" 
d="M80 295l220 165v-12l-210 -158l210 -158v-12l-220 165v10zM300 295l220 165v-12l-210 -158l210 -158v-12l-220 165v10z" />
    <glyph glyph-name="guillemotright.cap" 
d="M300 460l220 -165v-10l-220 -165v12l210 158l-210 158v12zM80 460l220 -165v-10l-220 -165v12l210 158l-210 158v12z" />
    <glyph glyph-name="guilsinglleft.cap" horiz-adv-x="380" 
d="M80 295l220 165v-12l-210 -158l210 -158v-12l-220 165v10z" />
    <glyph glyph-name="guilsinglright.cap" horiz-adv-x="380" 
d="M300 285l-220 -165v12l210 158l-210 158v12l220 -165v-10z" />
    <glyph glyph-name="hyphen.cap" horiz-adv-x="500" 
d="M80 310h340v-10h-340v10z" />
    <glyph glyph-name="endash.cap" horiz-adv-x="690" 
d="M80 310h530v-10h-530v10z" />
    <glyph glyph-name="emdash.cap" horiz-adv-x="760" 
d="M80 310h600v-10h-600v10z" />
    <glyph glyph-name="periodcentered.cap" horiz-adv-x="210" 
d="M100 360h10v-100h-10v100z" />
    <glyph glyph-name="lessequal" unicode="&#x2264;" horiz-adv-x="480" 
d="M80 305l320 165v-10l-310 -160l310 -160v-10l-320 165v10zM80 60h320v-10h-320v10z" />
    <glyph glyph-name="approxequal" unicode="&#x2248;" horiz-adv-x="515" 
d="M184 395c-20 0 -37 -1 -98 -61l-6 6c48 48 68 65 103 65c47 0 146 -70 180 -70c18 0 40 6 65 56l7 -4c-18 -35 -35 -62 -72 -62c-38 0 -141 70 -179 70zM184 195c-20 0 -37 -1 -98 -61l-6 6c48 48 68 65 103 65c47 0 146 -70 180 -70c18 0 40 6 65 56l7 -4
c-18 -35 -35 -62 -72 -62c-38 0 -141 70 -179 70z" />
    <glyph glyph-name="notequal" unicode="&#x2260;" horiz-adv-x="500" 
d="M80 170h113l104 190h-217v10h222l128 235h10l-128 -235h108v-10h-114l-103 -190h217v-10h-222l-128 -235h-10l128 235h-108v10z" />
    <glyph glyph-name="estimated" unicode="&#x212e;" horiz-adv-x="736" 
d="M706 349h-528v-235c54 -52 118 -78 190 -78c108 0 193 53 252 157l46 -26c-88 -125 -163 -177 -298 -177c-201 0 -338 154 -338 359c0 209 139 361 338 361c178 0 330 -121 338 -361zM178 397h380v189c-54 51 -118 77 -191 77c-75 0 -137 -26 -189 -77v-189z" />
    <glyph glyph-name="partialdiff" unicode="&#x2202;" horiz-adv-x="575" 
d="M487 332c1 0 2 1 3 1c6 84 28 347 -201 347c-50 0 -85 -7 -130 -20c0 3 -1 6 -1 9c35 10 68 21 133 21c143 0 245 -100 204 -390c-22 -156 -75 -310 -257 -310c-108 0 -185 86 -164 230c21 150 108 235 238 235c79 0 140 -50 175 -123zM487 313c-34 74 -97 132 -176 132
c-161 0 -214 -128 -227 -225c-20 -143 59 -220 159 -220c170 0 223 150 244 313z" />
    <glyph glyph-name="greaterequal" unicode="&#x2265;" horiz-adv-x="480" 
d="M80 470l320 -165v-10l-320 -165v10l310 160l-310 160v10zM80 60h320v-10h-320v10z" />
    <glyph glyph-name="questionsmall" unicode="&#xf73f;" horiz-adv-x="480" 
d="M235 610c115 0 175 -50 175 -130c0 -170 -210 -121 -210 -240v-30h-10v30c0 124 210 77 210 240c0 116 -130 120 -170 120c-33 0 -88 -9 -156 -37l-4 10c52 20 105 37 165 37zM190 100h10v-100h-10v100z" />
    <glyph glyph-name="questiondownsmall" horiz-adv-x="480" 
d="M245 0c-115 0 -175 50 -175 130c0 170 210 121 210 240v30h10v-30c0 -124 -210 -77 -210 -240c0 -116 130 -120 170 -120c33 0 88 9 156 37l4 -10c-52 -20 -105 -37 -165 -37zM290 510h-10v100h10v-100z" />
    <glyph glyph-name="percent.oldstyle" horiz-adv-x="760" 
d="M570 580l-370 -580h-10l370 580h10zM182 330c-79 0 -122 48 -122 125s43 125 122 125s122 -48 122 -125s-43 -125 -122 -125zM182 340c75 0 112 43 112 115s-37 115 -112 115s-112 -43 -112 -115s37 -115 112 -115zM578 0c-79 0 -122 48 -122 125s43 125 122 125
s122 -48 122 -125s-43 -125 -122 -125zM578 10c75 0 112 43 112 115s-37 115 -112 115s-112 -43 -112 -115s37 -115 112 -115z" />
    <glyph glyph-name="perthousand.oldstyle" horiz-adv-x="1060" 
d="M578 0c-79 0 -122 48 -122 125s43 125 122 125s122 -48 122 -125s-43 -125 -122 -125zM578 10c75 0 112 43 112 115s-37 115 -112 115s-112 -43 -112 -115s37 -115 112 -115zM878 0c-79 0 -122 48 -122 125s43 125 122 125s122 -48 122 -125s-43 -125 -122 -125zM878 10
c75 0 112 43 112 115s-37 115 -112 115s-112 -43 -112 -115s37 -115 112 -115zM570 580l-370 -580h-10l370 580h10zM182 330c-79 0 -122 48 -122 125s43 125 122 125s122 -48 122 -125s-43 -125 -122 -125zM182 340c75 0 112 43 112 115s-37 115 -112 115
s-112 -43 -112 -115s37 -115 112 -115z" />
    <glyph glyph-name="figuredash" unicode="&#x2012;" horiz-adv-x="690" 
d="M80 270h530v-10h-530v10z" />
    <glyph glyph-name="threequartersemdash" horiz-adv-x="760" 
d="M80 270h600v-10h-600v10z" />
    <glyph glyph-name="minus" unicode="&#x2212;" horiz-adv-x="500" 
d="M80 270h340v-10h-340v10z" />
    <glyph glyph-name="overscore" horiz-adv-x="420" 
d="M70 630h280v-10h-280v10z" />
    <glyph glyph-name="uni03BC" unicode="&#x3bc;" horiz-adv-x="530" 
d="M90 500v-362c3 -75 35 -138 140 -138c90 0 170 60 210 95v405h10v-500h-10v80h-2c-58 -50 -128 -90 -208 -90c-75 0 -121 27 -140 87v-127c0 -127 -40 -160 -120 -160c-18 0 -42 2 -65 5l2 10c28 -4 44 -5 63 -5c97 0 110 61 110 150v550h10z" />
    <glyph glyph-name="onedotenleader" unicode="&#x2024;" horiz-adv-x="170" 
d="M80 100h10v-100h-10v100z" />
    <glyph glyph-name="twodotenleader" unicode="&#x2025;" horiz-adv-x="270" 
d="M80 100h10v-100h-10v100zM180 100h10v-100h-10v100z" />
    <glyph glyph-name="afii61352" unicode="&#x2116;" horiz-adv-x="1094" 
d="M837 350c-109 0 -167 65 -167 170s58 170 167 170s167 -65 167 -170s-58 -170 -167 -170zM670 320h334v-10h-334v10zM837 360c102 0 157 62 157 160s-55 160 -157 160s-157 -62 -157 -160s55 -160 157 -160zM100 0h-10v680h10l448 -659h2v659h10v-680h-10l-448 659h-2
v-659z" />
    <glyph glyph-name="product" unicode="&#x220f;" horiz-adv-x="650" 
d="M100 0h-10v700h470v-700h-10v690h-450v-690z" />
    <glyph glyph-name="summation" unicode="&#x2211;" horiz-adv-x="550" 
d="M83 668l208 -329l-206 -327v-2h395v-10h-410v10l208 328l-208 332v10h410v-10h-397v-2z" />
    <glyph glyph-name="radical" unicode="&#x221a;" horiz-adv-x="810" 
d="M100 380v10h167l152 -378h2l277 688h12l-285 -705h-10l-156 385h-159z" />
    <glyph glyph-name="infinity" unicode="&#x221e;" horiz-adv-x="690" 
d="M179 382c-81 0 -139 -50 -139 -135c0 -71 50 -129 137 -129c92 0 144 92 159 129c-16 46 -73 135 -157 135zM343 236c-28 -63 -85 -128 -170 -128c-88 0 -143 55 -143 142c0 85 60 142 155 142c79 0 135 -75 158 -134c30 63 88 134 173 134c88 0 144 -55 144 -142
c0 -80 -54 -142 -151 -142c-61 0 -136 49 -166 128zM511 382c-81 0 -141 -85 -161 -135c24 -67 90 -129 159 -129c99 0 141 65 141 132c0 65 -39 132 -139 132z" />
    <glyph glyph-name="integral" unicode="&#x222b;" horiz-adv-x="345" 
d="M120 -90v630c0 127 40 160 120 160c18 0 42 -2 65 -5l-2 -10c-28 4 -44 5 -63 5c-90 0 -110 -52 -110 -150v-635c0 -86 -35 -115 -120 -115c-18 0 -42 2 -65 5l2 10c28 -4 44 -5 63 -5c90 0 110 35 110 110z" />
    <glyph glyph-name="lozenge" unicode="&#x25ca;" horiz-adv-x="472" 
d="M229 -30l-199 374l199 374h14l199 -374l-199 -374h-14zM41 344l195 -366l194 366l-194 366z" />
    <glyph glyph-name="uni037E" unicode="&#x37e;" horiz-adv-x="210" 
d="M100 300h10v-100h-10v100z" />
    <glyph glyph-name="litre" unicode="&#x2113;" horiz-adv-x="449" 
d="M42 156l-12 11l94 99v243c0 67 13 118 40 151c27 32 60 50 100 50c59 0 96 -39 96 -99c0 -34 -10 -71 -31 -112c-20 -41 -63 -100 -129 -176v-168c0 -51 8 -86 23 -106s35 -29 60 -29c22 0 44 9 64 29c21 19 39 53 54 103h18c-14 -55 -36 -97 -68 -127
c-24 -23 -54 -35 -89 -35c-58 0 -107 35 -127 90c-7 21 -11 56 -11 107v52zM200 543v-193c89 103 134 183 134 242c0 57 -30 89 -67 89c-19 0 -35 -9 -48 -28s-19 -55 -19 -110z" />
    <glyph glyph-name="tonos" unicode="&#x384;" horiz-adv-x="220" 
d="M150 680l-70 -120h-10l70 120h10z" />
    <glyph glyph-name="dieresistonos" unicode="&#x385;" horiz-adv-x="420" 
d="M70 680h10v-100h-10v100zM340 680h10v-100h-10v100zM260 700l-70 -120h-10l70 120h10z" />
    <glyph glyph-name="anoteleia" unicode="&#x387;" horiz-adv-x="420" 
d="M70 680h10v-100h-10v100zM340 680h10v-100h-10v100z" />
    <glyph glyph-name="Delta" unicode="&#x2206;" horiz-adv-x="628" 
d="M294 710l284 -710h-528zM295 685l-231 -675h499z" />
    <glyph glyph-name="Omega" unicode="&#x2126;" horiz-adv-x="670" 
d="M335 690c200 0 265 -140 265 -300c0 -137 -73 -260 -210 -265v-115h210v-10h-220v135c155 0 210 140 210 255c0 140 -55 290 -255 290s-255 -150 -255 -290c0 -115 55 -255 210 -255v-135h-220v10h210v115c-137 5 -210 128 -210 265c0 160 65 300 265 300z" />
    <glyph glyph-name="pi" unicode="&#x3c0;" horiz-adv-x="530" 
d="M90 0h-10v500h370v-500h-10v490h-350v-490z" />
    <glyph glyph-name="ampersand.alt" horiz-adv-x="840" 
d="M575 250h-305c-45 0 -180 -18 -180 -120c0 -75 48 -130 175 -130c47 0 105 5 170 30l4 -9c-70 -24 -114 -31 -179 -31c-123 0 -180 50 -180 140c0 75 65 111 135 123v2c-70 15 -115 55 -115 125c0 100 90 130 170 130c65 0 119 -12 170 -30l-3 -10
c-65 25 -130 30 -167 30c-60 0 -160 -20 -160 -120c0 -20 5 -120 160 -120h305l2 240h8v-240h170v-10h-170v-100c0 -98 20 -150 110 -150c19 0 35 1 63 5l2 -10c-23 -3 -47 -5 -65 -5c-80 0 -120 33 -120 160v100z" />
    <glyph glyph-name="sigma" unicode="&#x3c3;" horiz-adv-x="513" 
d="M100 249c0 45 18 85 48 114l-78 90l8 8l79 -90c27 22 62 36 100 36c37 0 72 -14 99 -36l78 90l9 -8l-78 -89c31 -29 50 -70 50 -115s-19 -86 -49 -114l76 -86l-9 -9l-77 87c-27 -22 -62 -35 -99 -35c-38 0 -73 13 -100 35l-76 -87l-9 9l76 86c-30 29 -48 69 -48 114z
M112 249c0 -79 66 -145 145 -145s146 66 146 145s-67 146 -146 146s-145 -67 -145 -146z" />
    <glyph glyph-name="uni03C2" unicode="&#x3c2;" horiz-adv-x="513" 
d="M100 249c0 45 18 85 48 114l-78 90l8 8l79 -90c27 22 62 36 100 36c37 0 72 -14 99 -36l78 90l9 -8l-78 -89c31 -29 50 -70 50 -115s-19 -86 -49 -114l76 -86l-9 -9l-77 87c-27 -22 -62 -35 -99 -35c-38 0 -73 13 -100 35l-76 -87l-9 9l76 86c-30 29 -48 69 -48 114z
M112 249c0 -79 66 -145 145 -145s146 66 146 145s-67 146 -146 146s-145 -67 -145 -146z" />
    </font>
</defs>
</svg>
