<svg id="Layer_1" data-name="Layer 1" xmlns="http://www.w3.org/2000/svg" width="444.07" height="141.22" viewBox="0 0 444.07 141.22"><title>OPNYPEHub_POS</title><rect width="19.84" height="141.22" style="fill:#f47920"/><path d="M60.31,121.19H46.93q-3.32,0-3.31-3.32V23q0-3.32,3.31-3.32H85.34q12.27,0,19,6.71t6.77,19V60.57q0,12.32-6.77,19t-19,6.71H65.5q-1.89,0-1.89,1.74v29.83Q63.61,121.19,60.31,121.19Zm5-52.41H82q5,0,7.08-2.13t2-7V46.36c0-3.36-.68-5.76-2-7.18S85.39,37.05,82,37.05H65.34a1.53,1.53,0,0,0-1.73,1.73V67A1.53,1.53,0,0,0,65.34,68.78Z" style="fill:#2d2926"/><path d="M174.74,121.19H123.27q-3.3,0-3.3-3.32V23q0-3.32,3.3-3.32h51.47q3.15,0,3.15,3.32V33.73q0,3.32-3.15,3.32H141.85c-1.26,0-1.89.58-1.89,1.73V59.31c0,1.16.63,1.73,1.89,1.73h26.91q3.31,0,3.31,3.32V75.09q0,3.31-3.31,3.32H141.85c-1.26,0-1.89.58-1.89,1.73v22c0,1.16.63,1.73,1.89,1.73h32.89q3.15,0,3.15,3.32v10.73Q177.89,121.19,174.74,121.19Z" style="fill:#2d2926"/><path d="M235.66,121.19H222.28c-2.2,0-3.31-1.11-3.31-3.32V23c0-2.21,1.11-3.32,3.31-3.32h13.38q3.3,0,3.3,3.32V60.1c0,1.15.63,1.73,1.89,1.73h26.61a1.53,1.53,0,0,0,1.73-1.73V23q0-3.32,3.3-3.32h13.38q3.31,0,3.31,3.32v94.87q0,3.31-3.31,3.32H272.49q-3.3,0-3.3-3.32V80.93a1.53,1.53,0,0,0-1.73-1.73H240.85c-1.26,0-1.89.58-1.89,1.73v36.94Q239,121.19,235.66,121.19Z" style="fill:#2d2926"/><path d="M330,121.19h-5.2q-12.12,0-18.34-6.63t-6.21-19.1V44q0-3.32,3.3-3.31h13.38q3.31,0,3.31,3.31V94.51q0,5.05,2.12,7.18c1.42,1.42,3.75,2.13,7,2.13h5.82q10.86,0,10.86-12V44q0-3.32,3.31-3.31h13.22Q366,40.68,366,44v73.88q0,3.31-3.46,3.32H349.31q-3.31,0-3.31-3.32v-5.21h-.63a12,12,0,0,1-6.14,6.4A21,21,0,0,1,330,121.19Z" style="fill:#2d2926"/><path d="M377,117.87V13.53q0-3.31,3.31-3.32H393.7q3.3,0,3.3,3.32V49.05h.63a12.3,12.3,0,0,1,6.14-6.48,20.49,20.49,0,0,1,9.29-2.21h5q12.42,0,19.2,6.63t6.77,19.1V95.46q0,12.47-6.77,19.1t-19.2,6.63H380.32Q377,121.19,377,117.87Zm21.72-14.05h16.06q5,0,7.16-2.13t2.13-7.18V67q0-5.06-2.13-7.18t-7.16-2.13h-6.93q-10.86,0-10.86,12v32.36A1.53,1.53,0,0,0,398.73,103.82Z" style="fill:#2d2926"/></svg>